M48
; DRILL file {KiCad 5.1.6-c6e7f7d~86~ubuntu20.04.1} date Fri May 29 14:12:23 2020
; FORMAT={-:-/ absolute / inch / decimal}
; #@! TF.CreationDate,2020-05-29T14:12:23+02:00
; #@! TF.GenerationSoftware,Kicad,Pcbnew,5.1.6-c6e7f7d~86~ubuntu20.04.1
FMAT,2
INCH
T1C0.0157
T2C0.0315
T3C0.0394
T4C0.0400
T5C0.0480
T6C0.0559
T7C0.0563
T8C0.0709
%
G90
G05
T1
X3.2Y-4.81
X3.24Y-6.6
X3.28Y-5.02
X3.4Y-6.49
X3.41Y-5.51
X3.5Y-4.65
X3.56Y-6.0
X3.73Y-4.12
X3.76Y-4.455
X3.78Y-6.175
X3.82Y-4.44
X3.85Y-4.2
X3.85Y-5.24
X3.85Y-5.38
X3.85Y-6.01
X3.85Y-6.19
X3.85Y-6.35
X3.85Y-6.49
X3.96Y-5.17
X4.025Y-6.07
X4.05Y-4.92
X4.15Y-5.9
X4.15Y-6.49
X4.21Y-5.05
X4.22Y-6.25
X4.475Y-3.0
X4.5Y-4.79
X4.5336Y-3.98
X4.54Y-4.98
X4.54Y-6.18
T2
X3.9626Y-4.0866
X4.0626Y-4.0866
X4.1626Y-4.0866
X3.61Y-4.55
X3.61Y-4.85
X3.71Y-4.55
X3.71Y-4.85
X3.81Y-4.55
X3.81Y-4.85
X3.91Y-4.55
X3.91Y-4.85
X4.01Y-4.55
X4.01Y-4.85
X4.11Y-4.55
X4.11Y-4.85
X4.21Y-4.55
X4.21Y-4.85
X4.31Y-4.55
X4.31Y-4.85
X3.9626Y-4.3228
X4.0626Y-4.3228
X4.1626Y-4.3228
T3
X3.1016Y-4.5453
X3.2Y-4.5453
X3.2984Y-4.5453
X3.1016Y-3.6453
X3.2Y-3.6453
X3.2984Y-3.6453
X4.1016Y-3.6453
X4.2Y-3.6453
X4.2984Y-3.6453
T4
X3.34Y-2.88
X3.34Y-2.98
X3.44Y-2.88
X3.44Y-2.98
X3.54Y-2.88
X3.54Y-2.98
X3.64Y-2.88
X3.64Y-2.98
X3.74Y-2.88
X3.74Y-2.98
X3.84Y-2.88
X3.84Y-2.98
X3.94Y-2.88
X3.94Y-2.98
X4.04Y-2.88
X4.04Y-2.98
T5
X3.7Y-6.25
X4.3Y-6.25
X3.1Y-5.05
X3.7Y-5.05
X3.1Y-6.25
X3.1Y-5.65
X4.3Y-5.05
X4.3Y-5.65
X3.7Y-5.65
T6
X3.7Y-6.372
X4.3Y-6.372
X3.1Y-5.172
X3.7Y-5.172
X3.1Y-6.372
X3.1Y-5.772
X4.3Y-5.172
X4.3Y-5.772
X3.7Y-5.772
T7
X3.7Y-6.6988
X4.3Y-6.6988
X3.1Y-5.4988
X3.7Y-5.4988
X3.1Y-6.6988
X3.1Y-6.0988
X4.3Y-5.4988
X4.3Y-6.0988
X3.7Y-6.0988
T8
X3.011Y-4.25
X3.389Y-4.25
X3.011Y-3.35
X3.389Y-3.35
X4.011Y-3.35
X4.389Y-3.35
T0
M30
