G04 #@! TF.GenerationSoftware,KiCad,Pcbnew,5.1.6-c6e7f7d~86~ubuntu20.04.1*
G04 #@! TF.CreationDate,2020-05-29T14:12:18+02:00*
G04 #@! TF.ProjectId,osc1,6f736331-2e6b-4696-9361-645f70636258,rev?*
G04 #@! TF.SameCoordinates,Original*
G04 #@! TF.FileFunction,Soldermask,Top*
G04 #@! TF.FilePolarity,Negative*
%FSLAX46Y46*%
G04 Gerber Fmt 4.6, Leading zero omitted, Abs format (unit mm)*
G04 Created by KiCad (PCBNEW 5.1.6-c6e7f7d~86~ubuntu20.04.1) date 2020-05-29 14:12:18*
%MOMM*%
%LPD*%
G01*
G04 APERTURE LIST*
%ADD10C,0.100000*%
G04 APERTURE END LIST*
D10*
G36*
X109473655Y-169062591D02*
G01*
X109545525Y-169076887D01*
X109748624Y-169161013D01*
X109931409Y-169283146D01*
X110086854Y-169438591D01*
X110208987Y-169621376D01*
X110293113Y-169824475D01*
X110336000Y-170040084D01*
X110336000Y-170259916D01*
X110293113Y-170475525D01*
X110208987Y-170678624D01*
X110086854Y-170861409D01*
X109931409Y-171016854D01*
X109748624Y-171138987D01*
X109545525Y-171223113D01*
X109473655Y-171237409D01*
X109329918Y-171266000D01*
X109110082Y-171266000D01*
X108966345Y-171237409D01*
X108894475Y-171223113D01*
X108691376Y-171138987D01*
X108508591Y-171016854D01*
X108353146Y-170861409D01*
X108231013Y-170678624D01*
X108146887Y-170475525D01*
X108104000Y-170259916D01*
X108104000Y-170040084D01*
X108146887Y-169824475D01*
X108231013Y-169621376D01*
X108353146Y-169438591D01*
X108508591Y-169283146D01*
X108691376Y-169161013D01*
X108894475Y-169076887D01*
X108966345Y-169062591D01*
X109110082Y-169034000D01*
X109329918Y-169034000D01*
X109473655Y-169062591D01*
G37*
G36*
X78993655Y-169062591D02*
G01*
X79065525Y-169076887D01*
X79268624Y-169161013D01*
X79451409Y-169283146D01*
X79606854Y-169438591D01*
X79728987Y-169621376D01*
X79813113Y-169824475D01*
X79856000Y-170040084D01*
X79856000Y-170259916D01*
X79813113Y-170475525D01*
X79728987Y-170678624D01*
X79606854Y-170861409D01*
X79451409Y-171016854D01*
X79268624Y-171138987D01*
X79065525Y-171223113D01*
X78993655Y-171237409D01*
X78849918Y-171266000D01*
X78630082Y-171266000D01*
X78486345Y-171237409D01*
X78414475Y-171223113D01*
X78211376Y-171138987D01*
X78028591Y-171016854D01*
X77873146Y-170861409D01*
X77751013Y-170678624D01*
X77666887Y-170475525D01*
X77624000Y-170259916D01*
X77624000Y-170040084D01*
X77666887Y-169824475D01*
X77751013Y-169621376D01*
X77873146Y-169438591D01*
X78028591Y-169283146D01*
X78211376Y-169161013D01*
X78414475Y-169076887D01*
X78486345Y-169062591D01*
X78630082Y-169034000D01*
X78849918Y-169034000D01*
X78993655Y-169062591D01*
G37*
G36*
X94233655Y-169062591D02*
G01*
X94305525Y-169076887D01*
X94508624Y-169161013D01*
X94691409Y-169283146D01*
X94846854Y-169438591D01*
X94968987Y-169621376D01*
X95053113Y-169824475D01*
X95096000Y-170040084D01*
X95096000Y-170259916D01*
X95053113Y-170475525D01*
X94968987Y-170678624D01*
X94846854Y-170861409D01*
X94691409Y-171016854D01*
X94508624Y-171138987D01*
X94305525Y-171223113D01*
X94233655Y-171237409D01*
X94089918Y-171266000D01*
X93870082Y-171266000D01*
X93726345Y-171237409D01*
X93654475Y-171223113D01*
X93451376Y-171138987D01*
X93268591Y-171016854D01*
X93113146Y-170861409D01*
X92991013Y-170678624D01*
X92906887Y-170475525D01*
X92864000Y-170259916D01*
X92864000Y-170040084D01*
X92906887Y-169824475D01*
X92991013Y-169621376D01*
X93113146Y-169438591D01*
X93268591Y-169283146D01*
X93451376Y-169161013D01*
X93654475Y-169076887D01*
X93726345Y-169062591D01*
X93870082Y-169034000D01*
X94089918Y-169034000D01*
X94233655Y-169062591D01*
G37*
G36*
X78993655Y-160762591D02*
G01*
X79065525Y-160776887D01*
X79268624Y-160861013D01*
X79451409Y-160983146D01*
X79606854Y-161138591D01*
X79728987Y-161321376D01*
X79813113Y-161524475D01*
X79856000Y-161740084D01*
X79856000Y-161959916D01*
X79813113Y-162175525D01*
X79728987Y-162378624D01*
X79606854Y-162561409D01*
X79451409Y-162716854D01*
X79268624Y-162838987D01*
X79065525Y-162923113D01*
X78993655Y-162937409D01*
X78849918Y-162966000D01*
X78630082Y-162966000D01*
X78486345Y-162937409D01*
X78414475Y-162923113D01*
X78211376Y-162838987D01*
X78028591Y-162716854D01*
X77873146Y-162561409D01*
X77751013Y-162378624D01*
X77666887Y-162175525D01*
X77624000Y-161959916D01*
X77624000Y-161740084D01*
X77666887Y-161524475D01*
X77751013Y-161321376D01*
X77873146Y-161138591D01*
X78028591Y-160983146D01*
X78211376Y-160861013D01*
X78414475Y-160776887D01*
X78486345Y-160762591D01*
X78630082Y-160734000D01*
X78849918Y-160734000D01*
X78993655Y-160762591D01*
G37*
G36*
X109473655Y-160762591D02*
G01*
X109545525Y-160776887D01*
X109748624Y-160861013D01*
X109931409Y-160983146D01*
X110086854Y-161138591D01*
X110208987Y-161321376D01*
X110293113Y-161524475D01*
X110336000Y-161740084D01*
X110336000Y-161959916D01*
X110293113Y-162175525D01*
X110208987Y-162378624D01*
X110086854Y-162561409D01*
X109931409Y-162716854D01*
X109748624Y-162838987D01*
X109545525Y-162923113D01*
X109473655Y-162937409D01*
X109329918Y-162966000D01*
X109110082Y-162966000D01*
X108966345Y-162937409D01*
X108894475Y-162923113D01*
X108691376Y-162838987D01*
X108508591Y-162716854D01*
X108353146Y-162561409D01*
X108231013Y-162378624D01*
X108146887Y-162175525D01*
X108104000Y-161959916D01*
X108104000Y-161740084D01*
X108146887Y-161524475D01*
X108231013Y-161321376D01*
X108353146Y-161138591D01*
X108508591Y-160983146D01*
X108691376Y-160861013D01*
X108894475Y-160776887D01*
X108966345Y-160762591D01*
X109110082Y-160734000D01*
X109329918Y-160734000D01*
X109473655Y-160762591D01*
G37*
G36*
X94233655Y-160762591D02*
G01*
X94305525Y-160776887D01*
X94508624Y-160861013D01*
X94691409Y-160983146D01*
X94846854Y-161138591D01*
X94968987Y-161321376D01*
X95053113Y-161524475D01*
X95096000Y-161740084D01*
X95096000Y-161959916D01*
X95053113Y-162175525D01*
X94968987Y-162378624D01*
X94846854Y-162561409D01*
X94691409Y-162716854D01*
X94508624Y-162838987D01*
X94305525Y-162923113D01*
X94233655Y-162937409D01*
X94089918Y-162966000D01*
X93870082Y-162966000D01*
X93726345Y-162937409D01*
X93654475Y-162923113D01*
X93451376Y-162838987D01*
X93268591Y-162716854D01*
X93113146Y-162561409D01*
X92991013Y-162378624D01*
X92906887Y-162175525D01*
X92864000Y-161959916D01*
X92864000Y-161740084D01*
X92906887Y-161524475D01*
X92991013Y-161321376D01*
X93113146Y-161138591D01*
X93268591Y-160983146D01*
X93451376Y-160861013D01*
X93654475Y-160776887D01*
X93726345Y-160762591D01*
X93870082Y-160734000D01*
X94089918Y-160734000D01*
X94233655Y-160762591D01*
G37*
G36*
X110236000Y-159716000D02*
G01*
X108204000Y-159716000D01*
X108204000Y-157784000D01*
X110236000Y-157784000D01*
X110236000Y-159716000D01*
G37*
G36*
X94996000Y-159716000D02*
G01*
X92964000Y-159716000D01*
X92964000Y-157784000D01*
X94996000Y-157784000D01*
X94996000Y-159716000D01*
G37*
G36*
X79756000Y-159716000D02*
G01*
X77724000Y-159716000D01*
X77724000Y-157784000D01*
X79756000Y-157784000D01*
X79756000Y-159716000D01*
G37*
G36*
X78993655Y-153822591D02*
G01*
X79065525Y-153836887D01*
X79268624Y-153921013D01*
X79451409Y-154043146D01*
X79606854Y-154198591D01*
X79728987Y-154381376D01*
X79813113Y-154584475D01*
X79856000Y-154800084D01*
X79856000Y-155019916D01*
X79813113Y-155235525D01*
X79728987Y-155438624D01*
X79606854Y-155621409D01*
X79451409Y-155776854D01*
X79268624Y-155898987D01*
X79065525Y-155983113D01*
X78993655Y-155997409D01*
X78849918Y-156026000D01*
X78630082Y-156026000D01*
X78486345Y-155997409D01*
X78414475Y-155983113D01*
X78211376Y-155898987D01*
X78028591Y-155776854D01*
X77873146Y-155621409D01*
X77751013Y-155438624D01*
X77666887Y-155235525D01*
X77624000Y-155019916D01*
X77624000Y-154800084D01*
X77666887Y-154584475D01*
X77751013Y-154381376D01*
X77873146Y-154198591D01*
X78028591Y-154043146D01*
X78211376Y-153921013D01*
X78414475Y-153836887D01*
X78486345Y-153822591D01*
X78630082Y-153794000D01*
X78849918Y-153794000D01*
X78993655Y-153822591D01*
G37*
G36*
X109473655Y-153822591D02*
G01*
X109545525Y-153836887D01*
X109748624Y-153921013D01*
X109931409Y-154043146D01*
X110086854Y-154198591D01*
X110208987Y-154381376D01*
X110293113Y-154584475D01*
X110336000Y-154800084D01*
X110336000Y-155019916D01*
X110293113Y-155235525D01*
X110208987Y-155438624D01*
X110086854Y-155621409D01*
X109931409Y-155776854D01*
X109748624Y-155898987D01*
X109545525Y-155983113D01*
X109473655Y-155997409D01*
X109329918Y-156026000D01*
X109110082Y-156026000D01*
X108966345Y-155997409D01*
X108894475Y-155983113D01*
X108691376Y-155898987D01*
X108508591Y-155776854D01*
X108353146Y-155621409D01*
X108231013Y-155438624D01*
X108146887Y-155235525D01*
X108104000Y-155019916D01*
X108104000Y-154800084D01*
X108146887Y-154584475D01*
X108231013Y-154381376D01*
X108353146Y-154198591D01*
X108508591Y-154043146D01*
X108691376Y-153921013D01*
X108894475Y-153836887D01*
X108966345Y-153822591D01*
X109110082Y-153794000D01*
X109329918Y-153794000D01*
X109473655Y-153822591D01*
G37*
G36*
X94233655Y-153822591D02*
G01*
X94305525Y-153836887D01*
X94508624Y-153921013D01*
X94691409Y-154043146D01*
X94846854Y-154198591D01*
X94968987Y-154381376D01*
X95053113Y-154584475D01*
X95096000Y-154800084D01*
X95096000Y-155019916D01*
X95053113Y-155235525D01*
X94968987Y-155438624D01*
X94846854Y-155621409D01*
X94691409Y-155776854D01*
X94508624Y-155898987D01*
X94305525Y-155983113D01*
X94233655Y-155997409D01*
X94089918Y-156026000D01*
X93870082Y-156026000D01*
X93726345Y-155997409D01*
X93654475Y-155983113D01*
X93451376Y-155898987D01*
X93268591Y-155776854D01*
X93113146Y-155621409D01*
X92991013Y-155438624D01*
X92906887Y-155235525D01*
X92864000Y-155019916D01*
X92864000Y-154800084D01*
X92906887Y-154584475D01*
X92991013Y-154381376D01*
X93113146Y-154198591D01*
X93268591Y-154043146D01*
X93451376Y-153921013D01*
X93654475Y-153836887D01*
X93726345Y-153822591D01*
X93870082Y-153794000D01*
X94089918Y-153794000D01*
X94233655Y-153822591D01*
G37*
G36*
X78993655Y-145522591D02*
G01*
X79065525Y-145536887D01*
X79268624Y-145621013D01*
X79451409Y-145743146D01*
X79606854Y-145898591D01*
X79728987Y-146081376D01*
X79813113Y-146284475D01*
X79856000Y-146500084D01*
X79856000Y-146719916D01*
X79813113Y-146935525D01*
X79728987Y-147138624D01*
X79606854Y-147321409D01*
X79451409Y-147476854D01*
X79268624Y-147598987D01*
X79065525Y-147683113D01*
X78993655Y-147697409D01*
X78849918Y-147726000D01*
X78630082Y-147726000D01*
X78486345Y-147697409D01*
X78414475Y-147683113D01*
X78211376Y-147598987D01*
X78028591Y-147476854D01*
X77873146Y-147321409D01*
X77751013Y-147138624D01*
X77666887Y-146935525D01*
X77624000Y-146719916D01*
X77624000Y-146500084D01*
X77666887Y-146284475D01*
X77751013Y-146081376D01*
X77873146Y-145898591D01*
X78028591Y-145743146D01*
X78211376Y-145621013D01*
X78414475Y-145536887D01*
X78486345Y-145522591D01*
X78630082Y-145494000D01*
X78849918Y-145494000D01*
X78993655Y-145522591D01*
G37*
G36*
X109473655Y-145522591D02*
G01*
X109545525Y-145536887D01*
X109748624Y-145621013D01*
X109931409Y-145743146D01*
X110086854Y-145898591D01*
X110208987Y-146081376D01*
X110293113Y-146284475D01*
X110336000Y-146500084D01*
X110336000Y-146719916D01*
X110293113Y-146935525D01*
X110208987Y-147138624D01*
X110086854Y-147321409D01*
X109931409Y-147476854D01*
X109748624Y-147598987D01*
X109545525Y-147683113D01*
X109473655Y-147697409D01*
X109329918Y-147726000D01*
X109110082Y-147726000D01*
X108966345Y-147697409D01*
X108894475Y-147683113D01*
X108691376Y-147598987D01*
X108508591Y-147476854D01*
X108353146Y-147321409D01*
X108231013Y-147138624D01*
X108146887Y-146935525D01*
X108104000Y-146719916D01*
X108104000Y-146500084D01*
X108146887Y-146284475D01*
X108231013Y-146081376D01*
X108353146Y-145898591D01*
X108508591Y-145743146D01*
X108691376Y-145621013D01*
X108894475Y-145536887D01*
X108966345Y-145522591D01*
X109110082Y-145494000D01*
X109329918Y-145494000D01*
X109473655Y-145522591D01*
G37*
G36*
X94233655Y-145522591D02*
G01*
X94305525Y-145536887D01*
X94508624Y-145621013D01*
X94691409Y-145743146D01*
X94846854Y-145898591D01*
X94968987Y-146081376D01*
X95053113Y-146284475D01*
X95096000Y-146500084D01*
X95096000Y-146719916D01*
X95053113Y-146935525D01*
X94968987Y-147138624D01*
X94846854Y-147321409D01*
X94691409Y-147476854D01*
X94508624Y-147598987D01*
X94305525Y-147683113D01*
X94233655Y-147697409D01*
X94089918Y-147726000D01*
X93870082Y-147726000D01*
X93726345Y-147697409D01*
X93654475Y-147683113D01*
X93451376Y-147598987D01*
X93268591Y-147476854D01*
X93113146Y-147321409D01*
X92991013Y-147138624D01*
X92906887Y-146935525D01*
X92864000Y-146719916D01*
X92864000Y-146500084D01*
X92906887Y-146284475D01*
X92991013Y-146081376D01*
X93113146Y-145898591D01*
X93268591Y-145743146D01*
X93451376Y-145621013D01*
X93654475Y-145536887D01*
X93726345Y-145522591D01*
X93870082Y-145494000D01*
X94089918Y-145494000D01*
X94233655Y-145522591D01*
G37*
G36*
X94996000Y-144476000D02*
G01*
X92964000Y-144476000D01*
X92964000Y-142544000D01*
X94996000Y-142544000D01*
X94996000Y-144476000D01*
G37*
G36*
X110236000Y-144476000D02*
G01*
X108204000Y-144476000D01*
X108204000Y-142544000D01*
X110236000Y-142544000D01*
X110236000Y-144476000D01*
G37*
G36*
X79756000Y-144476000D02*
G01*
X77724000Y-144476000D01*
X77724000Y-142544000D01*
X79756000Y-142544000D01*
X79756000Y-144476000D01*
G37*
G36*
X109473655Y-138582591D02*
G01*
X109545525Y-138596887D01*
X109748624Y-138681013D01*
X109931409Y-138803146D01*
X110086854Y-138958591D01*
X110208987Y-139141376D01*
X110293113Y-139344475D01*
X110336000Y-139560084D01*
X110336000Y-139779916D01*
X110293113Y-139995525D01*
X110208987Y-140198624D01*
X110086854Y-140381409D01*
X109931409Y-140536854D01*
X109748624Y-140658987D01*
X109545525Y-140743113D01*
X109473655Y-140757409D01*
X109329918Y-140786000D01*
X109110082Y-140786000D01*
X108966345Y-140757409D01*
X108894475Y-140743113D01*
X108691376Y-140658987D01*
X108508591Y-140536854D01*
X108353146Y-140381409D01*
X108231013Y-140198624D01*
X108146887Y-139995525D01*
X108104000Y-139779916D01*
X108104000Y-139560084D01*
X108146887Y-139344475D01*
X108231013Y-139141376D01*
X108353146Y-138958591D01*
X108508591Y-138803146D01*
X108691376Y-138681013D01*
X108894475Y-138596887D01*
X108966345Y-138582591D01*
X109110082Y-138554000D01*
X109329918Y-138554000D01*
X109473655Y-138582591D01*
G37*
G36*
X78993655Y-138582591D02*
G01*
X79065525Y-138596887D01*
X79268624Y-138681013D01*
X79451409Y-138803146D01*
X79606854Y-138958591D01*
X79728987Y-139141376D01*
X79813113Y-139344475D01*
X79856000Y-139560084D01*
X79856000Y-139779916D01*
X79813113Y-139995525D01*
X79728987Y-140198624D01*
X79606854Y-140381409D01*
X79451409Y-140536854D01*
X79268624Y-140658987D01*
X79065525Y-140743113D01*
X78993655Y-140757409D01*
X78849918Y-140786000D01*
X78630082Y-140786000D01*
X78486345Y-140757409D01*
X78414475Y-140743113D01*
X78211376Y-140658987D01*
X78028591Y-140536854D01*
X77873146Y-140381409D01*
X77751013Y-140198624D01*
X77666887Y-139995525D01*
X77624000Y-139779916D01*
X77624000Y-139560084D01*
X77666887Y-139344475D01*
X77751013Y-139141376D01*
X77873146Y-138958591D01*
X78028591Y-138803146D01*
X78211376Y-138681013D01*
X78414475Y-138596887D01*
X78486345Y-138582591D01*
X78630082Y-138554000D01*
X78849918Y-138554000D01*
X78993655Y-138582591D01*
G37*
G36*
X94233655Y-138582591D02*
G01*
X94305525Y-138596887D01*
X94508624Y-138681013D01*
X94691409Y-138803146D01*
X94846854Y-138958591D01*
X94968987Y-139141376D01*
X95053113Y-139344475D01*
X95096000Y-139560084D01*
X95096000Y-139779916D01*
X95053113Y-139995525D01*
X94968987Y-140198624D01*
X94846854Y-140381409D01*
X94691409Y-140536854D01*
X94508624Y-140658987D01*
X94305525Y-140743113D01*
X94233655Y-140757409D01*
X94089918Y-140786000D01*
X93870082Y-140786000D01*
X93726345Y-140757409D01*
X93654475Y-140743113D01*
X93451376Y-140658987D01*
X93268591Y-140536854D01*
X93113146Y-140381409D01*
X92991013Y-140198624D01*
X92906887Y-139995525D01*
X92864000Y-139779916D01*
X92864000Y-139560084D01*
X92906887Y-139344475D01*
X92991013Y-139141376D01*
X93113146Y-138958591D01*
X93268591Y-138803146D01*
X93451376Y-138681013D01*
X93654475Y-138596887D01*
X93726345Y-138582591D01*
X93870082Y-138554000D01*
X94089918Y-138554000D01*
X94233655Y-138582591D01*
G37*
G36*
X78993655Y-130282591D02*
G01*
X79065525Y-130296887D01*
X79268624Y-130381013D01*
X79451409Y-130503146D01*
X79606854Y-130658591D01*
X79728987Y-130841376D01*
X79813113Y-131044475D01*
X79856000Y-131260084D01*
X79856000Y-131479916D01*
X79813113Y-131695525D01*
X79728987Y-131898624D01*
X79606854Y-132081409D01*
X79451409Y-132236854D01*
X79268624Y-132358987D01*
X79065525Y-132443113D01*
X78993655Y-132457409D01*
X78849918Y-132486000D01*
X78630082Y-132486000D01*
X78486345Y-132457409D01*
X78414475Y-132443113D01*
X78211376Y-132358987D01*
X78028591Y-132236854D01*
X77873146Y-132081409D01*
X77751013Y-131898624D01*
X77666887Y-131695525D01*
X77624000Y-131479916D01*
X77624000Y-131260084D01*
X77666887Y-131044475D01*
X77751013Y-130841376D01*
X77873146Y-130658591D01*
X78028591Y-130503146D01*
X78211376Y-130381013D01*
X78414475Y-130296887D01*
X78486345Y-130282591D01*
X78630082Y-130254000D01*
X78849918Y-130254000D01*
X78993655Y-130282591D01*
G37*
G36*
X109473655Y-130282591D02*
G01*
X109545525Y-130296887D01*
X109748624Y-130381013D01*
X109931409Y-130503146D01*
X110086854Y-130658591D01*
X110208987Y-130841376D01*
X110293113Y-131044475D01*
X110336000Y-131260084D01*
X110336000Y-131479916D01*
X110293113Y-131695525D01*
X110208987Y-131898624D01*
X110086854Y-132081409D01*
X109931409Y-132236854D01*
X109748624Y-132358987D01*
X109545525Y-132443113D01*
X109473655Y-132457409D01*
X109329918Y-132486000D01*
X109110082Y-132486000D01*
X108966345Y-132457409D01*
X108894475Y-132443113D01*
X108691376Y-132358987D01*
X108508591Y-132236854D01*
X108353146Y-132081409D01*
X108231013Y-131898624D01*
X108146887Y-131695525D01*
X108104000Y-131479916D01*
X108104000Y-131260084D01*
X108146887Y-131044475D01*
X108231013Y-130841376D01*
X108353146Y-130658591D01*
X108508591Y-130503146D01*
X108691376Y-130381013D01*
X108894475Y-130296887D01*
X108966345Y-130282591D01*
X109110082Y-130254000D01*
X109329918Y-130254000D01*
X109473655Y-130282591D01*
G37*
G36*
X94233655Y-130282591D02*
G01*
X94305525Y-130296887D01*
X94508624Y-130381013D01*
X94691409Y-130503146D01*
X94846854Y-130658591D01*
X94968987Y-130841376D01*
X95053113Y-131044475D01*
X95096000Y-131260084D01*
X95096000Y-131479916D01*
X95053113Y-131695525D01*
X94968987Y-131898624D01*
X94846854Y-132081409D01*
X94691409Y-132236854D01*
X94508624Y-132358987D01*
X94305525Y-132443113D01*
X94233655Y-132457409D01*
X94089918Y-132486000D01*
X93870082Y-132486000D01*
X93726345Y-132457409D01*
X93654475Y-132443113D01*
X93451376Y-132358987D01*
X93268591Y-132236854D01*
X93113146Y-132081409D01*
X92991013Y-131898624D01*
X92906887Y-131695525D01*
X92864000Y-131479916D01*
X92864000Y-131260084D01*
X92906887Y-131044475D01*
X92991013Y-130841376D01*
X93113146Y-130658591D01*
X93268591Y-130503146D01*
X93451376Y-130381013D01*
X93654475Y-130296887D01*
X93726345Y-130282591D01*
X93870082Y-130254000D01*
X94089918Y-130254000D01*
X94233655Y-130282591D01*
G37*
G36*
X79756000Y-129236000D02*
G01*
X77724000Y-129236000D01*
X77724000Y-127304000D01*
X79756000Y-127304000D01*
X79756000Y-129236000D01*
G37*
G36*
X94996000Y-129236000D02*
G01*
X92964000Y-129236000D01*
X92964000Y-127304000D01*
X94996000Y-127304000D01*
X94996000Y-129236000D01*
G37*
G36*
X110236000Y-129236000D02*
G01*
X108204000Y-129236000D01*
X108204000Y-127304000D01*
X110236000Y-127304000D01*
X110236000Y-129236000D01*
G37*
G36*
X97022228Y-122371703D02*
G01*
X97177100Y-122435853D01*
X97316481Y-122528985D01*
X97435015Y-122647519D01*
X97528147Y-122786900D01*
X97592297Y-122941772D01*
X97625000Y-123106184D01*
X97625000Y-123273816D01*
X97592297Y-123438228D01*
X97528147Y-123593100D01*
X97435015Y-123732481D01*
X97316481Y-123851015D01*
X97177100Y-123944147D01*
X97022228Y-124008297D01*
X96857816Y-124041000D01*
X96690184Y-124041000D01*
X96525772Y-124008297D01*
X96370900Y-123944147D01*
X96231519Y-123851015D01*
X96112985Y-123732481D01*
X96019853Y-123593100D01*
X95955703Y-123438228D01*
X95923000Y-123273816D01*
X95923000Y-123106184D01*
X95955703Y-122941772D01*
X96019853Y-122786900D01*
X96112985Y-122647519D01*
X96231519Y-122528985D01*
X96370900Y-122435853D01*
X96525772Y-122371703D01*
X96690184Y-122339000D01*
X96857816Y-122339000D01*
X97022228Y-122371703D01*
G37*
G36*
X109722228Y-122371703D02*
G01*
X109877100Y-122435853D01*
X110016481Y-122528985D01*
X110135015Y-122647519D01*
X110228147Y-122786900D01*
X110292297Y-122941772D01*
X110325000Y-123106184D01*
X110325000Y-123273816D01*
X110292297Y-123438228D01*
X110228147Y-123593100D01*
X110135015Y-123732481D01*
X110016481Y-123851015D01*
X109877100Y-123944147D01*
X109722228Y-124008297D01*
X109557816Y-124041000D01*
X109390184Y-124041000D01*
X109225772Y-124008297D01*
X109070900Y-123944147D01*
X108931519Y-123851015D01*
X108812985Y-123732481D01*
X108719853Y-123593100D01*
X108655703Y-123438228D01*
X108623000Y-123273816D01*
X108623000Y-123106184D01*
X108655703Y-122941772D01*
X108719853Y-122786900D01*
X108812985Y-122647519D01*
X108931519Y-122528985D01*
X109070900Y-122435853D01*
X109225772Y-122371703D01*
X109390184Y-122339000D01*
X109557816Y-122339000D01*
X109722228Y-122371703D01*
G37*
G36*
X107182228Y-122371703D02*
G01*
X107337100Y-122435853D01*
X107476481Y-122528985D01*
X107595015Y-122647519D01*
X107688147Y-122786900D01*
X107752297Y-122941772D01*
X107785000Y-123106184D01*
X107785000Y-123273816D01*
X107752297Y-123438228D01*
X107688147Y-123593100D01*
X107595015Y-123732481D01*
X107476481Y-123851015D01*
X107337100Y-123944147D01*
X107182228Y-124008297D01*
X107017816Y-124041000D01*
X106850184Y-124041000D01*
X106685772Y-124008297D01*
X106530900Y-123944147D01*
X106391519Y-123851015D01*
X106272985Y-123732481D01*
X106179853Y-123593100D01*
X106115703Y-123438228D01*
X106083000Y-123273816D01*
X106083000Y-123106184D01*
X106115703Y-122941772D01*
X106179853Y-122786900D01*
X106272985Y-122647519D01*
X106391519Y-122528985D01*
X106530900Y-122435853D01*
X106685772Y-122371703D01*
X106850184Y-122339000D01*
X107017816Y-122339000D01*
X107182228Y-122371703D01*
G37*
G36*
X104642228Y-122371703D02*
G01*
X104797100Y-122435853D01*
X104936481Y-122528985D01*
X105055015Y-122647519D01*
X105148147Y-122786900D01*
X105212297Y-122941772D01*
X105245000Y-123106184D01*
X105245000Y-123273816D01*
X105212297Y-123438228D01*
X105148147Y-123593100D01*
X105055015Y-123732481D01*
X104936481Y-123851015D01*
X104797100Y-123944147D01*
X104642228Y-124008297D01*
X104477816Y-124041000D01*
X104310184Y-124041000D01*
X104145772Y-124008297D01*
X103990900Y-123944147D01*
X103851519Y-123851015D01*
X103732985Y-123732481D01*
X103639853Y-123593100D01*
X103575703Y-123438228D01*
X103543000Y-123273816D01*
X103543000Y-123106184D01*
X103575703Y-122941772D01*
X103639853Y-122786900D01*
X103732985Y-122647519D01*
X103851519Y-122528985D01*
X103990900Y-122435853D01*
X104145772Y-122371703D01*
X104310184Y-122339000D01*
X104477816Y-122339000D01*
X104642228Y-122371703D01*
G37*
G36*
X102102228Y-122371703D02*
G01*
X102257100Y-122435853D01*
X102396481Y-122528985D01*
X102515015Y-122647519D01*
X102608147Y-122786900D01*
X102672297Y-122941772D01*
X102705000Y-123106184D01*
X102705000Y-123273816D01*
X102672297Y-123438228D01*
X102608147Y-123593100D01*
X102515015Y-123732481D01*
X102396481Y-123851015D01*
X102257100Y-123944147D01*
X102102228Y-124008297D01*
X101937816Y-124041000D01*
X101770184Y-124041000D01*
X101605772Y-124008297D01*
X101450900Y-123944147D01*
X101311519Y-123851015D01*
X101192985Y-123732481D01*
X101099853Y-123593100D01*
X101035703Y-123438228D01*
X101003000Y-123273816D01*
X101003000Y-123106184D01*
X101035703Y-122941772D01*
X101099853Y-122786900D01*
X101192985Y-122647519D01*
X101311519Y-122528985D01*
X101450900Y-122435853D01*
X101605772Y-122371703D01*
X101770184Y-122339000D01*
X101937816Y-122339000D01*
X102102228Y-122371703D01*
G37*
G36*
X99562228Y-122371703D02*
G01*
X99717100Y-122435853D01*
X99856481Y-122528985D01*
X99975015Y-122647519D01*
X100068147Y-122786900D01*
X100132297Y-122941772D01*
X100165000Y-123106184D01*
X100165000Y-123273816D01*
X100132297Y-123438228D01*
X100068147Y-123593100D01*
X99975015Y-123732481D01*
X99856481Y-123851015D01*
X99717100Y-123944147D01*
X99562228Y-124008297D01*
X99397816Y-124041000D01*
X99230184Y-124041000D01*
X99065772Y-124008297D01*
X98910900Y-123944147D01*
X98771519Y-123851015D01*
X98652985Y-123732481D01*
X98559853Y-123593100D01*
X98495703Y-123438228D01*
X98463000Y-123273816D01*
X98463000Y-123106184D01*
X98495703Y-122941772D01*
X98559853Y-122786900D01*
X98652985Y-122647519D01*
X98771519Y-122528985D01*
X98910900Y-122435853D01*
X99065772Y-122371703D01*
X99230184Y-122339000D01*
X99397816Y-122339000D01*
X99562228Y-122371703D01*
G37*
G36*
X94482228Y-122371703D02*
G01*
X94637100Y-122435853D01*
X94776481Y-122528985D01*
X94895015Y-122647519D01*
X94988147Y-122786900D01*
X95052297Y-122941772D01*
X95085000Y-123106184D01*
X95085000Y-123273816D01*
X95052297Y-123438228D01*
X94988147Y-123593100D01*
X94895015Y-123732481D01*
X94776481Y-123851015D01*
X94637100Y-123944147D01*
X94482228Y-124008297D01*
X94317816Y-124041000D01*
X94150184Y-124041000D01*
X93985772Y-124008297D01*
X93830900Y-123944147D01*
X93691519Y-123851015D01*
X93572985Y-123732481D01*
X93479853Y-123593100D01*
X93415703Y-123438228D01*
X93383000Y-123273816D01*
X93383000Y-123106184D01*
X93415703Y-122941772D01*
X93479853Y-122786900D01*
X93572985Y-122647519D01*
X93691519Y-122528985D01*
X93830900Y-122435853D01*
X93985772Y-122371703D01*
X94150184Y-122339000D01*
X94317816Y-122339000D01*
X94482228Y-122371703D01*
G37*
G36*
X91942228Y-122371703D02*
G01*
X92097100Y-122435853D01*
X92236481Y-122528985D01*
X92355015Y-122647519D01*
X92448147Y-122786900D01*
X92512297Y-122941772D01*
X92545000Y-123106184D01*
X92545000Y-123273816D01*
X92512297Y-123438228D01*
X92448147Y-123593100D01*
X92355015Y-123732481D01*
X92236481Y-123851015D01*
X92097100Y-123944147D01*
X91942228Y-124008297D01*
X91777816Y-124041000D01*
X91610184Y-124041000D01*
X91445772Y-124008297D01*
X91290900Y-123944147D01*
X91151519Y-123851015D01*
X91032985Y-123732481D01*
X90939853Y-123593100D01*
X90875703Y-123438228D01*
X90843000Y-123273816D01*
X90843000Y-123106184D01*
X90875703Y-122941772D01*
X90939853Y-122786900D01*
X91032985Y-122647519D01*
X91151519Y-122528985D01*
X91290900Y-122435853D01*
X91445772Y-122371703D01*
X91610184Y-122339000D01*
X91777816Y-122339000D01*
X91942228Y-122371703D01*
G37*
G36*
X97022228Y-114751703D02*
G01*
X97177100Y-114815853D01*
X97316481Y-114908985D01*
X97435015Y-115027519D01*
X97528147Y-115166900D01*
X97592297Y-115321772D01*
X97625000Y-115486184D01*
X97625000Y-115653816D01*
X97592297Y-115818228D01*
X97528147Y-115973100D01*
X97435015Y-116112481D01*
X97316481Y-116231015D01*
X97177100Y-116324147D01*
X97022228Y-116388297D01*
X96857816Y-116421000D01*
X96690184Y-116421000D01*
X96525772Y-116388297D01*
X96370900Y-116324147D01*
X96231519Y-116231015D01*
X96112985Y-116112481D01*
X96019853Y-115973100D01*
X95955703Y-115818228D01*
X95923000Y-115653816D01*
X95923000Y-115486184D01*
X95955703Y-115321772D01*
X96019853Y-115166900D01*
X96112985Y-115027519D01*
X96231519Y-114908985D01*
X96370900Y-114815853D01*
X96525772Y-114751703D01*
X96690184Y-114719000D01*
X96857816Y-114719000D01*
X97022228Y-114751703D01*
G37*
G36*
X92545000Y-116421000D02*
G01*
X90843000Y-116421000D01*
X90843000Y-114719000D01*
X92545000Y-114719000D01*
X92545000Y-116421000D01*
G37*
G36*
X94482228Y-114751703D02*
G01*
X94637100Y-114815853D01*
X94776481Y-114908985D01*
X94895015Y-115027519D01*
X94988147Y-115166900D01*
X95052297Y-115321772D01*
X95085000Y-115486184D01*
X95085000Y-115653816D01*
X95052297Y-115818228D01*
X94988147Y-115973100D01*
X94895015Y-116112481D01*
X94776481Y-116231015D01*
X94637100Y-116324147D01*
X94482228Y-116388297D01*
X94317816Y-116421000D01*
X94150184Y-116421000D01*
X93985772Y-116388297D01*
X93830900Y-116324147D01*
X93691519Y-116231015D01*
X93572985Y-116112481D01*
X93479853Y-115973100D01*
X93415703Y-115818228D01*
X93383000Y-115653816D01*
X93383000Y-115486184D01*
X93415703Y-115321772D01*
X93479853Y-115166900D01*
X93572985Y-115027519D01*
X93691519Y-114908985D01*
X93830900Y-114815853D01*
X93985772Y-114751703D01*
X94150184Y-114719000D01*
X94317816Y-114719000D01*
X94482228Y-114751703D01*
G37*
G36*
X99562228Y-114751703D02*
G01*
X99717100Y-114815853D01*
X99856481Y-114908985D01*
X99975015Y-115027519D01*
X100068147Y-115166900D01*
X100132297Y-115321772D01*
X100165000Y-115486184D01*
X100165000Y-115653816D01*
X100132297Y-115818228D01*
X100068147Y-115973100D01*
X99975015Y-116112481D01*
X99856481Y-116231015D01*
X99717100Y-116324147D01*
X99562228Y-116388297D01*
X99397816Y-116421000D01*
X99230184Y-116421000D01*
X99065772Y-116388297D01*
X98910900Y-116324147D01*
X98771519Y-116231015D01*
X98652985Y-116112481D01*
X98559853Y-115973100D01*
X98495703Y-115818228D01*
X98463000Y-115653816D01*
X98463000Y-115486184D01*
X98495703Y-115321772D01*
X98559853Y-115166900D01*
X98652985Y-115027519D01*
X98771519Y-114908985D01*
X98910900Y-114815853D01*
X99065772Y-114751703D01*
X99230184Y-114719000D01*
X99397816Y-114719000D01*
X99562228Y-114751703D01*
G37*
G36*
X104642228Y-114751703D02*
G01*
X104797100Y-114815853D01*
X104936481Y-114908985D01*
X105055015Y-115027519D01*
X105148147Y-115166900D01*
X105212297Y-115321772D01*
X105245000Y-115486184D01*
X105245000Y-115653816D01*
X105212297Y-115818228D01*
X105148147Y-115973100D01*
X105055015Y-116112481D01*
X104936481Y-116231015D01*
X104797100Y-116324147D01*
X104642228Y-116388297D01*
X104477816Y-116421000D01*
X104310184Y-116421000D01*
X104145772Y-116388297D01*
X103990900Y-116324147D01*
X103851519Y-116231015D01*
X103732985Y-116112481D01*
X103639853Y-115973100D01*
X103575703Y-115818228D01*
X103543000Y-115653816D01*
X103543000Y-115486184D01*
X103575703Y-115321772D01*
X103639853Y-115166900D01*
X103732985Y-115027519D01*
X103851519Y-114908985D01*
X103990900Y-114815853D01*
X104145772Y-114751703D01*
X104310184Y-114719000D01*
X104477816Y-114719000D01*
X104642228Y-114751703D01*
G37*
G36*
X107182228Y-114751703D02*
G01*
X107337100Y-114815853D01*
X107476481Y-114908985D01*
X107595015Y-115027519D01*
X107688147Y-115166900D01*
X107752297Y-115321772D01*
X107785000Y-115486184D01*
X107785000Y-115653816D01*
X107752297Y-115818228D01*
X107688147Y-115973100D01*
X107595015Y-116112481D01*
X107476481Y-116231015D01*
X107337100Y-116324147D01*
X107182228Y-116388297D01*
X107017816Y-116421000D01*
X106850184Y-116421000D01*
X106685772Y-116388297D01*
X106530900Y-116324147D01*
X106391519Y-116231015D01*
X106272985Y-116112481D01*
X106179853Y-115973100D01*
X106115703Y-115818228D01*
X106083000Y-115653816D01*
X106083000Y-115486184D01*
X106115703Y-115321772D01*
X106179853Y-115166900D01*
X106272985Y-115027519D01*
X106391519Y-114908985D01*
X106530900Y-114815853D01*
X106685772Y-114751703D01*
X106850184Y-114719000D01*
X107017816Y-114719000D01*
X107182228Y-114751703D01*
G37*
G36*
X109722228Y-114751703D02*
G01*
X109877100Y-114815853D01*
X110016481Y-114908985D01*
X110135015Y-115027519D01*
X110228147Y-115166900D01*
X110292297Y-115321772D01*
X110325000Y-115486184D01*
X110325000Y-115653816D01*
X110292297Y-115818228D01*
X110228147Y-115973100D01*
X110135015Y-116112481D01*
X110016481Y-116231015D01*
X109877100Y-116324147D01*
X109722228Y-116388297D01*
X109557816Y-116421000D01*
X109390184Y-116421000D01*
X109225772Y-116388297D01*
X109070900Y-116324147D01*
X108931519Y-116231015D01*
X108812985Y-116112481D01*
X108719853Y-115973100D01*
X108655703Y-115818228D01*
X108623000Y-115653816D01*
X108623000Y-115486184D01*
X108655703Y-115321772D01*
X108719853Y-115166900D01*
X108812985Y-115027519D01*
X108931519Y-114908985D01*
X109070900Y-114815853D01*
X109225772Y-114751703D01*
X109390184Y-114719000D01*
X109557816Y-114719000D01*
X109722228Y-114751703D01*
G37*
G36*
X102102228Y-114751703D02*
G01*
X102257100Y-114815853D01*
X102396481Y-114908985D01*
X102515015Y-115027519D01*
X102608147Y-115166900D01*
X102672297Y-115321772D01*
X102705000Y-115486184D01*
X102705000Y-115653816D01*
X102672297Y-115818228D01*
X102608147Y-115973100D01*
X102515015Y-116112481D01*
X102396481Y-116231015D01*
X102257100Y-116324147D01*
X102102228Y-116388297D01*
X101937816Y-116421000D01*
X101770184Y-116421000D01*
X101605772Y-116388297D01*
X101450900Y-116324147D01*
X101311519Y-116231015D01*
X101192985Y-116112481D01*
X101099853Y-115973100D01*
X101035703Y-115818228D01*
X101003000Y-115653816D01*
X101003000Y-115486184D01*
X101035703Y-115321772D01*
X101099853Y-115166900D01*
X101192985Y-115027519D01*
X101311519Y-114908985D01*
X101450900Y-114815853D01*
X101605772Y-114751703D01*
X101770184Y-114719000D01*
X101937816Y-114719000D01*
X102102228Y-114751703D01*
G37*
G36*
X84057395Y-114535546D02*
G01*
X84230466Y-114607234D01*
X84230467Y-114607235D01*
X84386227Y-114711310D01*
X84518690Y-114843773D01*
X84518691Y-114843775D01*
X84622766Y-114999534D01*
X84694454Y-115172605D01*
X84731000Y-115356333D01*
X84731000Y-115543667D01*
X84694454Y-115727395D01*
X84622766Y-115900466D01*
X84622765Y-115900467D01*
X84518690Y-116056227D01*
X84386227Y-116188690D01*
X84322883Y-116231015D01*
X84230466Y-116292766D01*
X84057395Y-116364454D01*
X83873667Y-116401000D01*
X83686333Y-116401000D01*
X83502605Y-116364454D01*
X83329534Y-116292766D01*
X83237117Y-116231015D01*
X83173773Y-116188690D01*
X83041310Y-116056227D01*
X82937235Y-115900467D01*
X82937234Y-115900466D01*
X82865546Y-115727395D01*
X82829000Y-115543667D01*
X82829000Y-115356333D01*
X82865546Y-115172605D01*
X82937234Y-114999534D01*
X83041309Y-114843775D01*
X83041310Y-114843773D01*
X83173773Y-114711310D01*
X83329533Y-114607235D01*
X83329534Y-114607234D01*
X83502605Y-114535546D01*
X83686333Y-114499000D01*
X83873667Y-114499000D01*
X84057395Y-114535546D01*
G37*
G36*
X81557395Y-114535546D02*
G01*
X81730466Y-114607234D01*
X81730467Y-114607235D01*
X81886227Y-114711310D01*
X82018690Y-114843773D01*
X82018691Y-114843775D01*
X82122766Y-114999534D01*
X82194454Y-115172605D01*
X82231000Y-115356333D01*
X82231000Y-115543667D01*
X82194454Y-115727395D01*
X82122766Y-115900466D01*
X82122765Y-115900467D01*
X82018690Y-116056227D01*
X81886227Y-116188690D01*
X81822883Y-116231015D01*
X81730466Y-116292766D01*
X81557395Y-116364454D01*
X81373667Y-116401000D01*
X81186333Y-116401000D01*
X81002605Y-116364454D01*
X80829534Y-116292766D01*
X80737117Y-116231015D01*
X80673773Y-116188690D01*
X80541310Y-116056227D01*
X80437235Y-115900467D01*
X80437234Y-115900466D01*
X80365546Y-115727395D01*
X80329000Y-115543667D01*
X80329000Y-115356333D01*
X80365546Y-115172605D01*
X80437234Y-114999534D01*
X80541309Y-114843775D01*
X80541310Y-114843773D01*
X80673773Y-114711310D01*
X80829533Y-114607235D01*
X80829534Y-114607234D01*
X81002605Y-114535546D01*
X81186333Y-114499000D01*
X81373667Y-114499000D01*
X81557395Y-114535546D01*
G37*
G36*
X79731000Y-116401000D02*
G01*
X77829000Y-116401000D01*
X77829000Y-114499000D01*
X79731000Y-114499000D01*
X79731000Y-116401000D01*
G37*
G36*
X100775589Y-109038876D02*
G01*
X100874893Y-109058629D01*
X101015206Y-109116748D01*
X101141484Y-109201125D01*
X101248875Y-109308516D01*
X101333252Y-109434794D01*
X101391371Y-109575107D01*
X101421000Y-109724063D01*
X101421000Y-109875937D01*
X101391371Y-110024893D01*
X101333252Y-110165206D01*
X101248875Y-110291484D01*
X101141484Y-110398875D01*
X101015206Y-110483252D01*
X100874893Y-110541371D01*
X100775589Y-110561124D01*
X100725938Y-110571000D01*
X100574062Y-110571000D01*
X100524411Y-110561124D01*
X100425107Y-110541371D01*
X100284794Y-110483252D01*
X100158516Y-110398875D01*
X100051125Y-110291484D01*
X99966748Y-110165206D01*
X99908629Y-110024893D01*
X99879000Y-109875937D01*
X99879000Y-109724063D01*
X99908629Y-109575107D01*
X99966748Y-109434794D01*
X100051125Y-109308516D01*
X100158516Y-109201125D01*
X100284794Y-109116748D01*
X100425107Y-109058629D01*
X100524411Y-109038876D01*
X100574062Y-109029000D01*
X100725938Y-109029000D01*
X100775589Y-109038876D01*
G37*
G36*
X103315589Y-109038876D02*
G01*
X103414893Y-109058629D01*
X103555206Y-109116748D01*
X103681484Y-109201125D01*
X103788875Y-109308516D01*
X103873252Y-109434794D01*
X103931371Y-109575107D01*
X103961000Y-109724063D01*
X103961000Y-109875937D01*
X103931371Y-110024893D01*
X103873252Y-110165206D01*
X103788875Y-110291484D01*
X103681484Y-110398875D01*
X103555206Y-110483252D01*
X103414893Y-110541371D01*
X103315589Y-110561124D01*
X103265938Y-110571000D01*
X103114062Y-110571000D01*
X103064411Y-110561124D01*
X102965107Y-110541371D01*
X102824794Y-110483252D01*
X102698516Y-110398875D01*
X102591125Y-110291484D01*
X102506748Y-110165206D01*
X102448629Y-110024893D01*
X102419000Y-109875937D01*
X102419000Y-109724063D01*
X102448629Y-109575107D01*
X102506748Y-109434794D01*
X102591125Y-109308516D01*
X102698516Y-109201125D01*
X102824794Y-109116748D01*
X102965107Y-109058629D01*
X103064411Y-109038876D01*
X103114062Y-109029000D01*
X103265938Y-109029000D01*
X103315589Y-109038876D01*
G37*
G36*
X105855589Y-109038876D02*
G01*
X105954893Y-109058629D01*
X106095206Y-109116748D01*
X106221484Y-109201125D01*
X106328875Y-109308516D01*
X106413252Y-109434794D01*
X106471371Y-109575107D01*
X106501000Y-109724063D01*
X106501000Y-109875937D01*
X106471371Y-110024893D01*
X106413252Y-110165206D01*
X106328875Y-110291484D01*
X106221484Y-110398875D01*
X106095206Y-110483252D01*
X105954893Y-110541371D01*
X105855589Y-110561124D01*
X105805938Y-110571000D01*
X105654062Y-110571000D01*
X105604411Y-110561124D01*
X105505107Y-110541371D01*
X105364794Y-110483252D01*
X105238516Y-110398875D01*
X105131125Y-110291484D01*
X105046748Y-110165206D01*
X104988629Y-110024893D01*
X104959000Y-109875937D01*
X104959000Y-109724063D01*
X104988629Y-109575107D01*
X105046748Y-109434794D01*
X105131125Y-109308516D01*
X105238516Y-109201125D01*
X105364794Y-109116748D01*
X105505107Y-109058629D01*
X105604411Y-109038876D01*
X105654062Y-109029000D01*
X105805938Y-109029000D01*
X105855589Y-109038876D01*
G37*
G36*
X86567412Y-106343215D02*
G01*
X86871514Y-106469178D01*
X87145199Y-106652049D01*
X87377951Y-106884801D01*
X87560822Y-107158486D01*
X87686785Y-107462588D01*
X87751000Y-107785420D01*
X87751000Y-108114580D01*
X87686785Y-108437412D01*
X87560822Y-108741514D01*
X87377951Y-109015199D01*
X87145199Y-109247951D01*
X86871514Y-109430822D01*
X86567412Y-109556785D01*
X86244580Y-109621000D01*
X85915420Y-109621000D01*
X85592588Y-109556785D01*
X85288486Y-109430822D01*
X85014801Y-109247951D01*
X84782049Y-109015199D01*
X84599178Y-108741514D01*
X84473215Y-108437412D01*
X84409000Y-108114580D01*
X84409000Y-107785420D01*
X84473215Y-107462588D01*
X84599178Y-107158486D01*
X84782049Y-106884801D01*
X85014801Y-106652049D01*
X85288486Y-106469178D01*
X85592588Y-106343215D01*
X85915420Y-106279000D01*
X86244580Y-106279000D01*
X86567412Y-106343215D01*
G37*
G36*
X76967412Y-106343215D02*
G01*
X77271514Y-106469178D01*
X77545199Y-106652049D01*
X77777951Y-106884801D01*
X77960822Y-107158486D01*
X78086785Y-107462588D01*
X78151000Y-107785420D01*
X78151000Y-108114580D01*
X78086785Y-108437412D01*
X77960822Y-108741514D01*
X77777951Y-109015199D01*
X77545199Y-109247951D01*
X77271514Y-109430822D01*
X76967412Y-109556785D01*
X76644580Y-109621000D01*
X76315420Y-109621000D01*
X75992588Y-109556785D01*
X75688486Y-109430822D01*
X75414801Y-109247951D01*
X75182049Y-109015199D01*
X74999178Y-108741514D01*
X74873215Y-108437412D01*
X74809000Y-108114580D01*
X74809000Y-107785420D01*
X74873215Y-107462588D01*
X74999178Y-107158486D01*
X75182049Y-106884801D01*
X75414801Y-106652049D01*
X75688486Y-106469178D01*
X75992588Y-106343215D01*
X76315420Y-106279000D01*
X76644580Y-106279000D01*
X76967412Y-106343215D01*
G37*
G36*
X103315589Y-103038876D02*
G01*
X103414893Y-103058629D01*
X103555206Y-103116748D01*
X103681484Y-103201125D01*
X103788875Y-103308516D01*
X103873252Y-103434794D01*
X103931371Y-103575107D01*
X103961000Y-103724063D01*
X103961000Y-103875937D01*
X103931371Y-104024893D01*
X103873252Y-104165206D01*
X103788875Y-104291484D01*
X103681484Y-104398875D01*
X103555206Y-104483252D01*
X103414893Y-104541371D01*
X103315589Y-104561124D01*
X103265938Y-104571000D01*
X103114062Y-104571000D01*
X103064411Y-104561124D01*
X102965107Y-104541371D01*
X102824794Y-104483252D01*
X102698516Y-104398875D01*
X102591125Y-104291484D01*
X102506748Y-104165206D01*
X102448629Y-104024893D01*
X102419000Y-103875937D01*
X102419000Y-103724063D01*
X102448629Y-103575107D01*
X102506748Y-103434794D01*
X102591125Y-103308516D01*
X102698516Y-103201125D01*
X102824794Y-103116748D01*
X102965107Y-103058629D01*
X103064411Y-103038876D01*
X103114062Y-103029000D01*
X103265938Y-103029000D01*
X103315589Y-103038876D01*
G37*
G36*
X105855589Y-103038876D02*
G01*
X105954893Y-103058629D01*
X106095206Y-103116748D01*
X106221484Y-103201125D01*
X106328875Y-103308516D01*
X106413252Y-103434794D01*
X106471371Y-103575107D01*
X106501000Y-103724063D01*
X106501000Y-103875937D01*
X106471371Y-104024893D01*
X106413252Y-104165206D01*
X106328875Y-104291484D01*
X106221484Y-104398875D01*
X106095206Y-104483252D01*
X105954893Y-104541371D01*
X105855589Y-104561124D01*
X105805938Y-104571000D01*
X105654062Y-104571000D01*
X105604411Y-104561124D01*
X105505107Y-104541371D01*
X105364794Y-104483252D01*
X105238516Y-104398875D01*
X105131125Y-104291484D01*
X105046748Y-104165206D01*
X104988629Y-104024893D01*
X104959000Y-103875937D01*
X104959000Y-103724063D01*
X104988629Y-103575107D01*
X105046748Y-103434794D01*
X105131125Y-103308516D01*
X105238516Y-103201125D01*
X105364794Y-103116748D01*
X105505107Y-103058629D01*
X105604411Y-103038876D01*
X105654062Y-103029000D01*
X105805938Y-103029000D01*
X105855589Y-103038876D01*
G37*
G36*
X100775589Y-103038876D02*
G01*
X100874893Y-103058629D01*
X101015206Y-103116748D01*
X101141484Y-103201125D01*
X101248875Y-103308516D01*
X101333252Y-103434794D01*
X101391371Y-103575107D01*
X101421000Y-103724063D01*
X101421000Y-103875937D01*
X101391371Y-104024893D01*
X101333252Y-104165206D01*
X101248875Y-104291484D01*
X101141484Y-104398875D01*
X101015206Y-104483252D01*
X100874893Y-104541371D01*
X100775589Y-104561124D01*
X100725938Y-104571000D01*
X100574062Y-104571000D01*
X100524411Y-104561124D01*
X100425107Y-104541371D01*
X100284794Y-104483252D01*
X100158516Y-104398875D01*
X100051125Y-104291484D01*
X99966748Y-104165206D01*
X99908629Y-104024893D01*
X99879000Y-103875937D01*
X99879000Y-103724063D01*
X99908629Y-103575107D01*
X99966748Y-103434794D01*
X100051125Y-103308516D01*
X100158516Y-103201125D01*
X100284794Y-103116748D01*
X100425107Y-103058629D01*
X100524411Y-103038876D01*
X100574062Y-103029000D01*
X100725938Y-103029000D01*
X100775589Y-103038876D01*
G37*
G36*
X106957395Y-91675546D02*
G01*
X107130466Y-91747234D01*
X107130467Y-91747235D01*
X107286227Y-91851310D01*
X107418690Y-91983773D01*
X107418691Y-91983775D01*
X107522766Y-92139534D01*
X107594454Y-92312605D01*
X107631000Y-92496333D01*
X107631000Y-92683667D01*
X107594454Y-92867395D01*
X107522766Y-93040466D01*
X107522765Y-93040467D01*
X107418690Y-93196227D01*
X107286227Y-93328690D01*
X107207818Y-93381081D01*
X107130466Y-93432766D01*
X106957395Y-93504454D01*
X106773667Y-93541000D01*
X106586333Y-93541000D01*
X106402605Y-93504454D01*
X106229534Y-93432766D01*
X106152182Y-93381081D01*
X106073773Y-93328690D01*
X105941310Y-93196227D01*
X105837235Y-93040467D01*
X105837234Y-93040466D01*
X105765546Y-92867395D01*
X105729000Y-92683667D01*
X105729000Y-92496333D01*
X105765546Y-92312605D01*
X105837234Y-92139534D01*
X105941309Y-91983775D01*
X105941310Y-91983773D01*
X106073773Y-91851310D01*
X106229533Y-91747235D01*
X106229534Y-91747234D01*
X106402605Y-91675546D01*
X106586333Y-91639000D01*
X106773667Y-91639000D01*
X106957395Y-91675546D01*
G37*
G36*
X105131000Y-93541000D02*
G01*
X103229000Y-93541000D01*
X103229000Y-91639000D01*
X105131000Y-91639000D01*
X105131000Y-93541000D01*
G37*
G36*
X84057395Y-91675546D02*
G01*
X84230466Y-91747234D01*
X84230467Y-91747235D01*
X84386227Y-91851310D01*
X84518690Y-91983773D01*
X84518691Y-91983775D01*
X84622766Y-92139534D01*
X84694454Y-92312605D01*
X84731000Y-92496333D01*
X84731000Y-92683667D01*
X84694454Y-92867395D01*
X84622766Y-93040466D01*
X84622765Y-93040467D01*
X84518690Y-93196227D01*
X84386227Y-93328690D01*
X84307818Y-93381081D01*
X84230466Y-93432766D01*
X84057395Y-93504454D01*
X83873667Y-93541000D01*
X83686333Y-93541000D01*
X83502605Y-93504454D01*
X83329534Y-93432766D01*
X83252182Y-93381081D01*
X83173773Y-93328690D01*
X83041310Y-93196227D01*
X82937235Y-93040467D01*
X82937234Y-93040466D01*
X82865546Y-92867395D01*
X82829000Y-92683667D01*
X82829000Y-92496333D01*
X82865546Y-92312605D01*
X82937234Y-92139534D01*
X83041309Y-91983775D01*
X83041310Y-91983773D01*
X83173773Y-91851310D01*
X83329533Y-91747235D01*
X83329534Y-91747234D01*
X83502605Y-91675546D01*
X83686333Y-91639000D01*
X83873667Y-91639000D01*
X84057395Y-91675546D01*
G37*
G36*
X79731000Y-93541000D02*
G01*
X77829000Y-93541000D01*
X77829000Y-91639000D01*
X79731000Y-91639000D01*
X79731000Y-93541000D01*
G37*
G36*
X109457395Y-91675546D02*
G01*
X109630466Y-91747234D01*
X109630467Y-91747235D01*
X109786227Y-91851310D01*
X109918690Y-91983773D01*
X109918691Y-91983775D01*
X110022766Y-92139534D01*
X110094454Y-92312605D01*
X110131000Y-92496333D01*
X110131000Y-92683667D01*
X110094454Y-92867395D01*
X110022766Y-93040466D01*
X110022765Y-93040467D01*
X109918690Y-93196227D01*
X109786227Y-93328690D01*
X109707818Y-93381081D01*
X109630466Y-93432766D01*
X109457395Y-93504454D01*
X109273667Y-93541000D01*
X109086333Y-93541000D01*
X108902605Y-93504454D01*
X108729534Y-93432766D01*
X108652182Y-93381081D01*
X108573773Y-93328690D01*
X108441310Y-93196227D01*
X108337235Y-93040467D01*
X108337234Y-93040466D01*
X108265546Y-92867395D01*
X108229000Y-92683667D01*
X108229000Y-92496333D01*
X108265546Y-92312605D01*
X108337234Y-92139534D01*
X108441309Y-91983775D01*
X108441310Y-91983773D01*
X108573773Y-91851310D01*
X108729533Y-91747235D01*
X108729534Y-91747234D01*
X108902605Y-91675546D01*
X109086333Y-91639000D01*
X109273667Y-91639000D01*
X109457395Y-91675546D01*
G37*
G36*
X81557395Y-91675546D02*
G01*
X81730466Y-91747234D01*
X81730467Y-91747235D01*
X81886227Y-91851310D01*
X82018690Y-91983773D01*
X82018691Y-91983775D01*
X82122766Y-92139534D01*
X82194454Y-92312605D01*
X82231000Y-92496333D01*
X82231000Y-92683667D01*
X82194454Y-92867395D01*
X82122766Y-93040466D01*
X82122765Y-93040467D01*
X82018690Y-93196227D01*
X81886227Y-93328690D01*
X81807818Y-93381081D01*
X81730466Y-93432766D01*
X81557395Y-93504454D01*
X81373667Y-93541000D01*
X81186333Y-93541000D01*
X81002605Y-93504454D01*
X80829534Y-93432766D01*
X80752182Y-93381081D01*
X80673773Y-93328690D01*
X80541310Y-93196227D01*
X80437235Y-93040467D01*
X80437234Y-93040466D01*
X80365546Y-92867395D01*
X80329000Y-92683667D01*
X80329000Y-92496333D01*
X80365546Y-92312605D01*
X80437234Y-92139534D01*
X80541309Y-91983775D01*
X80541310Y-91983773D01*
X80673773Y-91851310D01*
X80829533Y-91747235D01*
X80829534Y-91747234D01*
X81002605Y-91675546D01*
X81186333Y-91639000D01*
X81373667Y-91639000D01*
X81557395Y-91675546D01*
G37*
G36*
X86567412Y-83483215D02*
G01*
X86871514Y-83609178D01*
X87145199Y-83792049D01*
X87377951Y-84024801D01*
X87560822Y-84298486D01*
X87686785Y-84602588D01*
X87751000Y-84925420D01*
X87751000Y-85254580D01*
X87686785Y-85577412D01*
X87560822Y-85881514D01*
X87377951Y-86155199D01*
X87145199Y-86387951D01*
X86871514Y-86570822D01*
X86567412Y-86696785D01*
X86244580Y-86761000D01*
X85915420Y-86761000D01*
X85592588Y-86696785D01*
X85288486Y-86570822D01*
X85014801Y-86387951D01*
X84782049Y-86155199D01*
X84599178Y-85881514D01*
X84473215Y-85577412D01*
X84409000Y-85254580D01*
X84409000Y-84925420D01*
X84473215Y-84602588D01*
X84599178Y-84298486D01*
X84782049Y-84024801D01*
X85014801Y-83792049D01*
X85288486Y-83609178D01*
X85592588Y-83483215D01*
X85915420Y-83419000D01*
X86244580Y-83419000D01*
X86567412Y-83483215D01*
G37*
G36*
X102367412Y-83483215D02*
G01*
X102671514Y-83609178D01*
X102945199Y-83792049D01*
X103177951Y-84024801D01*
X103360822Y-84298486D01*
X103486785Y-84602588D01*
X103551000Y-84925420D01*
X103551000Y-85254580D01*
X103486785Y-85577412D01*
X103360822Y-85881514D01*
X103177951Y-86155199D01*
X102945199Y-86387951D01*
X102671514Y-86570822D01*
X102367412Y-86696785D01*
X102044580Y-86761000D01*
X101715420Y-86761000D01*
X101392588Y-86696785D01*
X101088486Y-86570822D01*
X100814801Y-86387951D01*
X100582049Y-86155199D01*
X100399178Y-85881514D01*
X100273215Y-85577412D01*
X100209000Y-85254580D01*
X100209000Y-84925420D01*
X100273215Y-84602588D01*
X100399178Y-84298486D01*
X100582049Y-84024801D01*
X100814801Y-83792049D01*
X101088486Y-83609178D01*
X101392588Y-83483215D01*
X101715420Y-83419000D01*
X102044580Y-83419000D01*
X102367412Y-83483215D01*
G37*
G36*
X111967412Y-83483215D02*
G01*
X112271514Y-83609178D01*
X112545199Y-83792049D01*
X112777951Y-84024801D01*
X112960822Y-84298486D01*
X113086785Y-84602588D01*
X113151000Y-84925420D01*
X113151000Y-85254580D01*
X113086785Y-85577412D01*
X112960822Y-85881514D01*
X112777951Y-86155199D01*
X112545199Y-86387951D01*
X112271514Y-86570822D01*
X111967412Y-86696785D01*
X111644580Y-86761000D01*
X111315420Y-86761000D01*
X110992588Y-86696785D01*
X110688486Y-86570822D01*
X110414801Y-86387951D01*
X110182049Y-86155199D01*
X109999178Y-85881514D01*
X109873215Y-85577412D01*
X109809000Y-85254580D01*
X109809000Y-84925420D01*
X109873215Y-84602588D01*
X109999178Y-84298486D01*
X110182049Y-84024801D01*
X110414801Y-83792049D01*
X110688486Y-83609178D01*
X110992588Y-83483215D01*
X111315420Y-83419000D01*
X111644580Y-83419000D01*
X111967412Y-83483215D01*
G37*
G36*
X76967412Y-83483215D02*
G01*
X77271514Y-83609178D01*
X77545199Y-83792049D01*
X77777951Y-84024801D01*
X77960822Y-84298486D01*
X78086785Y-84602588D01*
X78151000Y-84925420D01*
X78151000Y-85254580D01*
X78086785Y-85577412D01*
X77960822Y-85881514D01*
X77777951Y-86155199D01*
X77545199Y-86387951D01*
X77271514Y-86570822D01*
X76967412Y-86696785D01*
X76644580Y-86761000D01*
X76315420Y-86761000D01*
X75992588Y-86696785D01*
X75688486Y-86570822D01*
X75414801Y-86387951D01*
X75182049Y-86155199D01*
X74999178Y-85881514D01*
X74873215Y-85577412D01*
X74809000Y-85254580D01*
X74809000Y-84925420D01*
X74873215Y-84602588D01*
X74999178Y-84298486D01*
X75182049Y-84024801D01*
X75414801Y-83792049D01*
X75688486Y-83609178D01*
X75992588Y-83483215D01*
X76315420Y-83419000D01*
X76644580Y-83419000D01*
X76967412Y-83483215D01*
G37*
G36*
X95262778Y-74812547D02*
G01*
X95429224Y-74881491D01*
X95579022Y-74981583D01*
X95706417Y-75108978D01*
X95806509Y-75258776D01*
X95875453Y-75425222D01*
X95910600Y-75601918D01*
X95910600Y-75782082D01*
X95875453Y-75958778D01*
X95806509Y-76125224D01*
X95706417Y-76275022D01*
X95579022Y-76402417D01*
X95429224Y-76502509D01*
X95262778Y-76571453D01*
X95086082Y-76606600D01*
X94905918Y-76606600D01*
X94729222Y-76571453D01*
X94562776Y-76502509D01*
X94412978Y-76402417D01*
X94285583Y-76275022D01*
X94185491Y-76125224D01*
X94116547Y-75958778D01*
X94081400Y-75782082D01*
X94081400Y-75601918D01*
X94116547Y-75425222D01*
X94185491Y-75258776D01*
X94285583Y-75108978D01*
X94412978Y-74981583D01*
X94562776Y-74881491D01*
X94729222Y-74812547D01*
X94905918Y-74777400D01*
X95086082Y-74777400D01*
X95262778Y-74812547D01*
G37*
G36*
X87642778Y-74812547D02*
G01*
X87809224Y-74881491D01*
X87959022Y-74981583D01*
X88086417Y-75108978D01*
X88186509Y-75258776D01*
X88255453Y-75425222D01*
X88290600Y-75601918D01*
X88290600Y-75782082D01*
X88255453Y-75958778D01*
X88186509Y-76125224D01*
X88086417Y-76275022D01*
X87959022Y-76402417D01*
X87809224Y-76502509D01*
X87642778Y-76571453D01*
X87466082Y-76606600D01*
X87285918Y-76606600D01*
X87109222Y-76571453D01*
X86942776Y-76502509D01*
X86792978Y-76402417D01*
X86665583Y-76275022D01*
X86565491Y-76125224D01*
X86496547Y-75958778D01*
X86461400Y-75782082D01*
X86461400Y-75601918D01*
X86496547Y-75425222D01*
X86565491Y-75258776D01*
X86665583Y-75108978D01*
X86792978Y-74981583D01*
X86942776Y-74881491D01*
X87109222Y-74812547D01*
X87285918Y-74777400D01*
X87466082Y-74777400D01*
X87642778Y-74812547D01*
G37*
G36*
X90182778Y-74812547D02*
G01*
X90349224Y-74881491D01*
X90499022Y-74981583D01*
X90626417Y-75108978D01*
X90726509Y-75258776D01*
X90795453Y-75425222D01*
X90830600Y-75601918D01*
X90830600Y-75782082D01*
X90795453Y-75958778D01*
X90726509Y-76125224D01*
X90626417Y-76275022D01*
X90499022Y-76402417D01*
X90349224Y-76502509D01*
X90182778Y-76571453D01*
X90006082Y-76606600D01*
X89825918Y-76606600D01*
X89649222Y-76571453D01*
X89482776Y-76502509D01*
X89332978Y-76402417D01*
X89205583Y-76275022D01*
X89105491Y-76125224D01*
X89036547Y-75958778D01*
X89001400Y-75782082D01*
X89001400Y-75601918D01*
X89036547Y-75425222D01*
X89105491Y-75258776D01*
X89205583Y-75108978D01*
X89332978Y-74981583D01*
X89482776Y-74881491D01*
X89649222Y-74812547D01*
X89825918Y-74777400D01*
X90006082Y-74777400D01*
X90182778Y-74812547D01*
G37*
G36*
X92722778Y-74812547D02*
G01*
X92889224Y-74881491D01*
X93039022Y-74981583D01*
X93166417Y-75108978D01*
X93266509Y-75258776D01*
X93335453Y-75425222D01*
X93370600Y-75601918D01*
X93370600Y-75782082D01*
X93335453Y-75958778D01*
X93266509Y-76125224D01*
X93166417Y-76275022D01*
X93039022Y-76402417D01*
X92889224Y-76502509D01*
X92722778Y-76571453D01*
X92546082Y-76606600D01*
X92365918Y-76606600D01*
X92189222Y-76571453D01*
X92022776Y-76502509D01*
X91872978Y-76402417D01*
X91745583Y-76275022D01*
X91645491Y-76125224D01*
X91576547Y-75958778D01*
X91541400Y-75782082D01*
X91541400Y-75601918D01*
X91576547Y-75425222D01*
X91645491Y-75258776D01*
X91745583Y-75108978D01*
X91872978Y-74981583D01*
X92022776Y-74881491D01*
X92189222Y-74812547D01*
X92365918Y-74777400D01*
X92546082Y-74777400D01*
X92722778Y-74812547D01*
G37*
G36*
X97802778Y-74812547D02*
G01*
X97969224Y-74881491D01*
X98119022Y-74981583D01*
X98246417Y-75108978D01*
X98346509Y-75258776D01*
X98415453Y-75425222D01*
X98450600Y-75601918D01*
X98450600Y-75782082D01*
X98415453Y-75958778D01*
X98346509Y-76125224D01*
X98246417Y-76275022D01*
X98119022Y-76402417D01*
X97969224Y-76502509D01*
X97802778Y-76571453D01*
X97626082Y-76606600D01*
X97445918Y-76606600D01*
X97269222Y-76571453D01*
X97102776Y-76502509D01*
X96952978Y-76402417D01*
X96825583Y-76275022D01*
X96725491Y-76125224D01*
X96656547Y-75958778D01*
X96621400Y-75782082D01*
X96621400Y-75601918D01*
X96656547Y-75425222D01*
X96725491Y-75258776D01*
X96825583Y-75108978D01*
X96952978Y-74981583D01*
X97102776Y-74881491D01*
X97269222Y-74812547D01*
X97445918Y-74777400D01*
X97626082Y-74777400D01*
X97802778Y-74812547D01*
G37*
G36*
X100342778Y-74812547D02*
G01*
X100509224Y-74881491D01*
X100659022Y-74981583D01*
X100786417Y-75108978D01*
X100886509Y-75258776D01*
X100955453Y-75425222D01*
X100990600Y-75601918D01*
X100990600Y-75782082D01*
X100955453Y-75958778D01*
X100886509Y-76125224D01*
X100786417Y-76275022D01*
X100659022Y-76402417D01*
X100509224Y-76502509D01*
X100342778Y-76571453D01*
X100166082Y-76606600D01*
X99985918Y-76606600D01*
X99809222Y-76571453D01*
X99642776Y-76502509D01*
X99492978Y-76402417D01*
X99365583Y-76275022D01*
X99265491Y-76125224D01*
X99196547Y-75958778D01*
X99161400Y-75782082D01*
X99161400Y-75601918D01*
X99196547Y-75425222D01*
X99265491Y-75258776D01*
X99365583Y-75108978D01*
X99492978Y-74981583D01*
X99642776Y-74881491D01*
X99809222Y-74812547D01*
X99985918Y-74777400D01*
X100166082Y-74777400D01*
X100342778Y-74812547D01*
G37*
G36*
X85102778Y-74812547D02*
G01*
X85269224Y-74881491D01*
X85419022Y-74981583D01*
X85546417Y-75108978D01*
X85646509Y-75258776D01*
X85715453Y-75425222D01*
X85750600Y-75601918D01*
X85750600Y-75782082D01*
X85715453Y-75958778D01*
X85646509Y-76125224D01*
X85546417Y-76275022D01*
X85419022Y-76402417D01*
X85269224Y-76502509D01*
X85102778Y-76571453D01*
X84926082Y-76606600D01*
X84745918Y-76606600D01*
X84569222Y-76571453D01*
X84402776Y-76502509D01*
X84252978Y-76402417D01*
X84125583Y-76275022D01*
X84025491Y-76125224D01*
X83956547Y-75958778D01*
X83921400Y-75782082D01*
X83921400Y-75601918D01*
X83956547Y-75425222D01*
X84025491Y-75258776D01*
X84125583Y-75108978D01*
X84252978Y-74981583D01*
X84402776Y-74881491D01*
X84569222Y-74812547D01*
X84745918Y-74777400D01*
X84926082Y-74777400D01*
X85102778Y-74812547D01*
G37*
G36*
X103530600Y-76606600D02*
G01*
X101701400Y-76606600D01*
X101701400Y-74777400D01*
X103530600Y-74777400D01*
X103530600Y-76606600D01*
G37*
G36*
X87642778Y-72272547D02*
G01*
X87809224Y-72341491D01*
X87959022Y-72441583D01*
X88086417Y-72568978D01*
X88186509Y-72718776D01*
X88255453Y-72885222D01*
X88290600Y-73061918D01*
X88290600Y-73242082D01*
X88255453Y-73418778D01*
X88186509Y-73585224D01*
X88086417Y-73735022D01*
X87959022Y-73862417D01*
X87809224Y-73962509D01*
X87642778Y-74031453D01*
X87466082Y-74066600D01*
X87285918Y-74066600D01*
X87109222Y-74031453D01*
X86942776Y-73962509D01*
X86792978Y-73862417D01*
X86665583Y-73735022D01*
X86565491Y-73585224D01*
X86496547Y-73418778D01*
X86461400Y-73242082D01*
X86461400Y-73061918D01*
X86496547Y-72885222D01*
X86565491Y-72718776D01*
X86665583Y-72568978D01*
X86792978Y-72441583D01*
X86942776Y-72341491D01*
X87109222Y-72272547D01*
X87285918Y-72237400D01*
X87466082Y-72237400D01*
X87642778Y-72272547D01*
G37*
G36*
X85102778Y-72272547D02*
G01*
X85269224Y-72341491D01*
X85419022Y-72441583D01*
X85546417Y-72568978D01*
X85646509Y-72718776D01*
X85715453Y-72885222D01*
X85750600Y-73061918D01*
X85750600Y-73242082D01*
X85715453Y-73418778D01*
X85646509Y-73585224D01*
X85546417Y-73735022D01*
X85419022Y-73862417D01*
X85269224Y-73962509D01*
X85102778Y-74031453D01*
X84926082Y-74066600D01*
X84745918Y-74066600D01*
X84569222Y-74031453D01*
X84402776Y-73962509D01*
X84252978Y-73862417D01*
X84125583Y-73735022D01*
X84025491Y-73585224D01*
X83956547Y-73418778D01*
X83921400Y-73242082D01*
X83921400Y-73061918D01*
X83956547Y-72885222D01*
X84025491Y-72718776D01*
X84125583Y-72568978D01*
X84252978Y-72441583D01*
X84402776Y-72341491D01*
X84569222Y-72272547D01*
X84745918Y-72237400D01*
X84926082Y-72237400D01*
X85102778Y-72272547D01*
G37*
G36*
X90182778Y-72272547D02*
G01*
X90349224Y-72341491D01*
X90499022Y-72441583D01*
X90626417Y-72568978D01*
X90726509Y-72718776D01*
X90795453Y-72885222D01*
X90830600Y-73061918D01*
X90830600Y-73242082D01*
X90795453Y-73418778D01*
X90726509Y-73585224D01*
X90626417Y-73735022D01*
X90499022Y-73862417D01*
X90349224Y-73962509D01*
X90182778Y-74031453D01*
X90006082Y-74066600D01*
X89825918Y-74066600D01*
X89649222Y-74031453D01*
X89482776Y-73962509D01*
X89332978Y-73862417D01*
X89205583Y-73735022D01*
X89105491Y-73585224D01*
X89036547Y-73418778D01*
X89001400Y-73242082D01*
X89001400Y-73061918D01*
X89036547Y-72885222D01*
X89105491Y-72718776D01*
X89205583Y-72568978D01*
X89332978Y-72441583D01*
X89482776Y-72341491D01*
X89649222Y-72272547D01*
X89825918Y-72237400D01*
X90006082Y-72237400D01*
X90182778Y-72272547D01*
G37*
G36*
X92722778Y-72272547D02*
G01*
X92889224Y-72341491D01*
X93039022Y-72441583D01*
X93166417Y-72568978D01*
X93266509Y-72718776D01*
X93335453Y-72885222D01*
X93370600Y-73061918D01*
X93370600Y-73242082D01*
X93335453Y-73418778D01*
X93266509Y-73585224D01*
X93166417Y-73735022D01*
X93039022Y-73862417D01*
X92889224Y-73962509D01*
X92722778Y-74031453D01*
X92546082Y-74066600D01*
X92365918Y-74066600D01*
X92189222Y-74031453D01*
X92022776Y-73962509D01*
X91872978Y-73862417D01*
X91745583Y-73735022D01*
X91645491Y-73585224D01*
X91576547Y-73418778D01*
X91541400Y-73242082D01*
X91541400Y-73061918D01*
X91576547Y-72885222D01*
X91645491Y-72718776D01*
X91745583Y-72568978D01*
X91872978Y-72441583D01*
X92022776Y-72341491D01*
X92189222Y-72272547D01*
X92365918Y-72237400D01*
X92546082Y-72237400D01*
X92722778Y-72272547D01*
G37*
G36*
X95262778Y-72272547D02*
G01*
X95429224Y-72341491D01*
X95579022Y-72441583D01*
X95706417Y-72568978D01*
X95806509Y-72718776D01*
X95875453Y-72885222D01*
X95910600Y-73061918D01*
X95910600Y-73242082D01*
X95875453Y-73418778D01*
X95806509Y-73585224D01*
X95706417Y-73735022D01*
X95579022Y-73862417D01*
X95429224Y-73962509D01*
X95262778Y-74031453D01*
X95086082Y-74066600D01*
X94905918Y-74066600D01*
X94729222Y-74031453D01*
X94562776Y-73962509D01*
X94412978Y-73862417D01*
X94285583Y-73735022D01*
X94185491Y-73585224D01*
X94116547Y-73418778D01*
X94081400Y-73242082D01*
X94081400Y-73061918D01*
X94116547Y-72885222D01*
X94185491Y-72718776D01*
X94285583Y-72568978D01*
X94412978Y-72441583D01*
X94562776Y-72341491D01*
X94729222Y-72272547D01*
X94905918Y-72237400D01*
X95086082Y-72237400D01*
X95262778Y-72272547D01*
G37*
G36*
X102882778Y-72272547D02*
G01*
X103049224Y-72341491D01*
X103199022Y-72441583D01*
X103326417Y-72568978D01*
X103426509Y-72718776D01*
X103495453Y-72885222D01*
X103530600Y-73061918D01*
X103530600Y-73242082D01*
X103495453Y-73418778D01*
X103426509Y-73585224D01*
X103326417Y-73735022D01*
X103199022Y-73862417D01*
X103049224Y-73962509D01*
X102882778Y-74031453D01*
X102706082Y-74066600D01*
X102525918Y-74066600D01*
X102349222Y-74031453D01*
X102182776Y-73962509D01*
X102032978Y-73862417D01*
X101905583Y-73735022D01*
X101805491Y-73585224D01*
X101736547Y-73418778D01*
X101701400Y-73242082D01*
X101701400Y-73061918D01*
X101736547Y-72885222D01*
X101805491Y-72718776D01*
X101905583Y-72568978D01*
X102032978Y-72441583D01*
X102182776Y-72341491D01*
X102349222Y-72272547D01*
X102525918Y-72237400D01*
X102706082Y-72237400D01*
X102882778Y-72272547D01*
G37*
G36*
X100342778Y-72272547D02*
G01*
X100509224Y-72341491D01*
X100659022Y-72441583D01*
X100786417Y-72568978D01*
X100886509Y-72718776D01*
X100955453Y-72885222D01*
X100990600Y-73061918D01*
X100990600Y-73242082D01*
X100955453Y-73418778D01*
X100886509Y-73585224D01*
X100786417Y-73735022D01*
X100659022Y-73862417D01*
X100509224Y-73962509D01*
X100342778Y-74031453D01*
X100166082Y-74066600D01*
X99985918Y-74066600D01*
X99809222Y-74031453D01*
X99642776Y-73962509D01*
X99492978Y-73862417D01*
X99365583Y-73735022D01*
X99265491Y-73585224D01*
X99196547Y-73418778D01*
X99161400Y-73242082D01*
X99161400Y-73061918D01*
X99196547Y-72885222D01*
X99265491Y-72718776D01*
X99365583Y-72568978D01*
X99492978Y-72441583D01*
X99642776Y-72341491D01*
X99809222Y-72272547D01*
X99985918Y-72237400D01*
X100166082Y-72237400D01*
X100342778Y-72272547D01*
G37*
G36*
X97802778Y-72272547D02*
G01*
X97969224Y-72341491D01*
X98119022Y-72441583D01*
X98246417Y-72568978D01*
X98346509Y-72718776D01*
X98415453Y-72885222D01*
X98450600Y-73061918D01*
X98450600Y-73242082D01*
X98415453Y-73418778D01*
X98346509Y-73585224D01*
X98246417Y-73735022D01*
X98119022Y-73862417D01*
X97969224Y-73962509D01*
X97802778Y-74031453D01*
X97626082Y-74066600D01*
X97445918Y-74066600D01*
X97269222Y-74031453D01*
X97102776Y-73962509D01*
X96952978Y-73862417D01*
X96825583Y-73735022D01*
X96725491Y-73585224D01*
X96656547Y-73418778D01*
X96621400Y-73242082D01*
X96621400Y-73061918D01*
X96656547Y-72885222D01*
X96725491Y-72718776D01*
X96825583Y-72568978D01*
X96952978Y-72441583D01*
X97102776Y-72341491D01*
X97269222Y-72272547D01*
X97445918Y-72237400D01*
X97626082Y-72237400D01*
X97802778Y-72272547D01*
G37*
M02*
