G04 #@! TF.GenerationSoftware,KiCad,Pcbnew,5.1.5-52549c5~84~ubuntu19.04.1*
G04 #@! TF.CreationDate,2020-04-14T21:10:59+02:00*
G04 #@! TF.ProjectId,osc1-frontplate,6f736331-2d66-4726-9f6e-74706c617465,rev?*
G04 #@! TF.SameCoordinates,Original*
G04 #@! TF.FileFunction,Legend,Bot*
G04 #@! TF.FilePolarity,Positive*
%FSLAX46Y46*%
G04 Gerber Fmt 4.6, Leading zero omitted, Abs format (unit mm)*
G04 Created by KiCad (PCBNEW 5.1.5-52549c5~84~ubuntu19.04.1) date 2020-04-14 21:10:59*
%MOMM*%
%LPD*%
G04 APERTURE LIST*
%ADD10C,0.150000*%
G04 APERTURE END LIST*
D10*
X155114047Y-170902380D02*
X155114047Y-171616666D01*
X155161666Y-171759523D01*
X155256904Y-171854761D01*
X155399761Y-171902380D01*
X155495000Y-171902380D01*
X154161666Y-171902380D02*
X154637857Y-171902380D01*
X154637857Y-170902380D01*
X153256904Y-171807142D02*
X153304523Y-171854761D01*
X153447380Y-171902380D01*
X153542619Y-171902380D01*
X153685476Y-171854761D01*
X153780714Y-171759523D01*
X153828333Y-171664285D01*
X153875952Y-171473809D01*
X153875952Y-171330952D01*
X153828333Y-171140476D01*
X153780714Y-171045238D01*
X153685476Y-170950000D01*
X153542619Y-170902380D01*
X153447380Y-170902380D01*
X153304523Y-170950000D01*
X153256904Y-170997619D01*
X152542619Y-170902380D02*
X152542619Y-171616666D01*
X152590238Y-171759523D01*
X152685476Y-171854761D01*
X152828333Y-171902380D01*
X152923571Y-171902380D01*
X151590238Y-171902380D02*
X152066428Y-171902380D01*
X152066428Y-170902380D01*
X150685476Y-171807142D02*
X150733095Y-171854761D01*
X150875952Y-171902380D01*
X150971190Y-171902380D01*
X151114047Y-171854761D01*
X151209285Y-171759523D01*
X151256904Y-171664285D01*
X151304523Y-171473809D01*
X151304523Y-171330952D01*
X151256904Y-171140476D01*
X151209285Y-171045238D01*
X151114047Y-170950000D01*
X150971190Y-170902380D01*
X150875952Y-170902380D01*
X150733095Y-170950000D01*
X150685476Y-170997619D01*
X149971190Y-170902380D02*
X149971190Y-171616666D01*
X150018809Y-171759523D01*
X150114047Y-171854761D01*
X150256904Y-171902380D01*
X150352142Y-171902380D01*
X149018809Y-171902380D02*
X149495000Y-171902380D01*
X149495000Y-170902380D01*
X148114047Y-171807142D02*
X148161666Y-171854761D01*
X148304523Y-171902380D01*
X148399761Y-171902380D01*
X148542619Y-171854761D01*
X148637857Y-171759523D01*
X148685476Y-171664285D01*
X148733095Y-171473809D01*
X148733095Y-171330952D01*
X148685476Y-171140476D01*
X148637857Y-171045238D01*
X148542619Y-170950000D01*
X148399761Y-170902380D01*
X148304523Y-170902380D01*
X148161666Y-170950000D01*
X148114047Y-170997619D01*
X147399761Y-170902380D02*
X147399761Y-171616666D01*
X147447380Y-171759523D01*
X147542619Y-171854761D01*
X147685476Y-171902380D01*
X147780714Y-171902380D01*
X146447380Y-171902380D02*
X146923571Y-171902380D01*
X146923571Y-170902380D01*
X145542619Y-171807142D02*
X145590238Y-171854761D01*
X145733095Y-171902380D01*
X145828333Y-171902380D01*
X145971190Y-171854761D01*
X146066428Y-171759523D01*
X146114047Y-171664285D01*
X146161666Y-171473809D01*
X146161666Y-171330952D01*
X146114047Y-171140476D01*
X146066428Y-171045238D01*
X145971190Y-170950000D01*
X145828333Y-170902380D01*
X145733095Y-170902380D01*
X145590238Y-170950000D01*
X145542619Y-170997619D01*
X162264761Y-52522380D02*
X162264761Y-51522380D01*
X162026666Y-51522380D01*
X161883809Y-51570000D01*
X161788571Y-51665238D01*
X161740952Y-51760476D01*
X161693333Y-51950952D01*
X161693333Y-52093809D01*
X161740952Y-52284285D01*
X161788571Y-52379523D01*
X161883809Y-52474761D01*
X162026666Y-52522380D01*
X162264761Y-52522380D01*
X161074285Y-51522380D02*
X160883809Y-51522380D01*
X160788571Y-51570000D01*
X160693333Y-51665238D01*
X160645714Y-51855714D01*
X160645714Y-52189047D01*
X160693333Y-52379523D01*
X160788571Y-52474761D01*
X160883809Y-52522380D01*
X161074285Y-52522380D01*
X161169523Y-52474761D01*
X161264761Y-52379523D01*
X161312380Y-52189047D01*
X161312380Y-51855714D01*
X161264761Y-51665238D01*
X161169523Y-51570000D01*
X161074285Y-51522380D01*
X161169523Y-51189047D02*
X161121904Y-51236666D01*
X161169523Y-51284285D01*
X161217142Y-51236666D01*
X161169523Y-51189047D01*
X161169523Y-51284285D01*
X160788571Y-51189047D02*
X160740952Y-51236666D01*
X160788571Y-51284285D01*
X160836190Y-51236666D01*
X160788571Y-51189047D01*
X160788571Y-51284285D01*
X160217142Y-52522380D02*
X160217142Y-51522380D01*
X159645714Y-52522380D01*
X159645714Y-51522380D01*
X158407619Y-52141428D02*
X157645714Y-52141428D01*
X156217142Y-51522380D02*
X156026666Y-51522380D01*
X155931428Y-51570000D01*
X155836190Y-51665238D01*
X155788571Y-51855714D01*
X155788571Y-52189047D01*
X155836190Y-52379523D01*
X155931428Y-52474761D01*
X156026666Y-52522380D01*
X156217142Y-52522380D01*
X156312380Y-52474761D01*
X156407619Y-52379523D01*
X156455238Y-52189047D01*
X156455238Y-51855714D01*
X156407619Y-51665238D01*
X156312380Y-51570000D01*
X156217142Y-51522380D01*
X155407619Y-52474761D02*
X155264761Y-52522380D01*
X155026666Y-52522380D01*
X154931428Y-52474761D01*
X154883809Y-52427142D01*
X154836190Y-52331904D01*
X154836190Y-52236666D01*
X154883809Y-52141428D01*
X154931428Y-52093809D01*
X155026666Y-52046190D01*
X155217142Y-51998571D01*
X155312380Y-51950952D01*
X155360000Y-51903333D01*
X155407619Y-51808095D01*
X155407619Y-51712857D01*
X155360000Y-51617619D01*
X155312380Y-51570000D01*
X155217142Y-51522380D01*
X154979047Y-51522380D01*
X154836190Y-51570000D01*
X153836190Y-52427142D02*
X153883809Y-52474761D01*
X154026666Y-52522380D01*
X154121904Y-52522380D01*
X154264761Y-52474761D01*
X154360000Y-52379523D01*
X154407619Y-52284285D01*
X154455238Y-52093809D01*
X154455238Y-51950952D01*
X154407619Y-51760476D01*
X154360000Y-51665238D01*
X154264761Y-51570000D01*
X154121904Y-51522380D01*
X154026666Y-51522380D01*
X153883809Y-51570000D01*
X153836190Y-51617619D01*
X152883809Y-52522380D02*
X153455238Y-52522380D01*
X153169523Y-52522380D02*
X153169523Y-51522380D01*
X153264761Y-51665238D01*
X153360000Y-51760476D01*
X153455238Y-51808095D01*
X151360000Y-51998571D02*
X151693333Y-51998571D01*
X151693333Y-52522380D02*
X151693333Y-51522380D01*
X151217142Y-51522380D01*
X150836190Y-52522380D02*
X150836190Y-51855714D01*
X150836190Y-52046190D02*
X150788571Y-51950952D01*
X150740952Y-51903333D01*
X150645714Y-51855714D01*
X150550476Y-51855714D01*
X150074285Y-52522380D02*
X150169523Y-52474761D01*
X150217142Y-52427142D01*
X150264761Y-52331904D01*
X150264761Y-52046190D01*
X150217142Y-51950952D01*
X150169523Y-51903333D01*
X150074285Y-51855714D01*
X149931428Y-51855714D01*
X149836190Y-51903333D01*
X149788571Y-51950952D01*
X149740952Y-52046190D01*
X149740952Y-52331904D01*
X149788571Y-52427142D01*
X149836190Y-52474761D01*
X149931428Y-52522380D01*
X150074285Y-52522380D01*
X149312380Y-51855714D02*
X149312380Y-52522380D01*
X149312380Y-51950952D02*
X149264761Y-51903333D01*
X149169523Y-51855714D01*
X149026666Y-51855714D01*
X148931428Y-51903333D01*
X148883809Y-51998571D01*
X148883809Y-52522380D01*
X148550476Y-51855714D02*
X148169523Y-51855714D01*
X148407619Y-51522380D02*
X148407619Y-52379523D01*
X148360000Y-52474761D01*
X148264761Y-52522380D01*
X148169523Y-52522380D01*
X147836190Y-51855714D02*
X147836190Y-52855714D01*
X147836190Y-51903333D02*
X147740952Y-51855714D01*
X147550476Y-51855714D01*
X147455238Y-51903333D01*
X147407619Y-51950952D01*
X147360000Y-52046190D01*
X147360000Y-52331904D01*
X147407619Y-52427142D01*
X147455238Y-52474761D01*
X147550476Y-52522380D01*
X147740952Y-52522380D01*
X147836190Y-52474761D01*
X146788571Y-52522380D02*
X146883809Y-52474761D01*
X146931428Y-52379523D01*
X146931428Y-51522380D01*
X145979047Y-52522380D02*
X145979047Y-51998571D01*
X146026666Y-51903333D01*
X146121904Y-51855714D01*
X146312380Y-51855714D01*
X146407619Y-51903333D01*
X145979047Y-52474761D02*
X146074285Y-52522380D01*
X146312380Y-52522380D01*
X146407619Y-52474761D01*
X146455238Y-52379523D01*
X146455238Y-52284285D01*
X146407619Y-52189047D01*
X146312380Y-52141428D01*
X146074285Y-52141428D01*
X145979047Y-52093809D01*
X145645714Y-51855714D02*
X145264761Y-51855714D01*
X145502857Y-51522380D02*
X145502857Y-52379523D01*
X145455238Y-52474761D01*
X145360000Y-52522380D01*
X145264761Y-52522380D01*
X144550476Y-52474761D02*
X144645714Y-52522380D01*
X144836190Y-52522380D01*
X144931428Y-52474761D01*
X144979047Y-52379523D01*
X144979047Y-51998571D01*
X144931428Y-51903333D01*
X144836190Y-51855714D01*
X144645714Y-51855714D01*
X144550476Y-51903333D01*
X144502857Y-51998571D01*
X144502857Y-52093809D01*
X144979047Y-52189047D01*
X143312380Y-52141428D02*
X142550476Y-52141428D01*
X140740952Y-52522380D02*
X141074285Y-52046190D01*
X141312380Y-52522380D02*
X141312380Y-51522380D01*
X140931428Y-51522380D01*
X140836190Y-51570000D01*
X140788571Y-51617619D01*
X140740952Y-51712857D01*
X140740952Y-51855714D01*
X140788571Y-51950952D01*
X140836190Y-51998571D01*
X140931428Y-52046190D01*
X141312380Y-52046190D01*
X139931428Y-52474761D02*
X140026666Y-52522380D01*
X140217142Y-52522380D01*
X140312380Y-52474761D01*
X140360000Y-52379523D01*
X140360000Y-51998571D01*
X140312380Y-51903333D01*
X140217142Y-51855714D01*
X140026666Y-51855714D01*
X139931428Y-51903333D01*
X139883809Y-51998571D01*
X139883809Y-52093809D01*
X140360000Y-52189047D01*
X139550476Y-51855714D02*
X139312380Y-52522380D01*
X139074285Y-51855714D01*
X137740952Y-51522380D02*
X137645714Y-51522380D01*
X137550476Y-51570000D01*
X137502857Y-51617619D01*
X137455238Y-51712857D01*
X137407619Y-51903333D01*
X137407619Y-52141428D01*
X137455238Y-52331904D01*
X137502857Y-52427142D01*
X137550476Y-52474761D01*
X137645714Y-52522380D01*
X137740952Y-52522380D01*
X137836190Y-52474761D01*
X137883809Y-52427142D01*
X137931428Y-52331904D01*
X137979047Y-52141428D01*
X137979047Y-51903333D01*
X137931428Y-51712857D01*
X137883809Y-51617619D01*
X137836190Y-51570000D01*
X137740952Y-51522380D01*
M02*
