G04 #@! TF.GenerationSoftware,KiCad,Pcbnew,5.1.5-52549c5~84~ubuntu19.04.1*
G04 #@! TF.CreationDate,2020-04-14T21:23:31+02:00*
G04 #@! TF.ProjectId,osc1,6f736331-2e6b-4696-9361-645f70636258,rev?*
G04 #@! TF.SameCoordinates,Original*
G04 #@! TF.FileFunction,Legend,Bot*
G04 #@! TF.FilePolarity,Positive*
%FSLAX46Y46*%
G04 Gerber Fmt 4.6, Leading zero omitted, Abs format (unit mm)*
G04 Created by KiCad (PCBNEW 5.1.5-52549c5~84~ubuntu19.04.1) date 2020-04-14 21:23:31*
%MOMM*%
%LPD*%
G04 APERTURE LIST*
%ADD10C,0.150000*%
%ADD11C,0.120000*%
G04 APERTURE END LIST*
D10*
X95035523Y-84146380D02*
X95035523Y-83146380D01*
X94797428Y-83146380D01*
X94654571Y-83194000D01*
X94559333Y-83289238D01*
X94511714Y-83384476D01*
X94464095Y-83574952D01*
X94464095Y-83717809D01*
X94511714Y-83908285D01*
X94559333Y-84003523D01*
X94654571Y-84098761D01*
X94797428Y-84146380D01*
X95035523Y-84146380D01*
X93845047Y-83146380D02*
X93654571Y-83146380D01*
X93559333Y-83194000D01*
X93464095Y-83289238D01*
X93416476Y-83479714D01*
X93416476Y-83813047D01*
X93464095Y-84003523D01*
X93559333Y-84098761D01*
X93654571Y-84146380D01*
X93845047Y-84146380D01*
X93940285Y-84098761D01*
X94035523Y-84003523D01*
X94083142Y-83813047D01*
X94083142Y-83479714D01*
X94035523Y-83289238D01*
X93940285Y-83194000D01*
X93845047Y-83146380D01*
X93940285Y-82813047D02*
X93892666Y-82860666D01*
X93940285Y-82908285D01*
X93987904Y-82860666D01*
X93940285Y-82813047D01*
X93940285Y-82908285D01*
X93559333Y-82813047D02*
X93511714Y-82860666D01*
X93559333Y-82908285D01*
X93606952Y-82860666D01*
X93559333Y-82813047D01*
X93559333Y-82908285D01*
X92987904Y-84146380D02*
X92987904Y-83146380D01*
X92416476Y-84146380D01*
X92416476Y-83146380D01*
X95273619Y-84796380D02*
X95083142Y-84796380D01*
X94987904Y-84844000D01*
X94892666Y-84939238D01*
X94845047Y-85129714D01*
X94845047Y-85463047D01*
X94892666Y-85653523D01*
X94987904Y-85748761D01*
X95083142Y-85796380D01*
X95273619Y-85796380D01*
X95368857Y-85748761D01*
X95464095Y-85653523D01*
X95511714Y-85463047D01*
X95511714Y-85129714D01*
X95464095Y-84939238D01*
X95368857Y-84844000D01*
X95273619Y-84796380D01*
X94464095Y-85748761D02*
X94321238Y-85796380D01*
X94083142Y-85796380D01*
X93987904Y-85748761D01*
X93940285Y-85701142D01*
X93892666Y-85605904D01*
X93892666Y-85510666D01*
X93940285Y-85415428D01*
X93987904Y-85367809D01*
X94083142Y-85320190D01*
X94273619Y-85272571D01*
X94368857Y-85224952D01*
X94416476Y-85177333D01*
X94464095Y-85082095D01*
X94464095Y-84986857D01*
X94416476Y-84891619D01*
X94368857Y-84844000D01*
X94273619Y-84796380D01*
X94035523Y-84796380D01*
X93892666Y-84844000D01*
X92892666Y-85701142D02*
X92940285Y-85748761D01*
X93083142Y-85796380D01*
X93178380Y-85796380D01*
X93321238Y-85748761D01*
X93416476Y-85653523D01*
X93464095Y-85558285D01*
X93511714Y-85367809D01*
X93511714Y-85224952D01*
X93464095Y-85034476D01*
X93416476Y-84939238D01*
X93321238Y-84844000D01*
X93178380Y-84796380D01*
X93083142Y-84796380D01*
X92940285Y-84844000D01*
X92892666Y-84891619D01*
X91940285Y-85796380D02*
X92511714Y-85796380D01*
X92226000Y-85796380D02*
X92226000Y-84796380D01*
X92321238Y-84939238D01*
X92416476Y-85034476D01*
X92511714Y-85082095D01*
X95464095Y-87446380D02*
X95464095Y-86779714D01*
X95464095Y-86970190D02*
X95416476Y-86874952D01*
X95368857Y-86827333D01*
X95273619Y-86779714D01*
X95178380Y-86779714D01*
X94464095Y-87398761D02*
X94559333Y-87446380D01*
X94749809Y-87446380D01*
X94845047Y-87398761D01*
X94892666Y-87303523D01*
X94892666Y-86922571D01*
X94845047Y-86827333D01*
X94749809Y-86779714D01*
X94559333Y-86779714D01*
X94464095Y-86827333D01*
X94416476Y-86922571D01*
X94416476Y-87017809D01*
X94892666Y-87113047D01*
X94083142Y-86779714D02*
X93845047Y-87446380D01*
X93606952Y-86779714D01*
X92273619Y-86446380D02*
X92178380Y-86446380D01*
X92083142Y-86494000D01*
X92035523Y-86541619D01*
X91987904Y-86636857D01*
X91940285Y-86827333D01*
X91940285Y-87065428D01*
X91987904Y-87255904D01*
X92035523Y-87351142D01*
X92083142Y-87398761D01*
X92178380Y-87446380D01*
X92273619Y-87446380D01*
X92368857Y-87398761D01*
X92416476Y-87351142D01*
X92464095Y-87255904D01*
X92511714Y-87065428D01*
X92511714Y-86827333D01*
X92464095Y-86636857D01*
X92416476Y-86541619D01*
X92368857Y-86494000D01*
X92273619Y-86446380D01*
D11*
X99040000Y-130302000D02*
X99040000Y-126852000D01*
X99040000Y-130302000D02*
X99040000Y-132252000D01*
X104160000Y-130302000D02*
X104160000Y-128352000D01*
X104160000Y-130302000D02*
X104160000Y-132252000D01*
X104900000Y-158684279D02*
X104900000Y-158358721D01*
X105920000Y-158684279D02*
X105920000Y-158358721D01*
X104646000Y-130490279D02*
X104646000Y-130164721D01*
X105666000Y-130490279D02*
X105666000Y-130164721D01*
X87438000Y-165446000D02*
X89288000Y-165446000D01*
X87438000Y-164246000D02*
X89288000Y-164246000D01*
X89288000Y-164246000D02*
X89288000Y-165446000D01*
X83755000Y-165446000D02*
X85605000Y-165446000D01*
X83755000Y-164246000D02*
X85605000Y-164246000D01*
X85605000Y-164246000D02*
X85605000Y-165446000D01*
X99040000Y-158496000D02*
X99040000Y-155046000D01*
X99040000Y-158496000D02*
X99040000Y-160446000D01*
X104160000Y-158496000D02*
X104160000Y-156546000D01*
X104160000Y-158496000D02*
X104160000Y-160446000D01*
X90364000Y-120380000D02*
G75*
G03X90364000Y-118380000I0J1000000D01*
G01*
X90364000Y-118380000D02*
X90364000Y-116730000D01*
X90364000Y-116730000D02*
X110804000Y-116730000D01*
X110804000Y-116730000D02*
X110804000Y-122030000D01*
X110804000Y-122030000D02*
X90364000Y-122030000D01*
X90364000Y-122030000D02*
X90364000Y-120380000D01*
X90304000Y-114240000D02*
X110864000Y-114240000D01*
X110864000Y-114240000D02*
X110864000Y-124520000D01*
X110864000Y-124520000D02*
X90304000Y-124520000D01*
X90304000Y-124520000D02*
X90304000Y-114240000D01*
X103540779Y-170944000D02*
X103215221Y-170944000D01*
X103540779Y-169924000D02*
X103215221Y-169924000D01*
X103540779Y-142750000D02*
X103215221Y-142750000D01*
X103540779Y-141730000D02*
X103215221Y-141730000D01*
X103540779Y-147576000D02*
X103215221Y-147576000D01*
X103540779Y-146556000D02*
X103215221Y-146556000D01*
X103540779Y-168150000D02*
X103215221Y-168150000D01*
X103540779Y-167130000D02*
X103215221Y-167130000D01*
X103540779Y-139956000D02*
X103215221Y-139956000D01*
X103540779Y-138936000D02*
X103215221Y-138936000D01*
X103540779Y-150370000D02*
X103215221Y-150370000D01*
X103540779Y-149350000D02*
X103215221Y-149350000D01*
X99984779Y-170944000D02*
X99659221Y-170944000D01*
X99984779Y-169924000D02*
X99659221Y-169924000D01*
X99984779Y-142750000D02*
X99659221Y-142750000D01*
X99984779Y-141730000D02*
X99659221Y-141730000D01*
X99984779Y-147576000D02*
X99659221Y-147576000D01*
X99984779Y-146556000D02*
X99659221Y-146556000D01*
X99659221Y-138936000D02*
X99984779Y-138936000D01*
X99659221Y-139956000D02*
X99984779Y-139956000D01*
X99659221Y-167130000D02*
X99984779Y-167130000D01*
X99659221Y-168150000D02*
X99984779Y-168150000D01*
X99659221Y-149350000D02*
X99984779Y-149350000D01*
X99659221Y-150370000D02*
X99984779Y-150370000D01*
X103215221Y-164336000D02*
X103540779Y-164336000D01*
X103215221Y-165356000D02*
X103540779Y-165356000D01*
X99984779Y-165356000D02*
X99659221Y-165356000D01*
X99984779Y-164336000D02*
X99659221Y-164336000D01*
X99984779Y-137162000D02*
X99659221Y-137162000D01*
X99984779Y-136142000D02*
X99659221Y-136142000D01*
X103540779Y-153164000D02*
X103215221Y-153164000D01*
X103540779Y-152144000D02*
X103215221Y-152144000D01*
X99984779Y-153164000D02*
X99659221Y-153164000D01*
X99984779Y-152144000D02*
X99659221Y-152144000D01*
X103540779Y-137162000D02*
X103215221Y-137162000D01*
X103540779Y-136142000D02*
X103215221Y-136142000D01*
X92962000Y-110906779D02*
X92962000Y-110581221D01*
X93982000Y-110906779D02*
X93982000Y-110581221D01*
X94740000Y-110906779D02*
X94740000Y-110581221D01*
X95760000Y-110906779D02*
X95760000Y-110581221D01*
X91184000Y-110906779D02*
X91184000Y-110581221D01*
X92204000Y-110906779D02*
X92204000Y-110581221D01*
X89406000Y-110906779D02*
X89406000Y-110581221D01*
X90426000Y-110906779D02*
X90426000Y-110581221D01*
X105064779Y-96264000D02*
X104739221Y-96264000D01*
X105064779Y-97284000D02*
X104739221Y-97284000D01*
X108295221Y-94486000D02*
X108620779Y-94486000D01*
X108295221Y-95506000D02*
X108620779Y-95506000D01*
X81117221Y-95502000D02*
X81442779Y-95502000D01*
X81117221Y-96522000D02*
X81442779Y-96522000D01*
X105064779Y-95506000D02*
X104739221Y-95506000D01*
X105064779Y-94486000D02*
X104739221Y-94486000D01*
X84744779Y-140464000D02*
X84419221Y-140464000D01*
X84744779Y-139444000D02*
X84419221Y-139444000D01*
X88300779Y-168150000D02*
X87975221Y-168150000D01*
X88300779Y-167130000D02*
X87975221Y-167130000D01*
X84744779Y-168150000D02*
X84419221Y-168150000D01*
X84744779Y-167130000D02*
X84419221Y-167130000D01*
X88300779Y-152910000D02*
X87975221Y-152910000D01*
X88300779Y-151890000D02*
X87975221Y-151890000D01*
X82802000Y-120050779D02*
X82802000Y-119725221D01*
X83822000Y-120050779D02*
X83822000Y-119725221D01*
X80770000Y-120050779D02*
X80770000Y-119725221D01*
X81790000Y-120050779D02*
X81790000Y-119725221D01*
X108216000Y-79347000D02*
X108216000Y-76807000D01*
X108216000Y-79347000D02*
X105676000Y-79347000D01*
X107966000Y-79097000D02*
X107966000Y-69747000D01*
X79486000Y-79097000D02*
X107966000Y-79097000D01*
X79486000Y-69747000D02*
X79486000Y-79097000D01*
X107966000Y-69747000D02*
X79486000Y-69747000D01*
X84744779Y-155704000D02*
X84419221Y-155704000D01*
X84744779Y-154684000D02*
X84419221Y-154684000D01*
X96518000Y-110906779D02*
X96518000Y-110581221D01*
X97538000Y-110906779D02*
X97538000Y-110581221D01*
X101183221Y-97284000D02*
X101508779Y-97284000D01*
X101183221Y-96264000D02*
X101508779Y-96264000D01*
X87975221Y-169924000D02*
X88300779Y-169924000D01*
X87975221Y-170944000D02*
X88300779Y-170944000D01*
X84744779Y-170944000D02*
X84419221Y-170944000D01*
X84744779Y-169924000D02*
X84419221Y-169924000D01*
X87975221Y-154684000D02*
X88300779Y-154684000D01*
X87975221Y-155704000D02*
X88300779Y-155704000D01*
D10*
X97750380Y-129540095D02*
X98559904Y-129540095D01*
X98655142Y-129587714D01*
X98702761Y-129635333D01*
X98750380Y-129730571D01*
X98750380Y-129921047D01*
X98702761Y-130016285D01*
X98655142Y-130063904D01*
X98559904Y-130111523D01*
X97750380Y-130111523D01*
X97750380Y-130492476D02*
X97750380Y-131111523D01*
X98131333Y-130778190D01*
X98131333Y-130921047D01*
X98178952Y-131016285D01*
X98226571Y-131063904D01*
X98321809Y-131111523D01*
X98559904Y-131111523D01*
X98655142Y-131063904D01*
X98702761Y-131016285D01*
X98750380Y-130921047D01*
X98750380Y-130635333D01*
X98702761Y-130540095D01*
X98655142Y-130492476D01*
X105767142Y-155916333D02*
X105814761Y-155868714D01*
X105862380Y-155725857D01*
X105862380Y-155630619D01*
X105814761Y-155487761D01*
X105719523Y-155392523D01*
X105624285Y-155344904D01*
X105433809Y-155297285D01*
X105290952Y-155297285D01*
X105100476Y-155344904D01*
X105005238Y-155392523D01*
X104910000Y-155487761D01*
X104862380Y-155630619D01*
X104862380Y-155725857D01*
X104910000Y-155868714D01*
X104957619Y-155916333D01*
X105290952Y-156487761D02*
X105243333Y-156392523D01*
X105195714Y-156344904D01*
X105100476Y-156297285D01*
X105052857Y-156297285D01*
X104957619Y-156344904D01*
X104910000Y-156392523D01*
X104862380Y-156487761D01*
X104862380Y-156678238D01*
X104910000Y-156773476D01*
X104957619Y-156821095D01*
X105052857Y-156868714D01*
X105100476Y-156868714D01*
X105195714Y-156821095D01*
X105243333Y-156773476D01*
X105290952Y-156678238D01*
X105290952Y-156487761D01*
X105338571Y-156392523D01*
X105386190Y-156344904D01*
X105481428Y-156297285D01*
X105671904Y-156297285D01*
X105767142Y-156344904D01*
X105814761Y-156392523D01*
X105862380Y-156487761D01*
X105862380Y-156678238D01*
X105814761Y-156773476D01*
X105767142Y-156821095D01*
X105671904Y-156868714D01*
X105481428Y-156868714D01*
X105386190Y-156821095D01*
X105338571Y-156773476D01*
X105290952Y-156678238D01*
X105513142Y-127595333D02*
X105560761Y-127547714D01*
X105608380Y-127404857D01*
X105608380Y-127309619D01*
X105560761Y-127166761D01*
X105465523Y-127071523D01*
X105370285Y-127023904D01*
X105179809Y-126976285D01*
X105036952Y-126976285D01*
X104846476Y-127023904D01*
X104751238Y-127071523D01*
X104656000Y-127166761D01*
X104608380Y-127309619D01*
X104608380Y-127404857D01*
X104656000Y-127547714D01*
X104703619Y-127595333D01*
X104608380Y-127928666D02*
X104608380Y-128595333D01*
X105608380Y-128166761D01*
X88876095Y-163998380D02*
X88876095Y-162998380D01*
X88638000Y-162998380D01*
X88495142Y-163046000D01*
X88399904Y-163141238D01*
X88352285Y-163236476D01*
X88304666Y-163426952D01*
X88304666Y-163569809D01*
X88352285Y-163760285D01*
X88399904Y-163855523D01*
X88495142Y-163950761D01*
X88638000Y-163998380D01*
X88876095Y-163998380D01*
X87923714Y-163093619D02*
X87876095Y-163046000D01*
X87780857Y-162998380D01*
X87542761Y-162998380D01*
X87447523Y-163046000D01*
X87399904Y-163093619D01*
X87352285Y-163188857D01*
X87352285Y-163284095D01*
X87399904Y-163426952D01*
X87971333Y-163998380D01*
X87352285Y-163998380D01*
X85193095Y-163998380D02*
X85193095Y-162998380D01*
X84955000Y-162998380D01*
X84812142Y-163046000D01*
X84716904Y-163141238D01*
X84669285Y-163236476D01*
X84621666Y-163426952D01*
X84621666Y-163569809D01*
X84669285Y-163760285D01*
X84716904Y-163855523D01*
X84812142Y-163950761D01*
X84955000Y-163998380D01*
X85193095Y-163998380D01*
X83669285Y-163998380D02*
X84240714Y-163998380D01*
X83955000Y-163998380D02*
X83955000Y-162998380D01*
X84050238Y-163141238D01*
X84145476Y-163236476D01*
X84240714Y-163284095D01*
X97750380Y-157734095D02*
X98559904Y-157734095D01*
X98655142Y-157781714D01*
X98702761Y-157829333D01*
X98750380Y-157924571D01*
X98750380Y-158115047D01*
X98702761Y-158210285D01*
X98655142Y-158257904D01*
X98559904Y-158305523D01*
X97750380Y-158305523D01*
X97845619Y-158734095D02*
X97798000Y-158781714D01*
X97750380Y-158876952D01*
X97750380Y-159115047D01*
X97798000Y-159210285D01*
X97845619Y-159257904D01*
X97940857Y-159305523D01*
X98036095Y-159305523D01*
X98178952Y-159257904D01*
X98750380Y-158686476D01*
X98750380Y-159305523D01*
X88816380Y-118618095D02*
X89625904Y-118618095D01*
X89721142Y-118665714D01*
X89768761Y-118713333D01*
X89816380Y-118808571D01*
X89816380Y-118999047D01*
X89768761Y-119094285D01*
X89721142Y-119141904D01*
X89625904Y-119189523D01*
X88816380Y-119189523D01*
X89816380Y-120189523D02*
X89816380Y-119618095D01*
X89816380Y-119903809D02*
X88816380Y-119903809D01*
X88959238Y-119808571D01*
X89054476Y-119713333D01*
X89102095Y-119618095D01*
X104020857Y-169616380D02*
X104354190Y-169140190D01*
X104592285Y-169616380D02*
X104592285Y-168616380D01*
X104211333Y-168616380D01*
X104116095Y-168664000D01*
X104068476Y-168711619D01*
X104020857Y-168806857D01*
X104020857Y-168949714D01*
X104068476Y-169044952D01*
X104116095Y-169092571D01*
X104211333Y-169140190D01*
X104592285Y-169140190D01*
X103687523Y-168616380D02*
X103068476Y-168616380D01*
X103401809Y-168997333D01*
X103258952Y-168997333D01*
X103163714Y-169044952D01*
X103116095Y-169092571D01*
X103068476Y-169187809D01*
X103068476Y-169425904D01*
X103116095Y-169521142D01*
X103163714Y-169568761D01*
X103258952Y-169616380D01*
X103544666Y-169616380D01*
X103639904Y-169568761D01*
X103687523Y-169521142D01*
X102687523Y-168711619D02*
X102639904Y-168664000D01*
X102544666Y-168616380D01*
X102306571Y-168616380D01*
X102211333Y-168664000D01*
X102163714Y-168711619D01*
X102116095Y-168806857D01*
X102116095Y-168902095D01*
X102163714Y-169044952D01*
X102735142Y-169616380D01*
X102116095Y-169616380D01*
X104020857Y-141422380D02*
X104354190Y-140946190D01*
X104592285Y-141422380D02*
X104592285Y-140422380D01*
X104211333Y-140422380D01*
X104116095Y-140470000D01*
X104068476Y-140517619D01*
X104020857Y-140612857D01*
X104020857Y-140755714D01*
X104068476Y-140850952D01*
X104116095Y-140898571D01*
X104211333Y-140946190D01*
X104592285Y-140946190D01*
X103687523Y-140422380D02*
X103068476Y-140422380D01*
X103401809Y-140803333D01*
X103258952Y-140803333D01*
X103163714Y-140850952D01*
X103116095Y-140898571D01*
X103068476Y-140993809D01*
X103068476Y-141231904D01*
X103116095Y-141327142D01*
X103163714Y-141374761D01*
X103258952Y-141422380D01*
X103544666Y-141422380D01*
X103639904Y-141374761D01*
X103687523Y-141327142D01*
X102116095Y-141422380D02*
X102687523Y-141422380D01*
X102401809Y-141422380D02*
X102401809Y-140422380D01*
X102497047Y-140565238D01*
X102592285Y-140660476D01*
X102687523Y-140708095D01*
X104020857Y-146248380D02*
X104354190Y-145772190D01*
X104592285Y-146248380D02*
X104592285Y-145248380D01*
X104211333Y-145248380D01*
X104116095Y-145296000D01*
X104068476Y-145343619D01*
X104020857Y-145438857D01*
X104020857Y-145581714D01*
X104068476Y-145676952D01*
X104116095Y-145724571D01*
X104211333Y-145772190D01*
X104592285Y-145772190D01*
X103687523Y-145248380D02*
X103068476Y-145248380D01*
X103401809Y-145629333D01*
X103258952Y-145629333D01*
X103163714Y-145676952D01*
X103116095Y-145724571D01*
X103068476Y-145819809D01*
X103068476Y-146057904D01*
X103116095Y-146153142D01*
X103163714Y-146200761D01*
X103258952Y-146248380D01*
X103544666Y-146248380D01*
X103639904Y-146200761D01*
X103687523Y-146153142D01*
X102449428Y-145248380D02*
X102354190Y-145248380D01*
X102258952Y-145296000D01*
X102211333Y-145343619D01*
X102163714Y-145438857D01*
X102116095Y-145629333D01*
X102116095Y-145867428D01*
X102163714Y-146057904D01*
X102211333Y-146153142D01*
X102258952Y-146200761D01*
X102354190Y-146248380D01*
X102449428Y-146248380D01*
X102544666Y-146200761D01*
X102592285Y-146153142D01*
X102639904Y-146057904D01*
X102687523Y-145867428D01*
X102687523Y-145629333D01*
X102639904Y-145438857D01*
X102592285Y-145343619D01*
X102544666Y-145296000D01*
X102449428Y-145248380D01*
X104020857Y-166822380D02*
X104354190Y-166346190D01*
X104592285Y-166822380D02*
X104592285Y-165822380D01*
X104211333Y-165822380D01*
X104116095Y-165870000D01*
X104068476Y-165917619D01*
X104020857Y-166012857D01*
X104020857Y-166155714D01*
X104068476Y-166250952D01*
X104116095Y-166298571D01*
X104211333Y-166346190D01*
X104592285Y-166346190D01*
X103639904Y-165917619D02*
X103592285Y-165870000D01*
X103497047Y-165822380D01*
X103258952Y-165822380D01*
X103163714Y-165870000D01*
X103116095Y-165917619D01*
X103068476Y-166012857D01*
X103068476Y-166108095D01*
X103116095Y-166250952D01*
X103687523Y-166822380D01*
X103068476Y-166822380D01*
X102592285Y-166822380D02*
X102401809Y-166822380D01*
X102306571Y-166774761D01*
X102258952Y-166727142D01*
X102163714Y-166584285D01*
X102116095Y-166393809D01*
X102116095Y-166012857D01*
X102163714Y-165917619D01*
X102211333Y-165870000D01*
X102306571Y-165822380D01*
X102497047Y-165822380D01*
X102592285Y-165870000D01*
X102639904Y-165917619D01*
X102687523Y-166012857D01*
X102687523Y-166250952D01*
X102639904Y-166346190D01*
X102592285Y-166393809D01*
X102497047Y-166441428D01*
X102306571Y-166441428D01*
X102211333Y-166393809D01*
X102163714Y-166346190D01*
X102116095Y-166250952D01*
X104020857Y-138628380D02*
X104354190Y-138152190D01*
X104592285Y-138628380D02*
X104592285Y-137628380D01*
X104211333Y-137628380D01*
X104116095Y-137676000D01*
X104068476Y-137723619D01*
X104020857Y-137818857D01*
X104020857Y-137961714D01*
X104068476Y-138056952D01*
X104116095Y-138104571D01*
X104211333Y-138152190D01*
X104592285Y-138152190D01*
X103639904Y-137723619D02*
X103592285Y-137676000D01*
X103497047Y-137628380D01*
X103258952Y-137628380D01*
X103163714Y-137676000D01*
X103116095Y-137723619D01*
X103068476Y-137818857D01*
X103068476Y-137914095D01*
X103116095Y-138056952D01*
X103687523Y-138628380D01*
X103068476Y-138628380D01*
X102497047Y-138056952D02*
X102592285Y-138009333D01*
X102639904Y-137961714D01*
X102687523Y-137866476D01*
X102687523Y-137818857D01*
X102639904Y-137723619D01*
X102592285Y-137676000D01*
X102497047Y-137628380D01*
X102306571Y-137628380D01*
X102211333Y-137676000D01*
X102163714Y-137723619D01*
X102116095Y-137818857D01*
X102116095Y-137866476D01*
X102163714Y-137961714D01*
X102211333Y-138009333D01*
X102306571Y-138056952D01*
X102497047Y-138056952D01*
X102592285Y-138104571D01*
X102639904Y-138152190D01*
X102687523Y-138247428D01*
X102687523Y-138437904D01*
X102639904Y-138533142D01*
X102592285Y-138580761D01*
X102497047Y-138628380D01*
X102306571Y-138628380D01*
X102211333Y-138580761D01*
X102163714Y-138533142D01*
X102116095Y-138437904D01*
X102116095Y-138247428D01*
X102163714Y-138152190D01*
X102211333Y-138104571D01*
X102306571Y-138056952D01*
X104020857Y-149042380D02*
X104354190Y-148566190D01*
X104592285Y-149042380D02*
X104592285Y-148042380D01*
X104211333Y-148042380D01*
X104116095Y-148090000D01*
X104068476Y-148137619D01*
X104020857Y-148232857D01*
X104020857Y-148375714D01*
X104068476Y-148470952D01*
X104116095Y-148518571D01*
X104211333Y-148566190D01*
X104592285Y-148566190D01*
X103639904Y-148137619D02*
X103592285Y-148090000D01*
X103497047Y-148042380D01*
X103258952Y-148042380D01*
X103163714Y-148090000D01*
X103116095Y-148137619D01*
X103068476Y-148232857D01*
X103068476Y-148328095D01*
X103116095Y-148470952D01*
X103687523Y-149042380D01*
X103068476Y-149042380D01*
X102735142Y-148042380D02*
X102068476Y-148042380D01*
X102497047Y-149042380D01*
X100464857Y-169616380D02*
X100798190Y-169140190D01*
X101036285Y-169616380D02*
X101036285Y-168616380D01*
X100655333Y-168616380D01*
X100560095Y-168664000D01*
X100512476Y-168711619D01*
X100464857Y-168806857D01*
X100464857Y-168949714D01*
X100512476Y-169044952D01*
X100560095Y-169092571D01*
X100655333Y-169140190D01*
X101036285Y-169140190D01*
X100083904Y-168711619D02*
X100036285Y-168664000D01*
X99941047Y-168616380D01*
X99702952Y-168616380D01*
X99607714Y-168664000D01*
X99560095Y-168711619D01*
X99512476Y-168806857D01*
X99512476Y-168902095D01*
X99560095Y-169044952D01*
X100131523Y-169616380D01*
X99512476Y-169616380D01*
X98655333Y-168616380D02*
X98845809Y-168616380D01*
X98941047Y-168664000D01*
X98988666Y-168711619D01*
X99083904Y-168854476D01*
X99131523Y-169044952D01*
X99131523Y-169425904D01*
X99083904Y-169521142D01*
X99036285Y-169568761D01*
X98941047Y-169616380D01*
X98750571Y-169616380D01*
X98655333Y-169568761D01*
X98607714Y-169521142D01*
X98560095Y-169425904D01*
X98560095Y-169187809D01*
X98607714Y-169092571D01*
X98655333Y-169044952D01*
X98750571Y-168997333D01*
X98941047Y-168997333D01*
X99036285Y-169044952D01*
X99083904Y-169092571D01*
X99131523Y-169187809D01*
X100464857Y-141422380D02*
X100798190Y-140946190D01*
X101036285Y-141422380D02*
X101036285Y-140422380D01*
X100655333Y-140422380D01*
X100560095Y-140470000D01*
X100512476Y-140517619D01*
X100464857Y-140612857D01*
X100464857Y-140755714D01*
X100512476Y-140850952D01*
X100560095Y-140898571D01*
X100655333Y-140946190D01*
X101036285Y-140946190D01*
X100083904Y-140517619D02*
X100036285Y-140470000D01*
X99941047Y-140422380D01*
X99702952Y-140422380D01*
X99607714Y-140470000D01*
X99560095Y-140517619D01*
X99512476Y-140612857D01*
X99512476Y-140708095D01*
X99560095Y-140850952D01*
X100131523Y-141422380D01*
X99512476Y-141422380D01*
X98607714Y-140422380D02*
X99083904Y-140422380D01*
X99131523Y-140898571D01*
X99083904Y-140850952D01*
X98988666Y-140803333D01*
X98750571Y-140803333D01*
X98655333Y-140850952D01*
X98607714Y-140898571D01*
X98560095Y-140993809D01*
X98560095Y-141231904D01*
X98607714Y-141327142D01*
X98655333Y-141374761D01*
X98750571Y-141422380D01*
X98988666Y-141422380D01*
X99083904Y-141374761D01*
X99131523Y-141327142D01*
X100464857Y-146248380D02*
X100798190Y-145772190D01*
X101036285Y-146248380D02*
X101036285Y-145248380D01*
X100655333Y-145248380D01*
X100560095Y-145296000D01*
X100512476Y-145343619D01*
X100464857Y-145438857D01*
X100464857Y-145581714D01*
X100512476Y-145676952D01*
X100560095Y-145724571D01*
X100655333Y-145772190D01*
X101036285Y-145772190D01*
X100083904Y-145343619D02*
X100036285Y-145296000D01*
X99941047Y-145248380D01*
X99702952Y-145248380D01*
X99607714Y-145296000D01*
X99560095Y-145343619D01*
X99512476Y-145438857D01*
X99512476Y-145534095D01*
X99560095Y-145676952D01*
X100131523Y-146248380D01*
X99512476Y-146248380D01*
X98655333Y-145581714D02*
X98655333Y-146248380D01*
X98893428Y-145200761D02*
X99131523Y-145915047D01*
X98512476Y-145915047D01*
X100464857Y-138628380D02*
X100798190Y-138152190D01*
X101036285Y-138628380D02*
X101036285Y-137628380D01*
X100655333Y-137628380D01*
X100560095Y-137676000D01*
X100512476Y-137723619D01*
X100464857Y-137818857D01*
X100464857Y-137961714D01*
X100512476Y-138056952D01*
X100560095Y-138104571D01*
X100655333Y-138152190D01*
X101036285Y-138152190D01*
X100083904Y-137723619D02*
X100036285Y-137676000D01*
X99941047Y-137628380D01*
X99702952Y-137628380D01*
X99607714Y-137676000D01*
X99560095Y-137723619D01*
X99512476Y-137818857D01*
X99512476Y-137914095D01*
X99560095Y-138056952D01*
X100131523Y-138628380D01*
X99512476Y-138628380D01*
X99179142Y-137628380D02*
X98560095Y-137628380D01*
X98893428Y-138009333D01*
X98750571Y-138009333D01*
X98655333Y-138056952D01*
X98607714Y-138104571D01*
X98560095Y-138199809D01*
X98560095Y-138437904D01*
X98607714Y-138533142D01*
X98655333Y-138580761D01*
X98750571Y-138628380D01*
X99036285Y-138628380D01*
X99131523Y-138580761D01*
X99179142Y-138533142D01*
X100464857Y-166822380D02*
X100798190Y-166346190D01*
X101036285Y-166822380D02*
X101036285Y-165822380D01*
X100655333Y-165822380D01*
X100560095Y-165870000D01*
X100512476Y-165917619D01*
X100464857Y-166012857D01*
X100464857Y-166155714D01*
X100512476Y-166250952D01*
X100560095Y-166298571D01*
X100655333Y-166346190D01*
X101036285Y-166346190D01*
X100083904Y-165917619D02*
X100036285Y-165870000D01*
X99941047Y-165822380D01*
X99702952Y-165822380D01*
X99607714Y-165870000D01*
X99560095Y-165917619D01*
X99512476Y-166012857D01*
X99512476Y-166108095D01*
X99560095Y-166250952D01*
X100131523Y-166822380D01*
X99512476Y-166822380D01*
X99131523Y-165917619D02*
X99083904Y-165870000D01*
X98988666Y-165822380D01*
X98750571Y-165822380D01*
X98655333Y-165870000D01*
X98607714Y-165917619D01*
X98560095Y-166012857D01*
X98560095Y-166108095D01*
X98607714Y-166250952D01*
X99179142Y-166822380D01*
X98560095Y-166822380D01*
X100464857Y-149042380D02*
X100798190Y-148566190D01*
X101036285Y-149042380D02*
X101036285Y-148042380D01*
X100655333Y-148042380D01*
X100560095Y-148090000D01*
X100512476Y-148137619D01*
X100464857Y-148232857D01*
X100464857Y-148375714D01*
X100512476Y-148470952D01*
X100560095Y-148518571D01*
X100655333Y-148566190D01*
X101036285Y-148566190D01*
X100083904Y-148137619D02*
X100036285Y-148090000D01*
X99941047Y-148042380D01*
X99702952Y-148042380D01*
X99607714Y-148090000D01*
X99560095Y-148137619D01*
X99512476Y-148232857D01*
X99512476Y-148328095D01*
X99560095Y-148470952D01*
X100131523Y-149042380D01*
X99512476Y-149042380D01*
X98560095Y-149042380D02*
X99131523Y-149042380D01*
X98845809Y-149042380D02*
X98845809Y-148042380D01*
X98941047Y-148185238D01*
X99036285Y-148280476D01*
X99131523Y-148328095D01*
X104020857Y-164028380D02*
X104354190Y-163552190D01*
X104592285Y-164028380D02*
X104592285Y-163028380D01*
X104211333Y-163028380D01*
X104116095Y-163076000D01*
X104068476Y-163123619D01*
X104020857Y-163218857D01*
X104020857Y-163361714D01*
X104068476Y-163456952D01*
X104116095Y-163504571D01*
X104211333Y-163552190D01*
X104592285Y-163552190D01*
X103639904Y-163123619D02*
X103592285Y-163076000D01*
X103497047Y-163028380D01*
X103258952Y-163028380D01*
X103163714Y-163076000D01*
X103116095Y-163123619D01*
X103068476Y-163218857D01*
X103068476Y-163314095D01*
X103116095Y-163456952D01*
X103687523Y-164028380D01*
X103068476Y-164028380D01*
X102449428Y-163028380D02*
X102354190Y-163028380D01*
X102258952Y-163076000D01*
X102211333Y-163123619D01*
X102163714Y-163218857D01*
X102116095Y-163409333D01*
X102116095Y-163647428D01*
X102163714Y-163837904D01*
X102211333Y-163933142D01*
X102258952Y-163980761D01*
X102354190Y-164028380D01*
X102449428Y-164028380D01*
X102544666Y-163980761D01*
X102592285Y-163933142D01*
X102639904Y-163837904D01*
X102687523Y-163647428D01*
X102687523Y-163409333D01*
X102639904Y-163218857D01*
X102592285Y-163123619D01*
X102544666Y-163076000D01*
X102449428Y-163028380D01*
X100464857Y-164028380D02*
X100798190Y-163552190D01*
X101036285Y-164028380D02*
X101036285Y-163028380D01*
X100655333Y-163028380D01*
X100560095Y-163076000D01*
X100512476Y-163123619D01*
X100464857Y-163218857D01*
X100464857Y-163361714D01*
X100512476Y-163456952D01*
X100560095Y-163504571D01*
X100655333Y-163552190D01*
X101036285Y-163552190D01*
X99512476Y-164028380D02*
X100083904Y-164028380D01*
X99798190Y-164028380D02*
X99798190Y-163028380D01*
X99893428Y-163171238D01*
X99988666Y-163266476D01*
X100083904Y-163314095D01*
X99036285Y-164028380D02*
X98845809Y-164028380D01*
X98750571Y-163980761D01*
X98702952Y-163933142D01*
X98607714Y-163790285D01*
X98560095Y-163599809D01*
X98560095Y-163218857D01*
X98607714Y-163123619D01*
X98655333Y-163076000D01*
X98750571Y-163028380D01*
X98941047Y-163028380D01*
X99036285Y-163076000D01*
X99083904Y-163123619D01*
X99131523Y-163218857D01*
X99131523Y-163456952D01*
X99083904Y-163552190D01*
X99036285Y-163599809D01*
X98941047Y-163647428D01*
X98750571Y-163647428D01*
X98655333Y-163599809D01*
X98607714Y-163552190D01*
X98560095Y-163456952D01*
X100464857Y-135834380D02*
X100798190Y-135358190D01*
X101036285Y-135834380D02*
X101036285Y-134834380D01*
X100655333Y-134834380D01*
X100560095Y-134882000D01*
X100512476Y-134929619D01*
X100464857Y-135024857D01*
X100464857Y-135167714D01*
X100512476Y-135262952D01*
X100560095Y-135310571D01*
X100655333Y-135358190D01*
X101036285Y-135358190D01*
X99512476Y-135834380D02*
X100083904Y-135834380D01*
X99798190Y-135834380D02*
X99798190Y-134834380D01*
X99893428Y-134977238D01*
X99988666Y-135072476D01*
X100083904Y-135120095D01*
X98941047Y-135262952D02*
X99036285Y-135215333D01*
X99083904Y-135167714D01*
X99131523Y-135072476D01*
X99131523Y-135024857D01*
X99083904Y-134929619D01*
X99036285Y-134882000D01*
X98941047Y-134834380D01*
X98750571Y-134834380D01*
X98655333Y-134882000D01*
X98607714Y-134929619D01*
X98560095Y-135024857D01*
X98560095Y-135072476D01*
X98607714Y-135167714D01*
X98655333Y-135215333D01*
X98750571Y-135262952D01*
X98941047Y-135262952D01*
X99036285Y-135310571D01*
X99083904Y-135358190D01*
X99131523Y-135453428D01*
X99131523Y-135643904D01*
X99083904Y-135739142D01*
X99036285Y-135786761D01*
X98941047Y-135834380D01*
X98750571Y-135834380D01*
X98655333Y-135786761D01*
X98607714Y-135739142D01*
X98560095Y-135643904D01*
X98560095Y-135453428D01*
X98607714Y-135358190D01*
X98655333Y-135310571D01*
X98750571Y-135262952D01*
X104020857Y-151836380D02*
X104354190Y-151360190D01*
X104592285Y-151836380D02*
X104592285Y-150836380D01*
X104211333Y-150836380D01*
X104116095Y-150884000D01*
X104068476Y-150931619D01*
X104020857Y-151026857D01*
X104020857Y-151169714D01*
X104068476Y-151264952D01*
X104116095Y-151312571D01*
X104211333Y-151360190D01*
X104592285Y-151360190D01*
X103068476Y-151836380D02*
X103639904Y-151836380D01*
X103354190Y-151836380D02*
X103354190Y-150836380D01*
X103449428Y-150979238D01*
X103544666Y-151074476D01*
X103639904Y-151122095D01*
X102735142Y-150836380D02*
X102068476Y-150836380D01*
X102497047Y-151836380D01*
X100464857Y-151836380D02*
X100798190Y-151360190D01*
X101036285Y-151836380D02*
X101036285Y-150836380D01*
X100655333Y-150836380D01*
X100560095Y-150884000D01*
X100512476Y-150931619D01*
X100464857Y-151026857D01*
X100464857Y-151169714D01*
X100512476Y-151264952D01*
X100560095Y-151312571D01*
X100655333Y-151360190D01*
X101036285Y-151360190D01*
X99512476Y-151836380D02*
X100083904Y-151836380D01*
X99798190Y-151836380D02*
X99798190Y-150836380D01*
X99893428Y-150979238D01*
X99988666Y-151074476D01*
X100083904Y-151122095D01*
X98655333Y-150836380D02*
X98845809Y-150836380D01*
X98941047Y-150884000D01*
X98988666Y-150931619D01*
X99083904Y-151074476D01*
X99131523Y-151264952D01*
X99131523Y-151645904D01*
X99083904Y-151741142D01*
X99036285Y-151788761D01*
X98941047Y-151836380D01*
X98750571Y-151836380D01*
X98655333Y-151788761D01*
X98607714Y-151741142D01*
X98560095Y-151645904D01*
X98560095Y-151407809D01*
X98607714Y-151312571D01*
X98655333Y-151264952D01*
X98750571Y-151217333D01*
X98941047Y-151217333D01*
X99036285Y-151264952D01*
X99083904Y-151312571D01*
X99131523Y-151407809D01*
X104020857Y-135834380D02*
X104354190Y-135358190D01*
X104592285Y-135834380D02*
X104592285Y-134834380D01*
X104211333Y-134834380D01*
X104116095Y-134882000D01*
X104068476Y-134929619D01*
X104020857Y-135024857D01*
X104020857Y-135167714D01*
X104068476Y-135262952D01*
X104116095Y-135310571D01*
X104211333Y-135358190D01*
X104592285Y-135358190D01*
X103068476Y-135834380D02*
X103639904Y-135834380D01*
X103354190Y-135834380D02*
X103354190Y-134834380D01*
X103449428Y-134977238D01*
X103544666Y-135072476D01*
X103639904Y-135120095D01*
X102163714Y-134834380D02*
X102639904Y-134834380D01*
X102687523Y-135310571D01*
X102639904Y-135262952D01*
X102544666Y-135215333D01*
X102306571Y-135215333D01*
X102211333Y-135262952D01*
X102163714Y-135310571D01*
X102116095Y-135405809D01*
X102116095Y-135643904D01*
X102163714Y-135739142D01*
X102211333Y-135786761D01*
X102306571Y-135834380D01*
X102544666Y-135834380D01*
X102639904Y-135786761D01*
X102687523Y-135739142D01*
X93924380Y-107180142D02*
X93448190Y-106846809D01*
X93924380Y-106608714D02*
X92924380Y-106608714D01*
X92924380Y-106989666D01*
X92972000Y-107084904D01*
X93019619Y-107132523D01*
X93114857Y-107180142D01*
X93257714Y-107180142D01*
X93352952Y-107132523D01*
X93400571Y-107084904D01*
X93448190Y-106989666D01*
X93448190Y-106608714D01*
X93924380Y-108132523D02*
X93924380Y-107561095D01*
X93924380Y-107846809D02*
X92924380Y-107846809D01*
X93067238Y-107751571D01*
X93162476Y-107656333D01*
X93210095Y-107561095D01*
X93257714Y-108989666D02*
X93924380Y-108989666D01*
X92876761Y-108751571D02*
X93591047Y-108513476D01*
X93591047Y-109132523D01*
X95702380Y-107180142D02*
X95226190Y-106846809D01*
X95702380Y-106608714D02*
X94702380Y-106608714D01*
X94702380Y-106989666D01*
X94750000Y-107084904D01*
X94797619Y-107132523D01*
X94892857Y-107180142D01*
X95035714Y-107180142D01*
X95130952Y-107132523D01*
X95178571Y-107084904D01*
X95226190Y-106989666D01*
X95226190Y-106608714D01*
X95702380Y-108132523D02*
X95702380Y-107561095D01*
X95702380Y-107846809D02*
X94702380Y-107846809D01*
X94845238Y-107751571D01*
X94940476Y-107656333D01*
X94988095Y-107561095D01*
X94702380Y-108465857D02*
X94702380Y-109084904D01*
X95083333Y-108751571D01*
X95083333Y-108894428D01*
X95130952Y-108989666D01*
X95178571Y-109037285D01*
X95273809Y-109084904D01*
X95511904Y-109084904D01*
X95607142Y-109037285D01*
X95654761Y-108989666D01*
X95702380Y-108894428D01*
X95702380Y-108608714D01*
X95654761Y-108513476D01*
X95607142Y-108465857D01*
X92146380Y-107180142D02*
X91670190Y-106846809D01*
X92146380Y-106608714D02*
X91146380Y-106608714D01*
X91146380Y-106989666D01*
X91194000Y-107084904D01*
X91241619Y-107132523D01*
X91336857Y-107180142D01*
X91479714Y-107180142D01*
X91574952Y-107132523D01*
X91622571Y-107084904D01*
X91670190Y-106989666D01*
X91670190Y-106608714D01*
X92146380Y-108132523D02*
X92146380Y-107561095D01*
X92146380Y-107846809D02*
X91146380Y-107846809D01*
X91289238Y-107751571D01*
X91384476Y-107656333D01*
X91432095Y-107561095D01*
X91241619Y-108513476D02*
X91194000Y-108561095D01*
X91146380Y-108656333D01*
X91146380Y-108894428D01*
X91194000Y-108989666D01*
X91241619Y-109037285D01*
X91336857Y-109084904D01*
X91432095Y-109084904D01*
X91574952Y-109037285D01*
X92146380Y-108465857D01*
X92146380Y-109084904D01*
X90368380Y-107180142D02*
X89892190Y-106846809D01*
X90368380Y-106608714D02*
X89368380Y-106608714D01*
X89368380Y-106989666D01*
X89416000Y-107084904D01*
X89463619Y-107132523D01*
X89558857Y-107180142D01*
X89701714Y-107180142D01*
X89796952Y-107132523D01*
X89844571Y-107084904D01*
X89892190Y-106989666D01*
X89892190Y-106608714D01*
X90368380Y-108132523D02*
X90368380Y-107561095D01*
X90368380Y-107846809D02*
X89368380Y-107846809D01*
X89511238Y-107751571D01*
X89606476Y-107656333D01*
X89654095Y-107561095D01*
X90368380Y-109084904D02*
X90368380Y-108513476D01*
X90368380Y-108799190D02*
X89368380Y-108799190D01*
X89511238Y-108703952D01*
X89606476Y-108608714D01*
X89654095Y-108513476D01*
X105544857Y-98750380D02*
X105878190Y-98274190D01*
X106116285Y-98750380D02*
X106116285Y-97750380D01*
X105735333Y-97750380D01*
X105640095Y-97798000D01*
X105592476Y-97845619D01*
X105544857Y-97940857D01*
X105544857Y-98083714D01*
X105592476Y-98178952D01*
X105640095Y-98226571D01*
X105735333Y-98274190D01*
X106116285Y-98274190D01*
X104592476Y-98750380D02*
X105163904Y-98750380D01*
X104878190Y-98750380D02*
X104878190Y-97750380D01*
X104973428Y-97893238D01*
X105068666Y-97988476D01*
X105163904Y-98036095D01*
X103973428Y-97750380D02*
X103878190Y-97750380D01*
X103782952Y-97798000D01*
X103735333Y-97845619D01*
X103687714Y-97940857D01*
X103640095Y-98131333D01*
X103640095Y-98369428D01*
X103687714Y-98559904D01*
X103735333Y-98655142D01*
X103782952Y-98702761D01*
X103878190Y-98750380D01*
X103973428Y-98750380D01*
X104068666Y-98702761D01*
X104116285Y-98655142D01*
X104163904Y-98559904D01*
X104211523Y-98369428D01*
X104211523Y-98131333D01*
X104163904Y-97940857D01*
X104116285Y-97845619D01*
X104068666Y-97798000D01*
X103973428Y-97750380D01*
X108624666Y-96878380D02*
X108958000Y-96402190D01*
X109196095Y-96878380D02*
X109196095Y-95878380D01*
X108815142Y-95878380D01*
X108719904Y-95926000D01*
X108672285Y-95973619D01*
X108624666Y-96068857D01*
X108624666Y-96211714D01*
X108672285Y-96306952D01*
X108719904Y-96354571D01*
X108815142Y-96402190D01*
X109196095Y-96402190D01*
X108148476Y-96878380D02*
X107958000Y-96878380D01*
X107862761Y-96830761D01*
X107815142Y-96783142D01*
X107719904Y-96640285D01*
X107672285Y-96449809D01*
X107672285Y-96068857D01*
X107719904Y-95973619D01*
X107767523Y-95926000D01*
X107862761Y-95878380D01*
X108053238Y-95878380D01*
X108148476Y-95926000D01*
X108196095Y-95973619D01*
X108243714Y-96068857D01*
X108243714Y-96306952D01*
X108196095Y-96402190D01*
X108148476Y-96449809D01*
X108053238Y-96497428D01*
X107862761Y-96497428D01*
X107767523Y-96449809D01*
X107719904Y-96402190D01*
X107672285Y-96306952D01*
X81446666Y-97894380D02*
X81780000Y-97418190D01*
X82018095Y-97894380D02*
X82018095Y-96894380D01*
X81637142Y-96894380D01*
X81541904Y-96942000D01*
X81494285Y-96989619D01*
X81446666Y-97084857D01*
X81446666Y-97227714D01*
X81494285Y-97322952D01*
X81541904Y-97370571D01*
X81637142Y-97418190D01*
X82018095Y-97418190D01*
X80875238Y-97322952D02*
X80970476Y-97275333D01*
X81018095Y-97227714D01*
X81065714Y-97132476D01*
X81065714Y-97084857D01*
X81018095Y-96989619D01*
X80970476Y-96942000D01*
X80875238Y-96894380D01*
X80684761Y-96894380D01*
X80589523Y-96942000D01*
X80541904Y-96989619D01*
X80494285Y-97084857D01*
X80494285Y-97132476D01*
X80541904Y-97227714D01*
X80589523Y-97275333D01*
X80684761Y-97322952D01*
X80875238Y-97322952D01*
X80970476Y-97370571D01*
X81018095Y-97418190D01*
X81065714Y-97513428D01*
X81065714Y-97703904D01*
X81018095Y-97799142D01*
X80970476Y-97846761D01*
X80875238Y-97894380D01*
X80684761Y-97894380D01*
X80589523Y-97846761D01*
X80541904Y-97799142D01*
X80494285Y-97703904D01*
X80494285Y-97513428D01*
X80541904Y-97418190D01*
X80589523Y-97370571D01*
X80684761Y-97322952D01*
X102655666Y-95575380D02*
X102989000Y-95099190D01*
X103227095Y-95575380D02*
X103227095Y-94575380D01*
X102846142Y-94575380D01*
X102750904Y-94623000D01*
X102703285Y-94670619D01*
X102655666Y-94765857D01*
X102655666Y-94908714D01*
X102703285Y-95003952D01*
X102750904Y-95051571D01*
X102846142Y-95099190D01*
X103227095Y-95099190D01*
X102322333Y-94575380D02*
X101655666Y-94575380D01*
X102084238Y-95575380D01*
X84748666Y-138976380D02*
X85082000Y-138500190D01*
X85320095Y-138976380D02*
X85320095Y-137976380D01*
X84939142Y-137976380D01*
X84843904Y-138024000D01*
X84796285Y-138071619D01*
X84748666Y-138166857D01*
X84748666Y-138309714D01*
X84796285Y-138404952D01*
X84843904Y-138452571D01*
X84939142Y-138500190D01*
X85320095Y-138500190D01*
X83891523Y-137976380D02*
X84082000Y-137976380D01*
X84177238Y-138024000D01*
X84224857Y-138071619D01*
X84320095Y-138214476D01*
X84367714Y-138404952D01*
X84367714Y-138785904D01*
X84320095Y-138881142D01*
X84272476Y-138928761D01*
X84177238Y-138976380D01*
X83986761Y-138976380D01*
X83891523Y-138928761D01*
X83843904Y-138881142D01*
X83796285Y-138785904D01*
X83796285Y-138547809D01*
X83843904Y-138452571D01*
X83891523Y-138404952D01*
X83986761Y-138357333D01*
X84177238Y-138357333D01*
X84272476Y-138404952D01*
X84320095Y-138452571D01*
X84367714Y-138547809D01*
X88304666Y-166822380D02*
X88638000Y-166346190D01*
X88876095Y-166822380D02*
X88876095Y-165822380D01*
X88495142Y-165822380D01*
X88399904Y-165870000D01*
X88352285Y-165917619D01*
X88304666Y-166012857D01*
X88304666Y-166155714D01*
X88352285Y-166250952D01*
X88399904Y-166298571D01*
X88495142Y-166346190D01*
X88876095Y-166346190D01*
X87399904Y-165822380D02*
X87876095Y-165822380D01*
X87923714Y-166298571D01*
X87876095Y-166250952D01*
X87780857Y-166203333D01*
X87542761Y-166203333D01*
X87447523Y-166250952D01*
X87399904Y-166298571D01*
X87352285Y-166393809D01*
X87352285Y-166631904D01*
X87399904Y-166727142D01*
X87447523Y-166774761D01*
X87542761Y-166822380D01*
X87780857Y-166822380D01*
X87876095Y-166774761D01*
X87923714Y-166727142D01*
X84748666Y-166822380D02*
X85082000Y-166346190D01*
X85320095Y-166822380D02*
X85320095Y-165822380D01*
X84939142Y-165822380D01*
X84843904Y-165870000D01*
X84796285Y-165917619D01*
X84748666Y-166012857D01*
X84748666Y-166155714D01*
X84796285Y-166250952D01*
X84843904Y-166298571D01*
X84939142Y-166346190D01*
X85320095Y-166346190D01*
X83891523Y-166155714D02*
X83891523Y-166822380D01*
X84129619Y-165774761D02*
X84367714Y-166489047D01*
X83748666Y-166489047D01*
X88304666Y-151422380D02*
X88638000Y-150946190D01*
X88876095Y-151422380D02*
X88876095Y-150422380D01*
X88495142Y-150422380D01*
X88399904Y-150470000D01*
X88352285Y-150517619D01*
X88304666Y-150612857D01*
X88304666Y-150755714D01*
X88352285Y-150850952D01*
X88399904Y-150898571D01*
X88495142Y-150946190D01*
X88876095Y-150946190D01*
X87971333Y-150422380D02*
X87352285Y-150422380D01*
X87685619Y-150803333D01*
X87542761Y-150803333D01*
X87447523Y-150850952D01*
X87399904Y-150898571D01*
X87352285Y-150993809D01*
X87352285Y-151231904D01*
X87399904Y-151327142D01*
X87447523Y-151374761D01*
X87542761Y-151422380D01*
X87828476Y-151422380D01*
X87923714Y-151374761D01*
X87971333Y-151327142D01*
X85194380Y-119721333D02*
X84718190Y-119388000D01*
X85194380Y-119149904D02*
X84194380Y-119149904D01*
X84194380Y-119530857D01*
X84242000Y-119626095D01*
X84289619Y-119673714D01*
X84384857Y-119721333D01*
X84527714Y-119721333D01*
X84622952Y-119673714D01*
X84670571Y-119626095D01*
X84718190Y-119530857D01*
X84718190Y-119149904D01*
X84289619Y-120102285D02*
X84242000Y-120149904D01*
X84194380Y-120245142D01*
X84194380Y-120483238D01*
X84242000Y-120578476D01*
X84289619Y-120626095D01*
X84384857Y-120673714D01*
X84480095Y-120673714D01*
X84622952Y-120626095D01*
X85194380Y-120054666D01*
X85194380Y-120673714D01*
X80462380Y-119721333D02*
X79986190Y-119388000D01*
X80462380Y-119149904D02*
X79462380Y-119149904D01*
X79462380Y-119530857D01*
X79510000Y-119626095D01*
X79557619Y-119673714D01*
X79652857Y-119721333D01*
X79795714Y-119721333D01*
X79890952Y-119673714D01*
X79938571Y-119626095D01*
X79986190Y-119530857D01*
X79986190Y-119149904D01*
X80462380Y-120673714D02*
X80462380Y-120102285D01*
X80462380Y-120388000D02*
X79462380Y-120388000D01*
X79605238Y-120292761D01*
X79700476Y-120197523D01*
X79748095Y-120102285D01*
X108672380Y-74088666D02*
X109386666Y-74088666D01*
X109529523Y-74041047D01*
X109624761Y-73945809D01*
X109672380Y-73802952D01*
X109672380Y-73707714D01*
X108672380Y-74993428D02*
X108672380Y-74802952D01*
X108720000Y-74707714D01*
X108767619Y-74660095D01*
X108910476Y-74564857D01*
X109100952Y-74517238D01*
X109481904Y-74517238D01*
X109577142Y-74564857D01*
X109624761Y-74612476D01*
X109672380Y-74707714D01*
X109672380Y-74898190D01*
X109624761Y-74993428D01*
X109577142Y-75041047D01*
X109481904Y-75088666D01*
X109243809Y-75088666D01*
X109148571Y-75041047D01*
X109100952Y-74993428D01*
X109053333Y-74898190D01*
X109053333Y-74707714D01*
X109100952Y-74612476D01*
X109148571Y-74564857D01*
X109243809Y-74517238D01*
X84748666Y-154281142D02*
X84796285Y-154328761D01*
X84939142Y-154376380D01*
X85034380Y-154376380D01*
X85177238Y-154328761D01*
X85272476Y-154233523D01*
X85320095Y-154138285D01*
X85367714Y-153947809D01*
X85367714Y-153804952D01*
X85320095Y-153614476D01*
X85272476Y-153519238D01*
X85177238Y-153424000D01*
X85034380Y-153376380D01*
X84939142Y-153376380D01*
X84796285Y-153424000D01*
X84748666Y-153471619D01*
X83891523Y-153376380D02*
X84082000Y-153376380D01*
X84177238Y-153424000D01*
X84224857Y-153471619D01*
X84320095Y-153614476D01*
X84367714Y-153804952D01*
X84367714Y-154185904D01*
X84320095Y-154281142D01*
X84272476Y-154328761D01*
X84177238Y-154376380D01*
X83986761Y-154376380D01*
X83891523Y-154328761D01*
X83843904Y-154281142D01*
X83796285Y-154185904D01*
X83796285Y-153947809D01*
X83843904Y-153852571D01*
X83891523Y-153804952D01*
X83986761Y-153757333D01*
X84177238Y-153757333D01*
X84272476Y-153804952D01*
X84320095Y-153852571D01*
X84367714Y-153947809D01*
X97385142Y-108164333D02*
X97432761Y-108116714D01*
X97480380Y-107973857D01*
X97480380Y-107878619D01*
X97432761Y-107735761D01*
X97337523Y-107640523D01*
X97242285Y-107592904D01*
X97051809Y-107545285D01*
X96908952Y-107545285D01*
X96718476Y-107592904D01*
X96623238Y-107640523D01*
X96528000Y-107735761D01*
X96480380Y-107878619D01*
X96480380Y-107973857D01*
X96528000Y-108116714D01*
X96575619Y-108164333D01*
X96480380Y-109069095D02*
X96480380Y-108592904D01*
X96956571Y-108545285D01*
X96908952Y-108592904D01*
X96861333Y-108688142D01*
X96861333Y-108926238D01*
X96908952Y-109021476D01*
X96956571Y-109069095D01*
X97051809Y-109116714D01*
X97289904Y-109116714D01*
X97385142Y-109069095D01*
X97432761Y-109021476D01*
X97480380Y-108926238D01*
X97480380Y-108688142D01*
X97432761Y-108592904D01*
X97385142Y-108545285D01*
X101512666Y-98655142D02*
X101560285Y-98702761D01*
X101703142Y-98750380D01*
X101798380Y-98750380D01*
X101941238Y-98702761D01*
X102036476Y-98607523D01*
X102084095Y-98512285D01*
X102131714Y-98321809D01*
X102131714Y-98178952D01*
X102084095Y-97988476D01*
X102036476Y-97893238D01*
X101941238Y-97798000D01*
X101798380Y-97750380D01*
X101703142Y-97750380D01*
X101560285Y-97798000D01*
X101512666Y-97845619D01*
X100655523Y-98083714D02*
X100655523Y-98750380D01*
X100893619Y-97702761D02*
X101131714Y-98417047D01*
X100512666Y-98417047D01*
X88304666Y-169521142D02*
X88352285Y-169568761D01*
X88495142Y-169616380D01*
X88590380Y-169616380D01*
X88733238Y-169568761D01*
X88828476Y-169473523D01*
X88876095Y-169378285D01*
X88923714Y-169187809D01*
X88923714Y-169044952D01*
X88876095Y-168854476D01*
X88828476Y-168759238D01*
X88733238Y-168664000D01*
X88590380Y-168616380D01*
X88495142Y-168616380D01*
X88352285Y-168664000D01*
X88304666Y-168711619D01*
X87971333Y-168616380D02*
X87352285Y-168616380D01*
X87685619Y-168997333D01*
X87542761Y-168997333D01*
X87447523Y-169044952D01*
X87399904Y-169092571D01*
X87352285Y-169187809D01*
X87352285Y-169425904D01*
X87399904Y-169521142D01*
X87447523Y-169568761D01*
X87542761Y-169616380D01*
X87828476Y-169616380D01*
X87923714Y-169568761D01*
X87971333Y-169521142D01*
X84748666Y-169521142D02*
X84796285Y-169568761D01*
X84939142Y-169616380D01*
X85034380Y-169616380D01*
X85177238Y-169568761D01*
X85272476Y-169473523D01*
X85320095Y-169378285D01*
X85367714Y-169187809D01*
X85367714Y-169044952D01*
X85320095Y-168854476D01*
X85272476Y-168759238D01*
X85177238Y-168664000D01*
X85034380Y-168616380D01*
X84939142Y-168616380D01*
X84796285Y-168664000D01*
X84748666Y-168711619D01*
X84367714Y-168711619D02*
X84320095Y-168664000D01*
X84224857Y-168616380D01*
X83986761Y-168616380D01*
X83891523Y-168664000D01*
X83843904Y-168711619D01*
X83796285Y-168806857D01*
X83796285Y-168902095D01*
X83843904Y-169044952D01*
X84415333Y-169616380D01*
X83796285Y-169616380D01*
X88304666Y-154281142D02*
X88352285Y-154328761D01*
X88495142Y-154376380D01*
X88590380Y-154376380D01*
X88733238Y-154328761D01*
X88828476Y-154233523D01*
X88876095Y-154138285D01*
X88923714Y-153947809D01*
X88923714Y-153804952D01*
X88876095Y-153614476D01*
X88828476Y-153519238D01*
X88733238Y-153424000D01*
X88590380Y-153376380D01*
X88495142Y-153376380D01*
X88352285Y-153424000D01*
X88304666Y-153471619D01*
X87352285Y-154376380D02*
X87923714Y-154376380D01*
X87638000Y-154376380D02*
X87638000Y-153376380D01*
X87733238Y-153519238D01*
X87828476Y-153614476D01*
X87923714Y-153662095D01*
M02*
