G04 #@! TF.GenerationSoftware,KiCad,Pcbnew,5.1.5-52549c5~84~ubuntu19.04.1*
G04 #@! TF.CreationDate,2020-04-14T21:23:31+02:00*
G04 #@! TF.ProjectId,osc1,6f736331-2e6b-4696-9361-645f70636258,rev?*
G04 #@! TF.SameCoordinates,Original*
G04 #@! TF.FileFunction,Paste,Bot*
G04 #@! TF.FilePolarity,Positive*
%FSLAX46Y46*%
G04 Gerber Fmt 4.6, Leading zero omitted, Abs format (unit mm)*
G04 Created by KiCad (PCBNEW 5.1.5-52549c5~84~ubuntu19.04.1) date 2020-04-14 21:23:31*
%MOMM*%
%LPD*%
G04 APERTURE LIST*
%ADD10C,0.100000*%
%ADD11R,0.600000X0.700000*%
G04 APERTURE END LIST*
D10*
G36*
X99859703Y-132002722D02*
G01*
X99874264Y-132004882D01*
X99888543Y-132008459D01*
X99902403Y-132013418D01*
X99915710Y-132019712D01*
X99928336Y-132027280D01*
X99940159Y-132036048D01*
X99951066Y-132045934D01*
X99960952Y-132056841D01*
X99969720Y-132068664D01*
X99977288Y-132081290D01*
X99983582Y-132094597D01*
X99988541Y-132108457D01*
X99992118Y-132122736D01*
X99994278Y-132137297D01*
X99995000Y-132152000D01*
X99995000Y-133602000D01*
X99994278Y-133616703D01*
X99992118Y-133631264D01*
X99988541Y-133645543D01*
X99983582Y-133659403D01*
X99977288Y-133672710D01*
X99969720Y-133685336D01*
X99960952Y-133697159D01*
X99951066Y-133708066D01*
X99940159Y-133717952D01*
X99928336Y-133726720D01*
X99915710Y-133734288D01*
X99902403Y-133740582D01*
X99888543Y-133745541D01*
X99874264Y-133749118D01*
X99859703Y-133751278D01*
X99845000Y-133752000D01*
X99545000Y-133752000D01*
X99530297Y-133751278D01*
X99515736Y-133749118D01*
X99501457Y-133745541D01*
X99487597Y-133740582D01*
X99474290Y-133734288D01*
X99461664Y-133726720D01*
X99449841Y-133717952D01*
X99438934Y-133708066D01*
X99429048Y-133697159D01*
X99420280Y-133685336D01*
X99412712Y-133672710D01*
X99406418Y-133659403D01*
X99401459Y-133645543D01*
X99397882Y-133631264D01*
X99395722Y-133616703D01*
X99395000Y-133602000D01*
X99395000Y-132152000D01*
X99395722Y-132137297D01*
X99397882Y-132122736D01*
X99401459Y-132108457D01*
X99406418Y-132094597D01*
X99412712Y-132081290D01*
X99420280Y-132068664D01*
X99429048Y-132056841D01*
X99438934Y-132045934D01*
X99449841Y-132036048D01*
X99461664Y-132027280D01*
X99474290Y-132019712D01*
X99487597Y-132013418D01*
X99501457Y-132008459D01*
X99515736Y-132004882D01*
X99530297Y-132002722D01*
X99545000Y-132002000D01*
X99845000Y-132002000D01*
X99859703Y-132002722D01*
G37*
G36*
X101129703Y-132002722D02*
G01*
X101144264Y-132004882D01*
X101158543Y-132008459D01*
X101172403Y-132013418D01*
X101185710Y-132019712D01*
X101198336Y-132027280D01*
X101210159Y-132036048D01*
X101221066Y-132045934D01*
X101230952Y-132056841D01*
X101239720Y-132068664D01*
X101247288Y-132081290D01*
X101253582Y-132094597D01*
X101258541Y-132108457D01*
X101262118Y-132122736D01*
X101264278Y-132137297D01*
X101265000Y-132152000D01*
X101265000Y-133602000D01*
X101264278Y-133616703D01*
X101262118Y-133631264D01*
X101258541Y-133645543D01*
X101253582Y-133659403D01*
X101247288Y-133672710D01*
X101239720Y-133685336D01*
X101230952Y-133697159D01*
X101221066Y-133708066D01*
X101210159Y-133717952D01*
X101198336Y-133726720D01*
X101185710Y-133734288D01*
X101172403Y-133740582D01*
X101158543Y-133745541D01*
X101144264Y-133749118D01*
X101129703Y-133751278D01*
X101115000Y-133752000D01*
X100815000Y-133752000D01*
X100800297Y-133751278D01*
X100785736Y-133749118D01*
X100771457Y-133745541D01*
X100757597Y-133740582D01*
X100744290Y-133734288D01*
X100731664Y-133726720D01*
X100719841Y-133717952D01*
X100708934Y-133708066D01*
X100699048Y-133697159D01*
X100690280Y-133685336D01*
X100682712Y-133672710D01*
X100676418Y-133659403D01*
X100671459Y-133645543D01*
X100667882Y-133631264D01*
X100665722Y-133616703D01*
X100665000Y-133602000D01*
X100665000Y-132152000D01*
X100665722Y-132137297D01*
X100667882Y-132122736D01*
X100671459Y-132108457D01*
X100676418Y-132094597D01*
X100682712Y-132081290D01*
X100690280Y-132068664D01*
X100699048Y-132056841D01*
X100708934Y-132045934D01*
X100719841Y-132036048D01*
X100731664Y-132027280D01*
X100744290Y-132019712D01*
X100757597Y-132013418D01*
X100771457Y-132008459D01*
X100785736Y-132004882D01*
X100800297Y-132002722D01*
X100815000Y-132002000D01*
X101115000Y-132002000D01*
X101129703Y-132002722D01*
G37*
G36*
X102399703Y-132002722D02*
G01*
X102414264Y-132004882D01*
X102428543Y-132008459D01*
X102442403Y-132013418D01*
X102455710Y-132019712D01*
X102468336Y-132027280D01*
X102480159Y-132036048D01*
X102491066Y-132045934D01*
X102500952Y-132056841D01*
X102509720Y-132068664D01*
X102517288Y-132081290D01*
X102523582Y-132094597D01*
X102528541Y-132108457D01*
X102532118Y-132122736D01*
X102534278Y-132137297D01*
X102535000Y-132152000D01*
X102535000Y-133602000D01*
X102534278Y-133616703D01*
X102532118Y-133631264D01*
X102528541Y-133645543D01*
X102523582Y-133659403D01*
X102517288Y-133672710D01*
X102509720Y-133685336D01*
X102500952Y-133697159D01*
X102491066Y-133708066D01*
X102480159Y-133717952D01*
X102468336Y-133726720D01*
X102455710Y-133734288D01*
X102442403Y-133740582D01*
X102428543Y-133745541D01*
X102414264Y-133749118D01*
X102399703Y-133751278D01*
X102385000Y-133752000D01*
X102085000Y-133752000D01*
X102070297Y-133751278D01*
X102055736Y-133749118D01*
X102041457Y-133745541D01*
X102027597Y-133740582D01*
X102014290Y-133734288D01*
X102001664Y-133726720D01*
X101989841Y-133717952D01*
X101978934Y-133708066D01*
X101969048Y-133697159D01*
X101960280Y-133685336D01*
X101952712Y-133672710D01*
X101946418Y-133659403D01*
X101941459Y-133645543D01*
X101937882Y-133631264D01*
X101935722Y-133616703D01*
X101935000Y-133602000D01*
X101935000Y-132152000D01*
X101935722Y-132137297D01*
X101937882Y-132122736D01*
X101941459Y-132108457D01*
X101946418Y-132094597D01*
X101952712Y-132081290D01*
X101960280Y-132068664D01*
X101969048Y-132056841D01*
X101978934Y-132045934D01*
X101989841Y-132036048D01*
X102001664Y-132027280D01*
X102014290Y-132019712D01*
X102027597Y-132013418D01*
X102041457Y-132008459D01*
X102055736Y-132004882D01*
X102070297Y-132002722D01*
X102085000Y-132002000D01*
X102385000Y-132002000D01*
X102399703Y-132002722D01*
G37*
G36*
X103669703Y-132002722D02*
G01*
X103684264Y-132004882D01*
X103698543Y-132008459D01*
X103712403Y-132013418D01*
X103725710Y-132019712D01*
X103738336Y-132027280D01*
X103750159Y-132036048D01*
X103761066Y-132045934D01*
X103770952Y-132056841D01*
X103779720Y-132068664D01*
X103787288Y-132081290D01*
X103793582Y-132094597D01*
X103798541Y-132108457D01*
X103802118Y-132122736D01*
X103804278Y-132137297D01*
X103805000Y-132152000D01*
X103805000Y-133602000D01*
X103804278Y-133616703D01*
X103802118Y-133631264D01*
X103798541Y-133645543D01*
X103793582Y-133659403D01*
X103787288Y-133672710D01*
X103779720Y-133685336D01*
X103770952Y-133697159D01*
X103761066Y-133708066D01*
X103750159Y-133717952D01*
X103738336Y-133726720D01*
X103725710Y-133734288D01*
X103712403Y-133740582D01*
X103698543Y-133745541D01*
X103684264Y-133749118D01*
X103669703Y-133751278D01*
X103655000Y-133752000D01*
X103355000Y-133752000D01*
X103340297Y-133751278D01*
X103325736Y-133749118D01*
X103311457Y-133745541D01*
X103297597Y-133740582D01*
X103284290Y-133734288D01*
X103271664Y-133726720D01*
X103259841Y-133717952D01*
X103248934Y-133708066D01*
X103239048Y-133697159D01*
X103230280Y-133685336D01*
X103222712Y-133672710D01*
X103216418Y-133659403D01*
X103211459Y-133645543D01*
X103207882Y-133631264D01*
X103205722Y-133616703D01*
X103205000Y-133602000D01*
X103205000Y-132152000D01*
X103205722Y-132137297D01*
X103207882Y-132122736D01*
X103211459Y-132108457D01*
X103216418Y-132094597D01*
X103222712Y-132081290D01*
X103230280Y-132068664D01*
X103239048Y-132056841D01*
X103248934Y-132045934D01*
X103259841Y-132036048D01*
X103271664Y-132027280D01*
X103284290Y-132019712D01*
X103297597Y-132013418D01*
X103311457Y-132008459D01*
X103325736Y-132004882D01*
X103340297Y-132002722D01*
X103355000Y-132002000D01*
X103655000Y-132002000D01*
X103669703Y-132002722D01*
G37*
G36*
X103669703Y-126852722D02*
G01*
X103684264Y-126854882D01*
X103698543Y-126858459D01*
X103712403Y-126863418D01*
X103725710Y-126869712D01*
X103738336Y-126877280D01*
X103750159Y-126886048D01*
X103761066Y-126895934D01*
X103770952Y-126906841D01*
X103779720Y-126918664D01*
X103787288Y-126931290D01*
X103793582Y-126944597D01*
X103798541Y-126958457D01*
X103802118Y-126972736D01*
X103804278Y-126987297D01*
X103805000Y-127002000D01*
X103805000Y-128452000D01*
X103804278Y-128466703D01*
X103802118Y-128481264D01*
X103798541Y-128495543D01*
X103793582Y-128509403D01*
X103787288Y-128522710D01*
X103779720Y-128535336D01*
X103770952Y-128547159D01*
X103761066Y-128558066D01*
X103750159Y-128567952D01*
X103738336Y-128576720D01*
X103725710Y-128584288D01*
X103712403Y-128590582D01*
X103698543Y-128595541D01*
X103684264Y-128599118D01*
X103669703Y-128601278D01*
X103655000Y-128602000D01*
X103355000Y-128602000D01*
X103340297Y-128601278D01*
X103325736Y-128599118D01*
X103311457Y-128595541D01*
X103297597Y-128590582D01*
X103284290Y-128584288D01*
X103271664Y-128576720D01*
X103259841Y-128567952D01*
X103248934Y-128558066D01*
X103239048Y-128547159D01*
X103230280Y-128535336D01*
X103222712Y-128522710D01*
X103216418Y-128509403D01*
X103211459Y-128495543D01*
X103207882Y-128481264D01*
X103205722Y-128466703D01*
X103205000Y-128452000D01*
X103205000Y-127002000D01*
X103205722Y-126987297D01*
X103207882Y-126972736D01*
X103211459Y-126958457D01*
X103216418Y-126944597D01*
X103222712Y-126931290D01*
X103230280Y-126918664D01*
X103239048Y-126906841D01*
X103248934Y-126895934D01*
X103259841Y-126886048D01*
X103271664Y-126877280D01*
X103284290Y-126869712D01*
X103297597Y-126863418D01*
X103311457Y-126858459D01*
X103325736Y-126854882D01*
X103340297Y-126852722D01*
X103355000Y-126852000D01*
X103655000Y-126852000D01*
X103669703Y-126852722D01*
G37*
G36*
X102399703Y-126852722D02*
G01*
X102414264Y-126854882D01*
X102428543Y-126858459D01*
X102442403Y-126863418D01*
X102455710Y-126869712D01*
X102468336Y-126877280D01*
X102480159Y-126886048D01*
X102491066Y-126895934D01*
X102500952Y-126906841D01*
X102509720Y-126918664D01*
X102517288Y-126931290D01*
X102523582Y-126944597D01*
X102528541Y-126958457D01*
X102532118Y-126972736D01*
X102534278Y-126987297D01*
X102535000Y-127002000D01*
X102535000Y-128452000D01*
X102534278Y-128466703D01*
X102532118Y-128481264D01*
X102528541Y-128495543D01*
X102523582Y-128509403D01*
X102517288Y-128522710D01*
X102509720Y-128535336D01*
X102500952Y-128547159D01*
X102491066Y-128558066D01*
X102480159Y-128567952D01*
X102468336Y-128576720D01*
X102455710Y-128584288D01*
X102442403Y-128590582D01*
X102428543Y-128595541D01*
X102414264Y-128599118D01*
X102399703Y-128601278D01*
X102385000Y-128602000D01*
X102085000Y-128602000D01*
X102070297Y-128601278D01*
X102055736Y-128599118D01*
X102041457Y-128595541D01*
X102027597Y-128590582D01*
X102014290Y-128584288D01*
X102001664Y-128576720D01*
X101989841Y-128567952D01*
X101978934Y-128558066D01*
X101969048Y-128547159D01*
X101960280Y-128535336D01*
X101952712Y-128522710D01*
X101946418Y-128509403D01*
X101941459Y-128495543D01*
X101937882Y-128481264D01*
X101935722Y-128466703D01*
X101935000Y-128452000D01*
X101935000Y-127002000D01*
X101935722Y-126987297D01*
X101937882Y-126972736D01*
X101941459Y-126958457D01*
X101946418Y-126944597D01*
X101952712Y-126931290D01*
X101960280Y-126918664D01*
X101969048Y-126906841D01*
X101978934Y-126895934D01*
X101989841Y-126886048D01*
X102001664Y-126877280D01*
X102014290Y-126869712D01*
X102027597Y-126863418D01*
X102041457Y-126858459D01*
X102055736Y-126854882D01*
X102070297Y-126852722D01*
X102085000Y-126852000D01*
X102385000Y-126852000D01*
X102399703Y-126852722D01*
G37*
G36*
X101129703Y-126852722D02*
G01*
X101144264Y-126854882D01*
X101158543Y-126858459D01*
X101172403Y-126863418D01*
X101185710Y-126869712D01*
X101198336Y-126877280D01*
X101210159Y-126886048D01*
X101221066Y-126895934D01*
X101230952Y-126906841D01*
X101239720Y-126918664D01*
X101247288Y-126931290D01*
X101253582Y-126944597D01*
X101258541Y-126958457D01*
X101262118Y-126972736D01*
X101264278Y-126987297D01*
X101265000Y-127002000D01*
X101265000Y-128452000D01*
X101264278Y-128466703D01*
X101262118Y-128481264D01*
X101258541Y-128495543D01*
X101253582Y-128509403D01*
X101247288Y-128522710D01*
X101239720Y-128535336D01*
X101230952Y-128547159D01*
X101221066Y-128558066D01*
X101210159Y-128567952D01*
X101198336Y-128576720D01*
X101185710Y-128584288D01*
X101172403Y-128590582D01*
X101158543Y-128595541D01*
X101144264Y-128599118D01*
X101129703Y-128601278D01*
X101115000Y-128602000D01*
X100815000Y-128602000D01*
X100800297Y-128601278D01*
X100785736Y-128599118D01*
X100771457Y-128595541D01*
X100757597Y-128590582D01*
X100744290Y-128584288D01*
X100731664Y-128576720D01*
X100719841Y-128567952D01*
X100708934Y-128558066D01*
X100699048Y-128547159D01*
X100690280Y-128535336D01*
X100682712Y-128522710D01*
X100676418Y-128509403D01*
X100671459Y-128495543D01*
X100667882Y-128481264D01*
X100665722Y-128466703D01*
X100665000Y-128452000D01*
X100665000Y-127002000D01*
X100665722Y-126987297D01*
X100667882Y-126972736D01*
X100671459Y-126958457D01*
X100676418Y-126944597D01*
X100682712Y-126931290D01*
X100690280Y-126918664D01*
X100699048Y-126906841D01*
X100708934Y-126895934D01*
X100719841Y-126886048D01*
X100731664Y-126877280D01*
X100744290Y-126869712D01*
X100757597Y-126863418D01*
X100771457Y-126858459D01*
X100785736Y-126854882D01*
X100800297Y-126852722D01*
X100815000Y-126852000D01*
X101115000Y-126852000D01*
X101129703Y-126852722D01*
G37*
G36*
X99859703Y-126852722D02*
G01*
X99874264Y-126854882D01*
X99888543Y-126858459D01*
X99902403Y-126863418D01*
X99915710Y-126869712D01*
X99928336Y-126877280D01*
X99940159Y-126886048D01*
X99951066Y-126895934D01*
X99960952Y-126906841D01*
X99969720Y-126918664D01*
X99977288Y-126931290D01*
X99983582Y-126944597D01*
X99988541Y-126958457D01*
X99992118Y-126972736D01*
X99994278Y-126987297D01*
X99995000Y-127002000D01*
X99995000Y-128452000D01*
X99994278Y-128466703D01*
X99992118Y-128481264D01*
X99988541Y-128495543D01*
X99983582Y-128509403D01*
X99977288Y-128522710D01*
X99969720Y-128535336D01*
X99960952Y-128547159D01*
X99951066Y-128558066D01*
X99940159Y-128567952D01*
X99928336Y-128576720D01*
X99915710Y-128584288D01*
X99902403Y-128590582D01*
X99888543Y-128595541D01*
X99874264Y-128599118D01*
X99859703Y-128601278D01*
X99845000Y-128602000D01*
X99545000Y-128602000D01*
X99530297Y-128601278D01*
X99515736Y-128599118D01*
X99501457Y-128595541D01*
X99487597Y-128590582D01*
X99474290Y-128584288D01*
X99461664Y-128576720D01*
X99449841Y-128567952D01*
X99438934Y-128558066D01*
X99429048Y-128547159D01*
X99420280Y-128535336D01*
X99412712Y-128522710D01*
X99406418Y-128509403D01*
X99401459Y-128495543D01*
X99397882Y-128481264D01*
X99395722Y-128466703D01*
X99395000Y-128452000D01*
X99395000Y-127002000D01*
X99395722Y-126987297D01*
X99397882Y-126972736D01*
X99401459Y-126958457D01*
X99406418Y-126944597D01*
X99412712Y-126931290D01*
X99420280Y-126918664D01*
X99429048Y-126906841D01*
X99438934Y-126895934D01*
X99449841Y-126886048D01*
X99461664Y-126877280D01*
X99474290Y-126869712D01*
X99487597Y-126863418D01*
X99501457Y-126858459D01*
X99515736Y-126854882D01*
X99530297Y-126852722D01*
X99545000Y-126852000D01*
X99845000Y-126852000D01*
X99859703Y-126852722D01*
G37*
G36*
X105687691Y-157297553D02*
G01*
X105708926Y-157300703D01*
X105729750Y-157305919D01*
X105749962Y-157313151D01*
X105769368Y-157322330D01*
X105787781Y-157333366D01*
X105805024Y-157346154D01*
X105820930Y-157360570D01*
X105835346Y-157376476D01*
X105848134Y-157393719D01*
X105859170Y-157412132D01*
X105868349Y-157431538D01*
X105875581Y-157451750D01*
X105880797Y-157472574D01*
X105883947Y-157493809D01*
X105885000Y-157515250D01*
X105885000Y-157952750D01*
X105883947Y-157974191D01*
X105880797Y-157995426D01*
X105875581Y-158016250D01*
X105868349Y-158036462D01*
X105859170Y-158055868D01*
X105848134Y-158074281D01*
X105835346Y-158091524D01*
X105820930Y-158107430D01*
X105805024Y-158121846D01*
X105787781Y-158134634D01*
X105769368Y-158145670D01*
X105749962Y-158154849D01*
X105729750Y-158162081D01*
X105708926Y-158167297D01*
X105687691Y-158170447D01*
X105666250Y-158171500D01*
X105153750Y-158171500D01*
X105132309Y-158170447D01*
X105111074Y-158167297D01*
X105090250Y-158162081D01*
X105070038Y-158154849D01*
X105050632Y-158145670D01*
X105032219Y-158134634D01*
X105014976Y-158121846D01*
X104999070Y-158107430D01*
X104984654Y-158091524D01*
X104971866Y-158074281D01*
X104960830Y-158055868D01*
X104951651Y-158036462D01*
X104944419Y-158016250D01*
X104939203Y-157995426D01*
X104936053Y-157974191D01*
X104935000Y-157952750D01*
X104935000Y-157515250D01*
X104936053Y-157493809D01*
X104939203Y-157472574D01*
X104944419Y-157451750D01*
X104951651Y-157431538D01*
X104960830Y-157412132D01*
X104971866Y-157393719D01*
X104984654Y-157376476D01*
X104999070Y-157360570D01*
X105014976Y-157346154D01*
X105032219Y-157333366D01*
X105050632Y-157322330D01*
X105070038Y-157313151D01*
X105090250Y-157305919D01*
X105111074Y-157300703D01*
X105132309Y-157297553D01*
X105153750Y-157296500D01*
X105666250Y-157296500D01*
X105687691Y-157297553D01*
G37*
G36*
X105687691Y-158872553D02*
G01*
X105708926Y-158875703D01*
X105729750Y-158880919D01*
X105749962Y-158888151D01*
X105769368Y-158897330D01*
X105787781Y-158908366D01*
X105805024Y-158921154D01*
X105820930Y-158935570D01*
X105835346Y-158951476D01*
X105848134Y-158968719D01*
X105859170Y-158987132D01*
X105868349Y-159006538D01*
X105875581Y-159026750D01*
X105880797Y-159047574D01*
X105883947Y-159068809D01*
X105885000Y-159090250D01*
X105885000Y-159527750D01*
X105883947Y-159549191D01*
X105880797Y-159570426D01*
X105875581Y-159591250D01*
X105868349Y-159611462D01*
X105859170Y-159630868D01*
X105848134Y-159649281D01*
X105835346Y-159666524D01*
X105820930Y-159682430D01*
X105805024Y-159696846D01*
X105787781Y-159709634D01*
X105769368Y-159720670D01*
X105749962Y-159729849D01*
X105729750Y-159737081D01*
X105708926Y-159742297D01*
X105687691Y-159745447D01*
X105666250Y-159746500D01*
X105153750Y-159746500D01*
X105132309Y-159745447D01*
X105111074Y-159742297D01*
X105090250Y-159737081D01*
X105070038Y-159729849D01*
X105050632Y-159720670D01*
X105032219Y-159709634D01*
X105014976Y-159696846D01*
X104999070Y-159682430D01*
X104984654Y-159666524D01*
X104971866Y-159649281D01*
X104960830Y-159630868D01*
X104951651Y-159611462D01*
X104944419Y-159591250D01*
X104939203Y-159570426D01*
X104936053Y-159549191D01*
X104935000Y-159527750D01*
X104935000Y-159090250D01*
X104936053Y-159068809D01*
X104939203Y-159047574D01*
X104944419Y-159026750D01*
X104951651Y-159006538D01*
X104960830Y-158987132D01*
X104971866Y-158968719D01*
X104984654Y-158951476D01*
X104999070Y-158935570D01*
X105014976Y-158921154D01*
X105032219Y-158908366D01*
X105050632Y-158897330D01*
X105070038Y-158888151D01*
X105090250Y-158880919D01*
X105111074Y-158875703D01*
X105132309Y-158872553D01*
X105153750Y-158871500D01*
X105666250Y-158871500D01*
X105687691Y-158872553D01*
G37*
G36*
X105433691Y-129103553D02*
G01*
X105454926Y-129106703D01*
X105475750Y-129111919D01*
X105495962Y-129119151D01*
X105515368Y-129128330D01*
X105533781Y-129139366D01*
X105551024Y-129152154D01*
X105566930Y-129166570D01*
X105581346Y-129182476D01*
X105594134Y-129199719D01*
X105605170Y-129218132D01*
X105614349Y-129237538D01*
X105621581Y-129257750D01*
X105626797Y-129278574D01*
X105629947Y-129299809D01*
X105631000Y-129321250D01*
X105631000Y-129758750D01*
X105629947Y-129780191D01*
X105626797Y-129801426D01*
X105621581Y-129822250D01*
X105614349Y-129842462D01*
X105605170Y-129861868D01*
X105594134Y-129880281D01*
X105581346Y-129897524D01*
X105566930Y-129913430D01*
X105551024Y-129927846D01*
X105533781Y-129940634D01*
X105515368Y-129951670D01*
X105495962Y-129960849D01*
X105475750Y-129968081D01*
X105454926Y-129973297D01*
X105433691Y-129976447D01*
X105412250Y-129977500D01*
X104899750Y-129977500D01*
X104878309Y-129976447D01*
X104857074Y-129973297D01*
X104836250Y-129968081D01*
X104816038Y-129960849D01*
X104796632Y-129951670D01*
X104778219Y-129940634D01*
X104760976Y-129927846D01*
X104745070Y-129913430D01*
X104730654Y-129897524D01*
X104717866Y-129880281D01*
X104706830Y-129861868D01*
X104697651Y-129842462D01*
X104690419Y-129822250D01*
X104685203Y-129801426D01*
X104682053Y-129780191D01*
X104681000Y-129758750D01*
X104681000Y-129321250D01*
X104682053Y-129299809D01*
X104685203Y-129278574D01*
X104690419Y-129257750D01*
X104697651Y-129237538D01*
X104706830Y-129218132D01*
X104717866Y-129199719D01*
X104730654Y-129182476D01*
X104745070Y-129166570D01*
X104760976Y-129152154D01*
X104778219Y-129139366D01*
X104796632Y-129128330D01*
X104816038Y-129119151D01*
X104836250Y-129111919D01*
X104857074Y-129106703D01*
X104878309Y-129103553D01*
X104899750Y-129102500D01*
X105412250Y-129102500D01*
X105433691Y-129103553D01*
G37*
G36*
X105433691Y-130678553D02*
G01*
X105454926Y-130681703D01*
X105475750Y-130686919D01*
X105495962Y-130694151D01*
X105515368Y-130703330D01*
X105533781Y-130714366D01*
X105551024Y-130727154D01*
X105566930Y-130741570D01*
X105581346Y-130757476D01*
X105594134Y-130774719D01*
X105605170Y-130793132D01*
X105614349Y-130812538D01*
X105621581Y-130832750D01*
X105626797Y-130853574D01*
X105629947Y-130874809D01*
X105631000Y-130896250D01*
X105631000Y-131333750D01*
X105629947Y-131355191D01*
X105626797Y-131376426D01*
X105621581Y-131397250D01*
X105614349Y-131417462D01*
X105605170Y-131436868D01*
X105594134Y-131455281D01*
X105581346Y-131472524D01*
X105566930Y-131488430D01*
X105551024Y-131502846D01*
X105533781Y-131515634D01*
X105515368Y-131526670D01*
X105495962Y-131535849D01*
X105475750Y-131543081D01*
X105454926Y-131548297D01*
X105433691Y-131551447D01*
X105412250Y-131552500D01*
X104899750Y-131552500D01*
X104878309Y-131551447D01*
X104857074Y-131548297D01*
X104836250Y-131543081D01*
X104816038Y-131535849D01*
X104796632Y-131526670D01*
X104778219Y-131515634D01*
X104760976Y-131502846D01*
X104745070Y-131488430D01*
X104730654Y-131472524D01*
X104717866Y-131455281D01*
X104706830Y-131436868D01*
X104697651Y-131417462D01*
X104690419Y-131397250D01*
X104685203Y-131376426D01*
X104682053Y-131355191D01*
X104681000Y-131333750D01*
X104681000Y-130896250D01*
X104682053Y-130874809D01*
X104685203Y-130853574D01*
X104690419Y-130832750D01*
X104697651Y-130812538D01*
X104706830Y-130793132D01*
X104717866Y-130774719D01*
X104730654Y-130757476D01*
X104745070Y-130741570D01*
X104760976Y-130727154D01*
X104778219Y-130714366D01*
X104796632Y-130703330D01*
X104816038Y-130694151D01*
X104836250Y-130686919D01*
X104857074Y-130681703D01*
X104878309Y-130678553D01*
X104899750Y-130677500D01*
X105412250Y-130677500D01*
X105433691Y-130678553D01*
G37*
D11*
X88838000Y-164846000D03*
X87438000Y-164846000D03*
X85155000Y-164846000D03*
X83755000Y-164846000D03*
D10*
G36*
X99859703Y-160196722D02*
G01*
X99874264Y-160198882D01*
X99888543Y-160202459D01*
X99902403Y-160207418D01*
X99915710Y-160213712D01*
X99928336Y-160221280D01*
X99940159Y-160230048D01*
X99951066Y-160239934D01*
X99960952Y-160250841D01*
X99969720Y-160262664D01*
X99977288Y-160275290D01*
X99983582Y-160288597D01*
X99988541Y-160302457D01*
X99992118Y-160316736D01*
X99994278Y-160331297D01*
X99995000Y-160346000D01*
X99995000Y-161796000D01*
X99994278Y-161810703D01*
X99992118Y-161825264D01*
X99988541Y-161839543D01*
X99983582Y-161853403D01*
X99977288Y-161866710D01*
X99969720Y-161879336D01*
X99960952Y-161891159D01*
X99951066Y-161902066D01*
X99940159Y-161911952D01*
X99928336Y-161920720D01*
X99915710Y-161928288D01*
X99902403Y-161934582D01*
X99888543Y-161939541D01*
X99874264Y-161943118D01*
X99859703Y-161945278D01*
X99845000Y-161946000D01*
X99545000Y-161946000D01*
X99530297Y-161945278D01*
X99515736Y-161943118D01*
X99501457Y-161939541D01*
X99487597Y-161934582D01*
X99474290Y-161928288D01*
X99461664Y-161920720D01*
X99449841Y-161911952D01*
X99438934Y-161902066D01*
X99429048Y-161891159D01*
X99420280Y-161879336D01*
X99412712Y-161866710D01*
X99406418Y-161853403D01*
X99401459Y-161839543D01*
X99397882Y-161825264D01*
X99395722Y-161810703D01*
X99395000Y-161796000D01*
X99395000Y-160346000D01*
X99395722Y-160331297D01*
X99397882Y-160316736D01*
X99401459Y-160302457D01*
X99406418Y-160288597D01*
X99412712Y-160275290D01*
X99420280Y-160262664D01*
X99429048Y-160250841D01*
X99438934Y-160239934D01*
X99449841Y-160230048D01*
X99461664Y-160221280D01*
X99474290Y-160213712D01*
X99487597Y-160207418D01*
X99501457Y-160202459D01*
X99515736Y-160198882D01*
X99530297Y-160196722D01*
X99545000Y-160196000D01*
X99845000Y-160196000D01*
X99859703Y-160196722D01*
G37*
G36*
X101129703Y-160196722D02*
G01*
X101144264Y-160198882D01*
X101158543Y-160202459D01*
X101172403Y-160207418D01*
X101185710Y-160213712D01*
X101198336Y-160221280D01*
X101210159Y-160230048D01*
X101221066Y-160239934D01*
X101230952Y-160250841D01*
X101239720Y-160262664D01*
X101247288Y-160275290D01*
X101253582Y-160288597D01*
X101258541Y-160302457D01*
X101262118Y-160316736D01*
X101264278Y-160331297D01*
X101265000Y-160346000D01*
X101265000Y-161796000D01*
X101264278Y-161810703D01*
X101262118Y-161825264D01*
X101258541Y-161839543D01*
X101253582Y-161853403D01*
X101247288Y-161866710D01*
X101239720Y-161879336D01*
X101230952Y-161891159D01*
X101221066Y-161902066D01*
X101210159Y-161911952D01*
X101198336Y-161920720D01*
X101185710Y-161928288D01*
X101172403Y-161934582D01*
X101158543Y-161939541D01*
X101144264Y-161943118D01*
X101129703Y-161945278D01*
X101115000Y-161946000D01*
X100815000Y-161946000D01*
X100800297Y-161945278D01*
X100785736Y-161943118D01*
X100771457Y-161939541D01*
X100757597Y-161934582D01*
X100744290Y-161928288D01*
X100731664Y-161920720D01*
X100719841Y-161911952D01*
X100708934Y-161902066D01*
X100699048Y-161891159D01*
X100690280Y-161879336D01*
X100682712Y-161866710D01*
X100676418Y-161853403D01*
X100671459Y-161839543D01*
X100667882Y-161825264D01*
X100665722Y-161810703D01*
X100665000Y-161796000D01*
X100665000Y-160346000D01*
X100665722Y-160331297D01*
X100667882Y-160316736D01*
X100671459Y-160302457D01*
X100676418Y-160288597D01*
X100682712Y-160275290D01*
X100690280Y-160262664D01*
X100699048Y-160250841D01*
X100708934Y-160239934D01*
X100719841Y-160230048D01*
X100731664Y-160221280D01*
X100744290Y-160213712D01*
X100757597Y-160207418D01*
X100771457Y-160202459D01*
X100785736Y-160198882D01*
X100800297Y-160196722D01*
X100815000Y-160196000D01*
X101115000Y-160196000D01*
X101129703Y-160196722D01*
G37*
G36*
X102399703Y-160196722D02*
G01*
X102414264Y-160198882D01*
X102428543Y-160202459D01*
X102442403Y-160207418D01*
X102455710Y-160213712D01*
X102468336Y-160221280D01*
X102480159Y-160230048D01*
X102491066Y-160239934D01*
X102500952Y-160250841D01*
X102509720Y-160262664D01*
X102517288Y-160275290D01*
X102523582Y-160288597D01*
X102528541Y-160302457D01*
X102532118Y-160316736D01*
X102534278Y-160331297D01*
X102535000Y-160346000D01*
X102535000Y-161796000D01*
X102534278Y-161810703D01*
X102532118Y-161825264D01*
X102528541Y-161839543D01*
X102523582Y-161853403D01*
X102517288Y-161866710D01*
X102509720Y-161879336D01*
X102500952Y-161891159D01*
X102491066Y-161902066D01*
X102480159Y-161911952D01*
X102468336Y-161920720D01*
X102455710Y-161928288D01*
X102442403Y-161934582D01*
X102428543Y-161939541D01*
X102414264Y-161943118D01*
X102399703Y-161945278D01*
X102385000Y-161946000D01*
X102085000Y-161946000D01*
X102070297Y-161945278D01*
X102055736Y-161943118D01*
X102041457Y-161939541D01*
X102027597Y-161934582D01*
X102014290Y-161928288D01*
X102001664Y-161920720D01*
X101989841Y-161911952D01*
X101978934Y-161902066D01*
X101969048Y-161891159D01*
X101960280Y-161879336D01*
X101952712Y-161866710D01*
X101946418Y-161853403D01*
X101941459Y-161839543D01*
X101937882Y-161825264D01*
X101935722Y-161810703D01*
X101935000Y-161796000D01*
X101935000Y-160346000D01*
X101935722Y-160331297D01*
X101937882Y-160316736D01*
X101941459Y-160302457D01*
X101946418Y-160288597D01*
X101952712Y-160275290D01*
X101960280Y-160262664D01*
X101969048Y-160250841D01*
X101978934Y-160239934D01*
X101989841Y-160230048D01*
X102001664Y-160221280D01*
X102014290Y-160213712D01*
X102027597Y-160207418D01*
X102041457Y-160202459D01*
X102055736Y-160198882D01*
X102070297Y-160196722D01*
X102085000Y-160196000D01*
X102385000Y-160196000D01*
X102399703Y-160196722D01*
G37*
G36*
X103669703Y-160196722D02*
G01*
X103684264Y-160198882D01*
X103698543Y-160202459D01*
X103712403Y-160207418D01*
X103725710Y-160213712D01*
X103738336Y-160221280D01*
X103750159Y-160230048D01*
X103761066Y-160239934D01*
X103770952Y-160250841D01*
X103779720Y-160262664D01*
X103787288Y-160275290D01*
X103793582Y-160288597D01*
X103798541Y-160302457D01*
X103802118Y-160316736D01*
X103804278Y-160331297D01*
X103805000Y-160346000D01*
X103805000Y-161796000D01*
X103804278Y-161810703D01*
X103802118Y-161825264D01*
X103798541Y-161839543D01*
X103793582Y-161853403D01*
X103787288Y-161866710D01*
X103779720Y-161879336D01*
X103770952Y-161891159D01*
X103761066Y-161902066D01*
X103750159Y-161911952D01*
X103738336Y-161920720D01*
X103725710Y-161928288D01*
X103712403Y-161934582D01*
X103698543Y-161939541D01*
X103684264Y-161943118D01*
X103669703Y-161945278D01*
X103655000Y-161946000D01*
X103355000Y-161946000D01*
X103340297Y-161945278D01*
X103325736Y-161943118D01*
X103311457Y-161939541D01*
X103297597Y-161934582D01*
X103284290Y-161928288D01*
X103271664Y-161920720D01*
X103259841Y-161911952D01*
X103248934Y-161902066D01*
X103239048Y-161891159D01*
X103230280Y-161879336D01*
X103222712Y-161866710D01*
X103216418Y-161853403D01*
X103211459Y-161839543D01*
X103207882Y-161825264D01*
X103205722Y-161810703D01*
X103205000Y-161796000D01*
X103205000Y-160346000D01*
X103205722Y-160331297D01*
X103207882Y-160316736D01*
X103211459Y-160302457D01*
X103216418Y-160288597D01*
X103222712Y-160275290D01*
X103230280Y-160262664D01*
X103239048Y-160250841D01*
X103248934Y-160239934D01*
X103259841Y-160230048D01*
X103271664Y-160221280D01*
X103284290Y-160213712D01*
X103297597Y-160207418D01*
X103311457Y-160202459D01*
X103325736Y-160198882D01*
X103340297Y-160196722D01*
X103355000Y-160196000D01*
X103655000Y-160196000D01*
X103669703Y-160196722D01*
G37*
G36*
X103669703Y-155046722D02*
G01*
X103684264Y-155048882D01*
X103698543Y-155052459D01*
X103712403Y-155057418D01*
X103725710Y-155063712D01*
X103738336Y-155071280D01*
X103750159Y-155080048D01*
X103761066Y-155089934D01*
X103770952Y-155100841D01*
X103779720Y-155112664D01*
X103787288Y-155125290D01*
X103793582Y-155138597D01*
X103798541Y-155152457D01*
X103802118Y-155166736D01*
X103804278Y-155181297D01*
X103805000Y-155196000D01*
X103805000Y-156646000D01*
X103804278Y-156660703D01*
X103802118Y-156675264D01*
X103798541Y-156689543D01*
X103793582Y-156703403D01*
X103787288Y-156716710D01*
X103779720Y-156729336D01*
X103770952Y-156741159D01*
X103761066Y-156752066D01*
X103750159Y-156761952D01*
X103738336Y-156770720D01*
X103725710Y-156778288D01*
X103712403Y-156784582D01*
X103698543Y-156789541D01*
X103684264Y-156793118D01*
X103669703Y-156795278D01*
X103655000Y-156796000D01*
X103355000Y-156796000D01*
X103340297Y-156795278D01*
X103325736Y-156793118D01*
X103311457Y-156789541D01*
X103297597Y-156784582D01*
X103284290Y-156778288D01*
X103271664Y-156770720D01*
X103259841Y-156761952D01*
X103248934Y-156752066D01*
X103239048Y-156741159D01*
X103230280Y-156729336D01*
X103222712Y-156716710D01*
X103216418Y-156703403D01*
X103211459Y-156689543D01*
X103207882Y-156675264D01*
X103205722Y-156660703D01*
X103205000Y-156646000D01*
X103205000Y-155196000D01*
X103205722Y-155181297D01*
X103207882Y-155166736D01*
X103211459Y-155152457D01*
X103216418Y-155138597D01*
X103222712Y-155125290D01*
X103230280Y-155112664D01*
X103239048Y-155100841D01*
X103248934Y-155089934D01*
X103259841Y-155080048D01*
X103271664Y-155071280D01*
X103284290Y-155063712D01*
X103297597Y-155057418D01*
X103311457Y-155052459D01*
X103325736Y-155048882D01*
X103340297Y-155046722D01*
X103355000Y-155046000D01*
X103655000Y-155046000D01*
X103669703Y-155046722D01*
G37*
G36*
X102399703Y-155046722D02*
G01*
X102414264Y-155048882D01*
X102428543Y-155052459D01*
X102442403Y-155057418D01*
X102455710Y-155063712D01*
X102468336Y-155071280D01*
X102480159Y-155080048D01*
X102491066Y-155089934D01*
X102500952Y-155100841D01*
X102509720Y-155112664D01*
X102517288Y-155125290D01*
X102523582Y-155138597D01*
X102528541Y-155152457D01*
X102532118Y-155166736D01*
X102534278Y-155181297D01*
X102535000Y-155196000D01*
X102535000Y-156646000D01*
X102534278Y-156660703D01*
X102532118Y-156675264D01*
X102528541Y-156689543D01*
X102523582Y-156703403D01*
X102517288Y-156716710D01*
X102509720Y-156729336D01*
X102500952Y-156741159D01*
X102491066Y-156752066D01*
X102480159Y-156761952D01*
X102468336Y-156770720D01*
X102455710Y-156778288D01*
X102442403Y-156784582D01*
X102428543Y-156789541D01*
X102414264Y-156793118D01*
X102399703Y-156795278D01*
X102385000Y-156796000D01*
X102085000Y-156796000D01*
X102070297Y-156795278D01*
X102055736Y-156793118D01*
X102041457Y-156789541D01*
X102027597Y-156784582D01*
X102014290Y-156778288D01*
X102001664Y-156770720D01*
X101989841Y-156761952D01*
X101978934Y-156752066D01*
X101969048Y-156741159D01*
X101960280Y-156729336D01*
X101952712Y-156716710D01*
X101946418Y-156703403D01*
X101941459Y-156689543D01*
X101937882Y-156675264D01*
X101935722Y-156660703D01*
X101935000Y-156646000D01*
X101935000Y-155196000D01*
X101935722Y-155181297D01*
X101937882Y-155166736D01*
X101941459Y-155152457D01*
X101946418Y-155138597D01*
X101952712Y-155125290D01*
X101960280Y-155112664D01*
X101969048Y-155100841D01*
X101978934Y-155089934D01*
X101989841Y-155080048D01*
X102001664Y-155071280D01*
X102014290Y-155063712D01*
X102027597Y-155057418D01*
X102041457Y-155052459D01*
X102055736Y-155048882D01*
X102070297Y-155046722D01*
X102085000Y-155046000D01*
X102385000Y-155046000D01*
X102399703Y-155046722D01*
G37*
G36*
X101129703Y-155046722D02*
G01*
X101144264Y-155048882D01*
X101158543Y-155052459D01*
X101172403Y-155057418D01*
X101185710Y-155063712D01*
X101198336Y-155071280D01*
X101210159Y-155080048D01*
X101221066Y-155089934D01*
X101230952Y-155100841D01*
X101239720Y-155112664D01*
X101247288Y-155125290D01*
X101253582Y-155138597D01*
X101258541Y-155152457D01*
X101262118Y-155166736D01*
X101264278Y-155181297D01*
X101265000Y-155196000D01*
X101265000Y-156646000D01*
X101264278Y-156660703D01*
X101262118Y-156675264D01*
X101258541Y-156689543D01*
X101253582Y-156703403D01*
X101247288Y-156716710D01*
X101239720Y-156729336D01*
X101230952Y-156741159D01*
X101221066Y-156752066D01*
X101210159Y-156761952D01*
X101198336Y-156770720D01*
X101185710Y-156778288D01*
X101172403Y-156784582D01*
X101158543Y-156789541D01*
X101144264Y-156793118D01*
X101129703Y-156795278D01*
X101115000Y-156796000D01*
X100815000Y-156796000D01*
X100800297Y-156795278D01*
X100785736Y-156793118D01*
X100771457Y-156789541D01*
X100757597Y-156784582D01*
X100744290Y-156778288D01*
X100731664Y-156770720D01*
X100719841Y-156761952D01*
X100708934Y-156752066D01*
X100699048Y-156741159D01*
X100690280Y-156729336D01*
X100682712Y-156716710D01*
X100676418Y-156703403D01*
X100671459Y-156689543D01*
X100667882Y-156675264D01*
X100665722Y-156660703D01*
X100665000Y-156646000D01*
X100665000Y-155196000D01*
X100665722Y-155181297D01*
X100667882Y-155166736D01*
X100671459Y-155152457D01*
X100676418Y-155138597D01*
X100682712Y-155125290D01*
X100690280Y-155112664D01*
X100699048Y-155100841D01*
X100708934Y-155089934D01*
X100719841Y-155080048D01*
X100731664Y-155071280D01*
X100744290Y-155063712D01*
X100757597Y-155057418D01*
X100771457Y-155052459D01*
X100785736Y-155048882D01*
X100800297Y-155046722D01*
X100815000Y-155046000D01*
X101115000Y-155046000D01*
X101129703Y-155046722D01*
G37*
G36*
X99859703Y-155046722D02*
G01*
X99874264Y-155048882D01*
X99888543Y-155052459D01*
X99902403Y-155057418D01*
X99915710Y-155063712D01*
X99928336Y-155071280D01*
X99940159Y-155080048D01*
X99951066Y-155089934D01*
X99960952Y-155100841D01*
X99969720Y-155112664D01*
X99977288Y-155125290D01*
X99983582Y-155138597D01*
X99988541Y-155152457D01*
X99992118Y-155166736D01*
X99994278Y-155181297D01*
X99995000Y-155196000D01*
X99995000Y-156646000D01*
X99994278Y-156660703D01*
X99992118Y-156675264D01*
X99988541Y-156689543D01*
X99983582Y-156703403D01*
X99977288Y-156716710D01*
X99969720Y-156729336D01*
X99960952Y-156741159D01*
X99951066Y-156752066D01*
X99940159Y-156761952D01*
X99928336Y-156770720D01*
X99915710Y-156778288D01*
X99902403Y-156784582D01*
X99888543Y-156789541D01*
X99874264Y-156793118D01*
X99859703Y-156795278D01*
X99845000Y-156796000D01*
X99545000Y-156796000D01*
X99530297Y-156795278D01*
X99515736Y-156793118D01*
X99501457Y-156789541D01*
X99487597Y-156784582D01*
X99474290Y-156778288D01*
X99461664Y-156770720D01*
X99449841Y-156761952D01*
X99438934Y-156752066D01*
X99429048Y-156741159D01*
X99420280Y-156729336D01*
X99412712Y-156716710D01*
X99406418Y-156703403D01*
X99401459Y-156689543D01*
X99397882Y-156675264D01*
X99395722Y-156660703D01*
X99395000Y-156646000D01*
X99395000Y-155196000D01*
X99395722Y-155181297D01*
X99397882Y-155166736D01*
X99401459Y-155152457D01*
X99406418Y-155138597D01*
X99412712Y-155125290D01*
X99420280Y-155112664D01*
X99429048Y-155100841D01*
X99438934Y-155089934D01*
X99449841Y-155080048D01*
X99461664Y-155071280D01*
X99474290Y-155063712D01*
X99487597Y-155057418D01*
X99501457Y-155052459D01*
X99515736Y-155048882D01*
X99530297Y-155046722D01*
X99545000Y-155046000D01*
X99845000Y-155046000D01*
X99859703Y-155046722D01*
G37*
G36*
X102830691Y-169960053D02*
G01*
X102851926Y-169963203D01*
X102872750Y-169968419D01*
X102892962Y-169975651D01*
X102912368Y-169984830D01*
X102930781Y-169995866D01*
X102948024Y-170008654D01*
X102963930Y-170023070D01*
X102978346Y-170038976D01*
X102991134Y-170056219D01*
X103002170Y-170074632D01*
X103011349Y-170094038D01*
X103018581Y-170114250D01*
X103023797Y-170135074D01*
X103026947Y-170156309D01*
X103028000Y-170177750D01*
X103028000Y-170690250D01*
X103026947Y-170711691D01*
X103023797Y-170732926D01*
X103018581Y-170753750D01*
X103011349Y-170773962D01*
X103002170Y-170793368D01*
X102991134Y-170811781D01*
X102978346Y-170829024D01*
X102963930Y-170844930D01*
X102948024Y-170859346D01*
X102930781Y-170872134D01*
X102912368Y-170883170D01*
X102892962Y-170892349D01*
X102872750Y-170899581D01*
X102851926Y-170904797D01*
X102830691Y-170907947D01*
X102809250Y-170909000D01*
X102371750Y-170909000D01*
X102350309Y-170907947D01*
X102329074Y-170904797D01*
X102308250Y-170899581D01*
X102288038Y-170892349D01*
X102268632Y-170883170D01*
X102250219Y-170872134D01*
X102232976Y-170859346D01*
X102217070Y-170844930D01*
X102202654Y-170829024D01*
X102189866Y-170811781D01*
X102178830Y-170793368D01*
X102169651Y-170773962D01*
X102162419Y-170753750D01*
X102157203Y-170732926D01*
X102154053Y-170711691D01*
X102153000Y-170690250D01*
X102153000Y-170177750D01*
X102154053Y-170156309D01*
X102157203Y-170135074D01*
X102162419Y-170114250D01*
X102169651Y-170094038D01*
X102178830Y-170074632D01*
X102189866Y-170056219D01*
X102202654Y-170038976D01*
X102217070Y-170023070D01*
X102232976Y-170008654D01*
X102250219Y-169995866D01*
X102268632Y-169984830D01*
X102288038Y-169975651D01*
X102308250Y-169968419D01*
X102329074Y-169963203D01*
X102350309Y-169960053D01*
X102371750Y-169959000D01*
X102809250Y-169959000D01*
X102830691Y-169960053D01*
G37*
G36*
X104405691Y-169960053D02*
G01*
X104426926Y-169963203D01*
X104447750Y-169968419D01*
X104467962Y-169975651D01*
X104487368Y-169984830D01*
X104505781Y-169995866D01*
X104523024Y-170008654D01*
X104538930Y-170023070D01*
X104553346Y-170038976D01*
X104566134Y-170056219D01*
X104577170Y-170074632D01*
X104586349Y-170094038D01*
X104593581Y-170114250D01*
X104598797Y-170135074D01*
X104601947Y-170156309D01*
X104603000Y-170177750D01*
X104603000Y-170690250D01*
X104601947Y-170711691D01*
X104598797Y-170732926D01*
X104593581Y-170753750D01*
X104586349Y-170773962D01*
X104577170Y-170793368D01*
X104566134Y-170811781D01*
X104553346Y-170829024D01*
X104538930Y-170844930D01*
X104523024Y-170859346D01*
X104505781Y-170872134D01*
X104487368Y-170883170D01*
X104467962Y-170892349D01*
X104447750Y-170899581D01*
X104426926Y-170904797D01*
X104405691Y-170907947D01*
X104384250Y-170909000D01*
X103946750Y-170909000D01*
X103925309Y-170907947D01*
X103904074Y-170904797D01*
X103883250Y-170899581D01*
X103863038Y-170892349D01*
X103843632Y-170883170D01*
X103825219Y-170872134D01*
X103807976Y-170859346D01*
X103792070Y-170844930D01*
X103777654Y-170829024D01*
X103764866Y-170811781D01*
X103753830Y-170793368D01*
X103744651Y-170773962D01*
X103737419Y-170753750D01*
X103732203Y-170732926D01*
X103729053Y-170711691D01*
X103728000Y-170690250D01*
X103728000Y-170177750D01*
X103729053Y-170156309D01*
X103732203Y-170135074D01*
X103737419Y-170114250D01*
X103744651Y-170094038D01*
X103753830Y-170074632D01*
X103764866Y-170056219D01*
X103777654Y-170038976D01*
X103792070Y-170023070D01*
X103807976Y-170008654D01*
X103825219Y-169995866D01*
X103843632Y-169984830D01*
X103863038Y-169975651D01*
X103883250Y-169968419D01*
X103904074Y-169963203D01*
X103925309Y-169960053D01*
X103946750Y-169959000D01*
X104384250Y-169959000D01*
X104405691Y-169960053D01*
G37*
G36*
X102830691Y-141766053D02*
G01*
X102851926Y-141769203D01*
X102872750Y-141774419D01*
X102892962Y-141781651D01*
X102912368Y-141790830D01*
X102930781Y-141801866D01*
X102948024Y-141814654D01*
X102963930Y-141829070D01*
X102978346Y-141844976D01*
X102991134Y-141862219D01*
X103002170Y-141880632D01*
X103011349Y-141900038D01*
X103018581Y-141920250D01*
X103023797Y-141941074D01*
X103026947Y-141962309D01*
X103028000Y-141983750D01*
X103028000Y-142496250D01*
X103026947Y-142517691D01*
X103023797Y-142538926D01*
X103018581Y-142559750D01*
X103011349Y-142579962D01*
X103002170Y-142599368D01*
X102991134Y-142617781D01*
X102978346Y-142635024D01*
X102963930Y-142650930D01*
X102948024Y-142665346D01*
X102930781Y-142678134D01*
X102912368Y-142689170D01*
X102892962Y-142698349D01*
X102872750Y-142705581D01*
X102851926Y-142710797D01*
X102830691Y-142713947D01*
X102809250Y-142715000D01*
X102371750Y-142715000D01*
X102350309Y-142713947D01*
X102329074Y-142710797D01*
X102308250Y-142705581D01*
X102288038Y-142698349D01*
X102268632Y-142689170D01*
X102250219Y-142678134D01*
X102232976Y-142665346D01*
X102217070Y-142650930D01*
X102202654Y-142635024D01*
X102189866Y-142617781D01*
X102178830Y-142599368D01*
X102169651Y-142579962D01*
X102162419Y-142559750D01*
X102157203Y-142538926D01*
X102154053Y-142517691D01*
X102153000Y-142496250D01*
X102153000Y-141983750D01*
X102154053Y-141962309D01*
X102157203Y-141941074D01*
X102162419Y-141920250D01*
X102169651Y-141900038D01*
X102178830Y-141880632D01*
X102189866Y-141862219D01*
X102202654Y-141844976D01*
X102217070Y-141829070D01*
X102232976Y-141814654D01*
X102250219Y-141801866D01*
X102268632Y-141790830D01*
X102288038Y-141781651D01*
X102308250Y-141774419D01*
X102329074Y-141769203D01*
X102350309Y-141766053D01*
X102371750Y-141765000D01*
X102809250Y-141765000D01*
X102830691Y-141766053D01*
G37*
G36*
X104405691Y-141766053D02*
G01*
X104426926Y-141769203D01*
X104447750Y-141774419D01*
X104467962Y-141781651D01*
X104487368Y-141790830D01*
X104505781Y-141801866D01*
X104523024Y-141814654D01*
X104538930Y-141829070D01*
X104553346Y-141844976D01*
X104566134Y-141862219D01*
X104577170Y-141880632D01*
X104586349Y-141900038D01*
X104593581Y-141920250D01*
X104598797Y-141941074D01*
X104601947Y-141962309D01*
X104603000Y-141983750D01*
X104603000Y-142496250D01*
X104601947Y-142517691D01*
X104598797Y-142538926D01*
X104593581Y-142559750D01*
X104586349Y-142579962D01*
X104577170Y-142599368D01*
X104566134Y-142617781D01*
X104553346Y-142635024D01*
X104538930Y-142650930D01*
X104523024Y-142665346D01*
X104505781Y-142678134D01*
X104487368Y-142689170D01*
X104467962Y-142698349D01*
X104447750Y-142705581D01*
X104426926Y-142710797D01*
X104405691Y-142713947D01*
X104384250Y-142715000D01*
X103946750Y-142715000D01*
X103925309Y-142713947D01*
X103904074Y-142710797D01*
X103883250Y-142705581D01*
X103863038Y-142698349D01*
X103843632Y-142689170D01*
X103825219Y-142678134D01*
X103807976Y-142665346D01*
X103792070Y-142650930D01*
X103777654Y-142635024D01*
X103764866Y-142617781D01*
X103753830Y-142599368D01*
X103744651Y-142579962D01*
X103737419Y-142559750D01*
X103732203Y-142538926D01*
X103729053Y-142517691D01*
X103728000Y-142496250D01*
X103728000Y-141983750D01*
X103729053Y-141962309D01*
X103732203Y-141941074D01*
X103737419Y-141920250D01*
X103744651Y-141900038D01*
X103753830Y-141880632D01*
X103764866Y-141862219D01*
X103777654Y-141844976D01*
X103792070Y-141829070D01*
X103807976Y-141814654D01*
X103825219Y-141801866D01*
X103843632Y-141790830D01*
X103863038Y-141781651D01*
X103883250Y-141774419D01*
X103904074Y-141769203D01*
X103925309Y-141766053D01*
X103946750Y-141765000D01*
X104384250Y-141765000D01*
X104405691Y-141766053D01*
G37*
G36*
X102830691Y-146592053D02*
G01*
X102851926Y-146595203D01*
X102872750Y-146600419D01*
X102892962Y-146607651D01*
X102912368Y-146616830D01*
X102930781Y-146627866D01*
X102948024Y-146640654D01*
X102963930Y-146655070D01*
X102978346Y-146670976D01*
X102991134Y-146688219D01*
X103002170Y-146706632D01*
X103011349Y-146726038D01*
X103018581Y-146746250D01*
X103023797Y-146767074D01*
X103026947Y-146788309D01*
X103028000Y-146809750D01*
X103028000Y-147322250D01*
X103026947Y-147343691D01*
X103023797Y-147364926D01*
X103018581Y-147385750D01*
X103011349Y-147405962D01*
X103002170Y-147425368D01*
X102991134Y-147443781D01*
X102978346Y-147461024D01*
X102963930Y-147476930D01*
X102948024Y-147491346D01*
X102930781Y-147504134D01*
X102912368Y-147515170D01*
X102892962Y-147524349D01*
X102872750Y-147531581D01*
X102851926Y-147536797D01*
X102830691Y-147539947D01*
X102809250Y-147541000D01*
X102371750Y-147541000D01*
X102350309Y-147539947D01*
X102329074Y-147536797D01*
X102308250Y-147531581D01*
X102288038Y-147524349D01*
X102268632Y-147515170D01*
X102250219Y-147504134D01*
X102232976Y-147491346D01*
X102217070Y-147476930D01*
X102202654Y-147461024D01*
X102189866Y-147443781D01*
X102178830Y-147425368D01*
X102169651Y-147405962D01*
X102162419Y-147385750D01*
X102157203Y-147364926D01*
X102154053Y-147343691D01*
X102153000Y-147322250D01*
X102153000Y-146809750D01*
X102154053Y-146788309D01*
X102157203Y-146767074D01*
X102162419Y-146746250D01*
X102169651Y-146726038D01*
X102178830Y-146706632D01*
X102189866Y-146688219D01*
X102202654Y-146670976D01*
X102217070Y-146655070D01*
X102232976Y-146640654D01*
X102250219Y-146627866D01*
X102268632Y-146616830D01*
X102288038Y-146607651D01*
X102308250Y-146600419D01*
X102329074Y-146595203D01*
X102350309Y-146592053D01*
X102371750Y-146591000D01*
X102809250Y-146591000D01*
X102830691Y-146592053D01*
G37*
G36*
X104405691Y-146592053D02*
G01*
X104426926Y-146595203D01*
X104447750Y-146600419D01*
X104467962Y-146607651D01*
X104487368Y-146616830D01*
X104505781Y-146627866D01*
X104523024Y-146640654D01*
X104538930Y-146655070D01*
X104553346Y-146670976D01*
X104566134Y-146688219D01*
X104577170Y-146706632D01*
X104586349Y-146726038D01*
X104593581Y-146746250D01*
X104598797Y-146767074D01*
X104601947Y-146788309D01*
X104603000Y-146809750D01*
X104603000Y-147322250D01*
X104601947Y-147343691D01*
X104598797Y-147364926D01*
X104593581Y-147385750D01*
X104586349Y-147405962D01*
X104577170Y-147425368D01*
X104566134Y-147443781D01*
X104553346Y-147461024D01*
X104538930Y-147476930D01*
X104523024Y-147491346D01*
X104505781Y-147504134D01*
X104487368Y-147515170D01*
X104467962Y-147524349D01*
X104447750Y-147531581D01*
X104426926Y-147536797D01*
X104405691Y-147539947D01*
X104384250Y-147541000D01*
X103946750Y-147541000D01*
X103925309Y-147539947D01*
X103904074Y-147536797D01*
X103883250Y-147531581D01*
X103863038Y-147524349D01*
X103843632Y-147515170D01*
X103825219Y-147504134D01*
X103807976Y-147491346D01*
X103792070Y-147476930D01*
X103777654Y-147461024D01*
X103764866Y-147443781D01*
X103753830Y-147425368D01*
X103744651Y-147405962D01*
X103737419Y-147385750D01*
X103732203Y-147364926D01*
X103729053Y-147343691D01*
X103728000Y-147322250D01*
X103728000Y-146809750D01*
X103729053Y-146788309D01*
X103732203Y-146767074D01*
X103737419Y-146746250D01*
X103744651Y-146726038D01*
X103753830Y-146706632D01*
X103764866Y-146688219D01*
X103777654Y-146670976D01*
X103792070Y-146655070D01*
X103807976Y-146640654D01*
X103825219Y-146627866D01*
X103843632Y-146616830D01*
X103863038Y-146607651D01*
X103883250Y-146600419D01*
X103904074Y-146595203D01*
X103925309Y-146592053D01*
X103946750Y-146591000D01*
X104384250Y-146591000D01*
X104405691Y-146592053D01*
G37*
G36*
X102830691Y-167166053D02*
G01*
X102851926Y-167169203D01*
X102872750Y-167174419D01*
X102892962Y-167181651D01*
X102912368Y-167190830D01*
X102930781Y-167201866D01*
X102948024Y-167214654D01*
X102963930Y-167229070D01*
X102978346Y-167244976D01*
X102991134Y-167262219D01*
X103002170Y-167280632D01*
X103011349Y-167300038D01*
X103018581Y-167320250D01*
X103023797Y-167341074D01*
X103026947Y-167362309D01*
X103028000Y-167383750D01*
X103028000Y-167896250D01*
X103026947Y-167917691D01*
X103023797Y-167938926D01*
X103018581Y-167959750D01*
X103011349Y-167979962D01*
X103002170Y-167999368D01*
X102991134Y-168017781D01*
X102978346Y-168035024D01*
X102963930Y-168050930D01*
X102948024Y-168065346D01*
X102930781Y-168078134D01*
X102912368Y-168089170D01*
X102892962Y-168098349D01*
X102872750Y-168105581D01*
X102851926Y-168110797D01*
X102830691Y-168113947D01*
X102809250Y-168115000D01*
X102371750Y-168115000D01*
X102350309Y-168113947D01*
X102329074Y-168110797D01*
X102308250Y-168105581D01*
X102288038Y-168098349D01*
X102268632Y-168089170D01*
X102250219Y-168078134D01*
X102232976Y-168065346D01*
X102217070Y-168050930D01*
X102202654Y-168035024D01*
X102189866Y-168017781D01*
X102178830Y-167999368D01*
X102169651Y-167979962D01*
X102162419Y-167959750D01*
X102157203Y-167938926D01*
X102154053Y-167917691D01*
X102153000Y-167896250D01*
X102153000Y-167383750D01*
X102154053Y-167362309D01*
X102157203Y-167341074D01*
X102162419Y-167320250D01*
X102169651Y-167300038D01*
X102178830Y-167280632D01*
X102189866Y-167262219D01*
X102202654Y-167244976D01*
X102217070Y-167229070D01*
X102232976Y-167214654D01*
X102250219Y-167201866D01*
X102268632Y-167190830D01*
X102288038Y-167181651D01*
X102308250Y-167174419D01*
X102329074Y-167169203D01*
X102350309Y-167166053D01*
X102371750Y-167165000D01*
X102809250Y-167165000D01*
X102830691Y-167166053D01*
G37*
G36*
X104405691Y-167166053D02*
G01*
X104426926Y-167169203D01*
X104447750Y-167174419D01*
X104467962Y-167181651D01*
X104487368Y-167190830D01*
X104505781Y-167201866D01*
X104523024Y-167214654D01*
X104538930Y-167229070D01*
X104553346Y-167244976D01*
X104566134Y-167262219D01*
X104577170Y-167280632D01*
X104586349Y-167300038D01*
X104593581Y-167320250D01*
X104598797Y-167341074D01*
X104601947Y-167362309D01*
X104603000Y-167383750D01*
X104603000Y-167896250D01*
X104601947Y-167917691D01*
X104598797Y-167938926D01*
X104593581Y-167959750D01*
X104586349Y-167979962D01*
X104577170Y-167999368D01*
X104566134Y-168017781D01*
X104553346Y-168035024D01*
X104538930Y-168050930D01*
X104523024Y-168065346D01*
X104505781Y-168078134D01*
X104487368Y-168089170D01*
X104467962Y-168098349D01*
X104447750Y-168105581D01*
X104426926Y-168110797D01*
X104405691Y-168113947D01*
X104384250Y-168115000D01*
X103946750Y-168115000D01*
X103925309Y-168113947D01*
X103904074Y-168110797D01*
X103883250Y-168105581D01*
X103863038Y-168098349D01*
X103843632Y-168089170D01*
X103825219Y-168078134D01*
X103807976Y-168065346D01*
X103792070Y-168050930D01*
X103777654Y-168035024D01*
X103764866Y-168017781D01*
X103753830Y-167999368D01*
X103744651Y-167979962D01*
X103737419Y-167959750D01*
X103732203Y-167938926D01*
X103729053Y-167917691D01*
X103728000Y-167896250D01*
X103728000Y-167383750D01*
X103729053Y-167362309D01*
X103732203Y-167341074D01*
X103737419Y-167320250D01*
X103744651Y-167300038D01*
X103753830Y-167280632D01*
X103764866Y-167262219D01*
X103777654Y-167244976D01*
X103792070Y-167229070D01*
X103807976Y-167214654D01*
X103825219Y-167201866D01*
X103843632Y-167190830D01*
X103863038Y-167181651D01*
X103883250Y-167174419D01*
X103904074Y-167169203D01*
X103925309Y-167166053D01*
X103946750Y-167165000D01*
X104384250Y-167165000D01*
X104405691Y-167166053D01*
G37*
G36*
X102830691Y-138972053D02*
G01*
X102851926Y-138975203D01*
X102872750Y-138980419D01*
X102892962Y-138987651D01*
X102912368Y-138996830D01*
X102930781Y-139007866D01*
X102948024Y-139020654D01*
X102963930Y-139035070D01*
X102978346Y-139050976D01*
X102991134Y-139068219D01*
X103002170Y-139086632D01*
X103011349Y-139106038D01*
X103018581Y-139126250D01*
X103023797Y-139147074D01*
X103026947Y-139168309D01*
X103028000Y-139189750D01*
X103028000Y-139702250D01*
X103026947Y-139723691D01*
X103023797Y-139744926D01*
X103018581Y-139765750D01*
X103011349Y-139785962D01*
X103002170Y-139805368D01*
X102991134Y-139823781D01*
X102978346Y-139841024D01*
X102963930Y-139856930D01*
X102948024Y-139871346D01*
X102930781Y-139884134D01*
X102912368Y-139895170D01*
X102892962Y-139904349D01*
X102872750Y-139911581D01*
X102851926Y-139916797D01*
X102830691Y-139919947D01*
X102809250Y-139921000D01*
X102371750Y-139921000D01*
X102350309Y-139919947D01*
X102329074Y-139916797D01*
X102308250Y-139911581D01*
X102288038Y-139904349D01*
X102268632Y-139895170D01*
X102250219Y-139884134D01*
X102232976Y-139871346D01*
X102217070Y-139856930D01*
X102202654Y-139841024D01*
X102189866Y-139823781D01*
X102178830Y-139805368D01*
X102169651Y-139785962D01*
X102162419Y-139765750D01*
X102157203Y-139744926D01*
X102154053Y-139723691D01*
X102153000Y-139702250D01*
X102153000Y-139189750D01*
X102154053Y-139168309D01*
X102157203Y-139147074D01*
X102162419Y-139126250D01*
X102169651Y-139106038D01*
X102178830Y-139086632D01*
X102189866Y-139068219D01*
X102202654Y-139050976D01*
X102217070Y-139035070D01*
X102232976Y-139020654D01*
X102250219Y-139007866D01*
X102268632Y-138996830D01*
X102288038Y-138987651D01*
X102308250Y-138980419D01*
X102329074Y-138975203D01*
X102350309Y-138972053D01*
X102371750Y-138971000D01*
X102809250Y-138971000D01*
X102830691Y-138972053D01*
G37*
G36*
X104405691Y-138972053D02*
G01*
X104426926Y-138975203D01*
X104447750Y-138980419D01*
X104467962Y-138987651D01*
X104487368Y-138996830D01*
X104505781Y-139007866D01*
X104523024Y-139020654D01*
X104538930Y-139035070D01*
X104553346Y-139050976D01*
X104566134Y-139068219D01*
X104577170Y-139086632D01*
X104586349Y-139106038D01*
X104593581Y-139126250D01*
X104598797Y-139147074D01*
X104601947Y-139168309D01*
X104603000Y-139189750D01*
X104603000Y-139702250D01*
X104601947Y-139723691D01*
X104598797Y-139744926D01*
X104593581Y-139765750D01*
X104586349Y-139785962D01*
X104577170Y-139805368D01*
X104566134Y-139823781D01*
X104553346Y-139841024D01*
X104538930Y-139856930D01*
X104523024Y-139871346D01*
X104505781Y-139884134D01*
X104487368Y-139895170D01*
X104467962Y-139904349D01*
X104447750Y-139911581D01*
X104426926Y-139916797D01*
X104405691Y-139919947D01*
X104384250Y-139921000D01*
X103946750Y-139921000D01*
X103925309Y-139919947D01*
X103904074Y-139916797D01*
X103883250Y-139911581D01*
X103863038Y-139904349D01*
X103843632Y-139895170D01*
X103825219Y-139884134D01*
X103807976Y-139871346D01*
X103792070Y-139856930D01*
X103777654Y-139841024D01*
X103764866Y-139823781D01*
X103753830Y-139805368D01*
X103744651Y-139785962D01*
X103737419Y-139765750D01*
X103732203Y-139744926D01*
X103729053Y-139723691D01*
X103728000Y-139702250D01*
X103728000Y-139189750D01*
X103729053Y-139168309D01*
X103732203Y-139147074D01*
X103737419Y-139126250D01*
X103744651Y-139106038D01*
X103753830Y-139086632D01*
X103764866Y-139068219D01*
X103777654Y-139050976D01*
X103792070Y-139035070D01*
X103807976Y-139020654D01*
X103825219Y-139007866D01*
X103843632Y-138996830D01*
X103863038Y-138987651D01*
X103883250Y-138980419D01*
X103904074Y-138975203D01*
X103925309Y-138972053D01*
X103946750Y-138971000D01*
X104384250Y-138971000D01*
X104405691Y-138972053D01*
G37*
G36*
X102830691Y-149386053D02*
G01*
X102851926Y-149389203D01*
X102872750Y-149394419D01*
X102892962Y-149401651D01*
X102912368Y-149410830D01*
X102930781Y-149421866D01*
X102948024Y-149434654D01*
X102963930Y-149449070D01*
X102978346Y-149464976D01*
X102991134Y-149482219D01*
X103002170Y-149500632D01*
X103011349Y-149520038D01*
X103018581Y-149540250D01*
X103023797Y-149561074D01*
X103026947Y-149582309D01*
X103028000Y-149603750D01*
X103028000Y-150116250D01*
X103026947Y-150137691D01*
X103023797Y-150158926D01*
X103018581Y-150179750D01*
X103011349Y-150199962D01*
X103002170Y-150219368D01*
X102991134Y-150237781D01*
X102978346Y-150255024D01*
X102963930Y-150270930D01*
X102948024Y-150285346D01*
X102930781Y-150298134D01*
X102912368Y-150309170D01*
X102892962Y-150318349D01*
X102872750Y-150325581D01*
X102851926Y-150330797D01*
X102830691Y-150333947D01*
X102809250Y-150335000D01*
X102371750Y-150335000D01*
X102350309Y-150333947D01*
X102329074Y-150330797D01*
X102308250Y-150325581D01*
X102288038Y-150318349D01*
X102268632Y-150309170D01*
X102250219Y-150298134D01*
X102232976Y-150285346D01*
X102217070Y-150270930D01*
X102202654Y-150255024D01*
X102189866Y-150237781D01*
X102178830Y-150219368D01*
X102169651Y-150199962D01*
X102162419Y-150179750D01*
X102157203Y-150158926D01*
X102154053Y-150137691D01*
X102153000Y-150116250D01*
X102153000Y-149603750D01*
X102154053Y-149582309D01*
X102157203Y-149561074D01*
X102162419Y-149540250D01*
X102169651Y-149520038D01*
X102178830Y-149500632D01*
X102189866Y-149482219D01*
X102202654Y-149464976D01*
X102217070Y-149449070D01*
X102232976Y-149434654D01*
X102250219Y-149421866D01*
X102268632Y-149410830D01*
X102288038Y-149401651D01*
X102308250Y-149394419D01*
X102329074Y-149389203D01*
X102350309Y-149386053D01*
X102371750Y-149385000D01*
X102809250Y-149385000D01*
X102830691Y-149386053D01*
G37*
G36*
X104405691Y-149386053D02*
G01*
X104426926Y-149389203D01*
X104447750Y-149394419D01*
X104467962Y-149401651D01*
X104487368Y-149410830D01*
X104505781Y-149421866D01*
X104523024Y-149434654D01*
X104538930Y-149449070D01*
X104553346Y-149464976D01*
X104566134Y-149482219D01*
X104577170Y-149500632D01*
X104586349Y-149520038D01*
X104593581Y-149540250D01*
X104598797Y-149561074D01*
X104601947Y-149582309D01*
X104603000Y-149603750D01*
X104603000Y-150116250D01*
X104601947Y-150137691D01*
X104598797Y-150158926D01*
X104593581Y-150179750D01*
X104586349Y-150199962D01*
X104577170Y-150219368D01*
X104566134Y-150237781D01*
X104553346Y-150255024D01*
X104538930Y-150270930D01*
X104523024Y-150285346D01*
X104505781Y-150298134D01*
X104487368Y-150309170D01*
X104467962Y-150318349D01*
X104447750Y-150325581D01*
X104426926Y-150330797D01*
X104405691Y-150333947D01*
X104384250Y-150335000D01*
X103946750Y-150335000D01*
X103925309Y-150333947D01*
X103904074Y-150330797D01*
X103883250Y-150325581D01*
X103863038Y-150318349D01*
X103843632Y-150309170D01*
X103825219Y-150298134D01*
X103807976Y-150285346D01*
X103792070Y-150270930D01*
X103777654Y-150255024D01*
X103764866Y-150237781D01*
X103753830Y-150219368D01*
X103744651Y-150199962D01*
X103737419Y-150179750D01*
X103732203Y-150158926D01*
X103729053Y-150137691D01*
X103728000Y-150116250D01*
X103728000Y-149603750D01*
X103729053Y-149582309D01*
X103732203Y-149561074D01*
X103737419Y-149540250D01*
X103744651Y-149520038D01*
X103753830Y-149500632D01*
X103764866Y-149482219D01*
X103777654Y-149464976D01*
X103792070Y-149449070D01*
X103807976Y-149434654D01*
X103825219Y-149421866D01*
X103843632Y-149410830D01*
X103863038Y-149401651D01*
X103883250Y-149394419D01*
X103904074Y-149389203D01*
X103925309Y-149386053D01*
X103946750Y-149385000D01*
X104384250Y-149385000D01*
X104405691Y-149386053D01*
G37*
G36*
X99274691Y-169960053D02*
G01*
X99295926Y-169963203D01*
X99316750Y-169968419D01*
X99336962Y-169975651D01*
X99356368Y-169984830D01*
X99374781Y-169995866D01*
X99392024Y-170008654D01*
X99407930Y-170023070D01*
X99422346Y-170038976D01*
X99435134Y-170056219D01*
X99446170Y-170074632D01*
X99455349Y-170094038D01*
X99462581Y-170114250D01*
X99467797Y-170135074D01*
X99470947Y-170156309D01*
X99472000Y-170177750D01*
X99472000Y-170690250D01*
X99470947Y-170711691D01*
X99467797Y-170732926D01*
X99462581Y-170753750D01*
X99455349Y-170773962D01*
X99446170Y-170793368D01*
X99435134Y-170811781D01*
X99422346Y-170829024D01*
X99407930Y-170844930D01*
X99392024Y-170859346D01*
X99374781Y-170872134D01*
X99356368Y-170883170D01*
X99336962Y-170892349D01*
X99316750Y-170899581D01*
X99295926Y-170904797D01*
X99274691Y-170907947D01*
X99253250Y-170909000D01*
X98815750Y-170909000D01*
X98794309Y-170907947D01*
X98773074Y-170904797D01*
X98752250Y-170899581D01*
X98732038Y-170892349D01*
X98712632Y-170883170D01*
X98694219Y-170872134D01*
X98676976Y-170859346D01*
X98661070Y-170844930D01*
X98646654Y-170829024D01*
X98633866Y-170811781D01*
X98622830Y-170793368D01*
X98613651Y-170773962D01*
X98606419Y-170753750D01*
X98601203Y-170732926D01*
X98598053Y-170711691D01*
X98597000Y-170690250D01*
X98597000Y-170177750D01*
X98598053Y-170156309D01*
X98601203Y-170135074D01*
X98606419Y-170114250D01*
X98613651Y-170094038D01*
X98622830Y-170074632D01*
X98633866Y-170056219D01*
X98646654Y-170038976D01*
X98661070Y-170023070D01*
X98676976Y-170008654D01*
X98694219Y-169995866D01*
X98712632Y-169984830D01*
X98732038Y-169975651D01*
X98752250Y-169968419D01*
X98773074Y-169963203D01*
X98794309Y-169960053D01*
X98815750Y-169959000D01*
X99253250Y-169959000D01*
X99274691Y-169960053D01*
G37*
G36*
X100849691Y-169960053D02*
G01*
X100870926Y-169963203D01*
X100891750Y-169968419D01*
X100911962Y-169975651D01*
X100931368Y-169984830D01*
X100949781Y-169995866D01*
X100967024Y-170008654D01*
X100982930Y-170023070D01*
X100997346Y-170038976D01*
X101010134Y-170056219D01*
X101021170Y-170074632D01*
X101030349Y-170094038D01*
X101037581Y-170114250D01*
X101042797Y-170135074D01*
X101045947Y-170156309D01*
X101047000Y-170177750D01*
X101047000Y-170690250D01*
X101045947Y-170711691D01*
X101042797Y-170732926D01*
X101037581Y-170753750D01*
X101030349Y-170773962D01*
X101021170Y-170793368D01*
X101010134Y-170811781D01*
X100997346Y-170829024D01*
X100982930Y-170844930D01*
X100967024Y-170859346D01*
X100949781Y-170872134D01*
X100931368Y-170883170D01*
X100911962Y-170892349D01*
X100891750Y-170899581D01*
X100870926Y-170904797D01*
X100849691Y-170907947D01*
X100828250Y-170909000D01*
X100390750Y-170909000D01*
X100369309Y-170907947D01*
X100348074Y-170904797D01*
X100327250Y-170899581D01*
X100307038Y-170892349D01*
X100287632Y-170883170D01*
X100269219Y-170872134D01*
X100251976Y-170859346D01*
X100236070Y-170844930D01*
X100221654Y-170829024D01*
X100208866Y-170811781D01*
X100197830Y-170793368D01*
X100188651Y-170773962D01*
X100181419Y-170753750D01*
X100176203Y-170732926D01*
X100173053Y-170711691D01*
X100172000Y-170690250D01*
X100172000Y-170177750D01*
X100173053Y-170156309D01*
X100176203Y-170135074D01*
X100181419Y-170114250D01*
X100188651Y-170094038D01*
X100197830Y-170074632D01*
X100208866Y-170056219D01*
X100221654Y-170038976D01*
X100236070Y-170023070D01*
X100251976Y-170008654D01*
X100269219Y-169995866D01*
X100287632Y-169984830D01*
X100307038Y-169975651D01*
X100327250Y-169968419D01*
X100348074Y-169963203D01*
X100369309Y-169960053D01*
X100390750Y-169959000D01*
X100828250Y-169959000D01*
X100849691Y-169960053D01*
G37*
G36*
X99274691Y-141766053D02*
G01*
X99295926Y-141769203D01*
X99316750Y-141774419D01*
X99336962Y-141781651D01*
X99356368Y-141790830D01*
X99374781Y-141801866D01*
X99392024Y-141814654D01*
X99407930Y-141829070D01*
X99422346Y-141844976D01*
X99435134Y-141862219D01*
X99446170Y-141880632D01*
X99455349Y-141900038D01*
X99462581Y-141920250D01*
X99467797Y-141941074D01*
X99470947Y-141962309D01*
X99472000Y-141983750D01*
X99472000Y-142496250D01*
X99470947Y-142517691D01*
X99467797Y-142538926D01*
X99462581Y-142559750D01*
X99455349Y-142579962D01*
X99446170Y-142599368D01*
X99435134Y-142617781D01*
X99422346Y-142635024D01*
X99407930Y-142650930D01*
X99392024Y-142665346D01*
X99374781Y-142678134D01*
X99356368Y-142689170D01*
X99336962Y-142698349D01*
X99316750Y-142705581D01*
X99295926Y-142710797D01*
X99274691Y-142713947D01*
X99253250Y-142715000D01*
X98815750Y-142715000D01*
X98794309Y-142713947D01*
X98773074Y-142710797D01*
X98752250Y-142705581D01*
X98732038Y-142698349D01*
X98712632Y-142689170D01*
X98694219Y-142678134D01*
X98676976Y-142665346D01*
X98661070Y-142650930D01*
X98646654Y-142635024D01*
X98633866Y-142617781D01*
X98622830Y-142599368D01*
X98613651Y-142579962D01*
X98606419Y-142559750D01*
X98601203Y-142538926D01*
X98598053Y-142517691D01*
X98597000Y-142496250D01*
X98597000Y-141983750D01*
X98598053Y-141962309D01*
X98601203Y-141941074D01*
X98606419Y-141920250D01*
X98613651Y-141900038D01*
X98622830Y-141880632D01*
X98633866Y-141862219D01*
X98646654Y-141844976D01*
X98661070Y-141829070D01*
X98676976Y-141814654D01*
X98694219Y-141801866D01*
X98712632Y-141790830D01*
X98732038Y-141781651D01*
X98752250Y-141774419D01*
X98773074Y-141769203D01*
X98794309Y-141766053D01*
X98815750Y-141765000D01*
X99253250Y-141765000D01*
X99274691Y-141766053D01*
G37*
G36*
X100849691Y-141766053D02*
G01*
X100870926Y-141769203D01*
X100891750Y-141774419D01*
X100911962Y-141781651D01*
X100931368Y-141790830D01*
X100949781Y-141801866D01*
X100967024Y-141814654D01*
X100982930Y-141829070D01*
X100997346Y-141844976D01*
X101010134Y-141862219D01*
X101021170Y-141880632D01*
X101030349Y-141900038D01*
X101037581Y-141920250D01*
X101042797Y-141941074D01*
X101045947Y-141962309D01*
X101047000Y-141983750D01*
X101047000Y-142496250D01*
X101045947Y-142517691D01*
X101042797Y-142538926D01*
X101037581Y-142559750D01*
X101030349Y-142579962D01*
X101021170Y-142599368D01*
X101010134Y-142617781D01*
X100997346Y-142635024D01*
X100982930Y-142650930D01*
X100967024Y-142665346D01*
X100949781Y-142678134D01*
X100931368Y-142689170D01*
X100911962Y-142698349D01*
X100891750Y-142705581D01*
X100870926Y-142710797D01*
X100849691Y-142713947D01*
X100828250Y-142715000D01*
X100390750Y-142715000D01*
X100369309Y-142713947D01*
X100348074Y-142710797D01*
X100327250Y-142705581D01*
X100307038Y-142698349D01*
X100287632Y-142689170D01*
X100269219Y-142678134D01*
X100251976Y-142665346D01*
X100236070Y-142650930D01*
X100221654Y-142635024D01*
X100208866Y-142617781D01*
X100197830Y-142599368D01*
X100188651Y-142579962D01*
X100181419Y-142559750D01*
X100176203Y-142538926D01*
X100173053Y-142517691D01*
X100172000Y-142496250D01*
X100172000Y-141983750D01*
X100173053Y-141962309D01*
X100176203Y-141941074D01*
X100181419Y-141920250D01*
X100188651Y-141900038D01*
X100197830Y-141880632D01*
X100208866Y-141862219D01*
X100221654Y-141844976D01*
X100236070Y-141829070D01*
X100251976Y-141814654D01*
X100269219Y-141801866D01*
X100287632Y-141790830D01*
X100307038Y-141781651D01*
X100327250Y-141774419D01*
X100348074Y-141769203D01*
X100369309Y-141766053D01*
X100390750Y-141765000D01*
X100828250Y-141765000D01*
X100849691Y-141766053D01*
G37*
G36*
X99274691Y-146592053D02*
G01*
X99295926Y-146595203D01*
X99316750Y-146600419D01*
X99336962Y-146607651D01*
X99356368Y-146616830D01*
X99374781Y-146627866D01*
X99392024Y-146640654D01*
X99407930Y-146655070D01*
X99422346Y-146670976D01*
X99435134Y-146688219D01*
X99446170Y-146706632D01*
X99455349Y-146726038D01*
X99462581Y-146746250D01*
X99467797Y-146767074D01*
X99470947Y-146788309D01*
X99472000Y-146809750D01*
X99472000Y-147322250D01*
X99470947Y-147343691D01*
X99467797Y-147364926D01*
X99462581Y-147385750D01*
X99455349Y-147405962D01*
X99446170Y-147425368D01*
X99435134Y-147443781D01*
X99422346Y-147461024D01*
X99407930Y-147476930D01*
X99392024Y-147491346D01*
X99374781Y-147504134D01*
X99356368Y-147515170D01*
X99336962Y-147524349D01*
X99316750Y-147531581D01*
X99295926Y-147536797D01*
X99274691Y-147539947D01*
X99253250Y-147541000D01*
X98815750Y-147541000D01*
X98794309Y-147539947D01*
X98773074Y-147536797D01*
X98752250Y-147531581D01*
X98732038Y-147524349D01*
X98712632Y-147515170D01*
X98694219Y-147504134D01*
X98676976Y-147491346D01*
X98661070Y-147476930D01*
X98646654Y-147461024D01*
X98633866Y-147443781D01*
X98622830Y-147425368D01*
X98613651Y-147405962D01*
X98606419Y-147385750D01*
X98601203Y-147364926D01*
X98598053Y-147343691D01*
X98597000Y-147322250D01*
X98597000Y-146809750D01*
X98598053Y-146788309D01*
X98601203Y-146767074D01*
X98606419Y-146746250D01*
X98613651Y-146726038D01*
X98622830Y-146706632D01*
X98633866Y-146688219D01*
X98646654Y-146670976D01*
X98661070Y-146655070D01*
X98676976Y-146640654D01*
X98694219Y-146627866D01*
X98712632Y-146616830D01*
X98732038Y-146607651D01*
X98752250Y-146600419D01*
X98773074Y-146595203D01*
X98794309Y-146592053D01*
X98815750Y-146591000D01*
X99253250Y-146591000D01*
X99274691Y-146592053D01*
G37*
G36*
X100849691Y-146592053D02*
G01*
X100870926Y-146595203D01*
X100891750Y-146600419D01*
X100911962Y-146607651D01*
X100931368Y-146616830D01*
X100949781Y-146627866D01*
X100967024Y-146640654D01*
X100982930Y-146655070D01*
X100997346Y-146670976D01*
X101010134Y-146688219D01*
X101021170Y-146706632D01*
X101030349Y-146726038D01*
X101037581Y-146746250D01*
X101042797Y-146767074D01*
X101045947Y-146788309D01*
X101047000Y-146809750D01*
X101047000Y-147322250D01*
X101045947Y-147343691D01*
X101042797Y-147364926D01*
X101037581Y-147385750D01*
X101030349Y-147405962D01*
X101021170Y-147425368D01*
X101010134Y-147443781D01*
X100997346Y-147461024D01*
X100982930Y-147476930D01*
X100967024Y-147491346D01*
X100949781Y-147504134D01*
X100931368Y-147515170D01*
X100911962Y-147524349D01*
X100891750Y-147531581D01*
X100870926Y-147536797D01*
X100849691Y-147539947D01*
X100828250Y-147541000D01*
X100390750Y-147541000D01*
X100369309Y-147539947D01*
X100348074Y-147536797D01*
X100327250Y-147531581D01*
X100307038Y-147524349D01*
X100287632Y-147515170D01*
X100269219Y-147504134D01*
X100251976Y-147491346D01*
X100236070Y-147476930D01*
X100221654Y-147461024D01*
X100208866Y-147443781D01*
X100197830Y-147425368D01*
X100188651Y-147405962D01*
X100181419Y-147385750D01*
X100176203Y-147364926D01*
X100173053Y-147343691D01*
X100172000Y-147322250D01*
X100172000Y-146809750D01*
X100173053Y-146788309D01*
X100176203Y-146767074D01*
X100181419Y-146746250D01*
X100188651Y-146726038D01*
X100197830Y-146706632D01*
X100208866Y-146688219D01*
X100221654Y-146670976D01*
X100236070Y-146655070D01*
X100251976Y-146640654D01*
X100269219Y-146627866D01*
X100287632Y-146616830D01*
X100307038Y-146607651D01*
X100327250Y-146600419D01*
X100348074Y-146595203D01*
X100369309Y-146592053D01*
X100390750Y-146591000D01*
X100828250Y-146591000D01*
X100849691Y-146592053D01*
G37*
G36*
X100849691Y-138972053D02*
G01*
X100870926Y-138975203D01*
X100891750Y-138980419D01*
X100911962Y-138987651D01*
X100931368Y-138996830D01*
X100949781Y-139007866D01*
X100967024Y-139020654D01*
X100982930Y-139035070D01*
X100997346Y-139050976D01*
X101010134Y-139068219D01*
X101021170Y-139086632D01*
X101030349Y-139106038D01*
X101037581Y-139126250D01*
X101042797Y-139147074D01*
X101045947Y-139168309D01*
X101047000Y-139189750D01*
X101047000Y-139702250D01*
X101045947Y-139723691D01*
X101042797Y-139744926D01*
X101037581Y-139765750D01*
X101030349Y-139785962D01*
X101021170Y-139805368D01*
X101010134Y-139823781D01*
X100997346Y-139841024D01*
X100982930Y-139856930D01*
X100967024Y-139871346D01*
X100949781Y-139884134D01*
X100931368Y-139895170D01*
X100911962Y-139904349D01*
X100891750Y-139911581D01*
X100870926Y-139916797D01*
X100849691Y-139919947D01*
X100828250Y-139921000D01*
X100390750Y-139921000D01*
X100369309Y-139919947D01*
X100348074Y-139916797D01*
X100327250Y-139911581D01*
X100307038Y-139904349D01*
X100287632Y-139895170D01*
X100269219Y-139884134D01*
X100251976Y-139871346D01*
X100236070Y-139856930D01*
X100221654Y-139841024D01*
X100208866Y-139823781D01*
X100197830Y-139805368D01*
X100188651Y-139785962D01*
X100181419Y-139765750D01*
X100176203Y-139744926D01*
X100173053Y-139723691D01*
X100172000Y-139702250D01*
X100172000Y-139189750D01*
X100173053Y-139168309D01*
X100176203Y-139147074D01*
X100181419Y-139126250D01*
X100188651Y-139106038D01*
X100197830Y-139086632D01*
X100208866Y-139068219D01*
X100221654Y-139050976D01*
X100236070Y-139035070D01*
X100251976Y-139020654D01*
X100269219Y-139007866D01*
X100287632Y-138996830D01*
X100307038Y-138987651D01*
X100327250Y-138980419D01*
X100348074Y-138975203D01*
X100369309Y-138972053D01*
X100390750Y-138971000D01*
X100828250Y-138971000D01*
X100849691Y-138972053D01*
G37*
G36*
X99274691Y-138972053D02*
G01*
X99295926Y-138975203D01*
X99316750Y-138980419D01*
X99336962Y-138987651D01*
X99356368Y-138996830D01*
X99374781Y-139007866D01*
X99392024Y-139020654D01*
X99407930Y-139035070D01*
X99422346Y-139050976D01*
X99435134Y-139068219D01*
X99446170Y-139086632D01*
X99455349Y-139106038D01*
X99462581Y-139126250D01*
X99467797Y-139147074D01*
X99470947Y-139168309D01*
X99472000Y-139189750D01*
X99472000Y-139702250D01*
X99470947Y-139723691D01*
X99467797Y-139744926D01*
X99462581Y-139765750D01*
X99455349Y-139785962D01*
X99446170Y-139805368D01*
X99435134Y-139823781D01*
X99422346Y-139841024D01*
X99407930Y-139856930D01*
X99392024Y-139871346D01*
X99374781Y-139884134D01*
X99356368Y-139895170D01*
X99336962Y-139904349D01*
X99316750Y-139911581D01*
X99295926Y-139916797D01*
X99274691Y-139919947D01*
X99253250Y-139921000D01*
X98815750Y-139921000D01*
X98794309Y-139919947D01*
X98773074Y-139916797D01*
X98752250Y-139911581D01*
X98732038Y-139904349D01*
X98712632Y-139895170D01*
X98694219Y-139884134D01*
X98676976Y-139871346D01*
X98661070Y-139856930D01*
X98646654Y-139841024D01*
X98633866Y-139823781D01*
X98622830Y-139805368D01*
X98613651Y-139785962D01*
X98606419Y-139765750D01*
X98601203Y-139744926D01*
X98598053Y-139723691D01*
X98597000Y-139702250D01*
X98597000Y-139189750D01*
X98598053Y-139168309D01*
X98601203Y-139147074D01*
X98606419Y-139126250D01*
X98613651Y-139106038D01*
X98622830Y-139086632D01*
X98633866Y-139068219D01*
X98646654Y-139050976D01*
X98661070Y-139035070D01*
X98676976Y-139020654D01*
X98694219Y-139007866D01*
X98712632Y-138996830D01*
X98732038Y-138987651D01*
X98752250Y-138980419D01*
X98773074Y-138975203D01*
X98794309Y-138972053D01*
X98815750Y-138971000D01*
X99253250Y-138971000D01*
X99274691Y-138972053D01*
G37*
G36*
X100849691Y-167166053D02*
G01*
X100870926Y-167169203D01*
X100891750Y-167174419D01*
X100911962Y-167181651D01*
X100931368Y-167190830D01*
X100949781Y-167201866D01*
X100967024Y-167214654D01*
X100982930Y-167229070D01*
X100997346Y-167244976D01*
X101010134Y-167262219D01*
X101021170Y-167280632D01*
X101030349Y-167300038D01*
X101037581Y-167320250D01*
X101042797Y-167341074D01*
X101045947Y-167362309D01*
X101047000Y-167383750D01*
X101047000Y-167896250D01*
X101045947Y-167917691D01*
X101042797Y-167938926D01*
X101037581Y-167959750D01*
X101030349Y-167979962D01*
X101021170Y-167999368D01*
X101010134Y-168017781D01*
X100997346Y-168035024D01*
X100982930Y-168050930D01*
X100967024Y-168065346D01*
X100949781Y-168078134D01*
X100931368Y-168089170D01*
X100911962Y-168098349D01*
X100891750Y-168105581D01*
X100870926Y-168110797D01*
X100849691Y-168113947D01*
X100828250Y-168115000D01*
X100390750Y-168115000D01*
X100369309Y-168113947D01*
X100348074Y-168110797D01*
X100327250Y-168105581D01*
X100307038Y-168098349D01*
X100287632Y-168089170D01*
X100269219Y-168078134D01*
X100251976Y-168065346D01*
X100236070Y-168050930D01*
X100221654Y-168035024D01*
X100208866Y-168017781D01*
X100197830Y-167999368D01*
X100188651Y-167979962D01*
X100181419Y-167959750D01*
X100176203Y-167938926D01*
X100173053Y-167917691D01*
X100172000Y-167896250D01*
X100172000Y-167383750D01*
X100173053Y-167362309D01*
X100176203Y-167341074D01*
X100181419Y-167320250D01*
X100188651Y-167300038D01*
X100197830Y-167280632D01*
X100208866Y-167262219D01*
X100221654Y-167244976D01*
X100236070Y-167229070D01*
X100251976Y-167214654D01*
X100269219Y-167201866D01*
X100287632Y-167190830D01*
X100307038Y-167181651D01*
X100327250Y-167174419D01*
X100348074Y-167169203D01*
X100369309Y-167166053D01*
X100390750Y-167165000D01*
X100828250Y-167165000D01*
X100849691Y-167166053D01*
G37*
G36*
X99274691Y-167166053D02*
G01*
X99295926Y-167169203D01*
X99316750Y-167174419D01*
X99336962Y-167181651D01*
X99356368Y-167190830D01*
X99374781Y-167201866D01*
X99392024Y-167214654D01*
X99407930Y-167229070D01*
X99422346Y-167244976D01*
X99435134Y-167262219D01*
X99446170Y-167280632D01*
X99455349Y-167300038D01*
X99462581Y-167320250D01*
X99467797Y-167341074D01*
X99470947Y-167362309D01*
X99472000Y-167383750D01*
X99472000Y-167896250D01*
X99470947Y-167917691D01*
X99467797Y-167938926D01*
X99462581Y-167959750D01*
X99455349Y-167979962D01*
X99446170Y-167999368D01*
X99435134Y-168017781D01*
X99422346Y-168035024D01*
X99407930Y-168050930D01*
X99392024Y-168065346D01*
X99374781Y-168078134D01*
X99356368Y-168089170D01*
X99336962Y-168098349D01*
X99316750Y-168105581D01*
X99295926Y-168110797D01*
X99274691Y-168113947D01*
X99253250Y-168115000D01*
X98815750Y-168115000D01*
X98794309Y-168113947D01*
X98773074Y-168110797D01*
X98752250Y-168105581D01*
X98732038Y-168098349D01*
X98712632Y-168089170D01*
X98694219Y-168078134D01*
X98676976Y-168065346D01*
X98661070Y-168050930D01*
X98646654Y-168035024D01*
X98633866Y-168017781D01*
X98622830Y-167999368D01*
X98613651Y-167979962D01*
X98606419Y-167959750D01*
X98601203Y-167938926D01*
X98598053Y-167917691D01*
X98597000Y-167896250D01*
X98597000Y-167383750D01*
X98598053Y-167362309D01*
X98601203Y-167341074D01*
X98606419Y-167320250D01*
X98613651Y-167300038D01*
X98622830Y-167280632D01*
X98633866Y-167262219D01*
X98646654Y-167244976D01*
X98661070Y-167229070D01*
X98676976Y-167214654D01*
X98694219Y-167201866D01*
X98712632Y-167190830D01*
X98732038Y-167181651D01*
X98752250Y-167174419D01*
X98773074Y-167169203D01*
X98794309Y-167166053D01*
X98815750Y-167165000D01*
X99253250Y-167165000D01*
X99274691Y-167166053D01*
G37*
G36*
X100849691Y-149386053D02*
G01*
X100870926Y-149389203D01*
X100891750Y-149394419D01*
X100911962Y-149401651D01*
X100931368Y-149410830D01*
X100949781Y-149421866D01*
X100967024Y-149434654D01*
X100982930Y-149449070D01*
X100997346Y-149464976D01*
X101010134Y-149482219D01*
X101021170Y-149500632D01*
X101030349Y-149520038D01*
X101037581Y-149540250D01*
X101042797Y-149561074D01*
X101045947Y-149582309D01*
X101047000Y-149603750D01*
X101047000Y-150116250D01*
X101045947Y-150137691D01*
X101042797Y-150158926D01*
X101037581Y-150179750D01*
X101030349Y-150199962D01*
X101021170Y-150219368D01*
X101010134Y-150237781D01*
X100997346Y-150255024D01*
X100982930Y-150270930D01*
X100967024Y-150285346D01*
X100949781Y-150298134D01*
X100931368Y-150309170D01*
X100911962Y-150318349D01*
X100891750Y-150325581D01*
X100870926Y-150330797D01*
X100849691Y-150333947D01*
X100828250Y-150335000D01*
X100390750Y-150335000D01*
X100369309Y-150333947D01*
X100348074Y-150330797D01*
X100327250Y-150325581D01*
X100307038Y-150318349D01*
X100287632Y-150309170D01*
X100269219Y-150298134D01*
X100251976Y-150285346D01*
X100236070Y-150270930D01*
X100221654Y-150255024D01*
X100208866Y-150237781D01*
X100197830Y-150219368D01*
X100188651Y-150199962D01*
X100181419Y-150179750D01*
X100176203Y-150158926D01*
X100173053Y-150137691D01*
X100172000Y-150116250D01*
X100172000Y-149603750D01*
X100173053Y-149582309D01*
X100176203Y-149561074D01*
X100181419Y-149540250D01*
X100188651Y-149520038D01*
X100197830Y-149500632D01*
X100208866Y-149482219D01*
X100221654Y-149464976D01*
X100236070Y-149449070D01*
X100251976Y-149434654D01*
X100269219Y-149421866D01*
X100287632Y-149410830D01*
X100307038Y-149401651D01*
X100327250Y-149394419D01*
X100348074Y-149389203D01*
X100369309Y-149386053D01*
X100390750Y-149385000D01*
X100828250Y-149385000D01*
X100849691Y-149386053D01*
G37*
G36*
X99274691Y-149386053D02*
G01*
X99295926Y-149389203D01*
X99316750Y-149394419D01*
X99336962Y-149401651D01*
X99356368Y-149410830D01*
X99374781Y-149421866D01*
X99392024Y-149434654D01*
X99407930Y-149449070D01*
X99422346Y-149464976D01*
X99435134Y-149482219D01*
X99446170Y-149500632D01*
X99455349Y-149520038D01*
X99462581Y-149540250D01*
X99467797Y-149561074D01*
X99470947Y-149582309D01*
X99472000Y-149603750D01*
X99472000Y-150116250D01*
X99470947Y-150137691D01*
X99467797Y-150158926D01*
X99462581Y-150179750D01*
X99455349Y-150199962D01*
X99446170Y-150219368D01*
X99435134Y-150237781D01*
X99422346Y-150255024D01*
X99407930Y-150270930D01*
X99392024Y-150285346D01*
X99374781Y-150298134D01*
X99356368Y-150309170D01*
X99336962Y-150318349D01*
X99316750Y-150325581D01*
X99295926Y-150330797D01*
X99274691Y-150333947D01*
X99253250Y-150335000D01*
X98815750Y-150335000D01*
X98794309Y-150333947D01*
X98773074Y-150330797D01*
X98752250Y-150325581D01*
X98732038Y-150318349D01*
X98712632Y-150309170D01*
X98694219Y-150298134D01*
X98676976Y-150285346D01*
X98661070Y-150270930D01*
X98646654Y-150255024D01*
X98633866Y-150237781D01*
X98622830Y-150219368D01*
X98613651Y-150199962D01*
X98606419Y-150179750D01*
X98601203Y-150158926D01*
X98598053Y-150137691D01*
X98597000Y-150116250D01*
X98597000Y-149603750D01*
X98598053Y-149582309D01*
X98601203Y-149561074D01*
X98606419Y-149540250D01*
X98613651Y-149520038D01*
X98622830Y-149500632D01*
X98633866Y-149482219D01*
X98646654Y-149464976D01*
X98661070Y-149449070D01*
X98676976Y-149434654D01*
X98694219Y-149421866D01*
X98712632Y-149410830D01*
X98732038Y-149401651D01*
X98752250Y-149394419D01*
X98773074Y-149389203D01*
X98794309Y-149386053D01*
X98815750Y-149385000D01*
X99253250Y-149385000D01*
X99274691Y-149386053D01*
G37*
G36*
X104405691Y-164372053D02*
G01*
X104426926Y-164375203D01*
X104447750Y-164380419D01*
X104467962Y-164387651D01*
X104487368Y-164396830D01*
X104505781Y-164407866D01*
X104523024Y-164420654D01*
X104538930Y-164435070D01*
X104553346Y-164450976D01*
X104566134Y-164468219D01*
X104577170Y-164486632D01*
X104586349Y-164506038D01*
X104593581Y-164526250D01*
X104598797Y-164547074D01*
X104601947Y-164568309D01*
X104603000Y-164589750D01*
X104603000Y-165102250D01*
X104601947Y-165123691D01*
X104598797Y-165144926D01*
X104593581Y-165165750D01*
X104586349Y-165185962D01*
X104577170Y-165205368D01*
X104566134Y-165223781D01*
X104553346Y-165241024D01*
X104538930Y-165256930D01*
X104523024Y-165271346D01*
X104505781Y-165284134D01*
X104487368Y-165295170D01*
X104467962Y-165304349D01*
X104447750Y-165311581D01*
X104426926Y-165316797D01*
X104405691Y-165319947D01*
X104384250Y-165321000D01*
X103946750Y-165321000D01*
X103925309Y-165319947D01*
X103904074Y-165316797D01*
X103883250Y-165311581D01*
X103863038Y-165304349D01*
X103843632Y-165295170D01*
X103825219Y-165284134D01*
X103807976Y-165271346D01*
X103792070Y-165256930D01*
X103777654Y-165241024D01*
X103764866Y-165223781D01*
X103753830Y-165205368D01*
X103744651Y-165185962D01*
X103737419Y-165165750D01*
X103732203Y-165144926D01*
X103729053Y-165123691D01*
X103728000Y-165102250D01*
X103728000Y-164589750D01*
X103729053Y-164568309D01*
X103732203Y-164547074D01*
X103737419Y-164526250D01*
X103744651Y-164506038D01*
X103753830Y-164486632D01*
X103764866Y-164468219D01*
X103777654Y-164450976D01*
X103792070Y-164435070D01*
X103807976Y-164420654D01*
X103825219Y-164407866D01*
X103843632Y-164396830D01*
X103863038Y-164387651D01*
X103883250Y-164380419D01*
X103904074Y-164375203D01*
X103925309Y-164372053D01*
X103946750Y-164371000D01*
X104384250Y-164371000D01*
X104405691Y-164372053D01*
G37*
G36*
X102830691Y-164372053D02*
G01*
X102851926Y-164375203D01*
X102872750Y-164380419D01*
X102892962Y-164387651D01*
X102912368Y-164396830D01*
X102930781Y-164407866D01*
X102948024Y-164420654D01*
X102963930Y-164435070D01*
X102978346Y-164450976D01*
X102991134Y-164468219D01*
X103002170Y-164486632D01*
X103011349Y-164506038D01*
X103018581Y-164526250D01*
X103023797Y-164547074D01*
X103026947Y-164568309D01*
X103028000Y-164589750D01*
X103028000Y-165102250D01*
X103026947Y-165123691D01*
X103023797Y-165144926D01*
X103018581Y-165165750D01*
X103011349Y-165185962D01*
X103002170Y-165205368D01*
X102991134Y-165223781D01*
X102978346Y-165241024D01*
X102963930Y-165256930D01*
X102948024Y-165271346D01*
X102930781Y-165284134D01*
X102912368Y-165295170D01*
X102892962Y-165304349D01*
X102872750Y-165311581D01*
X102851926Y-165316797D01*
X102830691Y-165319947D01*
X102809250Y-165321000D01*
X102371750Y-165321000D01*
X102350309Y-165319947D01*
X102329074Y-165316797D01*
X102308250Y-165311581D01*
X102288038Y-165304349D01*
X102268632Y-165295170D01*
X102250219Y-165284134D01*
X102232976Y-165271346D01*
X102217070Y-165256930D01*
X102202654Y-165241024D01*
X102189866Y-165223781D01*
X102178830Y-165205368D01*
X102169651Y-165185962D01*
X102162419Y-165165750D01*
X102157203Y-165144926D01*
X102154053Y-165123691D01*
X102153000Y-165102250D01*
X102153000Y-164589750D01*
X102154053Y-164568309D01*
X102157203Y-164547074D01*
X102162419Y-164526250D01*
X102169651Y-164506038D01*
X102178830Y-164486632D01*
X102189866Y-164468219D01*
X102202654Y-164450976D01*
X102217070Y-164435070D01*
X102232976Y-164420654D01*
X102250219Y-164407866D01*
X102268632Y-164396830D01*
X102288038Y-164387651D01*
X102308250Y-164380419D01*
X102329074Y-164375203D01*
X102350309Y-164372053D01*
X102371750Y-164371000D01*
X102809250Y-164371000D01*
X102830691Y-164372053D01*
G37*
G36*
X99274691Y-164372053D02*
G01*
X99295926Y-164375203D01*
X99316750Y-164380419D01*
X99336962Y-164387651D01*
X99356368Y-164396830D01*
X99374781Y-164407866D01*
X99392024Y-164420654D01*
X99407930Y-164435070D01*
X99422346Y-164450976D01*
X99435134Y-164468219D01*
X99446170Y-164486632D01*
X99455349Y-164506038D01*
X99462581Y-164526250D01*
X99467797Y-164547074D01*
X99470947Y-164568309D01*
X99472000Y-164589750D01*
X99472000Y-165102250D01*
X99470947Y-165123691D01*
X99467797Y-165144926D01*
X99462581Y-165165750D01*
X99455349Y-165185962D01*
X99446170Y-165205368D01*
X99435134Y-165223781D01*
X99422346Y-165241024D01*
X99407930Y-165256930D01*
X99392024Y-165271346D01*
X99374781Y-165284134D01*
X99356368Y-165295170D01*
X99336962Y-165304349D01*
X99316750Y-165311581D01*
X99295926Y-165316797D01*
X99274691Y-165319947D01*
X99253250Y-165321000D01*
X98815750Y-165321000D01*
X98794309Y-165319947D01*
X98773074Y-165316797D01*
X98752250Y-165311581D01*
X98732038Y-165304349D01*
X98712632Y-165295170D01*
X98694219Y-165284134D01*
X98676976Y-165271346D01*
X98661070Y-165256930D01*
X98646654Y-165241024D01*
X98633866Y-165223781D01*
X98622830Y-165205368D01*
X98613651Y-165185962D01*
X98606419Y-165165750D01*
X98601203Y-165144926D01*
X98598053Y-165123691D01*
X98597000Y-165102250D01*
X98597000Y-164589750D01*
X98598053Y-164568309D01*
X98601203Y-164547074D01*
X98606419Y-164526250D01*
X98613651Y-164506038D01*
X98622830Y-164486632D01*
X98633866Y-164468219D01*
X98646654Y-164450976D01*
X98661070Y-164435070D01*
X98676976Y-164420654D01*
X98694219Y-164407866D01*
X98712632Y-164396830D01*
X98732038Y-164387651D01*
X98752250Y-164380419D01*
X98773074Y-164375203D01*
X98794309Y-164372053D01*
X98815750Y-164371000D01*
X99253250Y-164371000D01*
X99274691Y-164372053D01*
G37*
G36*
X100849691Y-164372053D02*
G01*
X100870926Y-164375203D01*
X100891750Y-164380419D01*
X100911962Y-164387651D01*
X100931368Y-164396830D01*
X100949781Y-164407866D01*
X100967024Y-164420654D01*
X100982930Y-164435070D01*
X100997346Y-164450976D01*
X101010134Y-164468219D01*
X101021170Y-164486632D01*
X101030349Y-164506038D01*
X101037581Y-164526250D01*
X101042797Y-164547074D01*
X101045947Y-164568309D01*
X101047000Y-164589750D01*
X101047000Y-165102250D01*
X101045947Y-165123691D01*
X101042797Y-165144926D01*
X101037581Y-165165750D01*
X101030349Y-165185962D01*
X101021170Y-165205368D01*
X101010134Y-165223781D01*
X100997346Y-165241024D01*
X100982930Y-165256930D01*
X100967024Y-165271346D01*
X100949781Y-165284134D01*
X100931368Y-165295170D01*
X100911962Y-165304349D01*
X100891750Y-165311581D01*
X100870926Y-165316797D01*
X100849691Y-165319947D01*
X100828250Y-165321000D01*
X100390750Y-165321000D01*
X100369309Y-165319947D01*
X100348074Y-165316797D01*
X100327250Y-165311581D01*
X100307038Y-165304349D01*
X100287632Y-165295170D01*
X100269219Y-165284134D01*
X100251976Y-165271346D01*
X100236070Y-165256930D01*
X100221654Y-165241024D01*
X100208866Y-165223781D01*
X100197830Y-165205368D01*
X100188651Y-165185962D01*
X100181419Y-165165750D01*
X100176203Y-165144926D01*
X100173053Y-165123691D01*
X100172000Y-165102250D01*
X100172000Y-164589750D01*
X100173053Y-164568309D01*
X100176203Y-164547074D01*
X100181419Y-164526250D01*
X100188651Y-164506038D01*
X100197830Y-164486632D01*
X100208866Y-164468219D01*
X100221654Y-164450976D01*
X100236070Y-164435070D01*
X100251976Y-164420654D01*
X100269219Y-164407866D01*
X100287632Y-164396830D01*
X100307038Y-164387651D01*
X100327250Y-164380419D01*
X100348074Y-164375203D01*
X100369309Y-164372053D01*
X100390750Y-164371000D01*
X100828250Y-164371000D01*
X100849691Y-164372053D01*
G37*
G36*
X99274691Y-136178053D02*
G01*
X99295926Y-136181203D01*
X99316750Y-136186419D01*
X99336962Y-136193651D01*
X99356368Y-136202830D01*
X99374781Y-136213866D01*
X99392024Y-136226654D01*
X99407930Y-136241070D01*
X99422346Y-136256976D01*
X99435134Y-136274219D01*
X99446170Y-136292632D01*
X99455349Y-136312038D01*
X99462581Y-136332250D01*
X99467797Y-136353074D01*
X99470947Y-136374309D01*
X99472000Y-136395750D01*
X99472000Y-136908250D01*
X99470947Y-136929691D01*
X99467797Y-136950926D01*
X99462581Y-136971750D01*
X99455349Y-136991962D01*
X99446170Y-137011368D01*
X99435134Y-137029781D01*
X99422346Y-137047024D01*
X99407930Y-137062930D01*
X99392024Y-137077346D01*
X99374781Y-137090134D01*
X99356368Y-137101170D01*
X99336962Y-137110349D01*
X99316750Y-137117581D01*
X99295926Y-137122797D01*
X99274691Y-137125947D01*
X99253250Y-137127000D01*
X98815750Y-137127000D01*
X98794309Y-137125947D01*
X98773074Y-137122797D01*
X98752250Y-137117581D01*
X98732038Y-137110349D01*
X98712632Y-137101170D01*
X98694219Y-137090134D01*
X98676976Y-137077346D01*
X98661070Y-137062930D01*
X98646654Y-137047024D01*
X98633866Y-137029781D01*
X98622830Y-137011368D01*
X98613651Y-136991962D01*
X98606419Y-136971750D01*
X98601203Y-136950926D01*
X98598053Y-136929691D01*
X98597000Y-136908250D01*
X98597000Y-136395750D01*
X98598053Y-136374309D01*
X98601203Y-136353074D01*
X98606419Y-136332250D01*
X98613651Y-136312038D01*
X98622830Y-136292632D01*
X98633866Y-136274219D01*
X98646654Y-136256976D01*
X98661070Y-136241070D01*
X98676976Y-136226654D01*
X98694219Y-136213866D01*
X98712632Y-136202830D01*
X98732038Y-136193651D01*
X98752250Y-136186419D01*
X98773074Y-136181203D01*
X98794309Y-136178053D01*
X98815750Y-136177000D01*
X99253250Y-136177000D01*
X99274691Y-136178053D01*
G37*
G36*
X100849691Y-136178053D02*
G01*
X100870926Y-136181203D01*
X100891750Y-136186419D01*
X100911962Y-136193651D01*
X100931368Y-136202830D01*
X100949781Y-136213866D01*
X100967024Y-136226654D01*
X100982930Y-136241070D01*
X100997346Y-136256976D01*
X101010134Y-136274219D01*
X101021170Y-136292632D01*
X101030349Y-136312038D01*
X101037581Y-136332250D01*
X101042797Y-136353074D01*
X101045947Y-136374309D01*
X101047000Y-136395750D01*
X101047000Y-136908250D01*
X101045947Y-136929691D01*
X101042797Y-136950926D01*
X101037581Y-136971750D01*
X101030349Y-136991962D01*
X101021170Y-137011368D01*
X101010134Y-137029781D01*
X100997346Y-137047024D01*
X100982930Y-137062930D01*
X100967024Y-137077346D01*
X100949781Y-137090134D01*
X100931368Y-137101170D01*
X100911962Y-137110349D01*
X100891750Y-137117581D01*
X100870926Y-137122797D01*
X100849691Y-137125947D01*
X100828250Y-137127000D01*
X100390750Y-137127000D01*
X100369309Y-137125947D01*
X100348074Y-137122797D01*
X100327250Y-137117581D01*
X100307038Y-137110349D01*
X100287632Y-137101170D01*
X100269219Y-137090134D01*
X100251976Y-137077346D01*
X100236070Y-137062930D01*
X100221654Y-137047024D01*
X100208866Y-137029781D01*
X100197830Y-137011368D01*
X100188651Y-136991962D01*
X100181419Y-136971750D01*
X100176203Y-136950926D01*
X100173053Y-136929691D01*
X100172000Y-136908250D01*
X100172000Y-136395750D01*
X100173053Y-136374309D01*
X100176203Y-136353074D01*
X100181419Y-136332250D01*
X100188651Y-136312038D01*
X100197830Y-136292632D01*
X100208866Y-136274219D01*
X100221654Y-136256976D01*
X100236070Y-136241070D01*
X100251976Y-136226654D01*
X100269219Y-136213866D01*
X100287632Y-136202830D01*
X100307038Y-136193651D01*
X100327250Y-136186419D01*
X100348074Y-136181203D01*
X100369309Y-136178053D01*
X100390750Y-136177000D01*
X100828250Y-136177000D01*
X100849691Y-136178053D01*
G37*
G36*
X102830691Y-152180053D02*
G01*
X102851926Y-152183203D01*
X102872750Y-152188419D01*
X102892962Y-152195651D01*
X102912368Y-152204830D01*
X102930781Y-152215866D01*
X102948024Y-152228654D01*
X102963930Y-152243070D01*
X102978346Y-152258976D01*
X102991134Y-152276219D01*
X103002170Y-152294632D01*
X103011349Y-152314038D01*
X103018581Y-152334250D01*
X103023797Y-152355074D01*
X103026947Y-152376309D01*
X103028000Y-152397750D01*
X103028000Y-152910250D01*
X103026947Y-152931691D01*
X103023797Y-152952926D01*
X103018581Y-152973750D01*
X103011349Y-152993962D01*
X103002170Y-153013368D01*
X102991134Y-153031781D01*
X102978346Y-153049024D01*
X102963930Y-153064930D01*
X102948024Y-153079346D01*
X102930781Y-153092134D01*
X102912368Y-153103170D01*
X102892962Y-153112349D01*
X102872750Y-153119581D01*
X102851926Y-153124797D01*
X102830691Y-153127947D01*
X102809250Y-153129000D01*
X102371750Y-153129000D01*
X102350309Y-153127947D01*
X102329074Y-153124797D01*
X102308250Y-153119581D01*
X102288038Y-153112349D01*
X102268632Y-153103170D01*
X102250219Y-153092134D01*
X102232976Y-153079346D01*
X102217070Y-153064930D01*
X102202654Y-153049024D01*
X102189866Y-153031781D01*
X102178830Y-153013368D01*
X102169651Y-152993962D01*
X102162419Y-152973750D01*
X102157203Y-152952926D01*
X102154053Y-152931691D01*
X102153000Y-152910250D01*
X102153000Y-152397750D01*
X102154053Y-152376309D01*
X102157203Y-152355074D01*
X102162419Y-152334250D01*
X102169651Y-152314038D01*
X102178830Y-152294632D01*
X102189866Y-152276219D01*
X102202654Y-152258976D01*
X102217070Y-152243070D01*
X102232976Y-152228654D01*
X102250219Y-152215866D01*
X102268632Y-152204830D01*
X102288038Y-152195651D01*
X102308250Y-152188419D01*
X102329074Y-152183203D01*
X102350309Y-152180053D01*
X102371750Y-152179000D01*
X102809250Y-152179000D01*
X102830691Y-152180053D01*
G37*
G36*
X104405691Y-152180053D02*
G01*
X104426926Y-152183203D01*
X104447750Y-152188419D01*
X104467962Y-152195651D01*
X104487368Y-152204830D01*
X104505781Y-152215866D01*
X104523024Y-152228654D01*
X104538930Y-152243070D01*
X104553346Y-152258976D01*
X104566134Y-152276219D01*
X104577170Y-152294632D01*
X104586349Y-152314038D01*
X104593581Y-152334250D01*
X104598797Y-152355074D01*
X104601947Y-152376309D01*
X104603000Y-152397750D01*
X104603000Y-152910250D01*
X104601947Y-152931691D01*
X104598797Y-152952926D01*
X104593581Y-152973750D01*
X104586349Y-152993962D01*
X104577170Y-153013368D01*
X104566134Y-153031781D01*
X104553346Y-153049024D01*
X104538930Y-153064930D01*
X104523024Y-153079346D01*
X104505781Y-153092134D01*
X104487368Y-153103170D01*
X104467962Y-153112349D01*
X104447750Y-153119581D01*
X104426926Y-153124797D01*
X104405691Y-153127947D01*
X104384250Y-153129000D01*
X103946750Y-153129000D01*
X103925309Y-153127947D01*
X103904074Y-153124797D01*
X103883250Y-153119581D01*
X103863038Y-153112349D01*
X103843632Y-153103170D01*
X103825219Y-153092134D01*
X103807976Y-153079346D01*
X103792070Y-153064930D01*
X103777654Y-153049024D01*
X103764866Y-153031781D01*
X103753830Y-153013368D01*
X103744651Y-152993962D01*
X103737419Y-152973750D01*
X103732203Y-152952926D01*
X103729053Y-152931691D01*
X103728000Y-152910250D01*
X103728000Y-152397750D01*
X103729053Y-152376309D01*
X103732203Y-152355074D01*
X103737419Y-152334250D01*
X103744651Y-152314038D01*
X103753830Y-152294632D01*
X103764866Y-152276219D01*
X103777654Y-152258976D01*
X103792070Y-152243070D01*
X103807976Y-152228654D01*
X103825219Y-152215866D01*
X103843632Y-152204830D01*
X103863038Y-152195651D01*
X103883250Y-152188419D01*
X103904074Y-152183203D01*
X103925309Y-152180053D01*
X103946750Y-152179000D01*
X104384250Y-152179000D01*
X104405691Y-152180053D01*
G37*
G36*
X99274691Y-152180053D02*
G01*
X99295926Y-152183203D01*
X99316750Y-152188419D01*
X99336962Y-152195651D01*
X99356368Y-152204830D01*
X99374781Y-152215866D01*
X99392024Y-152228654D01*
X99407930Y-152243070D01*
X99422346Y-152258976D01*
X99435134Y-152276219D01*
X99446170Y-152294632D01*
X99455349Y-152314038D01*
X99462581Y-152334250D01*
X99467797Y-152355074D01*
X99470947Y-152376309D01*
X99472000Y-152397750D01*
X99472000Y-152910250D01*
X99470947Y-152931691D01*
X99467797Y-152952926D01*
X99462581Y-152973750D01*
X99455349Y-152993962D01*
X99446170Y-153013368D01*
X99435134Y-153031781D01*
X99422346Y-153049024D01*
X99407930Y-153064930D01*
X99392024Y-153079346D01*
X99374781Y-153092134D01*
X99356368Y-153103170D01*
X99336962Y-153112349D01*
X99316750Y-153119581D01*
X99295926Y-153124797D01*
X99274691Y-153127947D01*
X99253250Y-153129000D01*
X98815750Y-153129000D01*
X98794309Y-153127947D01*
X98773074Y-153124797D01*
X98752250Y-153119581D01*
X98732038Y-153112349D01*
X98712632Y-153103170D01*
X98694219Y-153092134D01*
X98676976Y-153079346D01*
X98661070Y-153064930D01*
X98646654Y-153049024D01*
X98633866Y-153031781D01*
X98622830Y-153013368D01*
X98613651Y-152993962D01*
X98606419Y-152973750D01*
X98601203Y-152952926D01*
X98598053Y-152931691D01*
X98597000Y-152910250D01*
X98597000Y-152397750D01*
X98598053Y-152376309D01*
X98601203Y-152355074D01*
X98606419Y-152334250D01*
X98613651Y-152314038D01*
X98622830Y-152294632D01*
X98633866Y-152276219D01*
X98646654Y-152258976D01*
X98661070Y-152243070D01*
X98676976Y-152228654D01*
X98694219Y-152215866D01*
X98712632Y-152204830D01*
X98732038Y-152195651D01*
X98752250Y-152188419D01*
X98773074Y-152183203D01*
X98794309Y-152180053D01*
X98815750Y-152179000D01*
X99253250Y-152179000D01*
X99274691Y-152180053D01*
G37*
G36*
X100849691Y-152180053D02*
G01*
X100870926Y-152183203D01*
X100891750Y-152188419D01*
X100911962Y-152195651D01*
X100931368Y-152204830D01*
X100949781Y-152215866D01*
X100967024Y-152228654D01*
X100982930Y-152243070D01*
X100997346Y-152258976D01*
X101010134Y-152276219D01*
X101021170Y-152294632D01*
X101030349Y-152314038D01*
X101037581Y-152334250D01*
X101042797Y-152355074D01*
X101045947Y-152376309D01*
X101047000Y-152397750D01*
X101047000Y-152910250D01*
X101045947Y-152931691D01*
X101042797Y-152952926D01*
X101037581Y-152973750D01*
X101030349Y-152993962D01*
X101021170Y-153013368D01*
X101010134Y-153031781D01*
X100997346Y-153049024D01*
X100982930Y-153064930D01*
X100967024Y-153079346D01*
X100949781Y-153092134D01*
X100931368Y-153103170D01*
X100911962Y-153112349D01*
X100891750Y-153119581D01*
X100870926Y-153124797D01*
X100849691Y-153127947D01*
X100828250Y-153129000D01*
X100390750Y-153129000D01*
X100369309Y-153127947D01*
X100348074Y-153124797D01*
X100327250Y-153119581D01*
X100307038Y-153112349D01*
X100287632Y-153103170D01*
X100269219Y-153092134D01*
X100251976Y-153079346D01*
X100236070Y-153064930D01*
X100221654Y-153049024D01*
X100208866Y-153031781D01*
X100197830Y-153013368D01*
X100188651Y-152993962D01*
X100181419Y-152973750D01*
X100176203Y-152952926D01*
X100173053Y-152931691D01*
X100172000Y-152910250D01*
X100172000Y-152397750D01*
X100173053Y-152376309D01*
X100176203Y-152355074D01*
X100181419Y-152334250D01*
X100188651Y-152314038D01*
X100197830Y-152294632D01*
X100208866Y-152276219D01*
X100221654Y-152258976D01*
X100236070Y-152243070D01*
X100251976Y-152228654D01*
X100269219Y-152215866D01*
X100287632Y-152204830D01*
X100307038Y-152195651D01*
X100327250Y-152188419D01*
X100348074Y-152183203D01*
X100369309Y-152180053D01*
X100390750Y-152179000D01*
X100828250Y-152179000D01*
X100849691Y-152180053D01*
G37*
G36*
X102830691Y-136178053D02*
G01*
X102851926Y-136181203D01*
X102872750Y-136186419D01*
X102892962Y-136193651D01*
X102912368Y-136202830D01*
X102930781Y-136213866D01*
X102948024Y-136226654D01*
X102963930Y-136241070D01*
X102978346Y-136256976D01*
X102991134Y-136274219D01*
X103002170Y-136292632D01*
X103011349Y-136312038D01*
X103018581Y-136332250D01*
X103023797Y-136353074D01*
X103026947Y-136374309D01*
X103028000Y-136395750D01*
X103028000Y-136908250D01*
X103026947Y-136929691D01*
X103023797Y-136950926D01*
X103018581Y-136971750D01*
X103011349Y-136991962D01*
X103002170Y-137011368D01*
X102991134Y-137029781D01*
X102978346Y-137047024D01*
X102963930Y-137062930D01*
X102948024Y-137077346D01*
X102930781Y-137090134D01*
X102912368Y-137101170D01*
X102892962Y-137110349D01*
X102872750Y-137117581D01*
X102851926Y-137122797D01*
X102830691Y-137125947D01*
X102809250Y-137127000D01*
X102371750Y-137127000D01*
X102350309Y-137125947D01*
X102329074Y-137122797D01*
X102308250Y-137117581D01*
X102288038Y-137110349D01*
X102268632Y-137101170D01*
X102250219Y-137090134D01*
X102232976Y-137077346D01*
X102217070Y-137062930D01*
X102202654Y-137047024D01*
X102189866Y-137029781D01*
X102178830Y-137011368D01*
X102169651Y-136991962D01*
X102162419Y-136971750D01*
X102157203Y-136950926D01*
X102154053Y-136929691D01*
X102153000Y-136908250D01*
X102153000Y-136395750D01*
X102154053Y-136374309D01*
X102157203Y-136353074D01*
X102162419Y-136332250D01*
X102169651Y-136312038D01*
X102178830Y-136292632D01*
X102189866Y-136274219D01*
X102202654Y-136256976D01*
X102217070Y-136241070D01*
X102232976Y-136226654D01*
X102250219Y-136213866D01*
X102268632Y-136202830D01*
X102288038Y-136193651D01*
X102308250Y-136186419D01*
X102329074Y-136181203D01*
X102350309Y-136178053D01*
X102371750Y-136177000D01*
X102809250Y-136177000D01*
X102830691Y-136178053D01*
G37*
G36*
X104405691Y-136178053D02*
G01*
X104426926Y-136181203D01*
X104447750Y-136186419D01*
X104467962Y-136193651D01*
X104487368Y-136202830D01*
X104505781Y-136213866D01*
X104523024Y-136226654D01*
X104538930Y-136241070D01*
X104553346Y-136256976D01*
X104566134Y-136274219D01*
X104577170Y-136292632D01*
X104586349Y-136312038D01*
X104593581Y-136332250D01*
X104598797Y-136353074D01*
X104601947Y-136374309D01*
X104603000Y-136395750D01*
X104603000Y-136908250D01*
X104601947Y-136929691D01*
X104598797Y-136950926D01*
X104593581Y-136971750D01*
X104586349Y-136991962D01*
X104577170Y-137011368D01*
X104566134Y-137029781D01*
X104553346Y-137047024D01*
X104538930Y-137062930D01*
X104523024Y-137077346D01*
X104505781Y-137090134D01*
X104487368Y-137101170D01*
X104467962Y-137110349D01*
X104447750Y-137117581D01*
X104426926Y-137122797D01*
X104405691Y-137125947D01*
X104384250Y-137127000D01*
X103946750Y-137127000D01*
X103925309Y-137125947D01*
X103904074Y-137122797D01*
X103883250Y-137117581D01*
X103863038Y-137110349D01*
X103843632Y-137101170D01*
X103825219Y-137090134D01*
X103807976Y-137077346D01*
X103792070Y-137062930D01*
X103777654Y-137047024D01*
X103764866Y-137029781D01*
X103753830Y-137011368D01*
X103744651Y-136991962D01*
X103737419Y-136971750D01*
X103732203Y-136950926D01*
X103729053Y-136929691D01*
X103728000Y-136908250D01*
X103728000Y-136395750D01*
X103729053Y-136374309D01*
X103732203Y-136353074D01*
X103737419Y-136332250D01*
X103744651Y-136312038D01*
X103753830Y-136292632D01*
X103764866Y-136274219D01*
X103777654Y-136256976D01*
X103792070Y-136241070D01*
X103807976Y-136226654D01*
X103825219Y-136213866D01*
X103843632Y-136202830D01*
X103863038Y-136193651D01*
X103883250Y-136186419D01*
X103904074Y-136181203D01*
X103925309Y-136178053D01*
X103946750Y-136177000D01*
X104384250Y-136177000D01*
X104405691Y-136178053D01*
G37*
G36*
X93749691Y-109520053D02*
G01*
X93770926Y-109523203D01*
X93791750Y-109528419D01*
X93811962Y-109535651D01*
X93831368Y-109544830D01*
X93849781Y-109555866D01*
X93867024Y-109568654D01*
X93882930Y-109583070D01*
X93897346Y-109598976D01*
X93910134Y-109616219D01*
X93921170Y-109634632D01*
X93930349Y-109654038D01*
X93937581Y-109674250D01*
X93942797Y-109695074D01*
X93945947Y-109716309D01*
X93947000Y-109737750D01*
X93947000Y-110175250D01*
X93945947Y-110196691D01*
X93942797Y-110217926D01*
X93937581Y-110238750D01*
X93930349Y-110258962D01*
X93921170Y-110278368D01*
X93910134Y-110296781D01*
X93897346Y-110314024D01*
X93882930Y-110329930D01*
X93867024Y-110344346D01*
X93849781Y-110357134D01*
X93831368Y-110368170D01*
X93811962Y-110377349D01*
X93791750Y-110384581D01*
X93770926Y-110389797D01*
X93749691Y-110392947D01*
X93728250Y-110394000D01*
X93215750Y-110394000D01*
X93194309Y-110392947D01*
X93173074Y-110389797D01*
X93152250Y-110384581D01*
X93132038Y-110377349D01*
X93112632Y-110368170D01*
X93094219Y-110357134D01*
X93076976Y-110344346D01*
X93061070Y-110329930D01*
X93046654Y-110314024D01*
X93033866Y-110296781D01*
X93022830Y-110278368D01*
X93013651Y-110258962D01*
X93006419Y-110238750D01*
X93001203Y-110217926D01*
X92998053Y-110196691D01*
X92997000Y-110175250D01*
X92997000Y-109737750D01*
X92998053Y-109716309D01*
X93001203Y-109695074D01*
X93006419Y-109674250D01*
X93013651Y-109654038D01*
X93022830Y-109634632D01*
X93033866Y-109616219D01*
X93046654Y-109598976D01*
X93061070Y-109583070D01*
X93076976Y-109568654D01*
X93094219Y-109555866D01*
X93112632Y-109544830D01*
X93132038Y-109535651D01*
X93152250Y-109528419D01*
X93173074Y-109523203D01*
X93194309Y-109520053D01*
X93215750Y-109519000D01*
X93728250Y-109519000D01*
X93749691Y-109520053D01*
G37*
G36*
X93749691Y-111095053D02*
G01*
X93770926Y-111098203D01*
X93791750Y-111103419D01*
X93811962Y-111110651D01*
X93831368Y-111119830D01*
X93849781Y-111130866D01*
X93867024Y-111143654D01*
X93882930Y-111158070D01*
X93897346Y-111173976D01*
X93910134Y-111191219D01*
X93921170Y-111209632D01*
X93930349Y-111229038D01*
X93937581Y-111249250D01*
X93942797Y-111270074D01*
X93945947Y-111291309D01*
X93947000Y-111312750D01*
X93947000Y-111750250D01*
X93945947Y-111771691D01*
X93942797Y-111792926D01*
X93937581Y-111813750D01*
X93930349Y-111833962D01*
X93921170Y-111853368D01*
X93910134Y-111871781D01*
X93897346Y-111889024D01*
X93882930Y-111904930D01*
X93867024Y-111919346D01*
X93849781Y-111932134D01*
X93831368Y-111943170D01*
X93811962Y-111952349D01*
X93791750Y-111959581D01*
X93770926Y-111964797D01*
X93749691Y-111967947D01*
X93728250Y-111969000D01*
X93215750Y-111969000D01*
X93194309Y-111967947D01*
X93173074Y-111964797D01*
X93152250Y-111959581D01*
X93132038Y-111952349D01*
X93112632Y-111943170D01*
X93094219Y-111932134D01*
X93076976Y-111919346D01*
X93061070Y-111904930D01*
X93046654Y-111889024D01*
X93033866Y-111871781D01*
X93022830Y-111853368D01*
X93013651Y-111833962D01*
X93006419Y-111813750D01*
X93001203Y-111792926D01*
X92998053Y-111771691D01*
X92997000Y-111750250D01*
X92997000Y-111312750D01*
X92998053Y-111291309D01*
X93001203Y-111270074D01*
X93006419Y-111249250D01*
X93013651Y-111229038D01*
X93022830Y-111209632D01*
X93033866Y-111191219D01*
X93046654Y-111173976D01*
X93061070Y-111158070D01*
X93076976Y-111143654D01*
X93094219Y-111130866D01*
X93112632Y-111119830D01*
X93132038Y-111110651D01*
X93152250Y-111103419D01*
X93173074Y-111098203D01*
X93194309Y-111095053D01*
X93215750Y-111094000D01*
X93728250Y-111094000D01*
X93749691Y-111095053D01*
G37*
G36*
X95527691Y-109520053D02*
G01*
X95548926Y-109523203D01*
X95569750Y-109528419D01*
X95589962Y-109535651D01*
X95609368Y-109544830D01*
X95627781Y-109555866D01*
X95645024Y-109568654D01*
X95660930Y-109583070D01*
X95675346Y-109598976D01*
X95688134Y-109616219D01*
X95699170Y-109634632D01*
X95708349Y-109654038D01*
X95715581Y-109674250D01*
X95720797Y-109695074D01*
X95723947Y-109716309D01*
X95725000Y-109737750D01*
X95725000Y-110175250D01*
X95723947Y-110196691D01*
X95720797Y-110217926D01*
X95715581Y-110238750D01*
X95708349Y-110258962D01*
X95699170Y-110278368D01*
X95688134Y-110296781D01*
X95675346Y-110314024D01*
X95660930Y-110329930D01*
X95645024Y-110344346D01*
X95627781Y-110357134D01*
X95609368Y-110368170D01*
X95589962Y-110377349D01*
X95569750Y-110384581D01*
X95548926Y-110389797D01*
X95527691Y-110392947D01*
X95506250Y-110394000D01*
X94993750Y-110394000D01*
X94972309Y-110392947D01*
X94951074Y-110389797D01*
X94930250Y-110384581D01*
X94910038Y-110377349D01*
X94890632Y-110368170D01*
X94872219Y-110357134D01*
X94854976Y-110344346D01*
X94839070Y-110329930D01*
X94824654Y-110314024D01*
X94811866Y-110296781D01*
X94800830Y-110278368D01*
X94791651Y-110258962D01*
X94784419Y-110238750D01*
X94779203Y-110217926D01*
X94776053Y-110196691D01*
X94775000Y-110175250D01*
X94775000Y-109737750D01*
X94776053Y-109716309D01*
X94779203Y-109695074D01*
X94784419Y-109674250D01*
X94791651Y-109654038D01*
X94800830Y-109634632D01*
X94811866Y-109616219D01*
X94824654Y-109598976D01*
X94839070Y-109583070D01*
X94854976Y-109568654D01*
X94872219Y-109555866D01*
X94890632Y-109544830D01*
X94910038Y-109535651D01*
X94930250Y-109528419D01*
X94951074Y-109523203D01*
X94972309Y-109520053D01*
X94993750Y-109519000D01*
X95506250Y-109519000D01*
X95527691Y-109520053D01*
G37*
G36*
X95527691Y-111095053D02*
G01*
X95548926Y-111098203D01*
X95569750Y-111103419D01*
X95589962Y-111110651D01*
X95609368Y-111119830D01*
X95627781Y-111130866D01*
X95645024Y-111143654D01*
X95660930Y-111158070D01*
X95675346Y-111173976D01*
X95688134Y-111191219D01*
X95699170Y-111209632D01*
X95708349Y-111229038D01*
X95715581Y-111249250D01*
X95720797Y-111270074D01*
X95723947Y-111291309D01*
X95725000Y-111312750D01*
X95725000Y-111750250D01*
X95723947Y-111771691D01*
X95720797Y-111792926D01*
X95715581Y-111813750D01*
X95708349Y-111833962D01*
X95699170Y-111853368D01*
X95688134Y-111871781D01*
X95675346Y-111889024D01*
X95660930Y-111904930D01*
X95645024Y-111919346D01*
X95627781Y-111932134D01*
X95609368Y-111943170D01*
X95589962Y-111952349D01*
X95569750Y-111959581D01*
X95548926Y-111964797D01*
X95527691Y-111967947D01*
X95506250Y-111969000D01*
X94993750Y-111969000D01*
X94972309Y-111967947D01*
X94951074Y-111964797D01*
X94930250Y-111959581D01*
X94910038Y-111952349D01*
X94890632Y-111943170D01*
X94872219Y-111932134D01*
X94854976Y-111919346D01*
X94839070Y-111904930D01*
X94824654Y-111889024D01*
X94811866Y-111871781D01*
X94800830Y-111853368D01*
X94791651Y-111833962D01*
X94784419Y-111813750D01*
X94779203Y-111792926D01*
X94776053Y-111771691D01*
X94775000Y-111750250D01*
X94775000Y-111312750D01*
X94776053Y-111291309D01*
X94779203Y-111270074D01*
X94784419Y-111249250D01*
X94791651Y-111229038D01*
X94800830Y-111209632D01*
X94811866Y-111191219D01*
X94824654Y-111173976D01*
X94839070Y-111158070D01*
X94854976Y-111143654D01*
X94872219Y-111130866D01*
X94890632Y-111119830D01*
X94910038Y-111110651D01*
X94930250Y-111103419D01*
X94951074Y-111098203D01*
X94972309Y-111095053D01*
X94993750Y-111094000D01*
X95506250Y-111094000D01*
X95527691Y-111095053D01*
G37*
G36*
X91971691Y-109520053D02*
G01*
X91992926Y-109523203D01*
X92013750Y-109528419D01*
X92033962Y-109535651D01*
X92053368Y-109544830D01*
X92071781Y-109555866D01*
X92089024Y-109568654D01*
X92104930Y-109583070D01*
X92119346Y-109598976D01*
X92132134Y-109616219D01*
X92143170Y-109634632D01*
X92152349Y-109654038D01*
X92159581Y-109674250D01*
X92164797Y-109695074D01*
X92167947Y-109716309D01*
X92169000Y-109737750D01*
X92169000Y-110175250D01*
X92167947Y-110196691D01*
X92164797Y-110217926D01*
X92159581Y-110238750D01*
X92152349Y-110258962D01*
X92143170Y-110278368D01*
X92132134Y-110296781D01*
X92119346Y-110314024D01*
X92104930Y-110329930D01*
X92089024Y-110344346D01*
X92071781Y-110357134D01*
X92053368Y-110368170D01*
X92033962Y-110377349D01*
X92013750Y-110384581D01*
X91992926Y-110389797D01*
X91971691Y-110392947D01*
X91950250Y-110394000D01*
X91437750Y-110394000D01*
X91416309Y-110392947D01*
X91395074Y-110389797D01*
X91374250Y-110384581D01*
X91354038Y-110377349D01*
X91334632Y-110368170D01*
X91316219Y-110357134D01*
X91298976Y-110344346D01*
X91283070Y-110329930D01*
X91268654Y-110314024D01*
X91255866Y-110296781D01*
X91244830Y-110278368D01*
X91235651Y-110258962D01*
X91228419Y-110238750D01*
X91223203Y-110217926D01*
X91220053Y-110196691D01*
X91219000Y-110175250D01*
X91219000Y-109737750D01*
X91220053Y-109716309D01*
X91223203Y-109695074D01*
X91228419Y-109674250D01*
X91235651Y-109654038D01*
X91244830Y-109634632D01*
X91255866Y-109616219D01*
X91268654Y-109598976D01*
X91283070Y-109583070D01*
X91298976Y-109568654D01*
X91316219Y-109555866D01*
X91334632Y-109544830D01*
X91354038Y-109535651D01*
X91374250Y-109528419D01*
X91395074Y-109523203D01*
X91416309Y-109520053D01*
X91437750Y-109519000D01*
X91950250Y-109519000D01*
X91971691Y-109520053D01*
G37*
G36*
X91971691Y-111095053D02*
G01*
X91992926Y-111098203D01*
X92013750Y-111103419D01*
X92033962Y-111110651D01*
X92053368Y-111119830D01*
X92071781Y-111130866D01*
X92089024Y-111143654D01*
X92104930Y-111158070D01*
X92119346Y-111173976D01*
X92132134Y-111191219D01*
X92143170Y-111209632D01*
X92152349Y-111229038D01*
X92159581Y-111249250D01*
X92164797Y-111270074D01*
X92167947Y-111291309D01*
X92169000Y-111312750D01*
X92169000Y-111750250D01*
X92167947Y-111771691D01*
X92164797Y-111792926D01*
X92159581Y-111813750D01*
X92152349Y-111833962D01*
X92143170Y-111853368D01*
X92132134Y-111871781D01*
X92119346Y-111889024D01*
X92104930Y-111904930D01*
X92089024Y-111919346D01*
X92071781Y-111932134D01*
X92053368Y-111943170D01*
X92033962Y-111952349D01*
X92013750Y-111959581D01*
X91992926Y-111964797D01*
X91971691Y-111967947D01*
X91950250Y-111969000D01*
X91437750Y-111969000D01*
X91416309Y-111967947D01*
X91395074Y-111964797D01*
X91374250Y-111959581D01*
X91354038Y-111952349D01*
X91334632Y-111943170D01*
X91316219Y-111932134D01*
X91298976Y-111919346D01*
X91283070Y-111904930D01*
X91268654Y-111889024D01*
X91255866Y-111871781D01*
X91244830Y-111853368D01*
X91235651Y-111833962D01*
X91228419Y-111813750D01*
X91223203Y-111792926D01*
X91220053Y-111771691D01*
X91219000Y-111750250D01*
X91219000Y-111312750D01*
X91220053Y-111291309D01*
X91223203Y-111270074D01*
X91228419Y-111249250D01*
X91235651Y-111229038D01*
X91244830Y-111209632D01*
X91255866Y-111191219D01*
X91268654Y-111173976D01*
X91283070Y-111158070D01*
X91298976Y-111143654D01*
X91316219Y-111130866D01*
X91334632Y-111119830D01*
X91354038Y-111110651D01*
X91374250Y-111103419D01*
X91395074Y-111098203D01*
X91416309Y-111095053D01*
X91437750Y-111094000D01*
X91950250Y-111094000D01*
X91971691Y-111095053D01*
G37*
G36*
X90193691Y-109520053D02*
G01*
X90214926Y-109523203D01*
X90235750Y-109528419D01*
X90255962Y-109535651D01*
X90275368Y-109544830D01*
X90293781Y-109555866D01*
X90311024Y-109568654D01*
X90326930Y-109583070D01*
X90341346Y-109598976D01*
X90354134Y-109616219D01*
X90365170Y-109634632D01*
X90374349Y-109654038D01*
X90381581Y-109674250D01*
X90386797Y-109695074D01*
X90389947Y-109716309D01*
X90391000Y-109737750D01*
X90391000Y-110175250D01*
X90389947Y-110196691D01*
X90386797Y-110217926D01*
X90381581Y-110238750D01*
X90374349Y-110258962D01*
X90365170Y-110278368D01*
X90354134Y-110296781D01*
X90341346Y-110314024D01*
X90326930Y-110329930D01*
X90311024Y-110344346D01*
X90293781Y-110357134D01*
X90275368Y-110368170D01*
X90255962Y-110377349D01*
X90235750Y-110384581D01*
X90214926Y-110389797D01*
X90193691Y-110392947D01*
X90172250Y-110394000D01*
X89659750Y-110394000D01*
X89638309Y-110392947D01*
X89617074Y-110389797D01*
X89596250Y-110384581D01*
X89576038Y-110377349D01*
X89556632Y-110368170D01*
X89538219Y-110357134D01*
X89520976Y-110344346D01*
X89505070Y-110329930D01*
X89490654Y-110314024D01*
X89477866Y-110296781D01*
X89466830Y-110278368D01*
X89457651Y-110258962D01*
X89450419Y-110238750D01*
X89445203Y-110217926D01*
X89442053Y-110196691D01*
X89441000Y-110175250D01*
X89441000Y-109737750D01*
X89442053Y-109716309D01*
X89445203Y-109695074D01*
X89450419Y-109674250D01*
X89457651Y-109654038D01*
X89466830Y-109634632D01*
X89477866Y-109616219D01*
X89490654Y-109598976D01*
X89505070Y-109583070D01*
X89520976Y-109568654D01*
X89538219Y-109555866D01*
X89556632Y-109544830D01*
X89576038Y-109535651D01*
X89596250Y-109528419D01*
X89617074Y-109523203D01*
X89638309Y-109520053D01*
X89659750Y-109519000D01*
X90172250Y-109519000D01*
X90193691Y-109520053D01*
G37*
G36*
X90193691Y-111095053D02*
G01*
X90214926Y-111098203D01*
X90235750Y-111103419D01*
X90255962Y-111110651D01*
X90275368Y-111119830D01*
X90293781Y-111130866D01*
X90311024Y-111143654D01*
X90326930Y-111158070D01*
X90341346Y-111173976D01*
X90354134Y-111191219D01*
X90365170Y-111209632D01*
X90374349Y-111229038D01*
X90381581Y-111249250D01*
X90386797Y-111270074D01*
X90389947Y-111291309D01*
X90391000Y-111312750D01*
X90391000Y-111750250D01*
X90389947Y-111771691D01*
X90386797Y-111792926D01*
X90381581Y-111813750D01*
X90374349Y-111833962D01*
X90365170Y-111853368D01*
X90354134Y-111871781D01*
X90341346Y-111889024D01*
X90326930Y-111904930D01*
X90311024Y-111919346D01*
X90293781Y-111932134D01*
X90275368Y-111943170D01*
X90255962Y-111952349D01*
X90235750Y-111959581D01*
X90214926Y-111964797D01*
X90193691Y-111967947D01*
X90172250Y-111969000D01*
X89659750Y-111969000D01*
X89638309Y-111967947D01*
X89617074Y-111964797D01*
X89596250Y-111959581D01*
X89576038Y-111952349D01*
X89556632Y-111943170D01*
X89538219Y-111932134D01*
X89520976Y-111919346D01*
X89505070Y-111904930D01*
X89490654Y-111889024D01*
X89477866Y-111871781D01*
X89466830Y-111853368D01*
X89457651Y-111833962D01*
X89450419Y-111813750D01*
X89445203Y-111792926D01*
X89442053Y-111771691D01*
X89441000Y-111750250D01*
X89441000Y-111312750D01*
X89442053Y-111291309D01*
X89445203Y-111270074D01*
X89450419Y-111249250D01*
X89457651Y-111229038D01*
X89466830Y-111209632D01*
X89477866Y-111191219D01*
X89490654Y-111173976D01*
X89505070Y-111158070D01*
X89520976Y-111143654D01*
X89538219Y-111130866D01*
X89556632Y-111119830D01*
X89576038Y-111110651D01*
X89596250Y-111103419D01*
X89617074Y-111098203D01*
X89638309Y-111095053D01*
X89659750Y-111094000D01*
X90172250Y-111094000D01*
X90193691Y-111095053D01*
G37*
G36*
X105929691Y-96300053D02*
G01*
X105950926Y-96303203D01*
X105971750Y-96308419D01*
X105991962Y-96315651D01*
X106011368Y-96324830D01*
X106029781Y-96335866D01*
X106047024Y-96348654D01*
X106062930Y-96363070D01*
X106077346Y-96378976D01*
X106090134Y-96396219D01*
X106101170Y-96414632D01*
X106110349Y-96434038D01*
X106117581Y-96454250D01*
X106122797Y-96475074D01*
X106125947Y-96496309D01*
X106127000Y-96517750D01*
X106127000Y-97030250D01*
X106125947Y-97051691D01*
X106122797Y-97072926D01*
X106117581Y-97093750D01*
X106110349Y-97113962D01*
X106101170Y-97133368D01*
X106090134Y-97151781D01*
X106077346Y-97169024D01*
X106062930Y-97184930D01*
X106047024Y-97199346D01*
X106029781Y-97212134D01*
X106011368Y-97223170D01*
X105991962Y-97232349D01*
X105971750Y-97239581D01*
X105950926Y-97244797D01*
X105929691Y-97247947D01*
X105908250Y-97249000D01*
X105470750Y-97249000D01*
X105449309Y-97247947D01*
X105428074Y-97244797D01*
X105407250Y-97239581D01*
X105387038Y-97232349D01*
X105367632Y-97223170D01*
X105349219Y-97212134D01*
X105331976Y-97199346D01*
X105316070Y-97184930D01*
X105301654Y-97169024D01*
X105288866Y-97151781D01*
X105277830Y-97133368D01*
X105268651Y-97113962D01*
X105261419Y-97093750D01*
X105256203Y-97072926D01*
X105253053Y-97051691D01*
X105252000Y-97030250D01*
X105252000Y-96517750D01*
X105253053Y-96496309D01*
X105256203Y-96475074D01*
X105261419Y-96454250D01*
X105268651Y-96434038D01*
X105277830Y-96414632D01*
X105288866Y-96396219D01*
X105301654Y-96378976D01*
X105316070Y-96363070D01*
X105331976Y-96348654D01*
X105349219Y-96335866D01*
X105367632Y-96324830D01*
X105387038Y-96315651D01*
X105407250Y-96308419D01*
X105428074Y-96303203D01*
X105449309Y-96300053D01*
X105470750Y-96299000D01*
X105908250Y-96299000D01*
X105929691Y-96300053D01*
G37*
G36*
X104354691Y-96300053D02*
G01*
X104375926Y-96303203D01*
X104396750Y-96308419D01*
X104416962Y-96315651D01*
X104436368Y-96324830D01*
X104454781Y-96335866D01*
X104472024Y-96348654D01*
X104487930Y-96363070D01*
X104502346Y-96378976D01*
X104515134Y-96396219D01*
X104526170Y-96414632D01*
X104535349Y-96434038D01*
X104542581Y-96454250D01*
X104547797Y-96475074D01*
X104550947Y-96496309D01*
X104552000Y-96517750D01*
X104552000Y-97030250D01*
X104550947Y-97051691D01*
X104547797Y-97072926D01*
X104542581Y-97093750D01*
X104535349Y-97113962D01*
X104526170Y-97133368D01*
X104515134Y-97151781D01*
X104502346Y-97169024D01*
X104487930Y-97184930D01*
X104472024Y-97199346D01*
X104454781Y-97212134D01*
X104436368Y-97223170D01*
X104416962Y-97232349D01*
X104396750Y-97239581D01*
X104375926Y-97244797D01*
X104354691Y-97247947D01*
X104333250Y-97249000D01*
X103895750Y-97249000D01*
X103874309Y-97247947D01*
X103853074Y-97244797D01*
X103832250Y-97239581D01*
X103812038Y-97232349D01*
X103792632Y-97223170D01*
X103774219Y-97212134D01*
X103756976Y-97199346D01*
X103741070Y-97184930D01*
X103726654Y-97169024D01*
X103713866Y-97151781D01*
X103702830Y-97133368D01*
X103693651Y-97113962D01*
X103686419Y-97093750D01*
X103681203Y-97072926D01*
X103678053Y-97051691D01*
X103677000Y-97030250D01*
X103677000Y-96517750D01*
X103678053Y-96496309D01*
X103681203Y-96475074D01*
X103686419Y-96454250D01*
X103693651Y-96434038D01*
X103702830Y-96414632D01*
X103713866Y-96396219D01*
X103726654Y-96378976D01*
X103741070Y-96363070D01*
X103756976Y-96348654D01*
X103774219Y-96335866D01*
X103792632Y-96324830D01*
X103812038Y-96315651D01*
X103832250Y-96308419D01*
X103853074Y-96303203D01*
X103874309Y-96300053D01*
X103895750Y-96299000D01*
X104333250Y-96299000D01*
X104354691Y-96300053D01*
G37*
G36*
X109485691Y-94522053D02*
G01*
X109506926Y-94525203D01*
X109527750Y-94530419D01*
X109547962Y-94537651D01*
X109567368Y-94546830D01*
X109585781Y-94557866D01*
X109603024Y-94570654D01*
X109618930Y-94585070D01*
X109633346Y-94600976D01*
X109646134Y-94618219D01*
X109657170Y-94636632D01*
X109666349Y-94656038D01*
X109673581Y-94676250D01*
X109678797Y-94697074D01*
X109681947Y-94718309D01*
X109683000Y-94739750D01*
X109683000Y-95252250D01*
X109681947Y-95273691D01*
X109678797Y-95294926D01*
X109673581Y-95315750D01*
X109666349Y-95335962D01*
X109657170Y-95355368D01*
X109646134Y-95373781D01*
X109633346Y-95391024D01*
X109618930Y-95406930D01*
X109603024Y-95421346D01*
X109585781Y-95434134D01*
X109567368Y-95445170D01*
X109547962Y-95454349D01*
X109527750Y-95461581D01*
X109506926Y-95466797D01*
X109485691Y-95469947D01*
X109464250Y-95471000D01*
X109026750Y-95471000D01*
X109005309Y-95469947D01*
X108984074Y-95466797D01*
X108963250Y-95461581D01*
X108943038Y-95454349D01*
X108923632Y-95445170D01*
X108905219Y-95434134D01*
X108887976Y-95421346D01*
X108872070Y-95406930D01*
X108857654Y-95391024D01*
X108844866Y-95373781D01*
X108833830Y-95355368D01*
X108824651Y-95335962D01*
X108817419Y-95315750D01*
X108812203Y-95294926D01*
X108809053Y-95273691D01*
X108808000Y-95252250D01*
X108808000Y-94739750D01*
X108809053Y-94718309D01*
X108812203Y-94697074D01*
X108817419Y-94676250D01*
X108824651Y-94656038D01*
X108833830Y-94636632D01*
X108844866Y-94618219D01*
X108857654Y-94600976D01*
X108872070Y-94585070D01*
X108887976Y-94570654D01*
X108905219Y-94557866D01*
X108923632Y-94546830D01*
X108943038Y-94537651D01*
X108963250Y-94530419D01*
X108984074Y-94525203D01*
X109005309Y-94522053D01*
X109026750Y-94521000D01*
X109464250Y-94521000D01*
X109485691Y-94522053D01*
G37*
G36*
X107910691Y-94522053D02*
G01*
X107931926Y-94525203D01*
X107952750Y-94530419D01*
X107972962Y-94537651D01*
X107992368Y-94546830D01*
X108010781Y-94557866D01*
X108028024Y-94570654D01*
X108043930Y-94585070D01*
X108058346Y-94600976D01*
X108071134Y-94618219D01*
X108082170Y-94636632D01*
X108091349Y-94656038D01*
X108098581Y-94676250D01*
X108103797Y-94697074D01*
X108106947Y-94718309D01*
X108108000Y-94739750D01*
X108108000Y-95252250D01*
X108106947Y-95273691D01*
X108103797Y-95294926D01*
X108098581Y-95315750D01*
X108091349Y-95335962D01*
X108082170Y-95355368D01*
X108071134Y-95373781D01*
X108058346Y-95391024D01*
X108043930Y-95406930D01*
X108028024Y-95421346D01*
X108010781Y-95434134D01*
X107992368Y-95445170D01*
X107972962Y-95454349D01*
X107952750Y-95461581D01*
X107931926Y-95466797D01*
X107910691Y-95469947D01*
X107889250Y-95471000D01*
X107451750Y-95471000D01*
X107430309Y-95469947D01*
X107409074Y-95466797D01*
X107388250Y-95461581D01*
X107368038Y-95454349D01*
X107348632Y-95445170D01*
X107330219Y-95434134D01*
X107312976Y-95421346D01*
X107297070Y-95406930D01*
X107282654Y-95391024D01*
X107269866Y-95373781D01*
X107258830Y-95355368D01*
X107249651Y-95335962D01*
X107242419Y-95315750D01*
X107237203Y-95294926D01*
X107234053Y-95273691D01*
X107233000Y-95252250D01*
X107233000Y-94739750D01*
X107234053Y-94718309D01*
X107237203Y-94697074D01*
X107242419Y-94676250D01*
X107249651Y-94656038D01*
X107258830Y-94636632D01*
X107269866Y-94618219D01*
X107282654Y-94600976D01*
X107297070Y-94585070D01*
X107312976Y-94570654D01*
X107330219Y-94557866D01*
X107348632Y-94546830D01*
X107368038Y-94537651D01*
X107388250Y-94530419D01*
X107409074Y-94525203D01*
X107430309Y-94522053D01*
X107451750Y-94521000D01*
X107889250Y-94521000D01*
X107910691Y-94522053D01*
G37*
G36*
X82307691Y-95538053D02*
G01*
X82328926Y-95541203D01*
X82349750Y-95546419D01*
X82369962Y-95553651D01*
X82389368Y-95562830D01*
X82407781Y-95573866D01*
X82425024Y-95586654D01*
X82440930Y-95601070D01*
X82455346Y-95616976D01*
X82468134Y-95634219D01*
X82479170Y-95652632D01*
X82488349Y-95672038D01*
X82495581Y-95692250D01*
X82500797Y-95713074D01*
X82503947Y-95734309D01*
X82505000Y-95755750D01*
X82505000Y-96268250D01*
X82503947Y-96289691D01*
X82500797Y-96310926D01*
X82495581Y-96331750D01*
X82488349Y-96351962D01*
X82479170Y-96371368D01*
X82468134Y-96389781D01*
X82455346Y-96407024D01*
X82440930Y-96422930D01*
X82425024Y-96437346D01*
X82407781Y-96450134D01*
X82389368Y-96461170D01*
X82369962Y-96470349D01*
X82349750Y-96477581D01*
X82328926Y-96482797D01*
X82307691Y-96485947D01*
X82286250Y-96487000D01*
X81848750Y-96487000D01*
X81827309Y-96485947D01*
X81806074Y-96482797D01*
X81785250Y-96477581D01*
X81765038Y-96470349D01*
X81745632Y-96461170D01*
X81727219Y-96450134D01*
X81709976Y-96437346D01*
X81694070Y-96422930D01*
X81679654Y-96407024D01*
X81666866Y-96389781D01*
X81655830Y-96371368D01*
X81646651Y-96351962D01*
X81639419Y-96331750D01*
X81634203Y-96310926D01*
X81631053Y-96289691D01*
X81630000Y-96268250D01*
X81630000Y-95755750D01*
X81631053Y-95734309D01*
X81634203Y-95713074D01*
X81639419Y-95692250D01*
X81646651Y-95672038D01*
X81655830Y-95652632D01*
X81666866Y-95634219D01*
X81679654Y-95616976D01*
X81694070Y-95601070D01*
X81709976Y-95586654D01*
X81727219Y-95573866D01*
X81745632Y-95562830D01*
X81765038Y-95553651D01*
X81785250Y-95546419D01*
X81806074Y-95541203D01*
X81827309Y-95538053D01*
X81848750Y-95537000D01*
X82286250Y-95537000D01*
X82307691Y-95538053D01*
G37*
G36*
X80732691Y-95538053D02*
G01*
X80753926Y-95541203D01*
X80774750Y-95546419D01*
X80794962Y-95553651D01*
X80814368Y-95562830D01*
X80832781Y-95573866D01*
X80850024Y-95586654D01*
X80865930Y-95601070D01*
X80880346Y-95616976D01*
X80893134Y-95634219D01*
X80904170Y-95652632D01*
X80913349Y-95672038D01*
X80920581Y-95692250D01*
X80925797Y-95713074D01*
X80928947Y-95734309D01*
X80930000Y-95755750D01*
X80930000Y-96268250D01*
X80928947Y-96289691D01*
X80925797Y-96310926D01*
X80920581Y-96331750D01*
X80913349Y-96351962D01*
X80904170Y-96371368D01*
X80893134Y-96389781D01*
X80880346Y-96407024D01*
X80865930Y-96422930D01*
X80850024Y-96437346D01*
X80832781Y-96450134D01*
X80814368Y-96461170D01*
X80794962Y-96470349D01*
X80774750Y-96477581D01*
X80753926Y-96482797D01*
X80732691Y-96485947D01*
X80711250Y-96487000D01*
X80273750Y-96487000D01*
X80252309Y-96485947D01*
X80231074Y-96482797D01*
X80210250Y-96477581D01*
X80190038Y-96470349D01*
X80170632Y-96461170D01*
X80152219Y-96450134D01*
X80134976Y-96437346D01*
X80119070Y-96422930D01*
X80104654Y-96407024D01*
X80091866Y-96389781D01*
X80080830Y-96371368D01*
X80071651Y-96351962D01*
X80064419Y-96331750D01*
X80059203Y-96310926D01*
X80056053Y-96289691D01*
X80055000Y-96268250D01*
X80055000Y-95755750D01*
X80056053Y-95734309D01*
X80059203Y-95713074D01*
X80064419Y-95692250D01*
X80071651Y-95672038D01*
X80080830Y-95652632D01*
X80091866Y-95634219D01*
X80104654Y-95616976D01*
X80119070Y-95601070D01*
X80134976Y-95586654D01*
X80152219Y-95573866D01*
X80170632Y-95562830D01*
X80190038Y-95553651D01*
X80210250Y-95546419D01*
X80231074Y-95541203D01*
X80252309Y-95538053D01*
X80273750Y-95537000D01*
X80711250Y-95537000D01*
X80732691Y-95538053D01*
G37*
G36*
X104354691Y-94522053D02*
G01*
X104375926Y-94525203D01*
X104396750Y-94530419D01*
X104416962Y-94537651D01*
X104436368Y-94546830D01*
X104454781Y-94557866D01*
X104472024Y-94570654D01*
X104487930Y-94585070D01*
X104502346Y-94600976D01*
X104515134Y-94618219D01*
X104526170Y-94636632D01*
X104535349Y-94656038D01*
X104542581Y-94676250D01*
X104547797Y-94697074D01*
X104550947Y-94718309D01*
X104552000Y-94739750D01*
X104552000Y-95252250D01*
X104550947Y-95273691D01*
X104547797Y-95294926D01*
X104542581Y-95315750D01*
X104535349Y-95335962D01*
X104526170Y-95355368D01*
X104515134Y-95373781D01*
X104502346Y-95391024D01*
X104487930Y-95406930D01*
X104472024Y-95421346D01*
X104454781Y-95434134D01*
X104436368Y-95445170D01*
X104416962Y-95454349D01*
X104396750Y-95461581D01*
X104375926Y-95466797D01*
X104354691Y-95469947D01*
X104333250Y-95471000D01*
X103895750Y-95471000D01*
X103874309Y-95469947D01*
X103853074Y-95466797D01*
X103832250Y-95461581D01*
X103812038Y-95454349D01*
X103792632Y-95445170D01*
X103774219Y-95434134D01*
X103756976Y-95421346D01*
X103741070Y-95406930D01*
X103726654Y-95391024D01*
X103713866Y-95373781D01*
X103702830Y-95355368D01*
X103693651Y-95335962D01*
X103686419Y-95315750D01*
X103681203Y-95294926D01*
X103678053Y-95273691D01*
X103677000Y-95252250D01*
X103677000Y-94739750D01*
X103678053Y-94718309D01*
X103681203Y-94697074D01*
X103686419Y-94676250D01*
X103693651Y-94656038D01*
X103702830Y-94636632D01*
X103713866Y-94618219D01*
X103726654Y-94600976D01*
X103741070Y-94585070D01*
X103756976Y-94570654D01*
X103774219Y-94557866D01*
X103792632Y-94546830D01*
X103812038Y-94537651D01*
X103832250Y-94530419D01*
X103853074Y-94525203D01*
X103874309Y-94522053D01*
X103895750Y-94521000D01*
X104333250Y-94521000D01*
X104354691Y-94522053D01*
G37*
G36*
X105929691Y-94522053D02*
G01*
X105950926Y-94525203D01*
X105971750Y-94530419D01*
X105991962Y-94537651D01*
X106011368Y-94546830D01*
X106029781Y-94557866D01*
X106047024Y-94570654D01*
X106062930Y-94585070D01*
X106077346Y-94600976D01*
X106090134Y-94618219D01*
X106101170Y-94636632D01*
X106110349Y-94656038D01*
X106117581Y-94676250D01*
X106122797Y-94697074D01*
X106125947Y-94718309D01*
X106127000Y-94739750D01*
X106127000Y-95252250D01*
X106125947Y-95273691D01*
X106122797Y-95294926D01*
X106117581Y-95315750D01*
X106110349Y-95335962D01*
X106101170Y-95355368D01*
X106090134Y-95373781D01*
X106077346Y-95391024D01*
X106062930Y-95406930D01*
X106047024Y-95421346D01*
X106029781Y-95434134D01*
X106011368Y-95445170D01*
X105991962Y-95454349D01*
X105971750Y-95461581D01*
X105950926Y-95466797D01*
X105929691Y-95469947D01*
X105908250Y-95471000D01*
X105470750Y-95471000D01*
X105449309Y-95469947D01*
X105428074Y-95466797D01*
X105407250Y-95461581D01*
X105387038Y-95454349D01*
X105367632Y-95445170D01*
X105349219Y-95434134D01*
X105331976Y-95421346D01*
X105316070Y-95406930D01*
X105301654Y-95391024D01*
X105288866Y-95373781D01*
X105277830Y-95355368D01*
X105268651Y-95335962D01*
X105261419Y-95315750D01*
X105256203Y-95294926D01*
X105253053Y-95273691D01*
X105252000Y-95252250D01*
X105252000Y-94739750D01*
X105253053Y-94718309D01*
X105256203Y-94697074D01*
X105261419Y-94676250D01*
X105268651Y-94656038D01*
X105277830Y-94636632D01*
X105288866Y-94618219D01*
X105301654Y-94600976D01*
X105316070Y-94585070D01*
X105331976Y-94570654D01*
X105349219Y-94557866D01*
X105367632Y-94546830D01*
X105387038Y-94537651D01*
X105407250Y-94530419D01*
X105428074Y-94525203D01*
X105449309Y-94522053D01*
X105470750Y-94521000D01*
X105908250Y-94521000D01*
X105929691Y-94522053D01*
G37*
G36*
X84034691Y-139480053D02*
G01*
X84055926Y-139483203D01*
X84076750Y-139488419D01*
X84096962Y-139495651D01*
X84116368Y-139504830D01*
X84134781Y-139515866D01*
X84152024Y-139528654D01*
X84167930Y-139543070D01*
X84182346Y-139558976D01*
X84195134Y-139576219D01*
X84206170Y-139594632D01*
X84215349Y-139614038D01*
X84222581Y-139634250D01*
X84227797Y-139655074D01*
X84230947Y-139676309D01*
X84232000Y-139697750D01*
X84232000Y-140210250D01*
X84230947Y-140231691D01*
X84227797Y-140252926D01*
X84222581Y-140273750D01*
X84215349Y-140293962D01*
X84206170Y-140313368D01*
X84195134Y-140331781D01*
X84182346Y-140349024D01*
X84167930Y-140364930D01*
X84152024Y-140379346D01*
X84134781Y-140392134D01*
X84116368Y-140403170D01*
X84096962Y-140412349D01*
X84076750Y-140419581D01*
X84055926Y-140424797D01*
X84034691Y-140427947D01*
X84013250Y-140429000D01*
X83575750Y-140429000D01*
X83554309Y-140427947D01*
X83533074Y-140424797D01*
X83512250Y-140419581D01*
X83492038Y-140412349D01*
X83472632Y-140403170D01*
X83454219Y-140392134D01*
X83436976Y-140379346D01*
X83421070Y-140364930D01*
X83406654Y-140349024D01*
X83393866Y-140331781D01*
X83382830Y-140313368D01*
X83373651Y-140293962D01*
X83366419Y-140273750D01*
X83361203Y-140252926D01*
X83358053Y-140231691D01*
X83357000Y-140210250D01*
X83357000Y-139697750D01*
X83358053Y-139676309D01*
X83361203Y-139655074D01*
X83366419Y-139634250D01*
X83373651Y-139614038D01*
X83382830Y-139594632D01*
X83393866Y-139576219D01*
X83406654Y-139558976D01*
X83421070Y-139543070D01*
X83436976Y-139528654D01*
X83454219Y-139515866D01*
X83472632Y-139504830D01*
X83492038Y-139495651D01*
X83512250Y-139488419D01*
X83533074Y-139483203D01*
X83554309Y-139480053D01*
X83575750Y-139479000D01*
X84013250Y-139479000D01*
X84034691Y-139480053D01*
G37*
G36*
X85609691Y-139480053D02*
G01*
X85630926Y-139483203D01*
X85651750Y-139488419D01*
X85671962Y-139495651D01*
X85691368Y-139504830D01*
X85709781Y-139515866D01*
X85727024Y-139528654D01*
X85742930Y-139543070D01*
X85757346Y-139558976D01*
X85770134Y-139576219D01*
X85781170Y-139594632D01*
X85790349Y-139614038D01*
X85797581Y-139634250D01*
X85802797Y-139655074D01*
X85805947Y-139676309D01*
X85807000Y-139697750D01*
X85807000Y-140210250D01*
X85805947Y-140231691D01*
X85802797Y-140252926D01*
X85797581Y-140273750D01*
X85790349Y-140293962D01*
X85781170Y-140313368D01*
X85770134Y-140331781D01*
X85757346Y-140349024D01*
X85742930Y-140364930D01*
X85727024Y-140379346D01*
X85709781Y-140392134D01*
X85691368Y-140403170D01*
X85671962Y-140412349D01*
X85651750Y-140419581D01*
X85630926Y-140424797D01*
X85609691Y-140427947D01*
X85588250Y-140429000D01*
X85150750Y-140429000D01*
X85129309Y-140427947D01*
X85108074Y-140424797D01*
X85087250Y-140419581D01*
X85067038Y-140412349D01*
X85047632Y-140403170D01*
X85029219Y-140392134D01*
X85011976Y-140379346D01*
X84996070Y-140364930D01*
X84981654Y-140349024D01*
X84968866Y-140331781D01*
X84957830Y-140313368D01*
X84948651Y-140293962D01*
X84941419Y-140273750D01*
X84936203Y-140252926D01*
X84933053Y-140231691D01*
X84932000Y-140210250D01*
X84932000Y-139697750D01*
X84933053Y-139676309D01*
X84936203Y-139655074D01*
X84941419Y-139634250D01*
X84948651Y-139614038D01*
X84957830Y-139594632D01*
X84968866Y-139576219D01*
X84981654Y-139558976D01*
X84996070Y-139543070D01*
X85011976Y-139528654D01*
X85029219Y-139515866D01*
X85047632Y-139504830D01*
X85067038Y-139495651D01*
X85087250Y-139488419D01*
X85108074Y-139483203D01*
X85129309Y-139480053D01*
X85150750Y-139479000D01*
X85588250Y-139479000D01*
X85609691Y-139480053D01*
G37*
G36*
X87590691Y-167166053D02*
G01*
X87611926Y-167169203D01*
X87632750Y-167174419D01*
X87652962Y-167181651D01*
X87672368Y-167190830D01*
X87690781Y-167201866D01*
X87708024Y-167214654D01*
X87723930Y-167229070D01*
X87738346Y-167244976D01*
X87751134Y-167262219D01*
X87762170Y-167280632D01*
X87771349Y-167300038D01*
X87778581Y-167320250D01*
X87783797Y-167341074D01*
X87786947Y-167362309D01*
X87788000Y-167383750D01*
X87788000Y-167896250D01*
X87786947Y-167917691D01*
X87783797Y-167938926D01*
X87778581Y-167959750D01*
X87771349Y-167979962D01*
X87762170Y-167999368D01*
X87751134Y-168017781D01*
X87738346Y-168035024D01*
X87723930Y-168050930D01*
X87708024Y-168065346D01*
X87690781Y-168078134D01*
X87672368Y-168089170D01*
X87652962Y-168098349D01*
X87632750Y-168105581D01*
X87611926Y-168110797D01*
X87590691Y-168113947D01*
X87569250Y-168115000D01*
X87131750Y-168115000D01*
X87110309Y-168113947D01*
X87089074Y-168110797D01*
X87068250Y-168105581D01*
X87048038Y-168098349D01*
X87028632Y-168089170D01*
X87010219Y-168078134D01*
X86992976Y-168065346D01*
X86977070Y-168050930D01*
X86962654Y-168035024D01*
X86949866Y-168017781D01*
X86938830Y-167999368D01*
X86929651Y-167979962D01*
X86922419Y-167959750D01*
X86917203Y-167938926D01*
X86914053Y-167917691D01*
X86913000Y-167896250D01*
X86913000Y-167383750D01*
X86914053Y-167362309D01*
X86917203Y-167341074D01*
X86922419Y-167320250D01*
X86929651Y-167300038D01*
X86938830Y-167280632D01*
X86949866Y-167262219D01*
X86962654Y-167244976D01*
X86977070Y-167229070D01*
X86992976Y-167214654D01*
X87010219Y-167201866D01*
X87028632Y-167190830D01*
X87048038Y-167181651D01*
X87068250Y-167174419D01*
X87089074Y-167169203D01*
X87110309Y-167166053D01*
X87131750Y-167165000D01*
X87569250Y-167165000D01*
X87590691Y-167166053D01*
G37*
G36*
X89165691Y-167166053D02*
G01*
X89186926Y-167169203D01*
X89207750Y-167174419D01*
X89227962Y-167181651D01*
X89247368Y-167190830D01*
X89265781Y-167201866D01*
X89283024Y-167214654D01*
X89298930Y-167229070D01*
X89313346Y-167244976D01*
X89326134Y-167262219D01*
X89337170Y-167280632D01*
X89346349Y-167300038D01*
X89353581Y-167320250D01*
X89358797Y-167341074D01*
X89361947Y-167362309D01*
X89363000Y-167383750D01*
X89363000Y-167896250D01*
X89361947Y-167917691D01*
X89358797Y-167938926D01*
X89353581Y-167959750D01*
X89346349Y-167979962D01*
X89337170Y-167999368D01*
X89326134Y-168017781D01*
X89313346Y-168035024D01*
X89298930Y-168050930D01*
X89283024Y-168065346D01*
X89265781Y-168078134D01*
X89247368Y-168089170D01*
X89227962Y-168098349D01*
X89207750Y-168105581D01*
X89186926Y-168110797D01*
X89165691Y-168113947D01*
X89144250Y-168115000D01*
X88706750Y-168115000D01*
X88685309Y-168113947D01*
X88664074Y-168110797D01*
X88643250Y-168105581D01*
X88623038Y-168098349D01*
X88603632Y-168089170D01*
X88585219Y-168078134D01*
X88567976Y-168065346D01*
X88552070Y-168050930D01*
X88537654Y-168035024D01*
X88524866Y-168017781D01*
X88513830Y-167999368D01*
X88504651Y-167979962D01*
X88497419Y-167959750D01*
X88492203Y-167938926D01*
X88489053Y-167917691D01*
X88488000Y-167896250D01*
X88488000Y-167383750D01*
X88489053Y-167362309D01*
X88492203Y-167341074D01*
X88497419Y-167320250D01*
X88504651Y-167300038D01*
X88513830Y-167280632D01*
X88524866Y-167262219D01*
X88537654Y-167244976D01*
X88552070Y-167229070D01*
X88567976Y-167214654D01*
X88585219Y-167201866D01*
X88603632Y-167190830D01*
X88623038Y-167181651D01*
X88643250Y-167174419D01*
X88664074Y-167169203D01*
X88685309Y-167166053D01*
X88706750Y-167165000D01*
X89144250Y-167165000D01*
X89165691Y-167166053D01*
G37*
G36*
X84034691Y-167166053D02*
G01*
X84055926Y-167169203D01*
X84076750Y-167174419D01*
X84096962Y-167181651D01*
X84116368Y-167190830D01*
X84134781Y-167201866D01*
X84152024Y-167214654D01*
X84167930Y-167229070D01*
X84182346Y-167244976D01*
X84195134Y-167262219D01*
X84206170Y-167280632D01*
X84215349Y-167300038D01*
X84222581Y-167320250D01*
X84227797Y-167341074D01*
X84230947Y-167362309D01*
X84232000Y-167383750D01*
X84232000Y-167896250D01*
X84230947Y-167917691D01*
X84227797Y-167938926D01*
X84222581Y-167959750D01*
X84215349Y-167979962D01*
X84206170Y-167999368D01*
X84195134Y-168017781D01*
X84182346Y-168035024D01*
X84167930Y-168050930D01*
X84152024Y-168065346D01*
X84134781Y-168078134D01*
X84116368Y-168089170D01*
X84096962Y-168098349D01*
X84076750Y-168105581D01*
X84055926Y-168110797D01*
X84034691Y-168113947D01*
X84013250Y-168115000D01*
X83575750Y-168115000D01*
X83554309Y-168113947D01*
X83533074Y-168110797D01*
X83512250Y-168105581D01*
X83492038Y-168098349D01*
X83472632Y-168089170D01*
X83454219Y-168078134D01*
X83436976Y-168065346D01*
X83421070Y-168050930D01*
X83406654Y-168035024D01*
X83393866Y-168017781D01*
X83382830Y-167999368D01*
X83373651Y-167979962D01*
X83366419Y-167959750D01*
X83361203Y-167938926D01*
X83358053Y-167917691D01*
X83357000Y-167896250D01*
X83357000Y-167383750D01*
X83358053Y-167362309D01*
X83361203Y-167341074D01*
X83366419Y-167320250D01*
X83373651Y-167300038D01*
X83382830Y-167280632D01*
X83393866Y-167262219D01*
X83406654Y-167244976D01*
X83421070Y-167229070D01*
X83436976Y-167214654D01*
X83454219Y-167201866D01*
X83472632Y-167190830D01*
X83492038Y-167181651D01*
X83512250Y-167174419D01*
X83533074Y-167169203D01*
X83554309Y-167166053D01*
X83575750Y-167165000D01*
X84013250Y-167165000D01*
X84034691Y-167166053D01*
G37*
G36*
X85609691Y-167166053D02*
G01*
X85630926Y-167169203D01*
X85651750Y-167174419D01*
X85671962Y-167181651D01*
X85691368Y-167190830D01*
X85709781Y-167201866D01*
X85727024Y-167214654D01*
X85742930Y-167229070D01*
X85757346Y-167244976D01*
X85770134Y-167262219D01*
X85781170Y-167280632D01*
X85790349Y-167300038D01*
X85797581Y-167320250D01*
X85802797Y-167341074D01*
X85805947Y-167362309D01*
X85807000Y-167383750D01*
X85807000Y-167896250D01*
X85805947Y-167917691D01*
X85802797Y-167938926D01*
X85797581Y-167959750D01*
X85790349Y-167979962D01*
X85781170Y-167999368D01*
X85770134Y-168017781D01*
X85757346Y-168035024D01*
X85742930Y-168050930D01*
X85727024Y-168065346D01*
X85709781Y-168078134D01*
X85691368Y-168089170D01*
X85671962Y-168098349D01*
X85651750Y-168105581D01*
X85630926Y-168110797D01*
X85609691Y-168113947D01*
X85588250Y-168115000D01*
X85150750Y-168115000D01*
X85129309Y-168113947D01*
X85108074Y-168110797D01*
X85087250Y-168105581D01*
X85067038Y-168098349D01*
X85047632Y-168089170D01*
X85029219Y-168078134D01*
X85011976Y-168065346D01*
X84996070Y-168050930D01*
X84981654Y-168035024D01*
X84968866Y-168017781D01*
X84957830Y-167999368D01*
X84948651Y-167979962D01*
X84941419Y-167959750D01*
X84936203Y-167938926D01*
X84933053Y-167917691D01*
X84932000Y-167896250D01*
X84932000Y-167383750D01*
X84933053Y-167362309D01*
X84936203Y-167341074D01*
X84941419Y-167320250D01*
X84948651Y-167300038D01*
X84957830Y-167280632D01*
X84968866Y-167262219D01*
X84981654Y-167244976D01*
X84996070Y-167229070D01*
X85011976Y-167214654D01*
X85029219Y-167201866D01*
X85047632Y-167190830D01*
X85067038Y-167181651D01*
X85087250Y-167174419D01*
X85108074Y-167169203D01*
X85129309Y-167166053D01*
X85150750Y-167165000D01*
X85588250Y-167165000D01*
X85609691Y-167166053D01*
G37*
G36*
X87590691Y-151926053D02*
G01*
X87611926Y-151929203D01*
X87632750Y-151934419D01*
X87652962Y-151941651D01*
X87672368Y-151950830D01*
X87690781Y-151961866D01*
X87708024Y-151974654D01*
X87723930Y-151989070D01*
X87738346Y-152004976D01*
X87751134Y-152022219D01*
X87762170Y-152040632D01*
X87771349Y-152060038D01*
X87778581Y-152080250D01*
X87783797Y-152101074D01*
X87786947Y-152122309D01*
X87788000Y-152143750D01*
X87788000Y-152656250D01*
X87786947Y-152677691D01*
X87783797Y-152698926D01*
X87778581Y-152719750D01*
X87771349Y-152739962D01*
X87762170Y-152759368D01*
X87751134Y-152777781D01*
X87738346Y-152795024D01*
X87723930Y-152810930D01*
X87708024Y-152825346D01*
X87690781Y-152838134D01*
X87672368Y-152849170D01*
X87652962Y-152858349D01*
X87632750Y-152865581D01*
X87611926Y-152870797D01*
X87590691Y-152873947D01*
X87569250Y-152875000D01*
X87131750Y-152875000D01*
X87110309Y-152873947D01*
X87089074Y-152870797D01*
X87068250Y-152865581D01*
X87048038Y-152858349D01*
X87028632Y-152849170D01*
X87010219Y-152838134D01*
X86992976Y-152825346D01*
X86977070Y-152810930D01*
X86962654Y-152795024D01*
X86949866Y-152777781D01*
X86938830Y-152759368D01*
X86929651Y-152739962D01*
X86922419Y-152719750D01*
X86917203Y-152698926D01*
X86914053Y-152677691D01*
X86913000Y-152656250D01*
X86913000Y-152143750D01*
X86914053Y-152122309D01*
X86917203Y-152101074D01*
X86922419Y-152080250D01*
X86929651Y-152060038D01*
X86938830Y-152040632D01*
X86949866Y-152022219D01*
X86962654Y-152004976D01*
X86977070Y-151989070D01*
X86992976Y-151974654D01*
X87010219Y-151961866D01*
X87028632Y-151950830D01*
X87048038Y-151941651D01*
X87068250Y-151934419D01*
X87089074Y-151929203D01*
X87110309Y-151926053D01*
X87131750Y-151925000D01*
X87569250Y-151925000D01*
X87590691Y-151926053D01*
G37*
G36*
X89165691Y-151926053D02*
G01*
X89186926Y-151929203D01*
X89207750Y-151934419D01*
X89227962Y-151941651D01*
X89247368Y-151950830D01*
X89265781Y-151961866D01*
X89283024Y-151974654D01*
X89298930Y-151989070D01*
X89313346Y-152004976D01*
X89326134Y-152022219D01*
X89337170Y-152040632D01*
X89346349Y-152060038D01*
X89353581Y-152080250D01*
X89358797Y-152101074D01*
X89361947Y-152122309D01*
X89363000Y-152143750D01*
X89363000Y-152656250D01*
X89361947Y-152677691D01*
X89358797Y-152698926D01*
X89353581Y-152719750D01*
X89346349Y-152739962D01*
X89337170Y-152759368D01*
X89326134Y-152777781D01*
X89313346Y-152795024D01*
X89298930Y-152810930D01*
X89283024Y-152825346D01*
X89265781Y-152838134D01*
X89247368Y-152849170D01*
X89227962Y-152858349D01*
X89207750Y-152865581D01*
X89186926Y-152870797D01*
X89165691Y-152873947D01*
X89144250Y-152875000D01*
X88706750Y-152875000D01*
X88685309Y-152873947D01*
X88664074Y-152870797D01*
X88643250Y-152865581D01*
X88623038Y-152858349D01*
X88603632Y-152849170D01*
X88585219Y-152838134D01*
X88567976Y-152825346D01*
X88552070Y-152810930D01*
X88537654Y-152795024D01*
X88524866Y-152777781D01*
X88513830Y-152759368D01*
X88504651Y-152739962D01*
X88497419Y-152719750D01*
X88492203Y-152698926D01*
X88489053Y-152677691D01*
X88488000Y-152656250D01*
X88488000Y-152143750D01*
X88489053Y-152122309D01*
X88492203Y-152101074D01*
X88497419Y-152080250D01*
X88504651Y-152060038D01*
X88513830Y-152040632D01*
X88524866Y-152022219D01*
X88537654Y-152004976D01*
X88552070Y-151989070D01*
X88567976Y-151974654D01*
X88585219Y-151961866D01*
X88603632Y-151950830D01*
X88623038Y-151941651D01*
X88643250Y-151934419D01*
X88664074Y-151929203D01*
X88685309Y-151926053D01*
X88706750Y-151925000D01*
X89144250Y-151925000D01*
X89165691Y-151926053D01*
G37*
G36*
X83589691Y-118664053D02*
G01*
X83610926Y-118667203D01*
X83631750Y-118672419D01*
X83651962Y-118679651D01*
X83671368Y-118688830D01*
X83689781Y-118699866D01*
X83707024Y-118712654D01*
X83722930Y-118727070D01*
X83737346Y-118742976D01*
X83750134Y-118760219D01*
X83761170Y-118778632D01*
X83770349Y-118798038D01*
X83777581Y-118818250D01*
X83782797Y-118839074D01*
X83785947Y-118860309D01*
X83787000Y-118881750D01*
X83787000Y-119319250D01*
X83785947Y-119340691D01*
X83782797Y-119361926D01*
X83777581Y-119382750D01*
X83770349Y-119402962D01*
X83761170Y-119422368D01*
X83750134Y-119440781D01*
X83737346Y-119458024D01*
X83722930Y-119473930D01*
X83707024Y-119488346D01*
X83689781Y-119501134D01*
X83671368Y-119512170D01*
X83651962Y-119521349D01*
X83631750Y-119528581D01*
X83610926Y-119533797D01*
X83589691Y-119536947D01*
X83568250Y-119538000D01*
X83055750Y-119538000D01*
X83034309Y-119536947D01*
X83013074Y-119533797D01*
X82992250Y-119528581D01*
X82972038Y-119521349D01*
X82952632Y-119512170D01*
X82934219Y-119501134D01*
X82916976Y-119488346D01*
X82901070Y-119473930D01*
X82886654Y-119458024D01*
X82873866Y-119440781D01*
X82862830Y-119422368D01*
X82853651Y-119402962D01*
X82846419Y-119382750D01*
X82841203Y-119361926D01*
X82838053Y-119340691D01*
X82837000Y-119319250D01*
X82837000Y-118881750D01*
X82838053Y-118860309D01*
X82841203Y-118839074D01*
X82846419Y-118818250D01*
X82853651Y-118798038D01*
X82862830Y-118778632D01*
X82873866Y-118760219D01*
X82886654Y-118742976D01*
X82901070Y-118727070D01*
X82916976Y-118712654D01*
X82934219Y-118699866D01*
X82952632Y-118688830D01*
X82972038Y-118679651D01*
X82992250Y-118672419D01*
X83013074Y-118667203D01*
X83034309Y-118664053D01*
X83055750Y-118663000D01*
X83568250Y-118663000D01*
X83589691Y-118664053D01*
G37*
G36*
X83589691Y-120239053D02*
G01*
X83610926Y-120242203D01*
X83631750Y-120247419D01*
X83651962Y-120254651D01*
X83671368Y-120263830D01*
X83689781Y-120274866D01*
X83707024Y-120287654D01*
X83722930Y-120302070D01*
X83737346Y-120317976D01*
X83750134Y-120335219D01*
X83761170Y-120353632D01*
X83770349Y-120373038D01*
X83777581Y-120393250D01*
X83782797Y-120414074D01*
X83785947Y-120435309D01*
X83787000Y-120456750D01*
X83787000Y-120894250D01*
X83785947Y-120915691D01*
X83782797Y-120936926D01*
X83777581Y-120957750D01*
X83770349Y-120977962D01*
X83761170Y-120997368D01*
X83750134Y-121015781D01*
X83737346Y-121033024D01*
X83722930Y-121048930D01*
X83707024Y-121063346D01*
X83689781Y-121076134D01*
X83671368Y-121087170D01*
X83651962Y-121096349D01*
X83631750Y-121103581D01*
X83610926Y-121108797D01*
X83589691Y-121111947D01*
X83568250Y-121113000D01*
X83055750Y-121113000D01*
X83034309Y-121111947D01*
X83013074Y-121108797D01*
X82992250Y-121103581D01*
X82972038Y-121096349D01*
X82952632Y-121087170D01*
X82934219Y-121076134D01*
X82916976Y-121063346D01*
X82901070Y-121048930D01*
X82886654Y-121033024D01*
X82873866Y-121015781D01*
X82862830Y-120997368D01*
X82853651Y-120977962D01*
X82846419Y-120957750D01*
X82841203Y-120936926D01*
X82838053Y-120915691D01*
X82837000Y-120894250D01*
X82837000Y-120456750D01*
X82838053Y-120435309D01*
X82841203Y-120414074D01*
X82846419Y-120393250D01*
X82853651Y-120373038D01*
X82862830Y-120353632D01*
X82873866Y-120335219D01*
X82886654Y-120317976D01*
X82901070Y-120302070D01*
X82916976Y-120287654D01*
X82934219Y-120274866D01*
X82952632Y-120263830D01*
X82972038Y-120254651D01*
X82992250Y-120247419D01*
X83013074Y-120242203D01*
X83034309Y-120239053D01*
X83055750Y-120238000D01*
X83568250Y-120238000D01*
X83589691Y-120239053D01*
G37*
G36*
X81557691Y-118664053D02*
G01*
X81578926Y-118667203D01*
X81599750Y-118672419D01*
X81619962Y-118679651D01*
X81639368Y-118688830D01*
X81657781Y-118699866D01*
X81675024Y-118712654D01*
X81690930Y-118727070D01*
X81705346Y-118742976D01*
X81718134Y-118760219D01*
X81729170Y-118778632D01*
X81738349Y-118798038D01*
X81745581Y-118818250D01*
X81750797Y-118839074D01*
X81753947Y-118860309D01*
X81755000Y-118881750D01*
X81755000Y-119319250D01*
X81753947Y-119340691D01*
X81750797Y-119361926D01*
X81745581Y-119382750D01*
X81738349Y-119402962D01*
X81729170Y-119422368D01*
X81718134Y-119440781D01*
X81705346Y-119458024D01*
X81690930Y-119473930D01*
X81675024Y-119488346D01*
X81657781Y-119501134D01*
X81639368Y-119512170D01*
X81619962Y-119521349D01*
X81599750Y-119528581D01*
X81578926Y-119533797D01*
X81557691Y-119536947D01*
X81536250Y-119538000D01*
X81023750Y-119538000D01*
X81002309Y-119536947D01*
X80981074Y-119533797D01*
X80960250Y-119528581D01*
X80940038Y-119521349D01*
X80920632Y-119512170D01*
X80902219Y-119501134D01*
X80884976Y-119488346D01*
X80869070Y-119473930D01*
X80854654Y-119458024D01*
X80841866Y-119440781D01*
X80830830Y-119422368D01*
X80821651Y-119402962D01*
X80814419Y-119382750D01*
X80809203Y-119361926D01*
X80806053Y-119340691D01*
X80805000Y-119319250D01*
X80805000Y-118881750D01*
X80806053Y-118860309D01*
X80809203Y-118839074D01*
X80814419Y-118818250D01*
X80821651Y-118798038D01*
X80830830Y-118778632D01*
X80841866Y-118760219D01*
X80854654Y-118742976D01*
X80869070Y-118727070D01*
X80884976Y-118712654D01*
X80902219Y-118699866D01*
X80920632Y-118688830D01*
X80940038Y-118679651D01*
X80960250Y-118672419D01*
X80981074Y-118667203D01*
X81002309Y-118664053D01*
X81023750Y-118663000D01*
X81536250Y-118663000D01*
X81557691Y-118664053D01*
G37*
G36*
X81557691Y-120239053D02*
G01*
X81578926Y-120242203D01*
X81599750Y-120247419D01*
X81619962Y-120254651D01*
X81639368Y-120263830D01*
X81657781Y-120274866D01*
X81675024Y-120287654D01*
X81690930Y-120302070D01*
X81705346Y-120317976D01*
X81718134Y-120335219D01*
X81729170Y-120353632D01*
X81738349Y-120373038D01*
X81745581Y-120393250D01*
X81750797Y-120414074D01*
X81753947Y-120435309D01*
X81755000Y-120456750D01*
X81755000Y-120894250D01*
X81753947Y-120915691D01*
X81750797Y-120936926D01*
X81745581Y-120957750D01*
X81738349Y-120977962D01*
X81729170Y-120997368D01*
X81718134Y-121015781D01*
X81705346Y-121033024D01*
X81690930Y-121048930D01*
X81675024Y-121063346D01*
X81657781Y-121076134D01*
X81639368Y-121087170D01*
X81619962Y-121096349D01*
X81599750Y-121103581D01*
X81578926Y-121108797D01*
X81557691Y-121111947D01*
X81536250Y-121113000D01*
X81023750Y-121113000D01*
X81002309Y-121111947D01*
X80981074Y-121108797D01*
X80960250Y-121103581D01*
X80940038Y-121096349D01*
X80920632Y-121087170D01*
X80902219Y-121076134D01*
X80884976Y-121063346D01*
X80869070Y-121048930D01*
X80854654Y-121033024D01*
X80841866Y-121015781D01*
X80830830Y-120997368D01*
X80821651Y-120977962D01*
X80814419Y-120957750D01*
X80809203Y-120936926D01*
X80806053Y-120915691D01*
X80805000Y-120894250D01*
X80805000Y-120456750D01*
X80806053Y-120435309D01*
X80809203Y-120414074D01*
X80814419Y-120393250D01*
X80821651Y-120373038D01*
X80830830Y-120353632D01*
X80841866Y-120335219D01*
X80854654Y-120317976D01*
X80869070Y-120302070D01*
X80884976Y-120287654D01*
X80902219Y-120274866D01*
X80920632Y-120263830D01*
X80940038Y-120254651D01*
X80960250Y-120247419D01*
X80981074Y-120242203D01*
X81002309Y-120239053D01*
X81023750Y-120238000D01*
X81536250Y-120238000D01*
X81557691Y-120239053D01*
G37*
G36*
X84034691Y-154720053D02*
G01*
X84055926Y-154723203D01*
X84076750Y-154728419D01*
X84096962Y-154735651D01*
X84116368Y-154744830D01*
X84134781Y-154755866D01*
X84152024Y-154768654D01*
X84167930Y-154783070D01*
X84182346Y-154798976D01*
X84195134Y-154816219D01*
X84206170Y-154834632D01*
X84215349Y-154854038D01*
X84222581Y-154874250D01*
X84227797Y-154895074D01*
X84230947Y-154916309D01*
X84232000Y-154937750D01*
X84232000Y-155450250D01*
X84230947Y-155471691D01*
X84227797Y-155492926D01*
X84222581Y-155513750D01*
X84215349Y-155533962D01*
X84206170Y-155553368D01*
X84195134Y-155571781D01*
X84182346Y-155589024D01*
X84167930Y-155604930D01*
X84152024Y-155619346D01*
X84134781Y-155632134D01*
X84116368Y-155643170D01*
X84096962Y-155652349D01*
X84076750Y-155659581D01*
X84055926Y-155664797D01*
X84034691Y-155667947D01*
X84013250Y-155669000D01*
X83575750Y-155669000D01*
X83554309Y-155667947D01*
X83533074Y-155664797D01*
X83512250Y-155659581D01*
X83492038Y-155652349D01*
X83472632Y-155643170D01*
X83454219Y-155632134D01*
X83436976Y-155619346D01*
X83421070Y-155604930D01*
X83406654Y-155589024D01*
X83393866Y-155571781D01*
X83382830Y-155553368D01*
X83373651Y-155533962D01*
X83366419Y-155513750D01*
X83361203Y-155492926D01*
X83358053Y-155471691D01*
X83357000Y-155450250D01*
X83357000Y-154937750D01*
X83358053Y-154916309D01*
X83361203Y-154895074D01*
X83366419Y-154874250D01*
X83373651Y-154854038D01*
X83382830Y-154834632D01*
X83393866Y-154816219D01*
X83406654Y-154798976D01*
X83421070Y-154783070D01*
X83436976Y-154768654D01*
X83454219Y-154755866D01*
X83472632Y-154744830D01*
X83492038Y-154735651D01*
X83512250Y-154728419D01*
X83533074Y-154723203D01*
X83554309Y-154720053D01*
X83575750Y-154719000D01*
X84013250Y-154719000D01*
X84034691Y-154720053D01*
G37*
G36*
X85609691Y-154720053D02*
G01*
X85630926Y-154723203D01*
X85651750Y-154728419D01*
X85671962Y-154735651D01*
X85691368Y-154744830D01*
X85709781Y-154755866D01*
X85727024Y-154768654D01*
X85742930Y-154783070D01*
X85757346Y-154798976D01*
X85770134Y-154816219D01*
X85781170Y-154834632D01*
X85790349Y-154854038D01*
X85797581Y-154874250D01*
X85802797Y-154895074D01*
X85805947Y-154916309D01*
X85807000Y-154937750D01*
X85807000Y-155450250D01*
X85805947Y-155471691D01*
X85802797Y-155492926D01*
X85797581Y-155513750D01*
X85790349Y-155533962D01*
X85781170Y-155553368D01*
X85770134Y-155571781D01*
X85757346Y-155589024D01*
X85742930Y-155604930D01*
X85727024Y-155619346D01*
X85709781Y-155632134D01*
X85691368Y-155643170D01*
X85671962Y-155652349D01*
X85651750Y-155659581D01*
X85630926Y-155664797D01*
X85609691Y-155667947D01*
X85588250Y-155669000D01*
X85150750Y-155669000D01*
X85129309Y-155667947D01*
X85108074Y-155664797D01*
X85087250Y-155659581D01*
X85067038Y-155652349D01*
X85047632Y-155643170D01*
X85029219Y-155632134D01*
X85011976Y-155619346D01*
X84996070Y-155604930D01*
X84981654Y-155589024D01*
X84968866Y-155571781D01*
X84957830Y-155553368D01*
X84948651Y-155533962D01*
X84941419Y-155513750D01*
X84936203Y-155492926D01*
X84933053Y-155471691D01*
X84932000Y-155450250D01*
X84932000Y-154937750D01*
X84933053Y-154916309D01*
X84936203Y-154895074D01*
X84941419Y-154874250D01*
X84948651Y-154854038D01*
X84957830Y-154834632D01*
X84968866Y-154816219D01*
X84981654Y-154798976D01*
X84996070Y-154783070D01*
X85011976Y-154768654D01*
X85029219Y-154755866D01*
X85047632Y-154744830D01*
X85067038Y-154735651D01*
X85087250Y-154728419D01*
X85108074Y-154723203D01*
X85129309Y-154720053D01*
X85150750Y-154719000D01*
X85588250Y-154719000D01*
X85609691Y-154720053D01*
G37*
G36*
X97305691Y-109520053D02*
G01*
X97326926Y-109523203D01*
X97347750Y-109528419D01*
X97367962Y-109535651D01*
X97387368Y-109544830D01*
X97405781Y-109555866D01*
X97423024Y-109568654D01*
X97438930Y-109583070D01*
X97453346Y-109598976D01*
X97466134Y-109616219D01*
X97477170Y-109634632D01*
X97486349Y-109654038D01*
X97493581Y-109674250D01*
X97498797Y-109695074D01*
X97501947Y-109716309D01*
X97503000Y-109737750D01*
X97503000Y-110175250D01*
X97501947Y-110196691D01*
X97498797Y-110217926D01*
X97493581Y-110238750D01*
X97486349Y-110258962D01*
X97477170Y-110278368D01*
X97466134Y-110296781D01*
X97453346Y-110314024D01*
X97438930Y-110329930D01*
X97423024Y-110344346D01*
X97405781Y-110357134D01*
X97387368Y-110368170D01*
X97367962Y-110377349D01*
X97347750Y-110384581D01*
X97326926Y-110389797D01*
X97305691Y-110392947D01*
X97284250Y-110394000D01*
X96771750Y-110394000D01*
X96750309Y-110392947D01*
X96729074Y-110389797D01*
X96708250Y-110384581D01*
X96688038Y-110377349D01*
X96668632Y-110368170D01*
X96650219Y-110357134D01*
X96632976Y-110344346D01*
X96617070Y-110329930D01*
X96602654Y-110314024D01*
X96589866Y-110296781D01*
X96578830Y-110278368D01*
X96569651Y-110258962D01*
X96562419Y-110238750D01*
X96557203Y-110217926D01*
X96554053Y-110196691D01*
X96553000Y-110175250D01*
X96553000Y-109737750D01*
X96554053Y-109716309D01*
X96557203Y-109695074D01*
X96562419Y-109674250D01*
X96569651Y-109654038D01*
X96578830Y-109634632D01*
X96589866Y-109616219D01*
X96602654Y-109598976D01*
X96617070Y-109583070D01*
X96632976Y-109568654D01*
X96650219Y-109555866D01*
X96668632Y-109544830D01*
X96688038Y-109535651D01*
X96708250Y-109528419D01*
X96729074Y-109523203D01*
X96750309Y-109520053D01*
X96771750Y-109519000D01*
X97284250Y-109519000D01*
X97305691Y-109520053D01*
G37*
G36*
X97305691Y-111095053D02*
G01*
X97326926Y-111098203D01*
X97347750Y-111103419D01*
X97367962Y-111110651D01*
X97387368Y-111119830D01*
X97405781Y-111130866D01*
X97423024Y-111143654D01*
X97438930Y-111158070D01*
X97453346Y-111173976D01*
X97466134Y-111191219D01*
X97477170Y-111209632D01*
X97486349Y-111229038D01*
X97493581Y-111249250D01*
X97498797Y-111270074D01*
X97501947Y-111291309D01*
X97503000Y-111312750D01*
X97503000Y-111750250D01*
X97501947Y-111771691D01*
X97498797Y-111792926D01*
X97493581Y-111813750D01*
X97486349Y-111833962D01*
X97477170Y-111853368D01*
X97466134Y-111871781D01*
X97453346Y-111889024D01*
X97438930Y-111904930D01*
X97423024Y-111919346D01*
X97405781Y-111932134D01*
X97387368Y-111943170D01*
X97367962Y-111952349D01*
X97347750Y-111959581D01*
X97326926Y-111964797D01*
X97305691Y-111967947D01*
X97284250Y-111969000D01*
X96771750Y-111969000D01*
X96750309Y-111967947D01*
X96729074Y-111964797D01*
X96708250Y-111959581D01*
X96688038Y-111952349D01*
X96668632Y-111943170D01*
X96650219Y-111932134D01*
X96632976Y-111919346D01*
X96617070Y-111904930D01*
X96602654Y-111889024D01*
X96589866Y-111871781D01*
X96578830Y-111853368D01*
X96569651Y-111833962D01*
X96562419Y-111813750D01*
X96557203Y-111792926D01*
X96554053Y-111771691D01*
X96553000Y-111750250D01*
X96553000Y-111312750D01*
X96554053Y-111291309D01*
X96557203Y-111270074D01*
X96562419Y-111249250D01*
X96569651Y-111229038D01*
X96578830Y-111209632D01*
X96589866Y-111191219D01*
X96602654Y-111173976D01*
X96617070Y-111158070D01*
X96632976Y-111143654D01*
X96650219Y-111130866D01*
X96668632Y-111119830D01*
X96688038Y-111110651D01*
X96708250Y-111103419D01*
X96729074Y-111098203D01*
X96750309Y-111095053D01*
X96771750Y-111094000D01*
X97284250Y-111094000D01*
X97305691Y-111095053D01*
G37*
G36*
X100798691Y-96300053D02*
G01*
X100819926Y-96303203D01*
X100840750Y-96308419D01*
X100860962Y-96315651D01*
X100880368Y-96324830D01*
X100898781Y-96335866D01*
X100916024Y-96348654D01*
X100931930Y-96363070D01*
X100946346Y-96378976D01*
X100959134Y-96396219D01*
X100970170Y-96414632D01*
X100979349Y-96434038D01*
X100986581Y-96454250D01*
X100991797Y-96475074D01*
X100994947Y-96496309D01*
X100996000Y-96517750D01*
X100996000Y-97030250D01*
X100994947Y-97051691D01*
X100991797Y-97072926D01*
X100986581Y-97093750D01*
X100979349Y-97113962D01*
X100970170Y-97133368D01*
X100959134Y-97151781D01*
X100946346Y-97169024D01*
X100931930Y-97184930D01*
X100916024Y-97199346D01*
X100898781Y-97212134D01*
X100880368Y-97223170D01*
X100860962Y-97232349D01*
X100840750Y-97239581D01*
X100819926Y-97244797D01*
X100798691Y-97247947D01*
X100777250Y-97249000D01*
X100339750Y-97249000D01*
X100318309Y-97247947D01*
X100297074Y-97244797D01*
X100276250Y-97239581D01*
X100256038Y-97232349D01*
X100236632Y-97223170D01*
X100218219Y-97212134D01*
X100200976Y-97199346D01*
X100185070Y-97184930D01*
X100170654Y-97169024D01*
X100157866Y-97151781D01*
X100146830Y-97133368D01*
X100137651Y-97113962D01*
X100130419Y-97093750D01*
X100125203Y-97072926D01*
X100122053Y-97051691D01*
X100121000Y-97030250D01*
X100121000Y-96517750D01*
X100122053Y-96496309D01*
X100125203Y-96475074D01*
X100130419Y-96454250D01*
X100137651Y-96434038D01*
X100146830Y-96414632D01*
X100157866Y-96396219D01*
X100170654Y-96378976D01*
X100185070Y-96363070D01*
X100200976Y-96348654D01*
X100218219Y-96335866D01*
X100236632Y-96324830D01*
X100256038Y-96315651D01*
X100276250Y-96308419D01*
X100297074Y-96303203D01*
X100318309Y-96300053D01*
X100339750Y-96299000D01*
X100777250Y-96299000D01*
X100798691Y-96300053D01*
G37*
G36*
X102373691Y-96300053D02*
G01*
X102394926Y-96303203D01*
X102415750Y-96308419D01*
X102435962Y-96315651D01*
X102455368Y-96324830D01*
X102473781Y-96335866D01*
X102491024Y-96348654D01*
X102506930Y-96363070D01*
X102521346Y-96378976D01*
X102534134Y-96396219D01*
X102545170Y-96414632D01*
X102554349Y-96434038D01*
X102561581Y-96454250D01*
X102566797Y-96475074D01*
X102569947Y-96496309D01*
X102571000Y-96517750D01*
X102571000Y-97030250D01*
X102569947Y-97051691D01*
X102566797Y-97072926D01*
X102561581Y-97093750D01*
X102554349Y-97113962D01*
X102545170Y-97133368D01*
X102534134Y-97151781D01*
X102521346Y-97169024D01*
X102506930Y-97184930D01*
X102491024Y-97199346D01*
X102473781Y-97212134D01*
X102455368Y-97223170D01*
X102435962Y-97232349D01*
X102415750Y-97239581D01*
X102394926Y-97244797D01*
X102373691Y-97247947D01*
X102352250Y-97249000D01*
X101914750Y-97249000D01*
X101893309Y-97247947D01*
X101872074Y-97244797D01*
X101851250Y-97239581D01*
X101831038Y-97232349D01*
X101811632Y-97223170D01*
X101793219Y-97212134D01*
X101775976Y-97199346D01*
X101760070Y-97184930D01*
X101745654Y-97169024D01*
X101732866Y-97151781D01*
X101721830Y-97133368D01*
X101712651Y-97113962D01*
X101705419Y-97093750D01*
X101700203Y-97072926D01*
X101697053Y-97051691D01*
X101696000Y-97030250D01*
X101696000Y-96517750D01*
X101697053Y-96496309D01*
X101700203Y-96475074D01*
X101705419Y-96454250D01*
X101712651Y-96434038D01*
X101721830Y-96414632D01*
X101732866Y-96396219D01*
X101745654Y-96378976D01*
X101760070Y-96363070D01*
X101775976Y-96348654D01*
X101793219Y-96335866D01*
X101811632Y-96324830D01*
X101831038Y-96315651D01*
X101851250Y-96308419D01*
X101872074Y-96303203D01*
X101893309Y-96300053D01*
X101914750Y-96299000D01*
X102352250Y-96299000D01*
X102373691Y-96300053D01*
G37*
G36*
X89165691Y-169960053D02*
G01*
X89186926Y-169963203D01*
X89207750Y-169968419D01*
X89227962Y-169975651D01*
X89247368Y-169984830D01*
X89265781Y-169995866D01*
X89283024Y-170008654D01*
X89298930Y-170023070D01*
X89313346Y-170038976D01*
X89326134Y-170056219D01*
X89337170Y-170074632D01*
X89346349Y-170094038D01*
X89353581Y-170114250D01*
X89358797Y-170135074D01*
X89361947Y-170156309D01*
X89363000Y-170177750D01*
X89363000Y-170690250D01*
X89361947Y-170711691D01*
X89358797Y-170732926D01*
X89353581Y-170753750D01*
X89346349Y-170773962D01*
X89337170Y-170793368D01*
X89326134Y-170811781D01*
X89313346Y-170829024D01*
X89298930Y-170844930D01*
X89283024Y-170859346D01*
X89265781Y-170872134D01*
X89247368Y-170883170D01*
X89227962Y-170892349D01*
X89207750Y-170899581D01*
X89186926Y-170904797D01*
X89165691Y-170907947D01*
X89144250Y-170909000D01*
X88706750Y-170909000D01*
X88685309Y-170907947D01*
X88664074Y-170904797D01*
X88643250Y-170899581D01*
X88623038Y-170892349D01*
X88603632Y-170883170D01*
X88585219Y-170872134D01*
X88567976Y-170859346D01*
X88552070Y-170844930D01*
X88537654Y-170829024D01*
X88524866Y-170811781D01*
X88513830Y-170793368D01*
X88504651Y-170773962D01*
X88497419Y-170753750D01*
X88492203Y-170732926D01*
X88489053Y-170711691D01*
X88488000Y-170690250D01*
X88488000Y-170177750D01*
X88489053Y-170156309D01*
X88492203Y-170135074D01*
X88497419Y-170114250D01*
X88504651Y-170094038D01*
X88513830Y-170074632D01*
X88524866Y-170056219D01*
X88537654Y-170038976D01*
X88552070Y-170023070D01*
X88567976Y-170008654D01*
X88585219Y-169995866D01*
X88603632Y-169984830D01*
X88623038Y-169975651D01*
X88643250Y-169968419D01*
X88664074Y-169963203D01*
X88685309Y-169960053D01*
X88706750Y-169959000D01*
X89144250Y-169959000D01*
X89165691Y-169960053D01*
G37*
G36*
X87590691Y-169960053D02*
G01*
X87611926Y-169963203D01*
X87632750Y-169968419D01*
X87652962Y-169975651D01*
X87672368Y-169984830D01*
X87690781Y-169995866D01*
X87708024Y-170008654D01*
X87723930Y-170023070D01*
X87738346Y-170038976D01*
X87751134Y-170056219D01*
X87762170Y-170074632D01*
X87771349Y-170094038D01*
X87778581Y-170114250D01*
X87783797Y-170135074D01*
X87786947Y-170156309D01*
X87788000Y-170177750D01*
X87788000Y-170690250D01*
X87786947Y-170711691D01*
X87783797Y-170732926D01*
X87778581Y-170753750D01*
X87771349Y-170773962D01*
X87762170Y-170793368D01*
X87751134Y-170811781D01*
X87738346Y-170829024D01*
X87723930Y-170844930D01*
X87708024Y-170859346D01*
X87690781Y-170872134D01*
X87672368Y-170883170D01*
X87652962Y-170892349D01*
X87632750Y-170899581D01*
X87611926Y-170904797D01*
X87590691Y-170907947D01*
X87569250Y-170909000D01*
X87131750Y-170909000D01*
X87110309Y-170907947D01*
X87089074Y-170904797D01*
X87068250Y-170899581D01*
X87048038Y-170892349D01*
X87028632Y-170883170D01*
X87010219Y-170872134D01*
X86992976Y-170859346D01*
X86977070Y-170844930D01*
X86962654Y-170829024D01*
X86949866Y-170811781D01*
X86938830Y-170793368D01*
X86929651Y-170773962D01*
X86922419Y-170753750D01*
X86917203Y-170732926D01*
X86914053Y-170711691D01*
X86913000Y-170690250D01*
X86913000Y-170177750D01*
X86914053Y-170156309D01*
X86917203Y-170135074D01*
X86922419Y-170114250D01*
X86929651Y-170094038D01*
X86938830Y-170074632D01*
X86949866Y-170056219D01*
X86962654Y-170038976D01*
X86977070Y-170023070D01*
X86992976Y-170008654D01*
X87010219Y-169995866D01*
X87028632Y-169984830D01*
X87048038Y-169975651D01*
X87068250Y-169968419D01*
X87089074Y-169963203D01*
X87110309Y-169960053D01*
X87131750Y-169959000D01*
X87569250Y-169959000D01*
X87590691Y-169960053D01*
G37*
G36*
X84034691Y-169960053D02*
G01*
X84055926Y-169963203D01*
X84076750Y-169968419D01*
X84096962Y-169975651D01*
X84116368Y-169984830D01*
X84134781Y-169995866D01*
X84152024Y-170008654D01*
X84167930Y-170023070D01*
X84182346Y-170038976D01*
X84195134Y-170056219D01*
X84206170Y-170074632D01*
X84215349Y-170094038D01*
X84222581Y-170114250D01*
X84227797Y-170135074D01*
X84230947Y-170156309D01*
X84232000Y-170177750D01*
X84232000Y-170690250D01*
X84230947Y-170711691D01*
X84227797Y-170732926D01*
X84222581Y-170753750D01*
X84215349Y-170773962D01*
X84206170Y-170793368D01*
X84195134Y-170811781D01*
X84182346Y-170829024D01*
X84167930Y-170844930D01*
X84152024Y-170859346D01*
X84134781Y-170872134D01*
X84116368Y-170883170D01*
X84096962Y-170892349D01*
X84076750Y-170899581D01*
X84055926Y-170904797D01*
X84034691Y-170907947D01*
X84013250Y-170909000D01*
X83575750Y-170909000D01*
X83554309Y-170907947D01*
X83533074Y-170904797D01*
X83512250Y-170899581D01*
X83492038Y-170892349D01*
X83472632Y-170883170D01*
X83454219Y-170872134D01*
X83436976Y-170859346D01*
X83421070Y-170844930D01*
X83406654Y-170829024D01*
X83393866Y-170811781D01*
X83382830Y-170793368D01*
X83373651Y-170773962D01*
X83366419Y-170753750D01*
X83361203Y-170732926D01*
X83358053Y-170711691D01*
X83357000Y-170690250D01*
X83357000Y-170177750D01*
X83358053Y-170156309D01*
X83361203Y-170135074D01*
X83366419Y-170114250D01*
X83373651Y-170094038D01*
X83382830Y-170074632D01*
X83393866Y-170056219D01*
X83406654Y-170038976D01*
X83421070Y-170023070D01*
X83436976Y-170008654D01*
X83454219Y-169995866D01*
X83472632Y-169984830D01*
X83492038Y-169975651D01*
X83512250Y-169968419D01*
X83533074Y-169963203D01*
X83554309Y-169960053D01*
X83575750Y-169959000D01*
X84013250Y-169959000D01*
X84034691Y-169960053D01*
G37*
G36*
X85609691Y-169960053D02*
G01*
X85630926Y-169963203D01*
X85651750Y-169968419D01*
X85671962Y-169975651D01*
X85691368Y-169984830D01*
X85709781Y-169995866D01*
X85727024Y-170008654D01*
X85742930Y-170023070D01*
X85757346Y-170038976D01*
X85770134Y-170056219D01*
X85781170Y-170074632D01*
X85790349Y-170094038D01*
X85797581Y-170114250D01*
X85802797Y-170135074D01*
X85805947Y-170156309D01*
X85807000Y-170177750D01*
X85807000Y-170690250D01*
X85805947Y-170711691D01*
X85802797Y-170732926D01*
X85797581Y-170753750D01*
X85790349Y-170773962D01*
X85781170Y-170793368D01*
X85770134Y-170811781D01*
X85757346Y-170829024D01*
X85742930Y-170844930D01*
X85727024Y-170859346D01*
X85709781Y-170872134D01*
X85691368Y-170883170D01*
X85671962Y-170892349D01*
X85651750Y-170899581D01*
X85630926Y-170904797D01*
X85609691Y-170907947D01*
X85588250Y-170909000D01*
X85150750Y-170909000D01*
X85129309Y-170907947D01*
X85108074Y-170904797D01*
X85087250Y-170899581D01*
X85067038Y-170892349D01*
X85047632Y-170883170D01*
X85029219Y-170872134D01*
X85011976Y-170859346D01*
X84996070Y-170844930D01*
X84981654Y-170829024D01*
X84968866Y-170811781D01*
X84957830Y-170793368D01*
X84948651Y-170773962D01*
X84941419Y-170753750D01*
X84936203Y-170732926D01*
X84933053Y-170711691D01*
X84932000Y-170690250D01*
X84932000Y-170177750D01*
X84933053Y-170156309D01*
X84936203Y-170135074D01*
X84941419Y-170114250D01*
X84948651Y-170094038D01*
X84957830Y-170074632D01*
X84968866Y-170056219D01*
X84981654Y-170038976D01*
X84996070Y-170023070D01*
X85011976Y-170008654D01*
X85029219Y-169995866D01*
X85047632Y-169984830D01*
X85067038Y-169975651D01*
X85087250Y-169968419D01*
X85108074Y-169963203D01*
X85129309Y-169960053D01*
X85150750Y-169959000D01*
X85588250Y-169959000D01*
X85609691Y-169960053D01*
G37*
G36*
X89165691Y-154720053D02*
G01*
X89186926Y-154723203D01*
X89207750Y-154728419D01*
X89227962Y-154735651D01*
X89247368Y-154744830D01*
X89265781Y-154755866D01*
X89283024Y-154768654D01*
X89298930Y-154783070D01*
X89313346Y-154798976D01*
X89326134Y-154816219D01*
X89337170Y-154834632D01*
X89346349Y-154854038D01*
X89353581Y-154874250D01*
X89358797Y-154895074D01*
X89361947Y-154916309D01*
X89363000Y-154937750D01*
X89363000Y-155450250D01*
X89361947Y-155471691D01*
X89358797Y-155492926D01*
X89353581Y-155513750D01*
X89346349Y-155533962D01*
X89337170Y-155553368D01*
X89326134Y-155571781D01*
X89313346Y-155589024D01*
X89298930Y-155604930D01*
X89283024Y-155619346D01*
X89265781Y-155632134D01*
X89247368Y-155643170D01*
X89227962Y-155652349D01*
X89207750Y-155659581D01*
X89186926Y-155664797D01*
X89165691Y-155667947D01*
X89144250Y-155669000D01*
X88706750Y-155669000D01*
X88685309Y-155667947D01*
X88664074Y-155664797D01*
X88643250Y-155659581D01*
X88623038Y-155652349D01*
X88603632Y-155643170D01*
X88585219Y-155632134D01*
X88567976Y-155619346D01*
X88552070Y-155604930D01*
X88537654Y-155589024D01*
X88524866Y-155571781D01*
X88513830Y-155553368D01*
X88504651Y-155533962D01*
X88497419Y-155513750D01*
X88492203Y-155492926D01*
X88489053Y-155471691D01*
X88488000Y-155450250D01*
X88488000Y-154937750D01*
X88489053Y-154916309D01*
X88492203Y-154895074D01*
X88497419Y-154874250D01*
X88504651Y-154854038D01*
X88513830Y-154834632D01*
X88524866Y-154816219D01*
X88537654Y-154798976D01*
X88552070Y-154783070D01*
X88567976Y-154768654D01*
X88585219Y-154755866D01*
X88603632Y-154744830D01*
X88623038Y-154735651D01*
X88643250Y-154728419D01*
X88664074Y-154723203D01*
X88685309Y-154720053D01*
X88706750Y-154719000D01*
X89144250Y-154719000D01*
X89165691Y-154720053D01*
G37*
G36*
X87590691Y-154720053D02*
G01*
X87611926Y-154723203D01*
X87632750Y-154728419D01*
X87652962Y-154735651D01*
X87672368Y-154744830D01*
X87690781Y-154755866D01*
X87708024Y-154768654D01*
X87723930Y-154783070D01*
X87738346Y-154798976D01*
X87751134Y-154816219D01*
X87762170Y-154834632D01*
X87771349Y-154854038D01*
X87778581Y-154874250D01*
X87783797Y-154895074D01*
X87786947Y-154916309D01*
X87788000Y-154937750D01*
X87788000Y-155450250D01*
X87786947Y-155471691D01*
X87783797Y-155492926D01*
X87778581Y-155513750D01*
X87771349Y-155533962D01*
X87762170Y-155553368D01*
X87751134Y-155571781D01*
X87738346Y-155589024D01*
X87723930Y-155604930D01*
X87708024Y-155619346D01*
X87690781Y-155632134D01*
X87672368Y-155643170D01*
X87652962Y-155652349D01*
X87632750Y-155659581D01*
X87611926Y-155664797D01*
X87590691Y-155667947D01*
X87569250Y-155669000D01*
X87131750Y-155669000D01*
X87110309Y-155667947D01*
X87089074Y-155664797D01*
X87068250Y-155659581D01*
X87048038Y-155652349D01*
X87028632Y-155643170D01*
X87010219Y-155632134D01*
X86992976Y-155619346D01*
X86977070Y-155604930D01*
X86962654Y-155589024D01*
X86949866Y-155571781D01*
X86938830Y-155553368D01*
X86929651Y-155533962D01*
X86922419Y-155513750D01*
X86917203Y-155492926D01*
X86914053Y-155471691D01*
X86913000Y-155450250D01*
X86913000Y-154937750D01*
X86914053Y-154916309D01*
X86917203Y-154895074D01*
X86922419Y-154874250D01*
X86929651Y-154854038D01*
X86938830Y-154834632D01*
X86949866Y-154816219D01*
X86962654Y-154798976D01*
X86977070Y-154783070D01*
X86992976Y-154768654D01*
X87010219Y-154755866D01*
X87028632Y-154744830D01*
X87048038Y-154735651D01*
X87068250Y-154728419D01*
X87089074Y-154723203D01*
X87110309Y-154720053D01*
X87131750Y-154719000D01*
X87569250Y-154719000D01*
X87590691Y-154720053D01*
G37*
M02*
