G04 #@! TF.GenerationSoftware,KiCad,Pcbnew,5.1.5-52549c5~84~ubuntu19.04.1*
G04 #@! TF.CreationDate,2020-04-14T21:23:31+02:00*
G04 #@! TF.ProjectId,osc1,6f736331-2e6b-4696-9361-645f70636258,rev?*
G04 #@! TF.SameCoordinates,Original*
G04 #@! TF.FileFunction,Soldermask,Bot*
G04 #@! TF.FilePolarity,Negative*
%FSLAX46Y46*%
G04 Gerber Fmt 4.6, Leading zero omitted, Abs format (unit mm)*
G04 Created by KiCad (PCBNEW 5.1.5-52549c5~84~ubuntu19.04.1) date 2020-04-14 21:23:31*
%MOMM*%
%LPD*%
G04 APERTURE LIST*
%ADD10C,0.100000*%
G04 APERTURE END LIST*
D10*
G36*
X78993655Y-169062591D02*
G01*
X79065525Y-169076887D01*
X79268624Y-169161013D01*
X79451409Y-169283146D01*
X79606854Y-169438591D01*
X79728987Y-169621376D01*
X79728987Y-169621377D01*
X79813113Y-169824476D01*
X79851320Y-170016552D01*
X79856000Y-170040084D01*
X79856000Y-170259916D01*
X79813113Y-170475525D01*
X79728987Y-170678624D01*
X79606854Y-170861409D01*
X79451409Y-171016854D01*
X79268624Y-171138987D01*
X79065525Y-171223113D01*
X78993655Y-171237409D01*
X78849918Y-171266000D01*
X78630082Y-171266000D01*
X78486345Y-171237409D01*
X78414475Y-171223113D01*
X78211376Y-171138987D01*
X78028591Y-171016854D01*
X77873146Y-170861409D01*
X77751013Y-170678624D01*
X77666887Y-170475525D01*
X77624000Y-170259916D01*
X77624000Y-170040084D01*
X77628681Y-170016552D01*
X77666887Y-169824476D01*
X77751013Y-169621377D01*
X77751013Y-169621376D01*
X77873146Y-169438591D01*
X78028591Y-169283146D01*
X78211376Y-169161013D01*
X78414475Y-169076887D01*
X78486345Y-169062591D01*
X78630082Y-169034000D01*
X78849918Y-169034000D01*
X78993655Y-169062591D01*
G37*
G36*
X109473655Y-169062591D02*
G01*
X109545525Y-169076887D01*
X109748624Y-169161013D01*
X109931409Y-169283146D01*
X110086854Y-169438591D01*
X110208987Y-169621376D01*
X110208987Y-169621377D01*
X110293113Y-169824476D01*
X110331320Y-170016552D01*
X110336000Y-170040084D01*
X110336000Y-170259916D01*
X110293113Y-170475525D01*
X110208987Y-170678624D01*
X110086854Y-170861409D01*
X109931409Y-171016854D01*
X109748624Y-171138987D01*
X109545525Y-171223113D01*
X109473655Y-171237409D01*
X109329918Y-171266000D01*
X109110082Y-171266000D01*
X108966345Y-171237409D01*
X108894475Y-171223113D01*
X108691376Y-171138987D01*
X108508591Y-171016854D01*
X108353146Y-170861409D01*
X108231013Y-170678624D01*
X108146887Y-170475525D01*
X108104000Y-170259916D01*
X108104000Y-170040084D01*
X108108681Y-170016552D01*
X108146887Y-169824476D01*
X108231013Y-169621377D01*
X108231013Y-169621376D01*
X108353146Y-169438591D01*
X108508591Y-169283146D01*
X108691376Y-169161013D01*
X108894475Y-169076887D01*
X108966345Y-169062591D01*
X109110082Y-169034000D01*
X109329918Y-169034000D01*
X109473655Y-169062591D01*
G37*
G36*
X94233655Y-169062591D02*
G01*
X94305525Y-169076887D01*
X94508624Y-169161013D01*
X94691409Y-169283146D01*
X94846854Y-169438591D01*
X94968987Y-169621376D01*
X94968987Y-169621377D01*
X95053113Y-169824476D01*
X95091320Y-170016552D01*
X95096000Y-170040084D01*
X95096000Y-170259916D01*
X95053113Y-170475525D01*
X94968987Y-170678624D01*
X94846854Y-170861409D01*
X94691409Y-171016854D01*
X94508624Y-171138987D01*
X94305525Y-171223113D01*
X94233655Y-171237409D01*
X94089918Y-171266000D01*
X93870082Y-171266000D01*
X93726345Y-171237409D01*
X93654475Y-171223113D01*
X93451376Y-171138987D01*
X93268591Y-171016854D01*
X93113146Y-170861409D01*
X92991013Y-170678624D01*
X92906887Y-170475525D01*
X92864000Y-170259916D01*
X92864000Y-170040084D01*
X92868681Y-170016552D01*
X92906887Y-169824476D01*
X92991013Y-169621377D01*
X92991013Y-169621376D01*
X93113146Y-169438591D01*
X93268591Y-169283146D01*
X93451376Y-169161013D01*
X93654475Y-169076887D01*
X93726345Y-169062591D01*
X93870082Y-169034000D01*
X94089918Y-169034000D01*
X94233655Y-169062591D01*
G37*
G36*
X102932591Y-169912085D02*
G01*
X102966569Y-169922393D01*
X102997890Y-169939134D01*
X103025339Y-169961661D01*
X103047866Y-169989110D01*
X103064607Y-170020431D01*
X103074915Y-170054409D01*
X103079000Y-170095890D01*
X103079000Y-170772110D01*
X103074915Y-170813591D01*
X103064607Y-170847569D01*
X103047866Y-170878890D01*
X103025339Y-170906339D01*
X102997890Y-170928866D01*
X102966569Y-170945607D01*
X102932591Y-170955915D01*
X102891110Y-170960000D01*
X102289890Y-170960000D01*
X102248409Y-170955915D01*
X102214431Y-170945607D01*
X102183110Y-170928866D01*
X102155661Y-170906339D01*
X102133134Y-170878890D01*
X102116393Y-170847569D01*
X102106085Y-170813591D01*
X102102000Y-170772110D01*
X102102000Y-170095890D01*
X102106085Y-170054409D01*
X102116393Y-170020431D01*
X102133134Y-169989110D01*
X102155661Y-169961661D01*
X102183110Y-169939134D01*
X102214431Y-169922393D01*
X102248409Y-169912085D01*
X102289890Y-169908000D01*
X102891110Y-169908000D01*
X102932591Y-169912085D01*
G37*
G36*
X104507591Y-169912085D02*
G01*
X104541569Y-169922393D01*
X104572890Y-169939134D01*
X104600339Y-169961661D01*
X104622866Y-169989110D01*
X104639607Y-170020431D01*
X104649915Y-170054409D01*
X104654000Y-170095890D01*
X104654000Y-170772110D01*
X104649915Y-170813591D01*
X104639607Y-170847569D01*
X104622866Y-170878890D01*
X104600339Y-170906339D01*
X104572890Y-170928866D01*
X104541569Y-170945607D01*
X104507591Y-170955915D01*
X104466110Y-170960000D01*
X103864890Y-170960000D01*
X103823409Y-170955915D01*
X103789431Y-170945607D01*
X103758110Y-170928866D01*
X103730661Y-170906339D01*
X103708134Y-170878890D01*
X103691393Y-170847569D01*
X103681085Y-170813591D01*
X103677000Y-170772110D01*
X103677000Y-170095890D01*
X103681085Y-170054409D01*
X103691393Y-170020431D01*
X103708134Y-169989110D01*
X103730661Y-169961661D01*
X103758110Y-169939134D01*
X103789431Y-169922393D01*
X103823409Y-169912085D01*
X103864890Y-169908000D01*
X104466110Y-169908000D01*
X104507591Y-169912085D01*
G37*
G36*
X99376591Y-169912085D02*
G01*
X99410569Y-169922393D01*
X99441890Y-169939134D01*
X99469339Y-169961661D01*
X99491866Y-169989110D01*
X99508607Y-170020431D01*
X99518915Y-170054409D01*
X99523000Y-170095890D01*
X99523000Y-170772110D01*
X99518915Y-170813591D01*
X99508607Y-170847569D01*
X99491866Y-170878890D01*
X99469339Y-170906339D01*
X99441890Y-170928866D01*
X99410569Y-170945607D01*
X99376591Y-170955915D01*
X99335110Y-170960000D01*
X98733890Y-170960000D01*
X98692409Y-170955915D01*
X98658431Y-170945607D01*
X98627110Y-170928866D01*
X98599661Y-170906339D01*
X98577134Y-170878890D01*
X98560393Y-170847569D01*
X98550085Y-170813591D01*
X98546000Y-170772110D01*
X98546000Y-170095890D01*
X98550085Y-170054409D01*
X98560393Y-170020431D01*
X98577134Y-169989110D01*
X98599661Y-169961661D01*
X98627110Y-169939134D01*
X98658431Y-169922393D01*
X98692409Y-169912085D01*
X98733890Y-169908000D01*
X99335110Y-169908000D01*
X99376591Y-169912085D01*
G37*
G36*
X100951591Y-169912085D02*
G01*
X100985569Y-169922393D01*
X101016890Y-169939134D01*
X101044339Y-169961661D01*
X101066866Y-169989110D01*
X101083607Y-170020431D01*
X101093915Y-170054409D01*
X101098000Y-170095890D01*
X101098000Y-170772110D01*
X101093915Y-170813591D01*
X101083607Y-170847569D01*
X101066866Y-170878890D01*
X101044339Y-170906339D01*
X101016890Y-170928866D01*
X100985569Y-170945607D01*
X100951591Y-170955915D01*
X100910110Y-170960000D01*
X100308890Y-170960000D01*
X100267409Y-170955915D01*
X100233431Y-170945607D01*
X100202110Y-170928866D01*
X100174661Y-170906339D01*
X100152134Y-170878890D01*
X100135393Y-170847569D01*
X100125085Y-170813591D01*
X100121000Y-170772110D01*
X100121000Y-170095890D01*
X100125085Y-170054409D01*
X100135393Y-170020431D01*
X100152134Y-169989110D01*
X100174661Y-169961661D01*
X100202110Y-169939134D01*
X100233431Y-169922393D01*
X100267409Y-169912085D01*
X100308890Y-169908000D01*
X100910110Y-169908000D01*
X100951591Y-169912085D01*
G37*
G36*
X89267591Y-169912085D02*
G01*
X89301569Y-169922393D01*
X89332890Y-169939134D01*
X89360339Y-169961661D01*
X89382866Y-169989110D01*
X89399607Y-170020431D01*
X89409915Y-170054409D01*
X89414000Y-170095890D01*
X89414000Y-170772110D01*
X89409915Y-170813591D01*
X89399607Y-170847569D01*
X89382866Y-170878890D01*
X89360339Y-170906339D01*
X89332890Y-170928866D01*
X89301569Y-170945607D01*
X89267591Y-170955915D01*
X89226110Y-170960000D01*
X88624890Y-170960000D01*
X88583409Y-170955915D01*
X88549431Y-170945607D01*
X88518110Y-170928866D01*
X88490661Y-170906339D01*
X88468134Y-170878890D01*
X88451393Y-170847569D01*
X88441085Y-170813591D01*
X88437000Y-170772110D01*
X88437000Y-170095890D01*
X88441085Y-170054409D01*
X88451393Y-170020431D01*
X88468134Y-169989110D01*
X88490661Y-169961661D01*
X88518110Y-169939134D01*
X88549431Y-169922393D01*
X88583409Y-169912085D01*
X88624890Y-169908000D01*
X89226110Y-169908000D01*
X89267591Y-169912085D01*
G37*
G36*
X87692591Y-169912085D02*
G01*
X87726569Y-169922393D01*
X87757890Y-169939134D01*
X87785339Y-169961661D01*
X87807866Y-169989110D01*
X87824607Y-170020431D01*
X87834915Y-170054409D01*
X87839000Y-170095890D01*
X87839000Y-170772110D01*
X87834915Y-170813591D01*
X87824607Y-170847569D01*
X87807866Y-170878890D01*
X87785339Y-170906339D01*
X87757890Y-170928866D01*
X87726569Y-170945607D01*
X87692591Y-170955915D01*
X87651110Y-170960000D01*
X87049890Y-170960000D01*
X87008409Y-170955915D01*
X86974431Y-170945607D01*
X86943110Y-170928866D01*
X86915661Y-170906339D01*
X86893134Y-170878890D01*
X86876393Y-170847569D01*
X86866085Y-170813591D01*
X86862000Y-170772110D01*
X86862000Y-170095890D01*
X86866085Y-170054409D01*
X86876393Y-170020431D01*
X86893134Y-169989110D01*
X86915661Y-169961661D01*
X86943110Y-169939134D01*
X86974431Y-169922393D01*
X87008409Y-169912085D01*
X87049890Y-169908000D01*
X87651110Y-169908000D01*
X87692591Y-169912085D01*
G37*
G36*
X84136591Y-169912085D02*
G01*
X84170569Y-169922393D01*
X84201890Y-169939134D01*
X84229339Y-169961661D01*
X84251866Y-169989110D01*
X84268607Y-170020431D01*
X84278915Y-170054409D01*
X84283000Y-170095890D01*
X84283000Y-170772110D01*
X84278915Y-170813591D01*
X84268607Y-170847569D01*
X84251866Y-170878890D01*
X84229339Y-170906339D01*
X84201890Y-170928866D01*
X84170569Y-170945607D01*
X84136591Y-170955915D01*
X84095110Y-170960000D01*
X83493890Y-170960000D01*
X83452409Y-170955915D01*
X83418431Y-170945607D01*
X83387110Y-170928866D01*
X83359661Y-170906339D01*
X83337134Y-170878890D01*
X83320393Y-170847569D01*
X83310085Y-170813591D01*
X83306000Y-170772110D01*
X83306000Y-170095890D01*
X83310085Y-170054409D01*
X83320393Y-170020431D01*
X83337134Y-169989110D01*
X83359661Y-169961661D01*
X83387110Y-169939134D01*
X83418431Y-169922393D01*
X83452409Y-169912085D01*
X83493890Y-169908000D01*
X84095110Y-169908000D01*
X84136591Y-169912085D01*
G37*
G36*
X85711591Y-169912085D02*
G01*
X85745569Y-169922393D01*
X85776890Y-169939134D01*
X85804339Y-169961661D01*
X85826866Y-169989110D01*
X85843607Y-170020431D01*
X85853915Y-170054409D01*
X85858000Y-170095890D01*
X85858000Y-170772110D01*
X85853915Y-170813591D01*
X85843607Y-170847569D01*
X85826866Y-170878890D01*
X85804339Y-170906339D01*
X85776890Y-170928866D01*
X85745569Y-170945607D01*
X85711591Y-170955915D01*
X85670110Y-170960000D01*
X85068890Y-170960000D01*
X85027409Y-170955915D01*
X84993431Y-170945607D01*
X84962110Y-170928866D01*
X84934661Y-170906339D01*
X84912134Y-170878890D01*
X84895393Y-170847569D01*
X84885085Y-170813591D01*
X84881000Y-170772110D01*
X84881000Y-170095890D01*
X84885085Y-170054409D01*
X84895393Y-170020431D01*
X84912134Y-169989110D01*
X84934661Y-169961661D01*
X84962110Y-169939134D01*
X84993431Y-169922393D01*
X85027409Y-169912085D01*
X85068890Y-169908000D01*
X85670110Y-169908000D01*
X85711591Y-169912085D01*
G37*
G36*
X84136591Y-167118085D02*
G01*
X84170569Y-167128393D01*
X84201890Y-167145134D01*
X84229339Y-167167661D01*
X84251866Y-167195110D01*
X84268607Y-167226431D01*
X84278915Y-167260409D01*
X84283000Y-167301890D01*
X84283000Y-167978110D01*
X84278915Y-168019591D01*
X84268607Y-168053569D01*
X84251866Y-168084890D01*
X84229339Y-168112339D01*
X84201890Y-168134866D01*
X84170569Y-168151607D01*
X84136591Y-168161915D01*
X84095110Y-168166000D01*
X83493890Y-168166000D01*
X83452409Y-168161915D01*
X83418431Y-168151607D01*
X83387110Y-168134866D01*
X83359661Y-168112339D01*
X83337134Y-168084890D01*
X83320393Y-168053569D01*
X83310085Y-168019591D01*
X83306000Y-167978110D01*
X83306000Y-167301890D01*
X83310085Y-167260409D01*
X83320393Y-167226431D01*
X83337134Y-167195110D01*
X83359661Y-167167661D01*
X83387110Y-167145134D01*
X83418431Y-167128393D01*
X83452409Y-167118085D01*
X83493890Y-167114000D01*
X84095110Y-167114000D01*
X84136591Y-167118085D01*
G37*
G36*
X89267591Y-167118085D02*
G01*
X89301569Y-167128393D01*
X89332890Y-167145134D01*
X89360339Y-167167661D01*
X89382866Y-167195110D01*
X89399607Y-167226431D01*
X89409915Y-167260409D01*
X89414000Y-167301890D01*
X89414000Y-167978110D01*
X89409915Y-168019591D01*
X89399607Y-168053569D01*
X89382866Y-168084890D01*
X89360339Y-168112339D01*
X89332890Y-168134866D01*
X89301569Y-168151607D01*
X89267591Y-168161915D01*
X89226110Y-168166000D01*
X88624890Y-168166000D01*
X88583409Y-168161915D01*
X88549431Y-168151607D01*
X88518110Y-168134866D01*
X88490661Y-168112339D01*
X88468134Y-168084890D01*
X88451393Y-168053569D01*
X88441085Y-168019591D01*
X88437000Y-167978110D01*
X88437000Y-167301890D01*
X88441085Y-167260409D01*
X88451393Y-167226431D01*
X88468134Y-167195110D01*
X88490661Y-167167661D01*
X88518110Y-167145134D01*
X88549431Y-167128393D01*
X88583409Y-167118085D01*
X88624890Y-167114000D01*
X89226110Y-167114000D01*
X89267591Y-167118085D01*
G37*
G36*
X99376591Y-167118085D02*
G01*
X99410569Y-167128393D01*
X99441890Y-167145134D01*
X99469339Y-167167661D01*
X99491866Y-167195110D01*
X99508607Y-167226431D01*
X99518915Y-167260409D01*
X99523000Y-167301890D01*
X99523000Y-167978110D01*
X99518915Y-168019591D01*
X99508607Y-168053569D01*
X99491866Y-168084890D01*
X99469339Y-168112339D01*
X99441890Y-168134866D01*
X99410569Y-168151607D01*
X99376591Y-168161915D01*
X99335110Y-168166000D01*
X98733890Y-168166000D01*
X98692409Y-168161915D01*
X98658431Y-168151607D01*
X98627110Y-168134866D01*
X98599661Y-168112339D01*
X98577134Y-168084890D01*
X98560393Y-168053569D01*
X98550085Y-168019591D01*
X98546000Y-167978110D01*
X98546000Y-167301890D01*
X98550085Y-167260409D01*
X98560393Y-167226431D01*
X98577134Y-167195110D01*
X98599661Y-167167661D01*
X98627110Y-167145134D01*
X98658431Y-167128393D01*
X98692409Y-167118085D01*
X98733890Y-167114000D01*
X99335110Y-167114000D01*
X99376591Y-167118085D01*
G37*
G36*
X100951591Y-167118085D02*
G01*
X100985569Y-167128393D01*
X101016890Y-167145134D01*
X101044339Y-167167661D01*
X101066866Y-167195110D01*
X101083607Y-167226431D01*
X101093915Y-167260409D01*
X101098000Y-167301890D01*
X101098000Y-167978110D01*
X101093915Y-168019591D01*
X101083607Y-168053569D01*
X101066866Y-168084890D01*
X101044339Y-168112339D01*
X101016890Y-168134866D01*
X100985569Y-168151607D01*
X100951591Y-168161915D01*
X100910110Y-168166000D01*
X100308890Y-168166000D01*
X100267409Y-168161915D01*
X100233431Y-168151607D01*
X100202110Y-168134866D01*
X100174661Y-168112339D01*
X100152134Y-168084890D01*
X100135393Y-168053569D01*
X100125085Y-168019591D01*
X100121000Y-167978110D01*
X100121000Y-167301890D01*
X100125085Y-167260409D01*
X100135393Y-167226431D01*
X100152134Y-167195110D01*
X100174661Y-167167661D01*
X100202110Y-167145134D01*
X100233431Y-167128393D01*
X100267409Y-167118085D01*
X100308890Y-167114000D01*
X100910110Y-167114000D01*
X100951591Y-167118085D01*
G37*
G36*
X85711591Y-167118085D02*
G01*
X85745569Y-167128393D01*
X85776890Y-167145134D01*
X85804339Y-167167661D01*
X85826866Y-167195110D01*
X85843607Y-167226431D01*
X85853915Y-167260409D01*
X85858000Y-167301890D01*
X85858000Y-167978110D01*
X85853915Y-168019591D01*
X85843607Y-168053569D01*
X85826866Y-168084890D01*
X85804339Y-168112339D01*
X85776890Y-168134866D01*
X85745569Y-168151607D01*
X85711591Y-168161915D01*
X85670110Y-168166000D01*
X85068890Y-168166000D01*
X85027409Y-168161915D01*
X84993431Y-168151607D01*
X84962110Y-168134866D01*
X84934661Y-168112339D01*
X84912134Y-168084890D01*
X84895393Y-168053569D01*
X84885085Y-168019591D01*
X84881000Y-167978110D01*
X84881000Y-167301890D01*
X84885085Y-167260409D01*
X84895393Y-167226431D01*
X84912134Y-167195110D01*
X84934661Y-167167661D01*
X84962110Y-167145134D01*
X84993431Y-167128393D01*
X85027409Y-167118085D01*
X85068890Y-167114000D01*
X85670110Y-167114000D01*
X85711591Y-167118085D01*
G37*
G36*
X102932591Y-167118085D02*
G01*
X102966569Y-167128393D01*
X102997890Y-167145134D01*
X103025339Y-167167661D01*
X103047866Y-167195110D01*
X103064607Y-167226431D01*
X103074915Y-167260409D01*
X103079000Y-167301890D01*
X103079000Y-167978110D01*
X103074915Y-168019591D01*
X103064607Y-168053569D01*
X103047866Y-168084890D01*
X103025339Y-168112339D01*
X102997890Y-168134866D01*
X102966569Y-168151607D01*
X102932591Y-168161915D01*
X102891110Y-168166000D01*
X102289890Y-168166000D01*
X102248409Y-168161915D01*
X102214431Y-168151607D01*
X102183110Y-168134866D01*
X102155661Y-168112339D01*
X102133134Y-168084890D01*
X102116393Y-168053569D01*
X102106085Y-168019591D01*
X102102000Y-167978110D01*
X102102000Y-167301890D01*
X102106085Y-167260409D01*
X102116393Y-167226431D01*
X102133134Y-167195110D01*
X102155661Y-167167661D01*
X102183110Y-167145134D01*
X102214431Y-167128393D01*
X102248409Y-167118085D01*
X102289890Y-167114000D01*
X102891110Y-167114000D01*
X102932591Y-167118085D01*
G37*
G36*
X104507591Y-167118085D02*
G01*
X104541569Y-167128393D01*
X104572890Y-167145134D01*
X104600339Y-167167661D01*
X104622866Y-167195110D01*
X104639607Y-167226431D01*
X104649915Y-167260409D01*
X104654000Y-167301890D01*
X104654000Y-167978110D01*
X104649915Y-168019591D01*
X104639607Y-168053569D01*
X104622866Y-168084890D01*
X104600339Y-168112339D01*
X104572890Y-168134866D01*
X104541569Y-168151607D01*
X104507591Y-168161915D01*
X104466110Y-168166000D01*
X103864890Y-168166000D01*
X103823409Y-168161915D01*
X103789431Y-168151607D01*
X103758110Y-168134866D01*
X103730661Y-168112339D01*
X103708134Y-168084890D01*
X103691393Y-168053569D01*
X103681085Y-168019591D01*
X103677000Y-167978110D01*
X103677000Y-167301890D01*
X103681085Y-167260409D01*
X103691393Y-167226431D01*
X103708134Y-167195110D01*
X103730661Y-167167661D01*
X103758110Y-167145134D01*
X103789431Y-167128393D01*
X103823409Y-167118085D01*
X103864890Y-167114000D01*
X104466110Y-167114000D01*
X104507591Y-167118085D01*
G37*
G36*
X87692591Y-167118085D02*
G01*
X87726569Y-167128393D01*
X87757890Y-167145134D01*
X87785339Y-167167661D01*
X87807866Y-167195110D01*
X87824607Y-167226431D01*
X87834915Y-167260409D01*
X87839000Y-167301890D01*
X87839000Y-167978110D01*
X87834915Y-168019591D01*
X87824607Y-168053569D01*
X87807866Y-168084890D01*
X87785339Y-168112339D01*
X87757890Y-168134866D01*
X87726569Y-168151607D01*
X87692591Y-168161915D01*
X87651110Y-168166000D01*
X87049890Y-168166000D01*
X87008409Y-168161915D01*
X86974431Y-168151607D01*
X86943110Y-168134866D01*
X86915661Y-168112339D01*
X86893134Y-168084890D01*
X86876393Y-168053569D01*
X86866085Y-168019591D01*
X86862000Y-167978110D01*
X86862000Y-167301890D01*
X86866085Y-167260409D01*
X86876393Y-167226431D01*
X86893134Y-167195110D01*
X86915661Y-167167661D01*
X86943110Y-167145134D01*
X86974431Y-167128393D01*
X87008409Y-167118085D01*
X87049890Y-167114000D01*
X87651110Y-167114000D01*
X87692591Y-167118085D01*
G37*
G36*
X99376591Y-164324085D02*
G01*
X99410569Y-164334393D01*
X99441890Y-164351134D01*
X99469339Y-164373661D01*
X99491866Y-164401110D01*
X99508607Y-164432431D01*
X99518915Y-164466409D01*
X99523000Y-164507890D01*
X99523000Y-165184110D01*
X99518915Y-165225591D01*
X99508607Y-165259569D01*
X99491866Y-165290890D01*
X99469339Y-165318339D01*
X99441890Y-165340866D01*
X99410569Y-165357607D01*
X99376591Y-165367915D01*
X99335110Y-165372000D01*
X98733890Y-165372000D01*
X98692409Y-165367915D01*
X98658431Y-165357607D01*
X98627110Y-165340866D01*
X98599661Y-165318339D01*
X98577134Y-165290890D01*
X98560393Y-165259569D01*
X98550085Y-165225591D01*
X98546000Y-165184110D01*
X98546000Y-164507890D01*
X98550085Y-164466409D01*
X98560393Y-164432431D01*
X98577134Y-164401110D01*
X98599661Y-164373661D01*
X98627110Y-164351134D01*
X98658431Y-164334393D01*
X98692409Y-164324085D01*
X98733890Y-164320000D01*
X99335110Y-164320000D01*
X99376591Y-164324085D01*
G37*
G36*
X100951591Y-164324085D02*
G01*
X100985569Y-164334393D01*
X101016890Y-164351134D01*
X101044339Y-164373661D01*
X101066866Y-164401110D01*
X101083607Y-164432431D01*
X101093915Y-164466409D01*
X101098000Y-164507890D01*
X101098000Y-165184110D01*
X101093915Y-165225591D01*
X101083607Y-165259569D01*
X101066866Y-165290890D01*
X101044339Y-165318339D01*
X101016890Y-165340866D01*
X100985569Y-165357607D01*
X100951591Y-165367915D01*
X100910110Y-165372000D01*
X100308890Y-165372000D01*
X100267409Y-165367915D01*
X100233431Y-165357607D01*
X100202110Y-165340866D01*
X100174661Y-165318339D01*
X100152134Y-165290890D01*
X100135393Y-165259569D01*
X100125085Y-165225591D01*
X100121000Y-165184110D01*
X100121000Y-164507890D01*
X100125085Y-164466409D01*
X100135393Y-164432431D01*
X100152134Y-164401110D01*
X100174661Y-164373661D01*
X100202110Y-164351134D01*
X100233431Y-164334393D01*
X100267409Y-164324085D01*
X100308890Y-164320000D01*
X100910110Y-164320000D01*
X100951591Y-164324085D01*
G37*
G36*
X102932591Y-164324085D02*
G01*
X102966569Y-164334393D01*
X102997890Y-164351134D01*
X103025339Y-164373661D01*
X103047866Y-164401110D01*
X103064607Y-164432431D01*
X103074915Y-164466409D01*
X103079000Y-164507890D01*
X103079000Y-165184110D01*
X103074915Y-165225591D01*
X103064607Y-165259569D01*
X103047866Y-165290890D01*
X103025339Y-165318339D01*
X102997890Y-165340866D01*
X102966569Y-165357607D01*
X102932591Y-165367915D01*
X102891110Y-165372000D01*
X102289890Y-165372000D01*
X102248409Y-165367915D01*
X102214431Y-165357607D01*
X102183110Y-165340866D01*
X102155661Y-165318339D01*
X102133134Y-165290890D01*
X102116393Y-165259569D01*
X102106085Y-165225591D01*
X102102000Y-165184110D01*
X102102000Y-164507890D01*
X102106085Y-164466409D01*
X102116393Y-164432431D01*
X102133134Y-164401110D01*
X102155661Y-164373661D01*
X102183110Y-164351134D01*
X102214431Y-164334393D01*
X102248409Y-164324085D01*
X102289890Y-164320000D01*
X102891110Y-164320000D01*
X102932591Y-164324085D01*
G37*
G36*
X104507591Y-164324085D02*
G01*
X104541569Y-164334393D01*
X104572890Y-164351134D01*
X104600339Y-164373661D01*
X104622866Y-164401110D01*
X104639607Y-164432431D01*
X104649915Y-164466409D01*
X104654000Y-164507890D01*
X104654000Y-165184110D01*
X104649915Y-165225591D01*
X104639607Y-165259569D01*
X104622866Y-165290890D01*
X104600339Y-165318339D01*
X104572890Y-165340866D01*
X104541569Y-165357607D01*
X104507591Y-165367915D01*
X104466110Y-165372000D01*
X103864890Y-165372000D01*
X103823409Y-165367915D01*
X103789431Y-165357607D01*
X103758110Y-165340866D01*
X103730661Y-165318339D01*
X103708134Y-165290890D01*
X103691393Y-165259569D01*
X103681085Y-165225591D01*
X103677000Y-165184110D01*
X103677000Y-164507890D01*
X103681085Y-164466409D01*
X103691393Y-164432431D01*
X103708134Y-164401110D01*
X103730661Y-164373661D01*
X103758110Y-164351134D01*
X103789431Y-164334393D01*
X103823409Y-164324085D01*
X103864890Y-164320000D01*
X104466110Y-164320000D01*
X104507591Y-164324085D01*
G37*
G36*
X84106000Y-165247000D02*
G01*
X83404000Y-165247000D01*
X83404000Y-164445000D01*
X84106000Y-164445000D01*
X84106000Y-165247000D01*
G37*
G36*
X87789000Y-165247000D02*
G01*
X87087000Y-165247000D01*
X87087000Y-164445000D01*
X87789000Y-164445000D01*
X87789000Y-165247000D01*
G37*
G36*
X89189000Y-165247000D02*
G01*
X88487000Y-165247000D01*
X88487000Y-164445000D01*
X89189000Y-164445000D01*
X89189000Y-165247000D01*
G37*
G36*
X85506000Y-165247000D02*
G01*
X84804000Y-165247000D01*
X84804000Y-164445000D01*
X85506000Y-164445000D01*
X85506000Y-165247000D01*
G37*
G36*
X78993655Y-160762591D02*
G01*
X79065525Y-160776887D01*
X79268624Y-160861013D01*
X79451409Y-160983146D01*
X79606854Y-161138591D01*
X79728987Y-161321376D01*
X79728987Y-161321377D01*
X79813113Y-161524476D01*
X79856000Y-161740082D01*
X79856000Y-161959918D01*
X79848624Y-161997000D01*
X79813113Y-162175525D01*
X79728987Y-162378624D01*
X79606854Y-162561409D01*
X79451409Y-162716854D01*
X79268624Y-162838987D01*
X79065525Y-162923113D01*
X78993655Y-162937409D01*
X78849918Y-162966000D01*
X78630082Y-162966000D01*
X78486345Y-162937409D01*
X78414475Y-162923113D01*
X78211376Y-162838987D01*
X78028591Y-162716854D01*
X77873146Y-162561409D01*
X77751013Y-162378624D01*
X77666887Y-162175525D01*
X77631376Y-161997000D01*
X77624000Y-161959918D01*
X77624000Y-161740082D01*
X77666887Y-161524476D01*
X77751013Y-161321377D01*
X77751013Y-161321376D01*
X77873146Y-161138591D01*
X78028591Y-160983146D01*
X78211376Y-160861013D01*
X78414475Y-160776887D01*
X78486345Y-160762591D01*
X78630082Y-160734000D01*
X78849918Y-160734000D01*
X78993655Y-160762591D01*
G37*
G36*
X94233655Y-160762591D02*
G01*
X94305525Y-160776887D01*
X94508624Y-160861013D01*
X94691409Y-160983146D01*
X94846854Y-161138591D01*
X94968987Y-161321376D01*
X94968987Y-161321377D01*
X95053113Y-161524476D01*
X95096000Y-161740082D01*
X95096000Y-161959918D01*
X95088624Y-161997000D01*
X95053113Y-162175525D01*
X94968987Y-162378624D01*
X94846854Y-162561409D01*
X94691409Y-162716854D01*
X94508624Y-162838987D01*
X94305525Y-162923113D01*
X94233655Y-162937409D01*
X94089918Y-162966000D01*
X93870082Y-162966000D01*
X93726345Y-162937409D01*
X93654475Y-162923113D01*
X93451376Y-162838987D01*
X93268591Y-162716854D01*
X93113146Y-162561409D01*
X92991013Y-162378624D01*
X92906887Y-162175525D01*
X92871376Y-161997000D01*
X92864000Y-161959918D01*
X92864000Y-161740082D01*
X92906887Y-161524476D01*
X92991013Y-161321377D01*
X92991013Y-161321376D01*
X93113146Y-161138591D01*
X93268591Y-160983146D01*
X93451376Y-160861013D01*
X93654475Y-160776887D01*
X93726345Y-160762591D01*
X93870082Y-160734000D01*
X94089918Y-160734000D01*
X94233655Y-160762591D01*
G37*
G36*
X109473655Y-160762591D02*
G01*
X109545525Y-160776887D01*
X109748624Y-160861013D01*
X109931409Y-160983146D01*
X110086854Y-161138591D01*
X110208987Y-161321376D01*
X110208987Y-161321377D01*
X110293113Y-161524476D01*
X110336000Y-161740082D01*
X110336000Y-161959918D01*
X110328624Y-161997000D01*
X110293113Y-162175525D01*
X110208987Y-162378624D01*
X110086854Y-162561409D01*
X109931409Y-162716854D01*
X109748624Y-162838987D01*
X109545525Y-162923113D01*
X109473655Y-162937409D01*
X109329918Y-162966000D01*
X109110082Y-162966000D01*
X108966345Y-162937409D01*
X108894475Y-162923113D01*
X108691376Y-162838987D01*
X108508591Y-162716854D01*
X108353146Y-162561409D01*
X108231013Y-162378624D01*
X108146887Y-162175525D01*
X108111376Y-161997000D01*
X108104000Y-161959918D01*
X108104000Y-161740082D01*
X108146887Y-161524476D01*
X108231013Y-161321377D01*
X108231013Y-161321376D01*
X108353146Y-161138591D01*
X108508591Y-160983146D01*
X108691376Y-160861013D01*
X108894475Y-160776887D01*
X108966345Y-160762591D01*
X109110082Y-160734000D01*
X109329918Y-160734000D01*
X109473655Y-160762591D01*
G37*
G36*
X99954928Y-160147764D02*
G01*
X99976009Y-160154160D01*
X99995445Y-160164548D01*
X100012476Y-160178524D01*
X100026452Y-160195555D01*
X100036840Y-160214991D01*
X100043236Y-160236072D01*
X100046000Y-160264140D01*
X100046000Y-161877860D01*
X100043236Y-161905928D01*
X100036840Y-161927009D01*
X100026452Y-161946445D01*
X100012476Y-161963476D01*
X99995445Y-161977452D01*
X99976009Y-161987840D01*
X99954928Y-161994236D01*
X99926860Y-161997000D01*
X99463140Y-161997000D01*
X99435072Y-161994236D01*
X99413991Y-161987840D01*
X99394555Y-161977452D01*
X99377524Y-161963476D01*
X99363548Y-161946445D01*
X99353160Y-161927009D01*
X99346764Y-161905928D01*
X99344000Y-161877860D01*
X99344000Y-160264140D01*
X99346764Y-160236072D01*
X99353160Y-160214991D01*
X99363548Y-160195555D01*
X99377524Y-160178524D01*
X99394555Y-160164548D01*
X99413991Y-160154160D01*
X99435072Y-160147764D01*
X99463140Y-160145000D01*
X99926860Y-160145000D01*
X99954928Y-160147764D01*
G37*
G36*
X101224928Y-160147764D02*
G01*
X101246009Y-160154160D01*
X101265445Y-160164548D01*
X101282476Y-160178524D01*
X101296452Y-160195555D01*
X101306840Y-160214991D01*
X101313236Y-160236072D01*
X101316000Y-160264140D01*
X101316000Y-161877860D01*
X101313236Y-161905928D01*
X101306840Y-161927009D01*
X101296452Y-161946445D01*
X101282476Y-161963476D01*
X101265445Y-161977452D01*
X101246009Y-161987840D01*
X101224928Y-161994236D01*
X101196860Y-161997000D01*
X100733140Y-161997000D01*
X100705072Y-161994236D01*
X100683991Y-161987840D01*
X100664555Y-161977452D01*
X100647524Y-161963476D01*
X100633548Y-161946445D01*
X100623160Y-161927009D01*
X100616764Y-161905928D01*
X100614000Y-161877860D01*
X100614000Y-160264140D01*
X100616764Y-160236072D01*
X100623160Y-160214991D01*
X100633548Y-160195555D01*
X100647524Y-160178524D01*
X100664555Y-160164548D01*
X100683991Y-160154160D01*
X100705072Y-160147764D01*
X100733140Y-160145000D01*
X101196860Y-160145000D01*
X101224928Y-160147764D01*
G37*
G36*
X103764928Y-160147764D02*
G01*
X103786009Y-160154160D01*
X103805445Y-160164548D01*
X103822476Y-160178524D01*
X103836452Y-160195555D01*
X103846840Y-160214991D01*
X103853236Y-160236072D01*
X103856000Y-160264140D01*
X103856000Y-161877860D01*
X103853236Y-161905928D01*
X103846840Y-161927009D01*
X103836452Y-161946445D01*
X103822476Y-161963476D01*
X103805445Y-161977452D01*
X103786009Y-161987840D01*
X103764928Y-161994236D01*
X103736860Y-161997000D01*
X103273140Y-161997000D01*
X103245072Y-161994236D01*
X103223991Y-161987840D01*
X103204555Y-161977452D01*
X103187524Y-161963476D01*
X103173548Y-161946445D01*
X103163160Y-161927009D01*
X103156764Y-161905928D01*
X103154000Y-161877860D01*
X103154000Y-160264140D01*
X103156764Y-160236072D01*
X103163160Y-160214991D01*
X103173548Y-160195555D01*
X103187524Y-160178524D01*
X103204555Y-160164548D01*
X103223991Y-160154160D01*
X103245072Y-160147764D01*
X103273140Y-160145000D01*
X103736860Y-160145000D01*
X103764928Y-160147764D01*
G37*
G36*
X102494928Y-160147764D02*
G01*
X102516009Y-160154160D01*
X102535445Y-160164548D01*
X102552476Y-160178524D01*
X102566452Y-160195555D01*
X102576840Y-160214991D01*
X102583236Y-160236072D01*
X102586000Y-160264140D01*
X102586000Y-161877860D01*
X102583236Y-161905928D01*
X102576840Y-161927009D01*
X102566452Y-161946445D01*
X102552476Y-161963476D01*
X102535445Y-161977452D01*
X102516009Y-161987840D01*
X102494928Y-161994236D01*
X102466860Y-161997000D01*
X102003140Y-161997000D01*
X101975072Y-161994236D01*
X101953991Y-161987840D01*
X101934555Y-161977452D01*
X101917524Y-161963476D01*
X101903548Y-161946445D01*
X101893160Y-161927009D01*
X101886764Y-161905928D01*
X101884000Y-161877860D01*
X101884000Y-160264140D01*
X101886764Y-160236072D01*
X101893160Y-160214991D01*
X101903548Y-160195555D01*
X101917524Y-160178524D01*
X101934555Y-160164548D01*
X101953991Y-160154160D01*
X101975072Y-160147764D01*
X102003140Y-160145000D01*
X102466860Y-160145000D01*
X102494928Y-160147764D01*
G37*
G36*
X105789591Y-158824585D02*
G01*
X105823569Y-158834893D01*
X105854890Y-158851634D01*
X105882339Y-158874161D01*
X105904866Y-158901610D01*
X105921607Y-158932931D01*
X105931915Y-158966909D01*
X105936000Y-159008390D01*
X105936000Y-159609610D01*
X105931915Y-159651091D01*
X105921607Y-159685069D01*
X105904866Y-159716390D01*
X105882339Y-159743839D01*
X105854890Y-159766366D01*
X105823569Y-159783107D01*
X105789591Y-159793415D01*
X105748110Y-159797500D01*
X105071890Y-159797500D01*
X105030409Y-159793415D01*
X104996431Y-159783107D01*
X104965110Y-159766366D01*
X104937661Y-159743839D01*
X104915134Y-159716390D01*
X104898393Y-159685069D01*
X104888085Y-159651091D01*
X104884000Y-159609610D01*
X104884000Y-159008390D01*
X104888085Y-158966909D01*
X104898393Y-158932931D01*
X104915134Y-158901610D01*
X104937661Y-158874161D01*
X104965110Y-158851634D01*
X104996431Y-158834893D01*
X105030409Y-158824585D01*
X105071890Y-158820500D01*
X105748110Y-158820500D01*
X105789591Y-158824585D01*
G37*
G36*
X79756000Y-159716000D02*
G01*
X77724000Y-159716000D01*
X77724000Y-157784000D01*
X79756000Y-157784000D01*
X79756000Y-159716000D01*
G37*
G36*
X94996000Y-159716000D02*
G01*
X92964000Y-159716000D01*
X92964000Y-157784000D01*
X94996000Y-157784000D01*
X94996000Y-159716000D01*
G37*
G36*
X110236000Y-159716000D02*
G01*
X108204000Y-159716000D01*
X108204000Y-157784000D01*
X110236000Y-157784000D01*
X110236000Y-159716000D01*
G37*
G36*
X105789591Y-157249585D02*
G01*
X105823569Y-157259893D01*
X105854890Y-157276634D01*
X105882339Y-157299161D01*
X105904866Y-157326610D01*
X105921607Y-157357931D01*
X105931915Y-157391909D01*
X105936000Y-157433390D01*
X105936000Y-158034610D01*
X105931915Y-158076091D01*
X105921607Y-158110069D01*
X105904866Y-158141390D01*
X105882339Y-158168839D01*
X105854890Y-158191366D01*
X105823569Y-158208107D01*
X105789591Y-158218415D01*
X105748110Y-158222500D01*
X105071890Y-158222500D01*
X105030409Y-158218415D01*
X104996431Y-158208107D01*
X104965110Y-158191366D01*
X104937661Y-158168839D01*
X104915134Y-158141390D01*
X104898393Y-158110069D01*
X104888085Y-158076091D01*
X104884000Y-158034610D01*
X104884000Y-157433390D01*
X104888085Y-157391909D01*
X104898393Y-157357931D01*
X104915134Y-157326610D01*
X104937661Y-157299161D01*
X104965110Y-157276634D01*
X104996431Y-157259893D01*
X105030409Y-157249585D01*
X105071890Y-157245500D01*
X105748110Y-157245500D01*
X105789591Y-157249585D01*
G37*
G36*
X99954928Y-154997764D02*
G01*
X99976009Y-155004160D01*
X99995445Y-155014548D01*
X100012476Y-155028524D01*
X100026452Y-155045555D01*
X100036840Y-155064991D01*
X100043236Y-155086072D01*
X100046000Y-155114140D01*
X100046000Y-156727860D01*
X100043236Y-156755928D01*
X100036840Y-156777009D01*
X100026452Y-156796445D01*
X100012476Y-156813476D01*
X99995445Y-156827452D01*
X99976009Y-156837840D01*
X99954928Y-156844236D01*
X99926860Y-156847000D01*
X99463140Y-156847000D01*
X99435072Y-156844236D01*
X99413991Y-156837840D01*
X99394555Y-156827452D01*
X99377524Y-156813476D01*
X99363548Y-156796445D01*
X99353160Y-156777009D01*
X99346764Y-156755928D01*
X99344000Y-156727860D01*
X99344000Y-155114140D01*
X99346764Y-155086072D01*
X99353160Y-155064991D01*
X99363548Y-155045555D01*
X99377524Y-155028524D01*
X99394555Y-155014548D01*
X99413991Y-155004160D01*
X99435072Y-154997764D01*
X99463140Y-154995000D01*
X99926860Y-154995000D01*
X99954928Y-154997764D01*
G37*
G36*
X101224928Y-154997764D02*
G01*
X101246009Y-155004160D01*
X101265445Y-155014548D01*
X101282476Y-155028524D01*
X101296452Y-155045555D01*
X101306840Y-155064991D01*
X101313236Y-155086072D01*
X101316000Y-155114140D01*
X101316000Y-156727860D01*
X101313236Y-156755928D01*
X101306840Y-156777009D01*
X101296452Y-156796445D01*
X101282476Y-156813476D01*
X101265445Y-156827452D01*
X101246009Y-156837840D01*
X101224928Y-156844236D01*
X101196860Y-156847000D01*
X100733140Y-156847000D01*
X100705072Y-156844236D01*
X100683991Y-156837840D01*
X100664555Y-156827452D01*
X100647524Y-156813476D01*
X100633548Y-156796445D01*
X100623160Y-156777009D01*
X100616764Y-156755928D01*
X100614000Y-156727860D01*
X100614000Y-155114140D01*
X100616764Y-155086072D01*
X100623160Y-155064991D01*
X100633548Y-155045555D01*
X100647524Y-155028524D01*
X100664555Y-155014548D01*
X100683991Y-155004160D01*
X100705072Y-154997764D01*
X100733140Y-154995000D01*
X101196860Y-154995000D01*
X101224928Y-154997764D01*
G37*
G36*
X102494928Y-154997764D02*
G01*
X102516009Y-155004160D01*
X102535445Y-155014548D01*
X102552476Y-155028524D01*
X102566452Y-155045555D01*
X102576840Y-155064991D01*
X102583236Y-155086072D01*
X102586000Y-155114140D01*
X102586000Y-156727860D01*
X102583236Y-156755928D01*
X102576840Y-156777009D01*
X102566452Y-156796445D01*
X102552476Y-156813476D01*
X102535445Y-156827452D01*
X102516009Y-156837840D01*
X102494928Y-156844236D01*
X102466860Y-156847000D01*
X102003140Y-156847000D01*
X101975072Y-156844236D01*
X101953991Y-156837840D01*
X101934555Y-156827452D01*
X101917524Y-156813476D01*
X101903548Y-156796445D01*
X101893160Y-156777009D01*
X101886764Y-156755928D01*
X101884000Y-156727860D01*
X101884000Y-155114140D01*
X101886764Y-155086072D01*
X101893160Y-155064991D01*
X101903548Y-155045555D01*
X101917524Y-155028524D01*
X101934555Y-155014548D01*
X101953991Y-155004160D01*
X101975072Y-154997764D01*
X102003140Y-154995000D01*
X102466860Y-154995000D01*
X102494928Y-154997764D01*
G37*
G36*
X103764928Y-154997764D02*
G01*
X103786009Y-155004160D01*
X103805445Y-155014548D01*
X103822476Y-155028524D01*
X103836452Y-155045555D01*
X103846840Y-155064991D01*
X103853236Y-155086072D01*
X103856000Y-155114140D01*
X103856000Y-156727860D01*
X103853236Y-156755928D01*
X103846840Y-156777009D01*
X103836452Y-156796445D01*
X103822476Y-156813476D01*
X103805445Y-156827452D01*
X103786009Y-156837840D01*
X103764928Y-156844236D01*
X103736860Y-156847000D01*
X103273140Y-156847000D01*
X103245072Y-156844236D01*
X103223991Y-156837840D01*
X103204555Y-156827452D01*
X103187524Y-156813476D01*
X103173548Y-156796445D01*
X103163160Y-156777009D01*
X103156764Y-156755928D01*
X103154000Y-156727860D01*
X103154000Y-155114140D01*
X103156764Y-155086072D01*
X103163160Y-155064991D01*
X103173548Y-155045555D01*
X103187524Y-155028524D01*
X103204555Y-155014548D01*
X103223991Y-155004160D01*
X103245072Y-154997764D01*
X103273140Y-154995000D01*
X103736860Y-154995000D01*
X103764928Y-154997764D01*
G37*
G36*
X109473655Y-153822591D02*
G01*
X109545525Y-153836887D01*
X109748624Y-153921013D01*
X109931409Y-154043146D01*
X110086854Y-154198591D01*
X110208987Y-154381376D01*
X110208987Y-154381377D01*
X110293113Y-154584476D01*
X110336000Y-154800082D01*
X110336000Y-155019918D01*
X110327034Y-155064991D01*
X110293113Y-155235525D01*
X110208987Y-155438624D01*
X110086854Y-155621409D01*
X109931409Y-155776854D01*
X109748624Y-155898987D01*
X109545525Y-155983113D01*
X109473655Y-155997409D01*
X109329918Y-156026000D01*
X109110082Y-156026000D01*
X108966345Y-155997409D01*
X108894475Y-155983113D01*
X108691376Y-155898987D01*
X108508591Y-155776854D01*
X108353146Y-155621409D01*
X108231013Y-155438624D01*
X108146887Y-155235525D01*
X108112966Y-155064991D01*
X108104000Y-155019918D01*
X108104000Y-154800082D01*
X108146887Y-154584476D01*
X108231013Y-154381377D01*
X108231013Y-154381376D01*
X108353146Y-154198591D01*
X108508591Y-154043146D01*
X108691376Y-153921013D01*
X108894475Y-153836887D01*
X108966345Y-153822591D01*
X109110082Y-153794000D01*
X109329918Y-153794000D01*
X109473655Y-153822591D01*
G37*
G36*
X78993655Y-153822591D02*
G01*
X79065525Y-153836887D01*
X79268624Y-153921013D01*
X79451409Y-154043146D01*
X79606854Y-154198591D01*
X79728987Y-154381376D01*
X79728987Y-154381377D01*
X79813113Y-154584476D01*
X79856000Y-154800082D01*
X79856000Y-155019918D01*
X79847034Y-155064991D01*
X79813113Y-155235525D01*
X79728987Y-155438624D01*
X79606854Y-155621409D01*
X79451409Y-155776854D01*
X79268624Y-155898987D01*
X79065525Y-155983113D01*
X78993655Y-155997409D01*
X78849918Y-156026000D01*
X78630082Y-156026000D01*
X78486345Y-155997409D01*
X78414475Y-155983113D01*
X78211376Y-155898987D01*
X78028591Y-155776854D01*
X77873146Y-155621409D01*
X77751013Y-155438624D01*
X77666887Y-155235525D01*
X77632966Y-155064991D01*
X77624000Y-155019918D01*
X77624000Y-154800082D01*
X77666887Y-154584476D01*
X77751013Y-154381377D01*
X77751013Y-154381376D01*
X77873146Y-154198591D01*
X78028591Y-154043146D01*
X78211376Y-153921013D01*
X78414475Y-153836887D01*
X78486345Y-153822591D01*
X78630082Y-153794000D01*
X78849918Y-153794000D01*
X78993655Y-153822591D01*
G37*
G36*
X94233655Y-153822591D02*
G01*
X94305525Y-153836887D01*
X94508624Y-153921013D01*
X94691409Y-154043146D01*
X94846854Y-154198591D01*
X94968987Y-154381376D01*
X94968987Y-154381377D01*
X95053113Y-154584476D01*
X95096000Y-154800082D01*
X95096000Y-155019918D01*
X95087034Y-155064991D01*
X95053113Y-155235525D01*
X94968987Y-155438624D01*
X94846854Y-155621409D01*
X94691409Y-155776854D01*
X94508624Y-155898987D01*
X94305525Y-155983113D01*
X94233655Y-155997409D01*
X94089918Y-156026000D01*
X93870082Y-156026000D01*
X93726345Y-155997409D01*
X93654475Y-155983113D01*
X93451376Y-155898987D01*
X93268591Y-155776854D01*
X93113146Y-155621409D01*
X92991013Y-155438624D01*
X92906887Y-155235525D01*
X92872966Y-155064991D01*
X92864000Y-155019918D01*
X92864000Y-154800082D01*
X92906887Y-154584476D01*
X92991013Y-154381377D01*
X92991013Y-154381376D01*
X93113146Y-154198591D01*
X93268591Y-154043146D01*
X93451376Y-153921013D01*
X93654475Y-153836887D01*
X93726345Y-153822591D01*
X93870082Y-153794000D01*
X94089918Y-153794000D01*
X94233655Y-153822591D01*
G37*
G36*
X87692591Y-154672085D02*
G01*
X87726569Y-154682393D01*
X87757890Y-154699134D01*
X87785339Y-154721661D01*
X87807866Y-154749110D01*
X87824607Y-154780431D01*
X87834915Y-154814409D01*
X87839000Y-154855890D01*
X87839000Y-155532110D01*
X87834915Y-155573591D01*
X87824607Y-155607569D01*
X87807866Y-155638890D01*
X87785339Y-155666339D01*
X87757890Y-155688866D01*
X87726569Y-155705607D01*
X87692591Y-155715915D01*
X87651110Y-155720000D01*
X87049890Y-155720000D01*
X87008409Y-155715915D01*
X86974431Y-155705607D01*
X86943110Y-155688866D01*
X86915661Y-155666339D01*
X86893134Y-155638890D01*
X86876393Y-155607569D01*
X86866085Y-155573591D01*
X86862000Y-155532110D01*
X86862000Y-154855890D01*
X86866085Y-154814409D01*
X86876393Y-154780431D01*
X86893134Y-154749110D01*
X86915661Y-154721661D01*
X86943110Y-154699134D01*
X86974431Y-154682393D01*
X87008409Y-154672085D01*
X87049890Y-154668000D01*
X87651110Y-154668000D01*
X87692591Y-154672085D01*
G37*
G36*
X85711591Y-154672085D02*
G01*
X85745569Y-154682393D01*
X85776890Y-154699134D01*
X85804339Y-154721661D01*
X85826866Y-154749110D01*
X85843607Y-154780431D01*
X85853915Y-154814409D01*
X85858000Y-154855890D01*
X85858000Y-155532110D01*
X85853915Y-155573591D01*
X85843607Y-155607569D01*
X85826866Y-155638890D01*
X85804339Y-155666339D01*
X85776890Y-155688866D01*
X85745569Y-155705607D01*
X85711591Y-155715915D01*
X85670110Y-155720000D01*
X85068890Y-155720000D01*
X85027409Y-155715915D01*
X84993431Y-155705607D01*
X84962110Y-155688866D01*
X84934661Y-155666339D01*
X84912134Y-155638890D01*
X84895393Y-155607569D01*
X84885085Y-155573591D01*
X84881000Y-155532110D01*
X84881000Y-154855890D01*
X84885085Y-154814409D01*
X84895393Y-154780431D01*
X84912134Y-154749110D01*
X84934661Y-154721661D01*
X84962110Y-154699134D01*
X84993431Y-154682393D01*
X85027409Y-154672085D01*
X85068890Y-154668000D01*
X85670110Y-154668000D01*
X85711591Y-154672085D01*
G37*
G36*
X84136591Y-154672085D02*
G01*
X84170569Y-154682393D01*
X84201890Y-154699134D01*
X84229339Y-154721661D01*
X84251866Y-154749110D01*
X84268607Y-154780431D01*
X84278915Y-154814409D01*
X84283000Y-154855890D01*
X84283000Y-155532110D01*
X84278915Y-155573591D01*
X84268607Y-155607569D01*
X84251866Y-155638890D01*
X84229339Y-155666339D01*
X84201890Y-155688866D01*
X84170569Y-155705607D01*
X84136591Y-155715915D01*
X84095110Y-155720000D01*
X83493890Y-155720000D01*
X83452409Y-155715915D01*
X83418431Y-155705607D01*
X83387110Y-155688866D01*
X83359661Y-155666339D01*
X83337134Y-155638890D01*
X83320393Y-155607569D01*
X83310085Y-155573591D01*
X83306000Y-155532110D01*
X83306000Y-154855890D01*
X83310085Y-154814409D01*
X83320393Y-154780431D01*
X83337134Y-154749110D01*
X83359661Y-154721661D01*
X83387110Y-154699134D01*
X83418431Y-154682393D01*
X83452409Y-154672085D01*
X83493890Y-154668000D01*
X84095110Y-154668000D01*
X84136591Y-154672085D01*
G37*
G36*
X89267591Y-154672085D02*
G01*
X89301569Y-154682393D01*
X89332890Y-154699134D01*
X89360339Y-154721661D01*
X89382866Y-154749110D01*
X89399607Y-154780431D01*
X89409915Y-154814409D01*
X89414000Y-154855890D01*
X89414000Y-155532110D01*
X89409915Y-155573591D01*
X89399607Y-155607569D01*
X89382866Y-155638890D01*
X89360339Y-155666339D01*
X89332890Y-155688866D01*
X89301569Y-155705607D01*
X89267591Y-155715915D01*
X89226110Y-155720000D01*
X88624890Y-155720000D01*
X88583409Y-155715915D01*
X88549431Y-155705607D01*
X88518110Y-155688866D01*
X88490661Y-155666339D01*
X88468134Y-155638890D01*
X88451393Y-155607569D01*
X88441085Y-155573591D01*
X88437000Y-155532110D01*
X88437000Y-154855890D01*
X88441085Y-154814409D01*
X88451393Y-154780431D01*
X88468134Y-154749110D01*
X88490661Y-154721661D01*
X88518110Y-154699134D01*
X88549431Y-154682393D01*
X88583409Y-154672085D01*
X88624890Y-154668000D01*
X89226110Y-154668000D01*
X89267591Y-154672085D01*
G37*
G36*
X99376591Y-152132085D02*
G01*
X99410569Y-152142393D01*
X99441890Y-152159134D01*
X99469339Y-152181661D01*
X99491866Y-152209110D01*
X99508607Y-152240431D01*
X99518915Y-152274409D01*
X99523000Y-152315890D01*
X99523000Y-152992110D01*
X99518915Y-153033591D01*
X99508607Y-153067569D01*
X99491866Y-153098890D01*
X99469339Y-153126339D01*
X99441890Y-153148866D01*
X99410569Y-153165607D01*
X99376591Y-153175915D01*
X99335110Y-153180000D01*
X98733890Y-153180000D01*
X98692409Y-153175915D01*
X98658431Y-153165607D01*
X98627110Y-153148866D01*
X98599661Y-153126339D01*
X98577134Y-153098890D01*
X98560393Y-153067569D01*
X98550085Y-153033591D01*
X98546000Y-152992110D01*
X98546000Y-152315890D01*
X98550085Y-152274409D01*
X98560393Y-152240431D01*
X98577134Y-152209110D01*
X98599661Y-152181661D01*
X98627110Y-152159134D01*
X98658431Y-152142393D01*
X98692409Y-152132085D01*
X98733890Y-152128000D01*
X99335110Y-152128000D01*
X99376591Y-152132085D01*
G37*
G36*
X104507591Y-152132085D02*
G01*
X104541569Y-152142393D01*
X104572890Y-152159134D01*
X104600339Y-152181661D01*
X104622866Y-152209110D01*
X104639607Y-152240431D01*
X104649915Y-152274409D01*
X104654000Y-152315890D01*
X104654000Y-152992110D01*
X104649915Y-153033591D01*
X104639607Y-153067569D01*
X104622866Y-153098890D01*
X104600339Y-153126339D01*
X104572890Y-153148866D01*
X104541569Y-153165607D01*
X104507591Y-153175915D01*
X104466110Y-153180000D01*
X103864890Y-153180000D01*
X103823409Y-153175915D01*
X103789431Y-153165607D01*
X103758110Y-153148866D01*
X103730661Y-153126339D01*
X103708134Y-153098890D01*
X103691393Y-153067569D01*
X103681085Y-153033591D01*
X103677000Y-152992110D01*
X103677000Y-152315890D01*
X103681085Y-152274409D01*
X103691393Y-152240431D01*
X103708134Y-152209110D01*
X103730661Y-152181661D01*
X103758110Y-152159134D01*
X103789431Y-152142393D01*
X103823409Y-152132085D01*
X103864890Y-152128000D01*
X104466110Y-152128000D01*
X104507591Y-152132085D01*
G37*
G36*
X102932591Y-152132085D02*
G01*
X102966569Y-152142393D01*
X102997890Y-152159134D01*
X103025339Y-152181661D01*
X103047866Y-152209110D01*
X103064607Y-152240431D01*
X103074915Y-152274409D01*
X103079000Y-152315890D01*
X103079000Y-152992110D01*
X103074915Y-153033591D01*
X103064607Y-153067569D01*
X103047866Y-153098890D01*
X103025339Y-153126339D01*
X102997890Y-153148866D01*
X102966569Y-153165607D01*
X102932591Y-153175915D01*
X102891110Y-153180000D01*
X102289890Y-153180000D01*
X102248409Y-153175915D01*
X102214431Y-153165607D01*
X102183110Y-153148866D01*
X102155661Y-153126339D01*
X102133134Y-153098890D01*
X102116393Y-153067569D01*
X102106085Y-153033591D01*
X102102000Y-152992110D01*
X102102000Y-152315890D01*
X102106085Y-152274409D01*
X102116393Y-152240431D01*
X102133134Y-152209110D01*
X102155661Y-152181661D01*
X102183110Y-152159134D01*
X102214431Y-152142393D01*
X102248409Y-152132085D01*
X102289890Y-152128000D01*
X102891110Y-152128000D01*
X102932591Y-152132085D01*
G37*
G36*
X100951591Y-152132085D02*
G01*
X100985569Y-152142393D01*
X101016890Y-152159134D01*
X101044339Y-152181661D01*
X101066866Y-152209110D01*
X101083607Y-152240431D01*
X101093915Y-152274409D01*
X101098000Y-152315890D01*
X101098000Y-152992110D01*
X101093915Y-153033591D01*
X101083607Y-153067569D01*
X101066866Y-153098890D01*
X101044339Y-153126339D01*
X101016890Y-153148866D01*
X100985569Y-153165607D01*
X100951591Y-153175915D01*
X100910110Y-153180000D01*
X100308890Y-153180000D01*
X100267409Y-153175915D01*
X100233431Y-153165607D01*
X100202110Y-153148866D01*
X100174661Y-153126339D01*
X100152134Y-153098890D01*
X100135393Y-153067569D01*
X100125085Y-153033591D01*
X100121000Y-152992110D01*
X100121000Y-152315890D01*
X100125085Y-152274409D01*
X100135393Y-152240431D01*
X100152134Y-152209110D01*
X100174661Y-152181661D01*
X100202110Y-152159134D01*
X100233431Y-152142393D01*
X100267409Y-152132085D01*
X100308890Y-152128000D01*
X100910110Y-152128000D01*
X100951591Y-152132085D01*
G37*
G36*
X89267591Y-151878085D02*
G01*
X89301569Y-151888393D01*
X89332890Y-151905134D01*
X89360339Y-151927661D01*
X89382866Y-151955110D01*
X89399607Y-151986431D01*
X89409915Y-152020409D01*
X89414000Y-152061890D01*
X89414000Y-152738110D01*
X89409915Y-152779591D01*
X89399607Y-152813569D01*
X89382866Y-152844890D01*
X89360339Y-152872339D01*
X89332890Y-152894866D01*
X89301569Y-152911607D01*
X89267591Y-152921915D01*
X89226110Y-152926000D01*
X88624890Y-152926000D01*
X88583409Y-152921915D01*
X88549431Y-152911607D01*
X88518110Y-152894866D01*
X88490661Y-152872339D01*
X88468134Y-152844890D01*
X88451393Y-152813569D01*
X88441085Y-152779591D01*
X88437000Y-152738110D01*
X88437000Y-152061890D01*
X88441085Y-152020409D01*
X88451393Y-151986431D01*
X88468134Y-151955110D01*
X88490661Y-151927661D01*
X88518110Y-151905134D01*
X88549431Y-151888393D01*
X88583409Y-151878085D01*
X88624890Y-151874000D01*
X89226110Y-151874000D01*
X89267591Y-151878085D01*
G37*
G36*
X87692591Y-151878085D02*
G01*
X87726569Y-151888393D01*
X87757890Y-151905134D01*
X87785339Y-151927661D01*
X87807866Y-151955110D01*
X87824607Y-151986431D01*
X87834915Y-152020409D01*
X87839000Y-152061890D01*
X87839000Y-152738110D01*
X87834915Y-152779591D01*
X87824607Y-152813569D01*
X87807866Y-152844890D01*
X87785339Y-152872339D01*
X87757890Y-152894866D01*
X87726569Y-152911607D01*
X87692591Y-152921915D01*
X87651110Y-152926000D01*
X87049890Y-152926000D01*
X87008409Y-152921915D01*
X86974431Y-152911607D01*
X86943110Y-152894866D01*
X86915661Y-152872339D01*
X86893134Y-152844890D01*
X86876393Y-152813569D01*
X86866085Y-152779591D01*
X86862000Y-152738110D01*
X86862000Y-152061890D01*
X86866085Y-152020409D01*
X86876393Y-151986431D01*
X86893134Y-151955110D01*
X86915661Y-151927661D01*
X86943110Y-151905134D01*
X86974431Y-151888393D01*
X87008409Y-151878085D01*
X87049890Y-151874000D01*
X87651110Y-151874000D01*
X87692591Y-151878085D01*
G37*
G36*
X99376591Y-149338085D02*
G01*
X99410569Y-149348393D01*
X99441890Y-149365134D01*
X99469339Y-149387661D01*
X99491866Y-149415110D01*
X99508607Y-149446431D01*
X99518915Y-149480409D01*
X99523000Y-149521890D01*
X99523000Y-150198110D01*
X99518915Y-150239591D01*
X99508607Y-150273569D01*
X99491866Y-150304890D01*
X99469339Y-150332339D01*
X99441890Y-150354866D01*
X99410569Y-150371607D01*
X99376591Y-150381915D01*
X99335110Y-150386000D01*
X98733890Y-150386000D01*
X98692409Y-150381915D01*
X98658431Y-150371607D01*
X98627110Y-150354866D01*
X98599661Y-150332339D01*
X98577134Y-150304890D01*
X98560393Y-150273569D01*
X98550085Y-150239591D01*
X98546000Y-150198110D01*
X98546000Y-149521890D01*
X98550085Y-149480409D01*
X98560393Y-149446431D01*
X98577134Y-149415110D01*
X98599661Y-149387661D01*
X98627110Y-149365134D01*
X98658431Y-149348393D01*
X98692409Y-149338085D01*
X98733890Y-149334000D01*
X99335110Y-149334000D01*
X99376591Y-149338085D01*
G37*
G36*
X102932591Y-149338085D02*
G01*
X102966569Y-149348393D01*
X102997890Y-149365134D01*
X103025339Y-149387661D01*
X103047866Y-149415110D01*
X103064607Y-149446431D01*
X103074915Y-149480409D01*
X103079000Y-149521890D01*
X103079000Y-150198110D01*
X103074915Y-150239591D01*
X103064607Y-150273569D01*
X103047866Y-150304890D01*
X103025339Y-150332339D01*
X102997890Y-150354866D01*
X102966569Y-150371607D01*
X102932591Y-150381915D01*
X102891110Y-150386000D01*
X102289890Y-150386000D01*
X102248409Y-150381915D01*
X102214431Y-150371607D01*
X102183110Y-150354866D01*
X102155661Y-150332339D01*
X102133134Y-150304890D01*
X102116393Y-150273569D01*
X102106085Y-150239591D01*
X102102000Y-150198110D01*
X102102000Y-149521890D01*
X102106085Y-149480409D01*
X102116393Y-149446431D01*
X102133134Y-149415110D01*
X102155661Y-149387661D01*
X102183110Y-149365134D01*
X102214431Y-149348393D01*
X102248409Y-149338085D01*
X102289890Y-149334000D01*
X102891110Y-149334000D01*
X102932591Y-149338085D01*
G37*
G36*
X100951591Y-149338085D02*
G01*
X100985569Y-149348393D01*
X101016890Y-149365134D01*
X101044339Y-149387661D01*
X101066866Y-149415110D01*
X101083607Y-149446431D01*
X101093915Y-149480409D01*
X101098000Y-149521890D01*
X101098000Y-150198110D01*
X101093915Y-150239591D01*
X101083607Y-150273569D01*
X101066866Y-150304890D01*
X101044339Y-150332339D01*
X101016890Y-150354866D01*
X100985569Y-150371607D01*
X100951591Y-150381915D01*
X100910110Y-150386000D01*
X100308890Y-150386000D01*
X100267409Y-150381915D01*
X100233431Y-150371607D01*
X100202110Y-150354866D01*
X100174661Y-150332339D01*
X100152134Y-150304890D01*
X100135393Y-150273569D01*
X100125085Y-150239591D01*
X100121000Y-150198110D01*
X100121000Y-149521890D01*
X100125085Y-149480409D01*
X100135393Y-149446431D01*
X100152134Y-149415110D01*
X100174661Y-149387661D01*
X100202110Y-149365134D01*
X100233431Y-149348393D01*
X100267409Y-149338085D01*
X100308890Y-149334000D01*
X100910110Y-149334000D01*
X100951591Y-149338085D01*
G37*
G36*
X104507591Y-149338085D02*
G01*
X104541569Y-149348393D01*
X104572890Y-149365134D01*
X104600339Y-149387661D01*
X104622866Y-149415110D01*
X104639607Y-149446431D01*
X104649915Y-149480409D01*
X104654000Y-149521890D01*
X104654000Y-150198110D01*
X104649915Y-150239591D01*
X104639607Y-150273569D01*
X104622866Y-150304890D01*
X104600339Y-150332339D01*
X104572890Y-150354866D01*
X104541569Y-150371607D01*
X104507591Y-150381915D01*
X104466110Y-150386000D01*
X103864890Y-150386000D01*
X103823409Y-150381915D01*
X103789431Y-150371607D01*
X103758110Y-150354866D01*
X103730661Y-150332339D01*
X103708134Y-150304890D01*
X103691393Y-150273569D01*
X103681085Y-150239591D01*
X103677000Y-150198110D01*
X103677000Y-149521890D01*
X103681085Y-149480409D01*
X103691393Y-149446431D01*
X103708134Y-149415110D01*
X103730661Y-149387661D01*
X103758110Y-149365134D01*
X103789431Y-149348393D01*
X103823409Y-149338085D01*
X103864890Y-149334000D01*
X104466110Y-149334000D01*
X104507591Y-149338085D01*
G37*
G36*
X78993655Y-145522591D02*
G01*
X79065525Y-145536887D01*
X79268624Y-145621013D01*
X79451409Y-145743146D01*
X79606854Y-145898591D01*
X79728987Y-146081376D01*
X79813113Y-146284475D01*
X79856000Y-146500084D01*
X79856000Y-146719916D01*
X79813113Y-146935525D01*
X79728987Y-147138624D01*
X79606854Y-147321409D01*
X79451409Y-147476854D01*
X79268624Y-147598987D01*
X79065525Y-147683113D01*
X78993655Y-147697409D01*
X78849918Y-147726000D01*
X78630082Y-147726000D01*
X78486345Y-147697409D01*
X78414475Y-147683113D01*
X78211376Y-147598987D01*
X78028591Y-147476854D01*
X77873146Y-147321409D01*
X77751013Y-147138624D01*
X77666887Y-146935525D01*
X77624000Y-146719916D01*
X77624000Y-146500084D01*
X77666887Y-146284475D01*
X77751013Y-146081376D01*
X77873146Y-145898591D01*
X78028591Y-145743146D01*
X78211376Y-145621013D01*
X78414475Y-145536887D01*
X78486345Y-145522591D01*
X78630082Y-145494000D01*
X78849918Y-145494000D01*
X78993655Y-145522591D01*
G37*
G36*
X109473655Y-145522591D02*
G01*
X109545525Y-145536887D01*
X109748624Y-145621013D01*
X109931409Y-145743146D01*
X110086854Y-145898591D01*
X110208987Y-146081376D01*
X110293113Y-146284475D01*
X110336000Y-146500084D01*
X110336000Y-146719916D01*
X110293113Y-146935525D01*
X110208987Y-147138624D01*
X110086854Y-147321409D01*
X109931409Y-147476854D01*
X109748624Y-147598987D01*
X109545525Y-147683113D01*
X109473655Y-147697409D01*
X109329918Y-147726000D01*
X109110082Y-147726000D01*
X108966345Y-147697409D01*
X108894475Y-147683113D01*
X108691376Y-147598987D01*
X108508591Y-147476854D01*
X108353146Y-147321409D01*
X108231013Y-147138624D01*
X108146887Y-146935525D01*
X108104000Y-146719916D01*
X108104000Y-146500084D01*
X108146887Y-146284475D01*
X108231013Y-146081376D01*
X108353146Y-145898591D01*
X108508591Y-145743146D01*
X108691376Y-145621013D01*
X108894475Y-145536887D01*
X108966345Y-145522591D01*
X109110082Y-145494000D01*
X109329918Y-145494000D01*
X109473655Y-145522591D01*
G37*
G36*
X94233655Y-145522591D02*
G01*
X94305525Y-145536887D01*
X94508624Y-145621013D01*
X94691409Y-145743146D01*
X94846854Y-145898591D01*
X94968987Y-146081376D01*
X95053113Y-146284475D01*
X95096000Y-146500084D01*
X95096000Y-146719916D01*
X95053113Y-146935525D01*
X94968987Y-147138624D01*
X94846854Y-147321409D01*
X94691409Y-147476854D01*
X94508624Y-147598987D01*
X94305525Y-147683113D01*
X94233655Y-147697409D01*
X94089918Y-147726000D01*
X93870082Y-147726000D01*
X93726345Y-147697409D01*
X93654475Y-147683113D01*
X93451376Y-147598987D01*
X93268591Y-147476854D01*
X93113146Y-147321409D01*
X92991013Y-147138624D01*
X92906887Y-146935525D01*
X92864000Y-146719916D01*
X92864000Y-146500084D01*
X92906887Y-146284475D01*
X92991013Y-146081376D01*
X93113146Y-145898591D01*
X93268591Y-145743146D01*
X93451376Y-145621013D01*
X93654475Y-145536887D01*
X93726345Y-145522591D01*
X93870082Y-145494000D01*
X94089918Y-145494000D01*
X94233655Y-145522591D01*
G37*
G36*
X102932591Y-146544085D02*
G01*
X102966569Y-146554393D01*
X102997890Y-146571134D01*
X103025339Y-146593661D01*
X103047866Y-146621110D01*
X103064607Y-146652431D01*
X103074915Y-146686409D01*
X103079000Y-146727890D01*
X103079000Y-147404110D01*
X103074915Y-147445591D01*
X103064607Y-147479569D01*
X103047866Y-147510890D01*
X103025339Y-147538339D01*
X102997890Y-147560866D01*
X102966569Y-147577607D01*
X102932591Y-147587915D01*
X102891110Y-147592000D01*
X102289890Y-147592000D01*
X102248409Y-147587915D01*
X102214431Y-147577607D01*
X102183110Y-147560866D01*
X102155661Y-147538339D01*
X102133134Y-147510890D01*
X102116393Y-147479569D01*
X102106085Y-147445591D01*
X102102000Y-147404110D01*
X102102000Y-146727890D01*
X102106085Y-146686409D01*
X102116393Y-146652431D01*
X102133134Y-146621110D01*
X102155661Y-146593661D01*
X102183110Y-146571134D01*
X102214431Y-146554393D01*
X102248409Y-146544085D01*
X102289890Y-146540000D01*
X102891110Y-146540000D01*
X102932591Y-146544085D01*
G37*
G36*
X100951591Y-146544085D02*
G01*
X100985569Y-146554393D01*
X101016890Y-146571134D01*
X101044339Y-146593661D01*
X101066866Y-146621110D01*
X101083607Y-146652431D01*
X101093915Y-146686409D01*
X101098000Y-146727890D01*
X101098000Y-147404110D01*
X101093915Y-147445591D01*
X101083607Y-147479569D01*
X101066866Y-147510890D01*
X101044339Y-147538339D01*
X101016890Y-147560866D01*
X100985569Y-147577607D01*
X100951591Y-147587915D01*
X100910110Y-147592000D01*
X100308890Y-147592000D01*
X100267409Y-147587915D01*
X100233431Y-147577607D01*
X100202110Y-147560866D01*
X100174661Y-147538339D01*
X100152134Y-147510890D01*
X100135393Y-147479569D01*
X100125085Y-147445591D01*
X100121000Y-147404110D01*
X100121000Y-146727890D01*
X100125085Y-146686409D01*
X100135393Y-146652431D01*
X100152134Y-146621110D01*
X100174661Y-146593661D01*
X100202110Y-146571134D01*
X100233431Y-146554393D01*
X100267409Y-146544085D01*
X100308890Y-146540000D01*
X100910110Y-146540000D01*
X100951591Y-146544085D01*
G37*
G36*
X99376591Y-146544085D02*
G01*
X99410569Y-146554393D01*
X99441890Y-146571134D01*
X99469339Y-146593661D01*
X99491866Y-146621110D01*
X99508607Y-146652431D01*
X99518915Y-146686409D01*
X99523000Y-146727890D01*
X99523000Y-147404110D01*
X99518915Y-147445591D01*
X99508607Y-147479569D01*
X99491866Y-147510890D01*
X99469339Y-147538339D01*
X99441890Y-147560866D01*
X99410569Y-147577607D01*
X99376591Y-147587915D01*
X99335110Y-147592000D01*
X98733890Y-147592000D01*
X98692409Y-147587915D01*
X98658431Y-147577607D01*
X98627110Y-147560866D01*
X98599661Y-147538339D01*
X98577134Y-147510890D01*
X98560393Y-147479569D01*
X98550085Y-147445591D01*
X98546000Y-147404110D01*
X98546000Y-146727890D01*
X98550085Y-146686409D01*
X98560393Y-146652431D01*
X98577134Y-146621110D01*
X98599661Y-146593661D01*
X98627110Y-146571134D01*
X98658431Y-146554393D01*
X98692409Y-146544085D01*
X98733890Y-146540000D01*
X99335110Y-146540000D01*
X99376591Y-146544085D01*
G37*
G36*
X104507591Y-146544085D02*
G01*
X104541569Y-146554393D01*
X104572890Y-146571134D01*
X104600339Y-146593661D01*
X104622866Y-146621110D01*
X104639607Y-146652431D01*
X104649915Y-146686409D01*
X104654000Y-146727890D01*
X104654000Y-147404110D01*
X104649915Y-147445591D01*
X104639607Y-147479569D01*
X104622866Y-147510890D01*
X104600339Y-147538339D01*
X104572890Y-147560866D01*
X104541569Y-147577607D01*
X104507591Y-147587915D01*
X104466110Y-147592000D01*
X103864890Y-147592000D01*
X103823409Y-147587915D01*
X103789431Y-147577607D01*
X103758110Y-147560866D01*
X103730661Y-147538339D01*
X103708134Y-147510890D01*
X103691393Y-147479569D01*
X103681085Y-147445591D01*
X103677000Y-147404110D01*
X103677000Y-146727890D01*
X103681085Y-146686409D01*
X103691393Y-146652431D01*
X103708134Y-146621110D01*
X103730661Y-146593661D01*
X103758110Y-146571134D01*
X103789431Y-146554393D01*
X103823409Y-146544085D01*
X103864890Y-146540000D01*
X104466110Y-146540000D01*
X104507591Y-146544085D01*
G37*
G36*
X110236000Y-144476000D02*
G01*
X108204000Y-144476000D01*
X108204000Y-142544000D01*
X110236000Y-142544000D01*
X110236000Y-144476000D01*
G37*
G36*
X79756000Y-144476000D02*
G01*
X77724000Y-144476000D01*
X77724000Y-142544000D01*
X79756000Y-142544000D01*
X79756000Y-144476000D01*
G37*
G36*
X94996000Y-144476000D02*
G01*
X92964000Y-144476000D01*
X92964000Y-142544000D01*
X94996000Y-142544000D01*
X94996000Y-144476000D01*
G37*
G36*
X104507591Y-141718085D02*
G01*
X104541569Y-141728393D01*
X104572890Y-141745134D01*
X104600339Y-141767661D01*
X104622866Y-141795110D01*
X104639607Y-141826431D01*
X104649915Y-141860409D01*
X104654000Y-141901890D01*
X104654000Y-142578110D01*
X104649915Y-142619591D01*
X104639607Y-142653569D01*
X104622866Y-142684890D01*
X104600339Y-142712339D01*
X104572890Y-142734866D01*
X104541569Y-142751607D01*
X104507591Y-142761915D01*
X104466110Y-142766000D01*
X103864890Y-142766000D01*
X103823409Y-142761915D01*
X103789431Y-142751607D01*
X103758110Y-142734866D01*
X103730661Y-142712339D01*
X103708134Y-142684890D01*
X103691393Y-142653569D01*
X103681085Y-142619591D01*
X103677000Y-142578110D01*
X103677000Y-141901890D01*
X103681085Y-141860409D01*
X103691393Y-141826431D01*
X103708134Y-141795110D01*
X103730661Y-141767661D01*
X103758110Y-141745134D01*
X103789431Y-141728393D01*
X103823409Y-141718085D01*
X103864890Y-141714000D01*
X104466110Y-141714000D01*
X104507591Y-141718085D01*
G37*
G36*
X102932591Y-141718085D02*
G01*
X102966569Y-141728393D01*
X102997890Y-141745134D01*
X103025339Y-141767661D01*
X103047866Y-141795110D01*
X103064607Y-141826431D01*
X103074915Y-141860409D01*
X103079000Y-141901890D01*
X103079000Y-142578110D01*
X103074915Y-142619591D01*
X103064607Y-142653569D01*
X103047866Y-142684890D01*
X103025339Y-142712339D01*
X102997890Y-142734866D01*
X102966569Y-142751607D01*
X102932591Y-142761915D01*
X102891110Y-142766000D01*
X102289890Y-142766000D01*
X102248409Y-142761915D01*
X102214431Y-142751607D01*
X102183110Y-142734866D01*
X102155661Y-142712339D01*
X102133134Y-142684890D01*
X102116393Y-142653569D01*
X102106085Y-142619591D01*
X102102000Y-142578110D01*
X102102000Y-141901890D01*
X102106085Y-141860409D01*
X102116393Y-141826431D01*
X102133134Y-141795110D01*
X102155661Y-141767661D01*
X102183110Y-141745134D01*
X102214431Y-141728393D01*
X102248409Y-141718085D01*
X102289890Y-141714000D01*
X102891110Y-141714000D01*
X102932591Y-141718085D01*
G37*
G36*
X99376591Y-141718085D02*
G01*
X99410569Y-141728393D01*
X99441890Y-141745134D01*
X99469339Y-141767661D01*
X99491866Y-141795110D01*
X99508607Y-141826431D01*
X99518915Y-141860409D01*
X99523000Y-141901890D01*
X99523000Y-142578110D01*
X99518915Y-142619591D01*
X99508607Y-142653569D01*
X99491866Y-142684890D01*
X99469339Y-142712339D01*
X99441890Y-142734866D01*
X99410569Y-142751607D01*
X99376591Y-142761915D01*
X99335110Y-142766000D01*
X98733890Y-142766000D01*
X98692409Y-142761915D01*
X98658431Y-142751607D01*
X98627110Y-142734866D01*
X98599661Y-142712339D01*
X98577134Y-142684890D01*
X98560393Y-142653569D01*
X98550085Y-142619591D01*
X98546000Y-142578110D01*
X98546000Y-141901890D01*
X98550085Y-141860409D01*
X98560393Y-141826431D01*
X98577134Y-141795110D01*
X98599661Y-141767661D01*
X98627110Y-141745134D01*
X98658431Y-141728393D01*
X98692409Y-141718085D01*
X98733890Y-141714000D01*
X99335110Y-141714000D01*
X99376591Y-141718085D01*
G37*
G36*
X100951591Y-141718085D02*
G01*
X100985569Y-141728393D01*
X101016890Y-141745134D01*
X101044339Y-141767661D01*
X101066866Y-141795110D01*
X101083607Y-141826431D01*
X101093915Y-141860409D01*
X101098000Y-141901890D01*
X101098000Y-142578110D01*
X101093915Y-142619591D01*
X101083607Y-142653569D01*
X101066866Y-142684890D01*
X101044339Y-142712339D01*
X101016890Y-142734866D01*
X100985569Y-142751607D01*
X100951591Y-142761915D01*
X100910110Y-142766000D01*
X100308890Y-142766000D01*
X100267409Y-142761915D01*
X100233431Y-142751607D01*
X100202110Y-142734866D01*
X100174661Y-142712339D01*
X100152134Y-142684890D01*
X100135393Y-142653569D01*
X100125085Y-142619591D01*
X100121000Y-142578110D01*
X100121000Y-141901890D01*
X100125085Y-141860409D01*
X100135393Y-141826431D01*
X100152134Y-141795110D01*
X100174661Y-141767661D01*
X100202110Y-141745134D01*
X100233431Y-141728393D01*
X100267409Y-141718085D01*
X100308890Y-141714000D01*
X100910110Y-141714000D01*
X100951591Y-141718085D01*
G37*
G36*
X109473655Y-138582591D02*
G01*
X109545525Y-138596887D01*
X109748624Y-138681013D01*
X109931409Y-138803146D01*
X110086854Y-138958591D01*
X110208987Y-139141376D01*
X110293113Y-139344475D01*
X110293113Y-139344476D01*
X110331320Y-139536552D01*
X110336000Y-139560084D01*
X110336000Y-139779916D01*
X110293113Y-139995525D01*
X110208987Y-140198624D01*
X110086854Y-140381409D01*
X109931409Y-140536854D01*
X109748624Y-140658987D01*
X109545525Y-140743113D01*
X109473655Y-140757409D01*
X109329918Y-140786000D01*
X109110082Y-140786000D01*
X108966345Y-140757409D01*
X108894475Y-140743113D01*
X108691376Y-140658987D01*
X108508591Y-140536854D01*
X108353146Y-140381409D01*
X108231013Y-140198624D01*
X108146887Y-139995525D01*
X108104000Y-139779916D01*
X108104000Y-139560084D01*
X108108681Y-139536552D01*
X108146887Y-139344476D01*
X108146887Y-139344475D01*
X108231013Y-139141376D01*
X108353146Y-138958591D01*
X108508591Y-138803146D01*
X108691376Y-138681013D01*
X108894475Y-138596887D01*
X108966345Y-138582591D01*
X109110082Y-138554000D01*
X109329918Y-138554000D01*
X109473655Y-138582591D01*
G37*
G36*
X78993655Y-138582591D02*
G01*
X79065525Y-138596887D01*
X79268624Y-138681013D01*
X79451409Y-138803146D01*
X79606854Y-138958591D01*
X79728987Y-139141376D01*
X79813113Y-139344475D01*
X79813113Y-139344476D01*
X79851320Y-139536552D01*
X79856000Y-139560084D01*
X79856000Y-139779916D01*
X79813113Y-139995525D01*
X79728987Y-140198624D01*
X79606854Y-140381409D01*
X79451409Y-140536854D01*
X79268624Y-140658987D01*
X79065525Y-140743113D01*
X78993655Y-140757409D01*
X78849918Y-140786000D01*
X78630082Y-140786000D01*
X78486345Y-140757409D01*
X78414475Y-140743113D01*
X78211376Y-140658987D01*
X78028591Y-140536854D01*
X77873146Y-140381409D01*
X77751013Y-140198624D01*
X77666887Y-139995525D01*
X77624000Y-139779916D01*
X77624000Y-139560084D01*
X77628681Y-139536552D01*
X77666887Y-139344476D01*
X77666887Y-139344475D01*
X77751013Y-139141376D01*
X77873146Y-138958591D01*
X78028591Y-138803146D01*
X78211376Y-138681013D01*
X78414475Y-138596887D01*
X78486345Y-138582591D01*
X78630082Y-138554000D01*
X78849918Y-138554000D01*
X78993655Y-138582591D01*
G37*
G36*
X94233655Y-138582591D02*
G01*
X94305525Y-138596887D01*
X94508624Y-138681013D01*
X94691409Y-138803146D01*
X94846854Y-138958591D01*
X94968987Y-139141376D01*
X95053113Y-139344475D01*
X95053113Y-139344476D01*
X95091320Y-139536552D01*
X95096000Y-139560084D01*
X95096000Y-139779916D01*
X95053113Y-139995525D01*
X94968987Y-140198624D01*
X94846854Y-140381409D01*
X94691409Y-140536854D01*
X94508624Y-140658987D01*
X94305525Y-140743113D01*
X94233655Y-140757409D01*
X94089918Y-140786000D01*
X93870082Y-140786000D01*
X93726345Y-140757409D01*
X93654475Y-140743113D01*
X93451376Y-140658987D01*
X93268591Y-140536854D01*
X93113146Y-140381409D01*
X92991013Y-140198624D01*
X92906887Y-139995525D01*
X92864000Y-139779916D01*
X92864000Y-139560084D01*
X92868681Y-139536552D01*
X92906887Y-139344476D01*
X92906887Y-139344475D01*
X92991013Y-139141376D01*
X93113146Y-138958591D01*
X93268591Y-138803146D01*
X93451376Y-138681013D01*
X93654475Y-138596887D01*
X93726345Y-138582591D01*
X93870082Y-138554000D01*
X94089918Y-138554000D01*
X94233655Y-138582591D01*
G37*
G36*
X85711591Y-139432085D02*
G01*
X85745569Y-139442393D01*
X85776890Y-139459134D01*
X85804339Y-139481661D01*
X85826866Y-139509110D01*
X85843607Y-139540431D01*
X85853915Y-139574409D01*
X85858000Y-139615890D01*
X85858000Y-140292110D01*
X85853915Y-140333591D01*
X85843607Y-140367569D01*
X85826866Y-140398890D01*
X85804339Y-140426339D01*
X85776890Y-140448866D01*
X85745569Y-140465607D01*
X85711591Y-140475915D01*
X85670110Y-140480000D01*
X85068890Y-140480000D01*
X85027409Y-140475915D01*
X84993431Y-140465607D01*
X84962110Y-140448866D01*
X84934661Y-140426339D01*
X84912134Y-140398890D01*
X84895393Y-140367569D01*
X84885085Y-140333591D01*
X84881000Y-140292110D01*
X84881000Y-139615890D01*
X84885085Y-139574409D01*
X84895393Y-139540431D01*
X84912134Y-139509110D01*
X84934661Y-139481661D01*
X84962110Y-139459134D01*
X84993431Y-139442393D01*
X85027409Y-139432085D01*
X85068890Y-139428000D01*
X85670110Y-139428000D01*
X85711591Y-139432085D01*
G37*
G36*
X84136591Y-139432085D02*
G01*
X84170569Y-139442393D01*
X84201890Y-139459134D01*
X84229339Y-139481661D01*
X84251866Y-139509110D01*
X84268607Y-139540431D01*
X84278915Y-139574409D01*
X84283000Y-139615890D01*
X84283000Y-140292110D01*
X84278915Y-140333591D01*
X84268607Y-140367569D01*
X84251866Y-140398890D01*
X84229339Y-140426339D01*
X84201890Y-140448866D01*
X84170569Y-140465607D01*
X84136591Y-140475915D01*
X84095110Y-140480000D01*
X83493890Y-140480000D01*
X83452409Y-140475915D01*
X83418431Y-140465607D01*
X83387110Y-140448866D01*
X83359661Y-140426339D01*
X83337134Y-140398890D01*
X83320393Y-140367569D01*
X83310085Y-140333591D01*
X83306000Y-140292110D01*
X83306000Y-139615890D01*
X83310085Y-139574409D01*
X83320393Y-139540431D01*
X83337134Y-139509110D01*
X83359661Y-139481661D01*
X83387110Y-139459134D01*
X83418431Y-139442393D01*
X83452409Y-139432085D01*
X83493890Y-139428000D01*
X84095110Y-139428000D01*
X84136591Y-139432085D01*
G37*
G36*
X104507591Y-138924085D02*
G01*
X104541569Y-138934393D01*
X104572890Y-138951134D01*
X104600339Y-138973661D01*
X104622866Y-139001110D01*
X104639607Y-139032431D01*
X104649915Y-139066409D01*
X104654000Y-139107890D01*
X104654000Y-139784110D01*
X104649915Y-139825591D01*
X104639607Y-139859569D01*
X104622866Y-139890890D01*
X104600339Y-139918339D01*
X104572890Y-139940866D01*
X104541569Y-139957607D01*
X104507591Y-139967915D01*
X104466110Y-139972000D01*
X103864890Y-139972000D01*
X103823409Y-139967915D01*
X103789431Y-139957607D01*
X103758110Y-139940866D01*
X103730661Y-139918339D01*
X103708134Y-139890890D01*
X103691393Y-139859569D01*
X103681085Y-139825591D01*
X103677000Y-139784110D01*
X103677000Y-139107890D01*
X103681085Y-139066409D01*
X103691393Y-139032431D01*
X103708134Y-139001110D01*
X103730661Y-138973661D01*
X103758110Y-138951134D01*
X103789431Y-138934393D01*
X103823409Y-138924085D01*
X103864890Y-138920000D01*
X104466110Y-138920000D01*
X104507591Y-138924085D01*
G37*
G36*
X102932591Y-138924085D02*
G01*
X102966569Y-138934393D01*
X102997890Y-138951134D01*
X103025339Y-138973661D01*
X103047866Y-139001110D01*
X103064607Y-139032431D01*
X103074915Y-139066409D01*
X103079000Y-139107890D01*
X103079000Y-139784110D01*
X103074915Y-139825591D01*
X103064607Y-139859569D01*
X103047866Y-139890890D01*
X103025339Y-139918339D01*
X102997890Y-139940866D01*
X102966569Y-139957607D01*
X102932591Y-139967915D01*
X102891110Y-139972000D01*
X102289890Y-139972000D01*
X102248409Y-139967915D01*
X102214431Y-139957607D01*
X102183110Y-139940866D01*
X102155661Y-139918339D01*
X102133134Y-139890890D01*
X102116393Y-139859569D01*
X102106085Y-139825591D01*
X102102000Y-139784110D01*
X102102000Y-139107890D01*
X102106085Y-139066409D01*
X102116393Y-139032431D01*
X102133134Y-139001110D01*
X102155661Y-138973661D01*
X102183110Y-138951134D01*
X102214431Y-138934393D01*
X102248409Y-138924085D01*
X102289890Y-138920000D01*
X102891110Y-138920000D01*
X102932591Y-138924085D01*
G37*
G36*
X100951591Y-138924085D02*
G01*
X100985569Y-138934393D01*
X101016890Y-138951134D01*
X101044339Y-138973661D01*
X101066866Y-139001110D01*
X101083607Y-139032431D01*
X101093915Y-139066409D01*
X101098000Y-139107890D01*
X101098000Y-139784110D01*
X101093915Y-139825591D01*
X101083607Y-139859569D01*
X101066866Y-139890890D01*
X101044339Y-139918339D01*
X101016890Y-139940866D01*
X100985569Y-139957607D01*
X100951591Y-139967915D01*
X100910110Y-139972000D01*
X100308890Y-139972000D01*
X100267409Y-139967915D01*
X100233431Y-139957607D01*
X100202110Y-139940866D01*
X100174661Y-139918339D01*
X100152134Y-139890890D01*
X100135393Y-139859569D01*
X100125085Y-139825591D01*
X100121000Y-139784110D01*
X100121000Y-139107890D01*
X100125085Y-139066409D01*
X100135393Y-139032431D01*
X100152134Y-139001110D01*
X100174661Y-138973661D01*
X100202110Y-138951134D01*
X100233431Y-138934393D01*
X100267409Y-138924085D01*
X100308890Y-138920000D01*
X100910110Y-138920000D01*
X100951591Y-138924085D01*
G37*
G36*
X99376591Y-138924085D02*
G01*
X99410569Y-138934393D01*
X99441890Y-138951134D01*
X99469339Y-138973661D01*
X99491866Y-139001110D01*
X99508607Y-139032431D01*
X99518915Y-139066409D01*
X99523000Y-139107890D01*
X99523000Y-139784110D01*
X99518915Y-139825591D01*
X99508607Y-139859569D01*
X99491866Y-139890890D01*
X99469339Y-139918339D01*
X99441890Y-139940866D01*
X99410569Y-139957607D01*
X99376591Y-139967915D01*
X99335110Y-139972000D01*
X98733890Y-139972000D01*
X98692409Y-139967915D01*
X98658431Y-139957607D01*
X98627110Y-139940866D01*
X98599661Y-139918339D01*
X98577134Y-139890890D01*
X98560393Y-139859569D01*
X98550085Y-139825591D01*
X98546000Y-139784110D01*
X98546000Y-139107890D01*
X98550085Y-139066409D01*
X98560393Y-139032431D01*
X98577134Y-139001110D01*
X98599661Y-138973661D01*
X98627110Y-138951134D01*
X98658431Y-138934393D01*
X98692409Y-138924085D01*
X98733890Y-138920000D01*
X99335110Y-138920000D01*
X99376591Y-138924085D01*
G37*
G36*
X99376591Y-136130085D02*
G01*
X99410569Y-136140393D01*
X99441890Y-136157134D01*
X99469339Y-136179661D01*
X99491866Y-136207110D01*
X99508607Y-136238431D01*
X99518915Y-136272409D01*
X99523000Y-136313890D01*
X99523000Y-136990110D01*
X99518915Y-137031591D01*
X99508607Y-137065569D01*
X99491866Y-137096890D01*
X99469339Y-137124339D01*
X99441890Y-137146866D01*
X99410569Y-137163607D01*
X99376591Y-137173915D01*
X99335110Y-137178000D01*
X98733890Y-137178000D01*
X98692409Y-137173915D01*
X98658431Y-137163607D01*
X98627110Y-137146866D01*
X98599661Y-137124339D01*
X98577134Y-137096890D01*
X98560393Y-137065569D01*
X98550085Y-137031591D01*
X98546000Y-136990110D01*
X98546000Y-136313890D01*
X98550085Y-136272409D01*
X98560393Y-136238431D01*
X98577134Y-136207110D01*
X98599661Y-136179661D01*
X98627110Y-136157134D01*
X98658431Y-136140393D01*
X98692409Y-136130085D01*
X98733890Y-136126000D01*
X99335110Y-136126000D01*
X99376591Y-136130085D01*
G37*
G36*
X100951591Y-136130085D02*
G01*
X100985569Y-136140393D01*
X101016890Y-136157134D01*
X101044339Y-136179661D01*
X101066866Y-136207110D01*
X101083607Y-136238431D01*
X101093915Y-136272409D01*
X101098000Y-136313890D01*
X101098000Y-136990110D01*
X101093915Y-137031591D01*
X101083607Y-137065569D01*
X101066866Y-137096890D01*
X101044339Y-137124339D01*
X101016890Y-137146866D01*
X100985569Y-137163607D01*
X100951591Y-137173915D01*
X100910110Y-137178000D01*
X100308890Y-137178000D01*
X100267409Y-137173915D01*
X100233431Y-137163607D01*
X100202110Y-137146866D01*
X100174661Y-137124339D01*
X100152134Y-137096890D01*
X100135393Y-137065569D01*
X100125085Y-137031591D01*
X100121000Y-136990110D01*
X100121000Y-136313890D01*
X100125085Y-136272409D01*
X100135393Y-136238431D01*
X100152134Y-136207110D01*
X100174661Y-136179661D01*
X100202110Y-136157134D01*
X100233431Y-136140393D01*
X100267409Y-136130085D01*
X100308890Y-136126000D01*
X100910110Y-136126000D01*
X100951591Y-136130085D01*
G37*
G36*
X102932591Y-136130085D02*
G01*
X102966569Y-136140393D01*
X102997890Y-136157134D01*
X103025339Y-136179661D01*
X103047866Y-136207110D01*
X103064607Y-136238431D01*
X103074915Y-136272409D01*
X103079000Y-136313890D01*
X103079000Y-136990110D01*
X103074915Y-137031591D01*
X103064607Y-137065569D01*
X103047866Y-137096890D01*
X103025339Y-137124339D01*
X102997890Y-137146866D01*
X102966569Y-137163607D01*
X102932591Y-137173915D01*
X102891110Y-137178000D01*
X102289890Y-137178000D01*
X102248409Y-137173915D01*
X102214431Y-137163607D01*
X102183110Y-137146866D01*
X102155661Y-137124339D01*
X102133134Y-137096890D01*
X102116393Y-137065569D01*
X102106085Y-137031591D01*
X102102000Y-136990110D01*
X102102000Y-136313890D01*
X102106085Y-136272409D01*
X102116393Y-136238431D01*
X102133134Y-136207110D01*
X102155661Y-136179661D01*
X102183110Y-136157134D01*
X102214431Y-136140393D01*
X102248409Y-136130085D01*
X102289890Y-136126000D01*
X102891110Y-136126000D01*
X102932591Y-136130085D01*
G37*
G36*
X104507591Y-136130085D02*
G01*
X104541569Y-136140393D01*
X104572890Y-136157134D01*
X104600339Y-136179661D01*
X104622866Y-136207110D01*
X104639607Y-136238431D01*
X104649915Y-136272409D01*
X104654000Y-136313890D01*
X104654000Y-136990110D01*
X104649915Y-137031591D01*
X104639607Y-137065569D01*
X104622866Y-137096890D01*
X104600339Y-137124339D01*
X104572890Y-137146866D01*
X104541569Y-137163607D01*
X104507591Y-137173915D01*
X104466110Y-137178000D01*
X103864890Y-137178000D01*
X103823409Y-137173915D01*
X103789431Y-137163607D01*
X103758110Y-137146866D01*
X103730661Y-137124339D01*
X103708134Y-137096890D01*
X103691393Y-137065569D01*
X103681085Y-137031591D01*
X103677000Y-136990110D01*
X103677000Y-136313890D01*
X103681085Y-136272409D01*
X103691393Y-136238431D01*
X103708134Y-136207110D01*
X103730661Y-136179661D01*
X103758110Y-136157134D01*
X103789431Y-136140393D01*
X103823409Y-136130085D01*
X103864890Y-136126000D01*
X104466110Y-136126000D01*
X104507591Y-136130085D01*
G37*
G36*
X99954928Y-131953764D02*
G01*
X99976009Y-131960160D01*
X99995445Y-131970548D01*
X100012476Y-131984524D01*
X100026452Y-132001555D01*
X100036840Y-132020991D01*
X100043236Y-132042072D01*
X100046000Y-132070140D01*
X100046000Y-133683860D01*
X100043236Y-133711928D01*
X100036840Y-133733009D01*
X100026452Y-133752445D01*
X100012476Y-133769476D01*
X99995445Y-133783452D01*
X99976009Y-133793840D01*
X99954928Y-133800236D01*
X99926860Y-133803000D01*
X99463140Y-133803000D01*
X99435072Y-133800236D01*
X99413991Y-133793840D01*
X99394555Y-133783452D01*
X99377524Y-133769476D01*
X99363548Y-133752445D01*
X99353160Y-133733009D01*
X99346764Y-133711928D01*
X99344000Y-133683860D01*
X99344000Y-132070140D01*
X99346764Y-132042072D01*
X99353160Y-132020991D01*
X99363548Y-132001555D01*
X99377524Y-131984524D01*
X99394555Y-131970548D01*
X99413991Y-131960160D01*
X99435072Y-131953764D01*
X99463140Y-131951000D01*
X99926860Y-131951000D01*
X99954928Y-131953764D01*
G37*
G36*
X102494928Y-131953764D02*
G01*
X102516009Y-131960160D01*
X102535445Y-131970548D01*
X102552476Y-131984524D01*
X102566452Y-132001555D01*
X102576840Y-132020991D01*
X102583236Y-132042072D01*
X102586000Y-132070140D01*
X102586000Y-133683860D01*
X102583236Y-133711928D01*
X102576840Y-133733009D01*
X102566452Y-133752445D01*
X102552476Y-133769476D01*
X102535445Y-133783452D01*
X102516009Y-133793840D01*
X102494928Y-133800236D01*
X102466860Y-133803000D01*
X102003140Y-133803000D01*
X101975072Y-133800236D01*
X101953991Y-133793840D01*
X101934555Y-133783452D01*
X101917524Y-133769476D01*
X101903548Y-133752445D01*
X101893160Y-133733009D01*
X101886764Y-133711928D01*
X101884000Y-133683860D01*
X101884000Y-132070140D01*
X101886764Y-132042072D01*
X101893160Y-132020991D01*
X101903548Y-132001555D01*
X101917524Y-131984524D01*
X101934555Y-131970548D01*
X101953991Y-131960160D01*
X101975072Y-131953764D01*
X102003140Y-131951000D01*
X102466860Y-131951000D01*
X102494928Y-131953764D01*
G37*
G36*
X101224928Y-131953764D02*
G01*
X101246009Y-131960160D01*
X101265445Y-131970548D01*
X101282476Y-131984524D01*
X101296452Y-132001555D01*
X101306840Y-132020991D01*
X101313236Y-132042072D01*
X101316000Y-132070140D01*
X101316000Y-133683860D01*
X101313236Y-133711928D01*
X101306840Y-133733009D01*
X101296452Y-133752445D01*
X101282476Y-133769476D01*
X101265445Y-133783452D01*
X101246009Y-133793840D01*
X101224928Y-133800236D01*
X101196860Y-133803000D01*
X100733140Y-133803000D01*
X100705072Y-133800236D01*
X100683991Y-133793840D01*
X100664555Y-133783452D01*
X100647524Y-133769476D01*
X100633548Y-133752445D01*
X100623160Y-133733009D01*
X100616764Y-133711928D01*
X100614000Y-133683860D01*
X100614000Y-132070140D01*
X100616764Y-132042072D01*
X100623160Y-132020991D01*
X100633548Y-132001555D01*
X100647524Y-131984524D01*
X100664555Y-131970548D01*
X100683991Y-131960160D01*
X100705072Y-131953764D01*
X100733140Y-131951000D01*
X101196860Y-131951000D01*
X101224928Y-131953764D01*
G37*
G36*
X103764928Y-131953764D02*
G01*
X103786009Y-131960160D01*
X103805445Y-131970548D01*
X103822476Y-131984524D01*
X103836452Y-132001555D01*
X103846840Y-132020991D01*
X103853236Y-132042072D01*
X103856000Y-132070140D01*
X103856000Y-133683860D01*
X103853236Y-133711928D01*
X103846840Y-133733009D01*
X103836452Y-133752445D01*
X103822476Y-133769476D01*
X103805445Y-133783452D01*
X103786009Y-133793840D01*
X103764928Y-133800236D01*
X103736860Y-133803000D01*
X103273140Y-133803000D01*
X103245072Y-133800236D01*
X103223991Y-133793840D01*
X103204555Y-133783452D01*
X103187524Y-133769476D01*
X103173548Y-133752445D01*
X103163160Y-133733009D01*
X103156764Y-133711928D01*
X103154000Y-133683860D01*
X103154000Y-132070140D01*
X103156764Y-132042072D01*
X103163160Y-132020991D01*
X103173548Y-132001555D01*
X103187524Y-131984524D01*
X103204555Y-131970548D01*
X103223991Y-131960160D01*
X103245072Y-131953764D01*
X103273140Y-131951000D01*
X103736860Y-131951000D01*
X103764928Y-131953764D01*
G37*
G36*
X94233655Y-130282591D02*
G01*
X94305525Y-130296887D01*
X94508624Y-130381013D01*
X94691409Y-130503146D01*
X94846854Y-130658591D01*
X94968987Y-130841376D01*
X94968987Y-130841377D01*
X95053113Y-131044476D01*
X95096000Y-131260082D01*
X95096000Y-131479918D01*
X95085648Y-131531961D01*
X95053113Y-131695525D01*
X94968987Y-131898624D01*
X94846854Y-132081409D01*
X94691409Y-132236854D01*
X94508624Y-132358987D01*
X94305525Y-132443113D01*
X94233655Y-132457409D01*
X94089918Y-132486000D01*
X93870082Y-132486000D01*
X93726345Y-132457409D01*
X93654475Y-132443113D01*
X93451376Y-132358987D01*
X93268591Y-132236854D01*
X93113146Y-132081409D01*
X92991013Y-131898624D01*
X92906887Y-131695525D01*
X92874352Y-131531961D01*
X92864000Y-131479918D01*
X92864000Y-131260082D01*
X92906887Y-131044476D01*
X92991013Y-130841377D01*
X92991013Y-130841376D01*
X93113146Y-130658591D01*
X93268591Y-130503146D01*
X93451376Y-130381013D01*
X93654475Y-130296887D01*
X93726345Y-130282591D01*
X93870082Y-130254000D01*
X94089918Y-130254000D01*
X94233655Y-130282591D01*
G37*
G36*
X109473655Y-130282591D02*
G01*
X109545525Y-130296887D01*
X109748624Y-130381013D01*
X109931409Y-130503146D01*
X110086854Y-130658591D01*
X110208987Y-130841376D01*
X110208987Y-130841377D01*
X110293113Y-131044476D01*
X110336000Y-131260082D01*
X110336000Y-131479918D01*
X110325648Y-131531961D01*
X110293113Y-131695525D01*
X110208987Y-131898624D01*
X110086854Y-132081409D01*
X109931409Y-132236854D01*
X109748624Y-132358987D01*
X109545525Y-132443113D01*
X109473655Y-132457409D01*
X109329918Y-132486000D01*
X109110082Y-132486000D01*
X108966345Y-132457409D01*
X108894475Y-132443113D01*
X108691376Y-132358987D01*
X108508591Y-132236854D01*
X108353146Y-132081409D01*
X108231013Y-131898624D01*
X108146887Y-131695525D01*
X108114352Y-131531961D01*
X108104000Y-131479918D01*
X108104000Y-131260082D01*
X108146887Y-131044476D01*
X108231013Y-130841377D01*
X108231013Y-130841376D01*
X108353146Y-130658591D01*
X108508591Y-130503146D01*
X108691376Y-130381013D01*
X108894475Y-130296887D01*
X108966345Y-130282591D01*
X109110082Y-130254000D01*
X109329918Y-130254000D01*
X109473655Y-130282591D01*
G37*
G36*
X78993655Y-130282591D02*
G01*
X79065525Y-130296887D01*
X79268624Y-130381013D01*
X79451409Y-130503146D01*
X79606854Y-130658591D01*
X79728987Y-130841376D01*
X79728987Y-130841377D01*
X79813113Y-131044476D01*
X79856000Y-131260082D01*
X79856000Y-131479918D01*
X79845648Y-131531961D01*
X79813113Y-131695525D01*
X79728987Y-131898624D01*
X79606854Y-132081409D01*
X79451409Y-132236854D01*
X79268624Y-132358987D01*
X79065525Y-132443113D01*
X78993655Y-132457409D01*
X78849918Y-132486000D01*
X78630082Y-132486000D01*
X78486345Y-132457409D01*
X78414475Y-132443113D01*
X78211376Y-132358987D01*
X78028591Y-132236854D01*
X77873146Y-132081409D01*
X77751013Y-131898624D01*
X77666887Y-131695525D01*
X77634352Y-131531961D01*
X77624000Y-131479918D01*
X77624000Y-131260082D01*
X77666887Y-131044476D01*
X77751013Y-130841377D01*
X77751013Y-130841376D01*
X77873146Y-130658591D01*
X78028591Y-130503146D01*
X78211376Y-130381013D01*
X78414475Y-130296887D01*
X78486345Y-130282591D01*
X78630082Y-130254000D01*
X78849918Y-130254000D01*
X78993655Y-130282591D01*
G37*
G36*
X105535591Y-130630585D02*
G01*
X105569569Y-130640893D01*
X105600890Y-130657634D01*
X105628339Y-130680161D01*
X105650866Y-130707610D01*
X105667607Y-130738931D01*
X105677915Y-130772909D01*
X105682000Y-130814390D01*
X105682000Y-131415610D01*
X105677915Y-131457091D01*
X105667607Y-131491069D01*
X105650866Y-131522390D01*
X105628339Y-131549839D01*
X105600890Y-131572366D01*
X105569569Y-131589107D01*
X105535591Y-131599415D01*
X105494110Y-131603500D01*
X104817890Y-131603500D01*
X104776409Y-131599415D01*
X104742431Y-131589107D01*
X104711110Y-131572366D01*
X104683661Y-131549839D01*
X104661134Y-131522390D01*
X104644393Y-131491069D01*
X104634085Y-131457091D01*
X104630000Y-131415610D01*
X104630000Y-130814390D01*
X104634085Y-130772909D01*
X104644393Y-130738931D01*
X104661134Y-130707610D01*
X104683661Y-130680161D01*
X104711110Y-130657634D01*
X104742431Y-130640893D01*
X104776409Y-130630585D01*
X104817890Y-130626500D01*
X105494110Y-130626500D01*
X105535591Y-130630585D01*
G37*
G36*
X105535591Y-129055585D02*
G01*
X105569569Y-129065893D01*
X105600890Y-129082634D01*
X105628339Y-129105161D01*
X105650866Y-129132610D01*
X105667607Y-129163931D01*
X105677915Y-129197909D01*
X105682000Y-129239390D01*
X105682000Y-129840610D01*
X105677915Y-129882091D01*
X105667607Y-129916069D01*
X105650866Y-129947390D01*
X105628339Y-129974839D01*
X105600890Y-129997366D01*
X105569569Y-130014107D01*
X105535591Y-130024415D01*
X105494110Y-130028500D01*
X104817890Y-130028500D01*
X104776409Y-130024415D01*
X104742431Y-130014107D01*
X104711110Y-129997366D01*
X104683661Y-129974839D01*
X104661134Y-129947390D01*
X104644393Y-129916069D01*
X104634085Y-129882091D01*
X104630000Y-129840610D01*
X104630000Y-129239390D01*
X104634085Y-129197909D01*
X104644393Y-129163931D01*
X104661134Y-129132610D01*
X104683661Y-129105161D01*
X104711110Y-129082634D01*
X104742431Y-129065893D01*
X104776409Y-129055585D01*
X104817890Y-129051500D01*
X105494110Y-129051500D01*
X105535591Y-129055585D01*
G37*
G36*
X79756000Y-129236000D02*
G01*
X77724000Y-129236000D01*
X77724000Y-127304000D01*
X79756000Y-127304000D01*
X79756000Y-129236000D01*
G37*
G36*
X110236000Y-129236000D02*
G01*
X108204000Y-129236000D01*
X108204000Y-127304000D01*
X110236000Y-127304000D01*
X110236000Y-129236000D01*
G37*
G36*
X94996000Y-129236000D02*
G01*
X92964000Y-129236000D01*
X92964000Y-127304000D01*
X94996000Y-127304000D01*
X94996000Y-129236000D01*
G37*
G36*
X102494928Y-126803764D02*
G01*
X102516009Y-126810160D01*
X102535445Y-126820548D01*
X102552476Y-126834524D01*
X102566452Y-126851555D01*
X102576840Y-126870991D01*
X102583236Y-126892072D01*
X102586000Y-126920140D01*
X102586000Y-128533860D01*
X102583236Y-128561928D01*
X102576840Y-128583009D01*
X102566452Y-128602445D01*
X102552476Y-128619476D01*
X102535445Y-128633452D01*
X102516009Y-128643840D01*
X102494928Y-128650236D01*
X102466860Y-128653000D01*
X102003140Y-128653000D01*
X101975072Y-128650236D01*
X101953991Y-128643840D01*
X101934555Y-128633452D01*
X101917524Y-128619476D01*
X101903548Y-128602445D01*
X101893160Y-128583009D01*
X101886764Y-128561928D01*
X101884000Y-128533860D01*
X101884000Y-126920140D01*
X101886764Y-126892072D01*
X101893160Y-126870991D01*
X101903548Y-126851555D01*
X101917524Y-126834524D01*
X101934555Y-126820548D01*
X101953991Y-126810160D01*
X101975072Y-126803764D01*
X102003140Y-126801000D01*
X102466860Y-126801000D01*
X102494928Y-126803764D01*
G37*
G36*
X103764928Y-126803764D02*
G01*
X103786009Y-126810160D01*
X103805445Y-126820548D01*
X103822476Y-126834524D01*
X103836452Y-126851555D01*
X103846840Y-126870991D01*
X103853236Y-126892072D01*
X103856000Y-126920140D01*
X103856000Y-128533860D01*
X103853236Y-128561928D01*
X103846840Y-128583009D01*
X103836452Y-128602445D01*
X103822476Y-128619476D01*
X103805445Y-128633452D01*
X103786009Y-128643840D01*
X103764928Y-128650236D01*
X103736860Y-128653000D01*
X103273140Y-128653000D01*
X103245072Y-128650236D01*
X103223991Y-128643840D01*
X103204555Y-128633452D01*
X103187524Y-128619476D01*
X103173548Y-128602445D01*
X103163160Y-128583009D01*
X103156764Y-128561928D01*
X103154000Y-128533860D01*
X103154000Y-126920140D01*
X103156764Y-126892072D01*
X103163160Y-126870991D01*
X103173548Y-126851555D01*
X103187524Y-126834524D01*
X103204555Y-126820548D01*
X103223991Y-126810160D01*
X103245072Y-126803764D01*
X103273140Y-126801000D01*
X103736860Y-126801000D01*
X103764928Y-126803764D01*
G37*
G36*
X99954928Y-126803764D02*
G01*
X99976009Y-126810160D01*
X99995445Y-126820548D01*
X100012476Y-126834524D01*
X100026452Y-126851555D01*
X100036840Y-126870991D01*
X100043236Y-126892072D01*
X100046000Y-126920140D01*
X100046000Y-128533860D01*
X100043236Y-128561928D01*
X100036840Y-128583009D01*
X100026452Y-128602445D01*
X100012476Y-128619476D01*
X99995445Y-128633452D01*
X99976009Y-128643840D01*
X99954928Y-128650236D01*
X99926860Y-128653000D01*
X99463140Y-128653000D01*
X99435072Y-128650236D01*
X99413991Y-128643840D01*
X99394555Y-128633452D01*
X99377524Y-128619476D01*
X99363548Y-128602445D01*
X99353160Y-128583009D01*
X99346764Y-128561928D01*
X99344000Y-128533860D01*
X99344000Y-126920140D01*
X99346764Y-126892072D01*
X99353160Y-126870991D01*
X99363548Y-126851555D01*
X99377524Y-126834524D01*
X99394555Y-126820548D01*
X99413991Y-126810160D01*
X99435072Y-126803764D01*
X99463140Y-126801000D01*
X99926860Y-126801000D01*
X99954928Y-126803764D01*
G37*
G36*
X101224928Y-126803764D02*
G01*
X101246009Y-126810160D01*
X101265445Y-126820548D01*
X101282476Y-126834524D01*
X101296452Y-126851555D01*
X101306840Y-126870991D01*
X101313236Y-126892072D01*
X101316000Y-126920140D01*
X101316000Y-128533860D01*
X101313236Y-128561928D01*
X101306840Y-128583009D01*
X101296452Y-128602445D01*
X101282476Y-128619476D01*
X101265445Y-128633452D01*
X101246009Y-128643840D01*
X101224928Y-128650236D01*
X101196860Y-128653000D01*
X100733140Y-128653000D01*
X100705072Y-128650236D01*
X100683991Y-128643840D01*
X100664555Y-128633452D01*
X100647524Y-128619476D01*
X100633548Y-128602445D01*
X100623160Y-128583009D01*
X100616764Y-128561928D01*
X100614000Y-128533860D01*
X100614000Y-126920140D01*
X100616764Y-126892072D01*
X100623160Y-126870991D01*
X100633548Y-126851555D01*
X100647524Y-126834524D01*
X100664555Y-126820548D01*
X100683991Y-126810160D01*
X100705072Y-126803764D01*
X100733140Y-126801000D01*
X101196860Y-126801000D01*
X101224928Y-126803764D01*
G37*
G36*
X94482228Y-122371703D02*
G01*
X94637100Y-122435853D01*
X94776481Y-122528985D01*
X94895015Y-122647519D01*
X94988147Y-122786900D01*
X95052297Y-122941772D01*
X95085000Y-123106184D01*
X95085000Y-123273816D01*
X95052297Y-123438228D01*
X94988147Y-123593100D01*
X94895015Y-123732481D01*
X94776481Y-123851015D01*
X94637100Y-123944147D01*
X94482228Y-124008297D01*
X94317816Y-124041000D01*
X94150184Y-124041000D01*
X93985772Y-124008297D01*
X93830900Y-123944147D01*
X93691519Y-123851015D01*
X93572985Y-123732481D01*
X93479853Y-123593100D01*
X93415703Y-123438228D01*
X93383000Y-123273816D01*
X93383000Y-123106184D01*
X93415703Y-122941772D01*
X93479853Y-122786900D01*
X93572985Y-122647519D01*
X93691519Y-122528985D01*
X93830900Y-122435853D01*
X93985772Y-122371703D01*
X94150184Y-122339000D01*
X94317816Y-122339000D01*
X94482228Y-122371703D01*
G37*
G36*
X97022228Y-122371703D02*
G01*
X97177100Y-122435853D01*
X97316481Y-122528985D01*
X97435015Y-122647519D01*
X97528147Y-122786900D01*
X97592297Y-122941772D01*
X97625000Y-123106184D01*
X97625000Y-123273816D01*
X97592297Y-123438228D01*
X97528147Y-123593100D01*
X97435015Y-123732481D01*
X97316481Y-123851015D01*
X97177100Y-123944147D01*
X97022228Y-124008297D01*
X96857816Y-124041000D01*
X96690184Y-124041000D01*
X96525772Y-124008297D01*
X96370900Y-123944147D01*
X96231519Y-123851015D01*
X96112985Y-123732481D01*
X96019853Y-123593100D01*
X95955703Y-123438228D01*
X95923000Y-123273816D01*
X95923000Y-123106184D01*
X95955703Y-122941772D01*
X96019853Y-122786900D01*
X96112985Y-122647519D01*
X96231519Y-122528985D01*
X96370900Y-122435853D01*
X96525772Y-122371703D01*
X96690184Y-122339000D01*
X96857816Y-122339000D01*
X97022228Y-122371703D01*
G37*
G36*
X91942228Y-122371703D02*
G01*
X92097100Y-122435853D01*
X92236481Y-122528985D01*
X92355015Y-122647519D01*
X92448147Y-122786900D01*
X92512297Y-122941772D01*
X92545000Y-123106184D01*
X92545000Y-123273816D01*
X92512297Y-123438228D01*
X92448147Y-123593100D01*
X92355015Y-123732481D01*
X92236481Y-123851015D01*
X92097100Y-123944147D01*
X91942228Y-124008297D01*
X91777816Y-124041000D01*
X91610184Y-124041000D01*
X91445772Y-124008297D01*
X91290900Y-123944147D01*
X91151519Y-123851015D01*
X91032985Y-123732481D01*
X90939853Y-123593100D01*
X90875703Y-123438228D01*
X90843000Y-123273816D01*
X90843000Y-123106184D01*
X90875703Y-122941772D01*
X90939853Y-122786900D01*
X91032985Y-122647519D01*
X91151519Y-122528985D01*
X91290900Y-122435853D01*
X91445772Y-122371703D01*
X91610184Y-122339000D01*
X91777816Y-122339000D01*
X91942228Y-122371703D01*
G37*
G36*
X99562228Y-122371703D02*
G01*
X99717100Y-122435853D01*
X99856481Y-122528985D01*
X99975015Y-122647519D01*
X100068147Y-122786900D01*
X100132297Y-122941772D01*
X100165000Y-123106184D01*
X100165000Y-123273816D01*
X100132297Y-123438228D01*
X100068147Y-123593100D01*
X99975015Y-123732481D01*
X99856481Y-123851015D01*
X99717100Y-123944147D01*
X99562228Y-124008297D01*
X99397816Y-124041000D01*
X99230184Y-124041000D01*
X99065772Y-124008297D01*
X98910900Y-123944147D01*
X98771519Y-123851015D01*
X98652985Y-123732481D01*
X98559853Y-123593100D01*
X98495703Y-123438228D01*
X98463000Y-123273816D01*
X98463000Y-123106184D01*
X98495703Y-122941772D01*
X98559853Y-122786900D01*
X98652985Y-122647519D01*
X98771519Y-122528985D01*
X98910900Y-122435853D01*
X99065772Y-122371703D01*
X99230184Y-122339000D01*
X99397816Y-122339000D01*
X99562228Y-122371703D01*
G37*
G36*
X102102228Y-122371703D02*
G01*
X102257100Y-122435853D01*
X102396481Y-122528985D01*
X102515015Y-122647519D01*
X102608147Y-122786900D01*
X102672297Y-122941772D01*
X102705000Y-123106184D01*
X102705000Y-123273816D01*
X102672297Y-123438228D01*
X102608147Y-123593100D01*
X102515015Y-123732481D01*
X102396481Y-123851015D01*
X102257100Y-123944147D01*
X102102228Y-124008297D01*
X101937816Y-124041000D01*
X101770184Y-124041000D01*
X101605772Y-124008297D01*
X101450900Y-123944147D01*
X101311519Y-123851015D01*
X101192985Y-123732481D01*
X101099853Y-123593100D01*
X101035703Y-123438228D01*
X101003000Y-123273816D01*
X101003000Y-123106184D01*
X101035703Y-122941772D01*
X101099853Y-122786900D01*
X101192985Y-122647519D01*
X101311519Y-122528985D01*
X101450900Y-122435853D01*
X101605772Y-122371703D01*
X101770184Y-122339000D01*
X101937816Y-122339000D01*
X102102228Y-122371703D01*
G37*
G36*
X109722228Y-122371703D02*
G01*
X109877100Y-122435853D01*
X110016481Y-122528985D01*
X110135015Y-122647519D01*
X110228147Y-122786900D01*
X110292297Y-122941772D01*
X110325000Y-123106184D01*
X110325000Y-123273816D01*
X110292297Y-123438228D01*
X110228147Y-123593100D01*
X110135015Y-123732481D01*
X110016481Y-123851015D01*
X109877100Y-123944147D01*
X109722228Y-124008297D01*
X109557816Y-124041000D01*
X109390184Y-124041000D01*
X109225772Y-124008297D01*
X109070900Y-123944147D01*
X108931519Y-123851015D01*
X108812985Y-123732481D01*
X108719853Y-123593100D01*
X108655703Y-123438228D01*
X108623000Y-123273816D01*
X108623000Y-123106184D01*
X108655703Y-122941772D01*
X108719853Y-122786900D01*
X108812985Y-122647519D01*
X108931519Y-122528985D01*
X109070900Y-122435853D01*
X109225772Y-122371703D01*
X109390184Y-122339000D01*
X109557816Y-122339000D01*
X109722228Y-122371703D01*
G37*
G36*
X104642228Y-122371703D02*
G01*
X104797100Y-122435853D01*
X104936481Y-122528985D01*
X105055015Y-122647519D01*
X105148147Y-122786900D01*
X105212297Y-122941772D01*
X105245000Y-123106184D01*
X105245000Y-123273816D01*
X105212297Y-123438228D01*
X105148147Y-123593100D01*
X105055015Y-123732481D01*
X104936481Y-123851015D01*
X104797100Y-123944147D01*
X104642228Y-124008297D01*
X104477816Y-124041000D01*
X104310184Y-124041000D01*
X104145772Y-124008297D01*
X103990900Y-123944147D01*
X103851519Y-123851015D01*
X103732985Y-123732481D01*
X103639853Y-123593100D01*
X103575703Y-123438228D01*
X103543000Y-123273816D01*
X103543000Y-123106184D01*
X103575703Y-122941772D01*
X103639853Y-122786900D01*
X103732985Y-122647519D01*
X103851519Y-122528985D01*
X103990900Y-122435853D01*
X104145772Y-122371703D01*
X104310184Y-122339000D01*
X104477816Y-122339000D01*
X104642228Y-122371703D01*
G37*
G36*
X107182228Y-122371703D02*
G01*
X107337100Y-122435853D01*
X107476481Y-122528985D01*
X107595015Y-122647519D01*
X107688147Y-122786900D01*
X107752297Y-122941772D01*
X107785000Y-123106184D01*
X107785000Y-123273816D01*
X107752297Y-123438228D01*
X107688147Y-123593100D01*
X107595015Y-123732481D01*
X107476481Y-123851015D01*
X107337100Y-123944147D01*
X107182228Y-124008297D01*
X107017816Y-124041000D01*
X106850184Y-124041000D01*
X106685772Y-124008297D01*
X106530900Y-123944147D01*
X106391519Y-123851015D01*
X106272985Y-123732481D01*
X106179853Y-123593100D01*
X106115703Y-123438228D01*
X106083000Y-123273816D01*
X106083000Y-123106184D01*
X106115703Y-122941772D01*
X106179853Y-122786900D01*
X106272985Y-122647519D01*
X106391519Y-122528985D01*
X106530900Y-122435853D01*
X106685772Y-122371703D01*
X106850184Y-122339000D01*
X107017816Y-122339000D01*
X107182228Y-122371703D01*
G37*
G36*
X83691591Y-120191085D02*
G01*
X83725569Y-120201393D01*
X83756890Y-120218134D01*
X83784339Y-120240661D01*
X83806866Y-120268110D01*
X83823607Y-120299431D01*
X83833915Y-120333409D01*
X83838000Y-120374890D01*
X83838000Y-120976110D01*
X83833915Y-121017591D01*
X83823607Y-121051569D01*
X83806866Y-121082890D01*
X83784339Y-121110339D01*
X83756890Y-121132866D01*
X83725569Y-121149607D01*
X83691591Y-121159915D01*
X83650110Y-121164000D01*
X82973890Y-121164000D01*
X82932409Y-121159915D01*
X82898431Y-121149607D01*
X82867110Y-121132866D01*
X82839661Y-121110339D01*
X82817134Y-121082890D01*
X82800393Y-121051569D01*
X82790085Y-121017591D01*
X82786000Y-120976110D01*
X82786000Y-120374890D01*
X82790085Y-120333409D01*
X82800393Y-120299431D01*
X82817134Y-120268110D01*
X82839661Y-120240661D01*
X82867110Y-120218134D01*
X82898431Y-120201393D01*
X82932409Y-120191085D01*
X82973890Y-120187000D01*
X83650110Y-120187000D01*
X83691591Y-120191085D01*
G37*
G36*
X81659591Y-120191085D02*
G01*
X81693569Y-120201393D01*
X81724890Y-120218134D01*
X81752339Y-120240661D01*
X81774866Y-120268110D01*
X81791607Y-120299431D01*
X81801915Y-120333409D01*
X81806000Y-120374890D01*
X81806000Y-120976110D01*
X81801915Y-121017591D01*
X81791607Y-121051569D01*
X81774866Y-121082890D01*
X81752339Y-121110339D01*
X81724890Y-121132866D01*
X81693569Y-121149607D01*
X81659591Y-121159915D01*
X81618110Y-121164000D01*
X80941890Y-121164000D01*
X80900409Y-121159915D01*
X80866431Y-121149607D01*
X80835110Y-121132866D01*
X80807661Y-121110339D01*
X80785134Y-121082890D01*
X80768393Y-121051569D01*
X80758085Y-121017591D01*
X80754000Y-120976110D01*
X80754000Y-120374890D01*
X80758085Y-120333409D01*
X80768393Y-120299431D01*
X80785134Y-120268110D01*
X80807661Y-120240661D01*
X80835110Y-120218134D01*
X80866431Y-120201393D01*
X80900409Y-120191085D01*
X80941890Y-120187000D01*
X81618110Y-120187000D01*
X81659591Y-120191085D01*
G37*
G36*
X83691591Y-118616085D02*
G01*
X83725569Y-118626393D01*
X83756890Y-118643134D01*
X83784339Y-118665661D01*
X83806866Y-118693110D01*
X83823607Y-118724431D01*
X83833915Y-118758409D01*
X83838000Y-118799890D01*
X83838000Y-119401110D01*
X83833915Y-119442591D01*
X83823607Y-119476569D01*
X83806866Y-119507890D01*
X83784339Y-119535339D01*
X83756890Y-119557866D01*
X83725569Y-119574607D01*
X83691591Y-119584915D01*
X83650110Y-119589000D01*
X82973890Y-119589000D01*
X82932409Y-119584915D01*
X82898431Y-119574607D01*
X82867110Y-119557866D01*
X82839661Y-119535339D01*
X82817134Y-119507890D01*
X82800393Y-119476569D01*
X82790085Y-119442591D01*
X82786000Y-119401110D01*
X82786000Y-118799890D01*
X82790085Y-118758409D01*
X82800393Y-118724431D01*
X82817134Y-118693110D01*
X82839661Y-118665661D01*
X82867110Y-118643134D01*
X82898431Y-118626393D01*
X82932409Y-118616085D01*
X82973890Y-118612000D01*
X83650110Y-118612000D01*
X83691591Y-118616085D01*
G37*
G36*
X81659591Y-118616085D02*
G01*
X81693569Y-118626393D01*
X81724890Y-118643134D01*
X81752339Y-118665661D01*
X81774866Y-118693110D01*
X81791607Y-118724431D01*
X81801915Y-118758409D01*
X81806000Y-118799890D01*
X81806000Y-119401110D01*
X81801915Y-119442591D01*
X81791607Y-119476569D01*
X81774866Y-119507890D01*
X81752339Y-119535339D01*
X81724890Y-119557866D01*
X81693569Y-119574607D01*
X81659591Y-119584915D01*
X81618110Y-119589000D01*
X80941890Y-119589000D01*
X80900409Y-119584915D01*
X80866431Y-119574607D01*
X80835110Y-119557866D01*
X80807661Y-119535339D01*
X80785134Y-119507890D01*
X80768393Y-119476569D01*
X80758085Y-119442591D01*
X80754000Y-119401110D01*
X80754000Y-118799890D01*
X80758085Y-118758409D01*
X80768393Y-118724431D01*
X80785134Y-118693110D01*
X80807661Y-118665661D01*
X80835110Y-118643134D01*
X80866431Y-118626393D01*
X80900409Y-118616085D01*
X80941890Y-118612000D01*
X81618110Y-118612000D01*
X81659591Y-118616085D01*
G37*
G36*
X102102228Y-114751703D02*
G01*
X102257100Y-114815853D01*
X102396481Y-114908985D01*
X102515015Y-115027519D01*
X102608147Y-115166900D01*
X102672297Y-115321772D01*
X102705000Y-115486184D01*
X102705000Y-115653816D01*
X102672297Y-115818228D01*
X102608147Y-115973100D01*
X102515015Y-116112481D01*
X102396481Y-116231015D01*
X102257100Y-116324147D01*
X102102228Y-116388297D01*
X101937816Y-116421000D01*
X101770184Y-116421000D01*
X101605772Y-116388297D01*
X101450900Y-116324147D01*
X101311519Y-116231015D01*
X101192985Y-116112481D01*
X101099853Y-115973100D01*
X101035703Y-115818228D01*
X101003000Y-115653816D01*
X101003000Y-115486184D01*
X101035703Y-115321772D01*
X101099853Y-115166900D01*
X101192985Y-115027519D01*
X101311519Y-114908985D01*
X101450900Y-114815853D01*
X101605772Y-114751703D01*
X101770184Y-114719000D01*
X101937816Y-114719000D01*
X102102228Y-114751703D01*
G37*
G36*
X109722228Y-114751703D02*
G01*
X109877100Y-114815853D01*
X110016481Y-114908985D01*
X110135015Y-115027519D01*
X110228147Y-115166900D01*
X110292297Y-115321772D01*
X110325000Y-115486184D01*
X110325000Y-115653816D01*
X110292297Y-115818228D01*
X110228147Y-115973100D01*
X110135015Y-116112481D01*
X110016481Y-116231015D01*
X109877100Y-116324147D01*
X109722228Y-116388297D01*
X109557816Y-116421000D01*
X109390184Y-116421000D01*
X109225772Y-116388297D01*
X109070900Y-116324147D01*
X108931519Y-116231015D01*
X108812985Y-116112481D01*
X108719853Y-115973100D01*
X108655703Y-115818228D01*
X108623000Y-115653816D01*
X108623000Y-115486184D01*
X108655703Y-115321772D01*
X108719853Y-115166900D01*
X108812985Y-115027519D01*
X108931519Y-114908985D01*
X109070900Y-114815853D01*
X109225772Y-114751703D01*
X109390184Y-114719000D01*
X109557816Y-114719000D01*
X109722228Y-114751703D01*
G37*
G36*
X107182228Y-114751703D02*
G01*
X107337100Y-114815853D01*
X107476481Y-114908985D01*
X107595015Y-115027519D01*
X107688147Y-115166900D01*
X107752297Y-115321772D01*
X107785000Y-115486184D01*
X107785000Y-115653816D01*
X107752297Y-115818228D01*
X107688147Y-115973100D01*
X107595015Y-116112481D01*
X107476481Y-116231015D01*
X107337100Y-116324147D01*
X107182228Y-116388297D01*
X107017816Y-116421000D01*
X106850184Y-116421000D01*
X106685772Y-116388297D01*
X106530900Y-116324147D01*
X106391519Y-116231015D01*
X106272985Y-116112481D01*
X106179853Y-115973100D01*
X106115703Y-115818228D01*
X106083000Y-115653816D01*
X106083000Y-115486184D01*
X106115703Y-115321772D01*
X106179853Y-115166900D01*
X106272985Y-115027519D01*
X106391519Y-114908985D01*
X106530900Y-114815853D01*
X106685772Y-114751703D01*
X106850184Y-114719000D01*
X107017816Y-114719000D01*
X107182228Y-114751703D01*
G37*
G36*
X104642228Y-114751703D02*
G01*
X104797100Y-114815853D01*
X104936481Y-114908985D01*
X105055015Y-115027519D01*
X105148147Y-115166900D01*
X105212297Y-115321772D01*
X105245000Y-115486184D01*
X105245000Y-115653816D01*
X105212297Y-115818228D01*
X105148147Y-115973100D01*
X105055015Y-116112481D01*
X104936481Y-116231015D01*
X104797100Y-116324147D01*
X104642228Y-116388297D01*
X104477816Y-116421000D01*
X104310184Y-116421000D01*
X104145772Y-116388297D01*
X103990900Y-116324147D01*
X103851519Y-116231015D01*
X103732985Y-116112481D01*
X103639853Y-115973100D01*
X103575703Y-115818228D01*
X103543000Y-115653816D01*
X103543000Y-115486184D01*
X103575703Y-115321772D01*
X103639853Y-115166900D01*
X103732985Y-115027519D01*
X103851519Y-114908985D01*
X103990900Y-114815853D01*
X104145772Y-114751703D01*
X104310184Y-114719000D01*
X104477816Y-114719000D01*
X104642228Y-114751703D01*
G37*
G36*
X99562228Y-114751703D02*
G01*
X99717100Y-114815853D01*
X99856481Y-114908985D01*
X99975015Y-115027519D01*
X100068147Y-115166900D01*
X100132297Y-115321772D01*
X100165000Y-115486184D01*
X100165000Y-115653816D01*
X100132297Y-115818228D01*
X100068147Y-115973100D01*
X99975015Y-116112481D01*
X99856481Y-116231015D01*
X99717100Y-116324147D01*
X99562228Y-116388297D01*
X99397816Y-116421000D01*
X99230184Y-116421000D01*
X99065772Y-116388297D01*
X98910900Y-116324147D01*
X98771519Y-116231015D01*
X98652985Y-116112481D01*
X98559853Y-115973100D01*
X98495703Y-115818228D01*
X98463000Y-115653816D01*
X98463000Y-115486184D01*
X98495703Y-115321772D01*
X98559853Y-115166900D01*
X98652985Y-115027519D01*
X98771519Y-114908985D01*
X98910900Y-114815853D01*
X99065772Y-114751703D01*
X99230184Y-114719000D01*
X99397816Y-114719000D01*
X99562228Y-114751703D01*
G37*
G36*
X97022228Y-114751703D02*
G01*
X97177100Y-114815853D01*
X97316481Y-114908985D01*
X97435015Y-115027519D01*
X97528147Y-115166900D01*
X97592297Y-115321772D01*
X97625000Y-115486184D01*
X97625000Y-115653816D01*
X97592297Y-115818228D01*
X97528147Y-115973100D01*
X97435015Y-116112481D01*
X97316481Y-116231015D01*
X97177100Y-116324147D01*
X97022228Y-116388297D01*
X96857816Y-116421000D01*
X96690184Y-116421000D01*
X96525772Y-116388297D01*
X96370900Y-116324147D01*
X96231519Y-116231015D01*
X96112985Y-116112481D01*
X96019853Y-115973100D01*
X95955703Y-115818228D01*
X95923000Y-115653816D01*
X95923000Y-115486184D01*
X95955703Y-115321772D01*
X96019853Y-115166900D01*
X96112985Y-115027519D01*
X96231519Y-114908985D01*
X96370900Y-114815853D01*
X96525772Y-114751703D01*
X96690184Y-114719000D01*
X96857816Y-114719000D01*
X97022228Y-114751703D01*
G37*
G36*
X94482228Y-114751703D02*
G01*
X94637100Y-114815853D01*
X94776481Y-114908985D01*
X94895015Y-115027519D01*
X94988147Y-115166900D01*
X95052297Y-115321772D01*
X95085000Y-115486184D01*
X95085000Y-115653816D01*
X95052297Y-115818228D01*
X94988147Y-115973100D01*
X94895015Y-116112481D01*
X94776481Y-116231015D01*
X94637100Y-116324147D01*
X94482228Y-116388297D01*
X94317816Y-116421000D01*
X94150184Y-116421000D01*
X93985772Y-116388297D01*
X93830900Y-116324147D01*
X93691519Y-116231015D01*
X93572985Y-116112481D01*
X93479853Y-115973100D01*
X93415703Y-115818228D01*
X93383000Y-115653816D01*
X93383000Y-115486184D01*
X93415703Y-115321772D01*
X93479853Y-115166900D01*
X93572985Y-115027519D01*
X93691519Y-114908985D01*
X93830900Y-114815853D01*
X93985772Y-114751703D01*
X94150184Y-114719000D01*
X94317816Y-114719000D01*
X94482228Y-114751703D01*
G37*
G36*
X92545000Y-116421000D02*
G01*
X90843000Y-116421000D01*
X90843000Y-114719000D01*
X92545000Y-114719000D01*
X92545000Y-116421000D01*
G37*
G36*
X79731000Y-116401000D02*
G01*
X77829000Y-116401000D01*
X77829000Y-114499000D01*
X79731000Y-114499000D01*
X79731000Y-116401000D01*
G37*
G36*
X81557395Y-114535546D02*
G01*
X81730466Y-114607234D01*
X81730467Y-114607235D01*
X81886227Y-114711310D01*
X82018690Y-114843773D01*
X82018691Y-114843775D01*
X82122766Y-114999534D01*
X82194454Y-115172605D01*
X82231000Y-115356333D01*
X82231000Y-115543667D01*
X82194454Y-115727395D01*
X82122766Y-115900466D01*
X82122765Y-115900467D01*
X82018690Y-116056227D01*
X81886227Y-116188690D01*
X81822883Y-116231015D01*
X81730466Y-116292766D01*
X81557395Y-116364454D01*
X81373667Y-116401000D01*
X81186333Y-116401000D01*
X81002605Y-116364454D01*
X80829534Y-116292766D01*
X80737117Y-116231015D01*
X80673773Y-116188690D01*
X80541310Y-116056227D01*
X80437235Y-115900467D01*
X80437234Y-115900466D01*
X80365546Y-115727395D01*
X80329000Y-115543667D01*
X80329000Y-115356333D01*
X80365546Y-115172605D01*
X80437234Y-114999534D01*
X80541309Y-114843775D01*
X80541310Y-114843773D01*
X80673773Y-114711310D01*
X80829533Y-114607235D01*
X80829534Y-114607234D01*
X81002605Y-114535546D01*
X81186333Y-114499000D01*
X81373667Y-114499000D01*
X81557395Y-114535546D01*
G37*
G36*
X84057395Y-114535546D02*
G01*
X84230466Y-114607234D01*
X84230467Y-114607235D01*
X84386227Y-114711310D01*
X84518690Y-114843773D01*
X84518691Y-114843775D01*
X84622766Y-114999534D01*
X84694454Y-115172605D01*
X84731000Y-115356333D01*
X84731000Y-115543667D01*
X84694454Y-115727395D01*
X84622766Y-115900466D01*
X84622765Y-115900467D01*
X84518690Y-116056227D01*
X84386227Y-116188690D01*
X84322883Y-116231015D01*
X84230466Y-116292766D01*
X84057395Y-116364454D01*
X83873667Y-116401000D01*
X83686333Y-116401000D01*
X83502605Y-116364454D01*
X83329534Y-116292766D01*
X83237117Y-116231015D01*
X83173773Y-116188690D01*
X83041310Y-116056227D01*
X82937235Y-115900467D01*
X82937234Y-115900466D01*
X82865546Y-115727395D01*
X82829000Y-115543667D01*
X82829000Y-115356333D01*
X82865546Y-115172605D01*
X82937234Y-114999534D01*
X83041309Y-114843775D01*
X83041310Y-114843773D01*
X83173773Y-114711310D01*
X83329533Y-114607235D01*
X83329534Y-114607234D01*
X83502605Y-114535546D01*
X83686333Y-114499000D01*
X83873667Y-114499000D01*
X84057395Y-114535546D01*
G37*
G36*
X97407591Y-111047085D02*
G01*
X97441569Y-111057393D01*
X97472890Y-111074134D01*
X97500339Y-111096661D01*
X97522866Y-111124110D01*
X97539607Y-111155431D01*
X97549915Y-111189409D01*
X97554000Y-111230890D01*
X97554000Y-111832110D01*
X97549915Y-111873591D01*
X97539607Y-111907569D01*
X97522866Y-111938890D01*
X97500339Y-111966339D01*
X97472890Y-111988866D01*
X97441569Y-112005607D01*
X97407591Y-112015915D01*
X97366110Y-112020000D01*
X96689890Y-112020000D01*
X96648409Y-112015915D01*
X96614431Y-112005607D01*
X96583110Y-111988866D01*
X96555661Y-111966339D01*
X96533134Y-111938890D01*
X96516393Y-111907569D01*
X96506085Y-111873591D01*
X96502000Y-111832110D01*
X96502000Y-111230890D01*
X96506085Y-111189409D01*
X96516393Y-111155431D01*
X96533134Y-111124110D01*
X96555661Y-111096661D01*
X96583110Y-111074134D01*
X96614431Y-111057393D01*
X96648409Y-111047085D01*
X96689890Y-111043000D01*
X97366110Y-111043000D01*
X97407591Y-111047085D01*
G37*
G36*
X90295591Y-111047085D02*
G01*
X90329569Y-111057393D01*
X90360890Y-111074134D01*
X90388339Y-111096661D01*
X90410866Y-111124110D01*
X90427607Y-111155431D01*
X90437915Y-111189409D01*
X90442000Y-111230890D01*
X90442000Y-111832110D01*
X90437915Y-111873591D01*
X90427607Y-111907569D01*
X90410866Y-111938890D01*
X90388339Y-111966339D01*
X90360890Y-111988866D01*
X90329569Y-112005607D01*
X90295591Y-112015915D01*
X90254110Y-112020000D01*
X89577890Y-112020000D01*
X89536409Y-112015915D01*
X89502431Y-112005607D01*
X89471110Y-111988866D01*
X89443661Y-111966339D01*
X89421134Y-111938890D01*
X89404393Y-111907569D01*
X89394085Y-111873591D01*
X89390000Y-111832110D01*
X89390000Y-111230890D01*
X89394085Y-111189409D01*
X89404393Y-111155431D01*
X89421134Y-111124110D01*
X89443661Y-111096661D01*
X89471110Y-111074134D01*
X89502431Y-111057393D01*
X89536409Y-111047085D01*
X89577890Y-111043000D01*
X90254110Y-111043000D01*
X90295591Y-111047085D01*
G37*
G36*
X92073591Y-111047085D02*
G01*
X92107569Y-111057393D01*
X92138890Y-111074134D01*
X92166339Y-111096661D01*
X92188866Y-111124110D01*
X92205607Y-111155431D01*
X92215915Y-111189409D01*
X92220000Y-111230890D01*
X92220000Y-111832110D01*
X92215915Y-111873591D01*
X92205607Y-111907569D01*
X92188866Y-111938890D01*
X92166339Y-111966339D01*
X92138890Y-111988866D01*
X92107569Y-112005607D01*
X92073591Y-112015915D01*
X92032110Y-112020000D01*
X91355890Y-112020000D01*
X91314409Y-112015915D01*
X91280431Y-112005607D01*
X91249110Y-111988866D01*
X91221661Y-111966339D01*
X91199134Y-111938890D01*
X91182393Y-111907569D01*
X91172085Y-111873591D01*
X91168000Y-111832110D01*
X91168000Y-111230890D01*
X91172085Y-111189409D01*
X91182393Y-111155431D01*
X91199134Y-111124110D01*
X91221661Y-111096661D01*
X91249110Y-111074134D01*
X91280431Y-111057393D01*
X91314409Y-111047085D01*
X91355890Y-111043000D01*
X92032110Y-111043000D01*
X92073591Y-111047085D01*
G37*
G36*
X95629591Y-111047085D02*
G01*
X95663569Y-111057393D01*
X95694890Y-111074134D01*
X95722339Y-111096661D01*
X95744866Y-111124110D01*
X95761607Y-111155431D01*
X95771915Y-111189409D01*
X95776000Y-111230890D01*
X95776000Y-111832110D01*
X95771915Y-111873591D01*
X95761607Y-111907569D01*
X95744866Y-111938890D01*
X95722339Y-111966339D01*
X95694890Y-111988866D01*
X95663569Y-112005607D01*
X95629591Y-112015915D01*
X95588110Y-112020000D01*
X94911890Y-112020000D01*
X94870409Y-112015915D01*
X94836431Y-112005607D01*
X94805110Y-111988866D01*
X94777661Y-111966339D01*
X94755134Y-111938890D01*
X94738393Y-111907569D01*
X94728085Y-111873591D01*
X94724000Y-111832110D01*
X94724000Y-111230890D01*
X94728085Y-111189409D01*
X94738393Y-111155431D01*
X94755134Y-111124110D01*
X94777661Y-111096661D01*
X94805110Y-111074134D01*
X94836431Y-111057393D01*
X94870409Y-111047085D01*
X94911890Y-111043000D01*
X95588110Y-111043000D01*
X95629591Y-111047085D01*
G37*
G36*
X93851591Y-111047085D02*
G01*
X93885569Y-111057393D01*
X93916890Y-111074134D01*
X93944339Y-111096661D01*
X93966866Y-111124110D01*
X93983607Y-111155431D01*
X93993915Y-111189409D01*
X93998000Y-111230890D01*
X93998000Y-111832110D01*
X93993915Y-111873591D01*
X93983607Y-111907569D01*
X93966866Y-111938890D01*
X93944339Y-111966339D01*
X93916890Y-111988866D01*
X93885569Y-112005607D01*
X93851591Y-112015915D01*
X93810110Y-112020000D01*
X93133890Y-112020000D01*
X93092409Y-112015915D01*
X93058431Y-112005607D01*
X93027110Y-111988866D01*
X92999661Y-111966339D01*
X92977134Y-111938890D01*
X92960393Y-111907569D01*
X92950085Y-111873591D01*
X92946000Y-111832110D01*
X92946000Y-111230890D01*
X92950085Y-111189409D01*
X92960393Y-111155431D01*
X92977134Y-111124110D01*
X92999661Y-111096661D01*
X93027110Y-111074134D01*
X93058431Y-111057393D01*
X93092409Y-111047085D01*
X93133890Y-111043000D01*
X93810110Y-111043000D01*
X93851591Y-111047085D01*
G37*
G36*
X105855589Y-109038876D02*
G01*
X105954893Y-109058629D01*
X106095206Y-109116748D01*
X106221484Y-109201125D01*
X106328875Y-109308516D01*
X106413252Y-109434794D01*
X106471371Y-109575107D01*
X106501000Y-109724063D01*
X106501000Y-109875937D01*
X106471371Y-110024893D01*
X106413252Y-110165206D01*
X106328875Y-110291484D01*
X106221484Y-110398875D01*
X106095206Y-110483252D01*
X105954893Y-110541371D01*
X105855589Y-110561124D01*
X105805938Y-110571000D01*
X105654062Y-110571000D01*
X105604411Y-110561124D01*
X105505107Y-110541371D01*
X105364794Y-110483252D01*
X105238516Y-110398875D01*
X105131125Y-110291484D01*
X105046748Y-110165206D01*
X104988629Y-110024893D01*
X104959000Y-109875937D01*
X104959000Y-109724063D01*
X104988629Y-109575107D01*
X105046748Y-109434794D01*
X105131125Y-109308516D01*
X105238516Y-109201125D01*
X105364794Y-109116748D01*
X105505107Y-109058629D01*
X105604411Y-109038876D01*
X105654062Y-109029000D01*
X105805938Y-109029000D01*
X105855589Y-109038876D01*
G37*
G36*
X103315589Y-109038876D02*
G01*
X103414893Y-109058629D01*
X103555206Y-109116748D01*
X103681484Y-109201125D01*
X103788875Y-109308516D01*
X103873252Y-109434794D01*
X103931371Y-109575107D01*
X103961000Y-109724063D01*
X103961000Y-109875937D01*
X103931371Y-110024893D01*
X103873252Y-110165206D01*
X103788875Y-110291484D01*
X103681484Y-110398875D01*
X103555206Y-110483252D01*
X103414893Y-110541371D01*
X103315589Y-110561124D01*
X103265938Y-110571000D01*
X103114062Y-110571000D01*
X103064411Y-110561124D01*
X102965107Y-110541371D01*
X102824794Y-110483252D01*
X102698516Y-110398875D01*
X102591125Y-110291484D01*
X102506748Y-110165206D01*
X102448629Y-110024893D01*
X102419000Y-109875937D01*
X102419000Y-109724063D01*
X102448629Y-109575107D01*
X102506748Y-109434794D01*
X102591125Y-109308516D01*
X102698516Y-109201125D01*
X102824794Y-109116748D01*
X102965107Y-109058629D01*
X103064411Y-109038876D01*
X103114062Y-109029000D01*
X103265938Y-109029000D01*
X103315589Y-109038876D01*
G37*
G36*
X100775589Y-109038876D02*
G01*
X100874893Y-109058629D01*
X101015206Y-109116748D01*
X101141484Y-109201125D01*
X101248875Y-109308516D01*
X101333252Y-109434794D01*
X101391371Y-109575107D01*
X101421000Y-109724063D01*
X101421000Y-109875937D01*
X101391371Y-110024893D01*
X101333252Y-110165206D01*
X101248875Y-110291484D01*
X101141484Y-110398875D01*
X101015206Y-110483252D01*
X100874893Y-110541371D01*
X100775589Y-110561124D01*
X100725938Y-110571000D01*
X100574062Y-110571000D01*
X100524411Y-110561124D01*
X100425107Y-110541371D01*
X100284794Y-110483252D01*
X100158516Y-110398875D01*
X100051125Y-110291484D01*
X99966748Y-110165206D01*
X99908629Y-110024893D01*
X99879000Y-109875937D01*
X99879000Y-109724063D01*
X99908629Y-109575107D01*
X99966748Y-109434794D01*
X100051125Y-109308516D01*
X100158516Y-109201125D01*
X100284794Y-109116748D01*
X100425107Y-109058629D01*
X100524411Y-109038876D01*
X100574062Y-109029000D01*
X100725938Y-109029000D01*
X100775589Y-109038876D01*
G37*
G36*
X95629591Y-109472085D02*
G01*
X95663569Y-109482393D01*
X95694890Y-109499134D01*
X95722339Y-109521661D01*
X95744866Y-109549110D01*
X95761607Y-109580431D01*
X95771915Y-109614409D01*
X95776000Y-109655890D01*
X95776000Y-110257110D01*
X95771915Y-110298591D01*
X95761607Y-110332569D01*
X95744866Y-110363890D01*
X95722339Y-110391339D01*
X95694890Y-110413866D01*
X95663569Y-110430607D01*
X95629591Y-110440915D01*
X95588110Y-110445000D01*
X94911890Y-110445000D01*
X94870409Y-110440915D01*
X94836431Y-110430607D01*
X94805110Y-110413866D01*
X94777661Y-110391339D01*
X94755134Y-110363890D01*
X94738393Y-110332569D01*
X94728085Y-110298591D01*
X94724000Y-110257110D01*
X94724000Y-109655890D01*
X94728085Y-109614409D01*
X94738393Y-109580431D01*
X94755134Y-109549110D01*
X94777661Y-109521661D01*
X94805110Y-109499134D01*
X94836431Y-109482393D01*
X94870409Y-109472085D01*
X94911890Y-109468000D01*
X95588110Y-109468000D01*
X95629591Y-109472085D01*
G37*
G36*
X97407591Y-109472085D02*
G01*
X97441569Y-109482393D01*
X97472890Y-109499134D01*
X97500339Y-109521661D01*
X97522866Y-109549110D01*
X97539607Y-109580431D01*
X97549915Y-109614409D01*
X97554000Y-109655890D01*
X97554000Y-110257110D01*
X97549915Y-110298591D01*
X97539607Y-110332569D01*
X97522866Y-110363890D01*
X97500339Y-110391339D01*
X97472890Y-110413866D01*
X97441569Y-110430607D01*
X97407591Y-110440915D01*
X97366110Y-110445000D01*
X96689890Y-110445000D01*
X96648409Y-110440915D01*
X96614431Y-110430607D01*
X96583110Y-110413866D01*
X96555661Y-110391339D01*
X96533134Y-110363890D01*
X96516393Y-110332569D01*
X96506085Y-110298591D01*
X96502000Y-110257110D01*
X96502000Y-109655890D01*
X96506085Y-109614409D01*
X96516393Y-109580431D01*
X96533134Y-109549110D01*
X96555661Y-109521661D01*
X96583110Y-109499134D01*
X96614431Y-109482393D01*
X96648409Y-109472085D01*
X96689890Y-109468000D01*
X97366110Y-109468000D01*
X97407591Y-109472085D01*
G37*
G36*
X93851591Y-109472085D02*
G01*
X93885569Y-109482393D01*
X93916890Y-109499134D01*
X93944339Y-109521661D01*
X93966866Y-109549110D01*
X93983607Y-109580431D01*
X93993915Y-109614409D01*
X93998000Y-109655890D01*
X93998000Y-110257110D01*
X93993915Y-110298591D01*
X93983607Y-110332569D01*
X93966866Y-110363890D01*
X93944339Y-110391339D01*
X93916890Y-110413866D01*
X93885569Y-110430607D01*
X93851591Y-110440915D01*
X93810110Y-110445000D01*
X93133890Y-110445000D01*
X93092409Y-110440915D01*
X93058431Y-110430607D01*
X93027110Y-110413866D01*
X92999661Y-110391339D01*
X92977134Y-110363890D01*
X92960393Y-110332569D01*
X92950085Y-110298591D01*
X92946000Y-110257110D01*
X92946000Y-109655890D01*
X92950085Y-109614409D01*
X92960393Y-109580431D01*
X92977134Y-109549110D01*
X92999661Y-109521661D01*
X93027110Y-109499134D01*
X93058431Y-109482393D01*
X93092409Y-109472085D01*
X93133890Y-109468000D01*
X93810110Y-109468000D01*
X93851591Y-109472085D01*
G37*
G36*
X92073591Y-109472085D02*
G01*
X92107569Y-109482393D01*
X92138890Y-109499134D01*
X92166339Y-109521661D01*
X92188866Y-109549110D01*
X92205607Y-109580431D01*
X92215915Y-109614409D01*
X92220000Y-109655890D01*
X92220000Y-110257110D01*
X92215915Y-110298591D01*
X92205607Y-110332569D01*
X92188866Y-110363890D01*
X92166339Y-110391339D01*
X92138890Y-110413866D01*
X92107569Y-110430607D01*
X92073591Y-110440915D01*
X92032110Y-110445000D01*
X91355890Y-110445000D01*
X91314409Y-110440915D01*
X91280431Y-110430607D01*
X91249110Y-110413866D01*
X91221661Y-110391339D01*
X91199134Y-110363890D01*
X91182393Y-110332569D01*
X91172085Y-110298591D01*
X91168000Y-110257110D01*
X91168000Y-109655890D01*
X91172085Y-109614409D01*
X91182393Y-109580431D01*
X91199134Y-109549110D01*
X91221661Y-109521661D01*
X91249110Y-109499134D01*
X91280431Y-109482393D01*
X91314409Y-109472085D01*
X91355890Y-109468000D01*
X92032110Y-109468000D01*
X92073591Y-109472085D01*
G37*
G36*
X90295591Y-109472085D02*
G01*
X90329569Y-109482393D01*
X90360890Y-109499134D01*
X90388339Y-109521661D01*
X90410866Y-109549110D01*
X90427607Y-109580431D01*
X90437915Y-109614409D01*
X90442000Y-109655890D01*
X90442000Y-110257110D01*
X90437915Y-110298591D01*
X90427607Y-110332569D01*
X90410866Y-110363890D01*
X90388339Y-110391339D01*
X90360890Y-110413866D01*
X90329569Y-110430607D01*
X90295591Y-110440915D01*
X90254110Y-110445000D01*
X89577890Y-110445000D01*
X89536409Y-110440915D01*
X89502431Y-110430607D01*
X89471110Y-110413866D01*
X89443661Y-110391339D01*
X89421134Y-110363890D01*
X89404393Y-110332569D01*
X89394085Y-110298591D01*
X89390000Y-110257110D01*
X89390000Y-109655890D01*
X89394085Y-109614409D01*
X89404393Y-109580431D01*
X89421134Y-109549110D01*
X89443661Y-109521661D01*
X89471110Y-109499134D01*
X89502431Y-109482393D01*
X89536409Y-109472085D01*
X89577890Y-109468000D01*
X90254110Y-109468000D01*
X90295591Y-109472085D01*
G37*
G36*
X76967412Y-106343215D02*
G01*
X77271514Y-106469178D01*
X77545199Y-106652049D01*
X77777951Y-106884801D01*
X77960822Y-107158486D01*
X78086785Y-107462588D01*
X78151000Y-107785420D01*
X78151000Y-108114580D01*
X78086785Y-108437412D01*
X77960822Y-108741514D01*
X77777951Y-109015199D01*
X77545199Y-109247951D01*
X77271514Y-109430822D01*
X76967412Y-109556785D01*
X76644580Y-109621000D01*
X76315420Y-109621000D01*
X75992588Y-109556785D01*
X75688486Y-109430822D01*
X75414801Y-109247951D01*
X75182049Y-109015199D01*
X74999178Y-108741514D01*
X74873215Y-108437412D01*
X74809000Y-108114580D01*
X74809000Y-107785420D01*
X74873215Y-107462588D01*
X74999178Y-107158486D01*
X75182049Y-106884801D01*
X75414801Y-106652049D01*
X75688486Y-106469178D01*
X75992588Y-106343215D01*
X76315420Y-106279000D01*
X76644580Y-106279000D01*
X76967412Y-106343215D01*
G37*
G36*
X86567412Y-106343215D02*
G01*
X86871514Y-106469178D01*
X87145199Y-106652049D01*
X87377951Y-106884801D01*
X87560822Y-107158486D01*
X87686785Y-107462588D01*
X87751000Y-107785420D01*
X87751000Y-108114580D01*
X87686785Y-108437412D01*
X87560822Y-108741514D01*
X87377951Y-109015199D01*
X87145199Y-109247951D01*
X86871514Y-109430822D01*
X86567412Y-109556785D01*
X86244580Y-109621000D01*
X85915420Y-109621000D01*
X85592588Y-109556785D01*
X85288486Y-109430822D01*
X85014801Y-109247951D01*
X84782049Y-109015199D01*
X84599178Y-108741514D01*
X84473215Y-108437412D01*
X84409000Y-108114580D01*
X84409000Y-107785420D01*
X84473215Y-107462588D01*
X84599178Y-107158486D01*
X84782049Y-106884801D01*
X85014801Y-106652049D01*
X85288486Y-106469178D01*
X85592588Y-106343215D01*
X85915420Y-106279000D01*
X86244580Y-106279000D01*
X86567412Y-106343215D01*
G37*
G36*
X100775589Y-103038876D02*
G01*
X100874893Y-103058629D01*
X101015206Y-103116748D01*
X101141484Y-103201125D01*
X101248875Y-103308516D01*
X101333252Y-103434794D01*
X101391371Y-103575107D01*
X101421000Y-103724063D01*
X101421000Y-103875937D01*
X101391371Y-104024893D01*
X101333252Y-104165206D01*
X101248875Y-104291484D01*
X101141484Y-104398875D01*
X101015206Y-104483252D01*
X100874893Y-104541371D01*
X100775589Y-104561124D01*
X100725938Y-104571000D01*
X100574062Y-104571000D01*
X100524411Y-104561124D01*
X100425107Y-104541371D01*
X100284794Y-104483252D01*
X100158516Y-104398875D01*
X100051125Y-104291484D01*
X99966748Y-104165206D01*
X99908629Y-104024893D01*
X99879000Y-103875937D01*
X99879000Y-103724063D01*
X99908629Y-103575107D01*
X99966748Y-103434794D01*
X100051125Y-103308516D01*
X100158516Y-103201125D01*
X100284794Y-103116748D01*
X100425107Y-103058629D01*
X100524411Y-103038876D01*
X100574062Y-103029000D01*
X100725938Y-103029000D01*
X100775589Y-103038876D01*
G37*
G36*
X103315589Y-103038876D02*
G01*
X103414893Y-103058629D01*
X103555206Y-103116748D01*
X103681484Y-103201125D01*
X103788875Y-103308516D01*
X103873252Y-103434794D01*
X103931371Y-103575107D01*
X103961000Y-103724063D01*
X103961000Y-103875937D01*
X103931371Y-104024893D01*
X103873252Y-104165206D01*
X103788875Y-104291484D01*
X103681484Y-104398875D01*
X103555206Y-104483252D01*
X103414893Y-104541371D01*
X103315589Y-104561124D01*
X103265938Y-104571000D01*
X103114062Y-104571000D01*
X103064411Y-104561124D01*
X102965107Y-104541371D01*
X102824794Y-104483252D01*
X102698516Y-104398875D01*
X102591125Y-104291484D01*
X102506748Y-104165206D01*
X102448629Y-104024893D01*
X102419000Y-103875937D01*
X102419000Y-103724063D01*
X102448629Y-103575107D01*
X102506748Y-103434794D01*
X102591125Y-103308516D01*
X102698516Y-103201125D01*
X102824794Y-103116748D01*
X102965107Y-103058629D01*
X103064411Y-103038876D01*
X103114062Y-103029000D01*
X103265938Y-103029000D01*
X103315589Y-103038876D01*
G37*
G36*
X105855589Y-103038876D02*
G01*
X105954893Y-103058629D01*
X106095206Y-103116748D01*
X106221484Y-103201125D01*
X106328875Y-103308516D01*
X106413252Y-103434794D01*
X106471371Y-103575107D01*
X106501000Y-103724063D01*
X106501000Y-103875937D01*
X106471371Y-104024893D01*
X106413252Y-104165206D01*
X106328875Y-104291484D01*
X106221484Y-104398875D01*
X106095206Y-104483252D01*
X105954893Y-104541371D01*
X105855589Y-104561124D01*
X105805938Y-104571000D01*
X105654062Y-104571000D01*
X105604411Y-104561124D01*
X105505107Y-104541371D01*
X105364794Y-104483252D01*
X105238516Y-104398875D01*
X105131125Y-104291484D01*
X105046748Y-104165206D01*
X104988629Y-104024893D01*
X104959000Y-103875937D01*
X104959000Y-103724063D01*
X104988629Y-103575107D01*
X105046748Y-103434794D01*
X105131125Y-103308516D01*
X105238516Y-103201125D01*
X105364794Y-103116748D01*
X105505107Y-103058629D01*
X105604411Y-103038876D01*
X105654062Y-103029000D01*
X105805938Y-103029000D01*
X105855589Y-103038876D01*
G37*
G36*
X106031591Y-96252085D02*
G01*
X106065569Y-96262393D01*
X106096890Y-96279134D01*
X106124339Y-96301661D01*
X106146866Y-96329110D01*
X106163607Y-96360431D01*
X106173915Y-96394409D01*
X106178000Y-96435890D01*
X106178000Y-97112110D01*
X106173915Y-97153591D01*
X106163607Y-97187569D01*
X106146866Y-97218890D01*
X106124339Y-97246339D01*
X106096890Y-97268866D01*
X106065569Y-97285607D01*
X106031591Y-97295915D01*
X105990110Y-97300000D01*
X105388890Y-97300000D01*
X105347409Y-97295915D01*
X105313431Y-97285607D01*
X105282110Y-97268866D01*
X105254661Y-97246339D01*
X105232134Y-97218890D01*
X105215393Y-97187569D01*
X105205085Y-97153591D01*
X105201000Y-97112110D01*
X105201000Y-96435890D01*
X105205085Y-96394409D01*
X105215393Y-96360431D01*
X105232134Y-96329110D01*
X105254661Y-96301661D01*
X105282110Y-96279134D01*
X105313431Y-96262393D01*
X105347409Y-96252085D01*
X105388890Y-96248000D01*
X105990110Y-96248000D01*
X106031591Y-96252085D01*
G37*
G36*
X104456591Y-96252085D02*
G01*
X104490569Y-96262393D01*
X104521890Y-96279134D01*
X104549339Y-96301661D01*
X104571866Y-96329110D01*
X104588607Y-96360431D01*
X104598915Y-96394409D01*
X104603000Y-96435890D01*
X104603000Y-97112110D01*
X104598915Y-97153591D01*
X104588607Y-97187569D01*
X104571866Y-97218890D01*
X104549339Y-97246339D01*
X104521890Y-97268866D01*
X104490569Y-97285607D01*
X104456591Y-97295915D01*
X104415110Y-97300000D01*
X103813890Y-97300000D01*
X103772409Y-97295915D01*
X103738431Y-97285607D01*
X103707110Y-97268866D01*
X103679661Y-97246339D01*
X103657134Y-97218890D01*
X103640393Y-97187569D01*
X103630085Y-97153591D01*
X103626000Y-97112110D01*
X103626000Y-96435890D01*
X103630085Y-96394409D01*
X103640393Y-96360431D01*
X103657134Y-96329110D01*
X103679661Y-96301661D01*
X103707110Y-96279134D01*
X103738431Y-96262393D01*
X103772409Y-96252085D01*
X103813890Y-96248000D01*
X104415110Y-96248000D01*
X104456591Y-96252085D01*
G37*
G36*
X102475591Y-96252085D02*
G01*
X102509569Y-96262393D01*
X102540890Y-96279134D01*
X102568339Y-96301661D01*
X102590866Y-96329110D01*
X102607607Y-96360431D01*
X102617915Y-96394409D01*
X102622000Y-96435890D01*
X102622000Y-97112110D01*
X102617915Y-97153591D01*
X102607607Y-97187569D01*
X102590866Y-97218890D01*
X102568339Y-97246339D01*
X102540890Y-97268866D01*
X102509569Y-97285607D01*
X102475591Y-97295915D01*
X102434110Y-97300000D01*
X101832890Y-97300000D01*
X101791409Y-97295915D01*
X101757431Y-97285607D01*
X101726110Y-97268866D01*
X101698661Y-97246339D01*
X101676134Y-97218890D01*
X101659393Y-97187569D01*
X101649085Y-97153591D01*
X101645000Y-97112110D01*
X101645000Y-96435890D01*
X101649085Y-96394409D01*
X101659393Y-96360431D01*
X101676134Y-96329110D01*
X101698661Y-96301661D01*
X101726110Y-96279134D01*
X101757431Y-96262393D01*
X101791409Y-96252085D01*
X101832890Y-96248000D01*
X102434110Y-96248000D01*
X102475591Y-96252085D01*
G37*
G36*
X100900591Y-96252085D02*
G01*
X100934569Y-96262393D01*
X100965890Y-96279134D01*
X100993339Y-96301661D01*
X101015866Y-96329110D01*
X101032607Y-96360431D01*
X101042915Y-96394409D01*
X101047000Y-96435890D01*
X101047000Y-97112110D01*
X101042915Y-97153591D01*
X101032607Y-97187569D01*
X101015866Y-97218890D01*
X100993339Y-97246339D01*
X100965890Y-97268866D01*
X100934569Y-97285607D01*
X100900591Y-97295915D01*
X100859110Y-97300000D01*
X100257890Y-97300000D01*
X100216409Y-97295915D01*
X100182431Y-97285607D01*
X100151110Y-97268866D01*
X100123661Y-97246339D01*
X100101134Y-97218890D01*
X100084393Y-97187569D01*
X100074085Y-97153591D01*
X100070000Y-97112110D01*
X100070000Y-96435890D01*
X100074085Y-96394409D01*
X100084393Y-96360431D01*
X100101134Y-96329110D01*
X100123661Y-96301661D01*
X100151110Y-96279134D01*
X100182431Y-96262393D01*
X100216409Y-96252085D01*
X100257890Y-96248000D01*
X100859110Y-96248000D01*
X100900591Y-96252085D01*
G37*
G36*
X80834591Y-95490085D02*
G01*
X80868569Y-95500393D01*
X80899890Y-95517134D01*
X80927339Y-95539661D01*
X80949866Y-95567110D01*
X80966607Y-95598431D01*
X80976915Y-95632409D01*
X80981000Y-95673890D01*
X80981000Y-96350110D01*
X80976915Y-96391591D01*
X80966607Y-96425569D01*
X80949866Y-96456890D01*
X80927339Y-96484339D01*
X80899890Y-96506866D01*
X80868569Y-96523607D01*
X80834591Y-96533915D01*
X80793110Y-96538000D01*
X80191890Y-96538000D01*
X80150409Y-96533915D01*
X80116431Y-96523607D01*
X80085110Y-96506866D01*
X80057661Y-96484339D01*
X80035134Y-96456890D01*
X80018393Y-96425569D01*
X80008085Y-96391591D01*
X80004000Y-96350110D01*
X80004000Y-95673890D01*
X80008085Y-95632409D01*
X80018393Y-95598431D01*
X80035134Y-95567110D01*
X80057661Y-95539661D01*
X80085110Y-95517134D01*
X80116431Y-95500393D01*
X80150409Y-95490085D01*
X80191890Y-95486000D01*
X80793110Y-95486000D01*
X80834591Y-95490085D01*
G37*
G36*
X82409591Y-95490085D02*
G01*
X82443569Y-95500393D01*
X82474890Y-95517134D01*
X82502339Y-95539661D01*
X82524866Y-95567110D01*
X82541607Y-95598431D01*
X82551915Y-95632409D01*
X82556000Y-95673890D01*
X82556000Y-96350110D01*
X82551915Y-96391591D01*
X82541607Y-96425569D01*
X82524866Y-96456890D01*
X82502339Y-96484339D01*
X82474890Y-96506866D01*
X82443569Y-96523607D01*
X82409591Y-96533915D01*
X82368110Y-96538000D01*
X81766890Y-96538000D01*
X81725409Y-96533915D01*
X81691431Y-96523607D01*
X81660110Y-96506866D01*
X81632661Y-96484339D01*
X81610134Y-96456890D01*
X81593393Y-96425569D01*
X81583085Y-96391591D01*
X81579000Y-96350110D01*
X81579000Y-95673890D01*
X81583085Y-95632409D01*
X81593393Y-95598431D01*
X81610134Y-95567110D01*
X81632661Y-95539661D01*
X81660110Y-95517134D01*
X81691431Y-95500393D01*
X81725409Y-95490085D01*
X81766890Y-95486000D01*
X82368110Y-95486000D01*
X82409591Y-95490085D01*
G37*
G36*
X106031591Y-94474085D02*
G01*
X106065569Y-94484393D01*
X106096890Y-94501134D01*
X106124339Y-94523661D01*
X106146866Y-94551110D01*
X106163607Y-94582431D01*
X106173915Y-94616409D01*
X106178000Y-94657890D01*
X106178000Y-95334110D01*
X106173915Y-95375591D01*
X106163607Y-95409569D01*
X106146866Y-95440890D01*
X106124339Y-95468339D01*
X106096890Y-95490866D01*
X106065569Y-95507607D01*
X106031591Y-95517915D01*
X105990110Y-95522000D01*
X105388890Y-95522000D01*
X105347409Y-95517915D01*
X105313431Y-95507607D01*
X105282110Y-95490866D01*
X105254661Y-95468339D01*
X105232134Y-95440890D01*
X105215393Y-95409569D01*
X105205085Y-95375591D01*
X105201000Y-95334110D01*
X105201000Y-94657890D01*
X105205085Y-94616409D01*
X105215393Y-94582431D01*
X105232134Y-94551110D01*
X105254661Y-94523661D01*
X105282110Y-94501134D01*
X105313431Y-94484393D01*
X105347409Y-94474085D01*
X105388890Y-94470000D01*
X105990110Y-94470000D01*
X106031591Y-94474085D01*
G37*
G36*
X104456591Y-94474085D02*
G01*
X104490569Y-94484393D01*
X104521890Y-94501134D01*
X104549339Y-94523661D01*
X104571866Y-94551110D01*
X104588607Y-94582431D01*
X104598915Y-94616409D01*
X104603000Y-94657890D01*
X104603000Y-95334110D01*
X104598915Y-95375591D01*
X104588607Y-95409569D01*
X104571866Y-95440890D01*
X104549339Y-95468339D01*
X104521890Y-95490866D01*
X104490569Y-95507607D01*
X104456591Y-95517915D01*
X104415110Y-95522000D01*
X103813890Y-95522000D01*
X103772409Y-95517915D01*
X103738431Y-95507607D01*
X103707110Y-95490866D01*
X103679661Y-95468339D01*
X103657134Y-95440890D01*
X103640393Y-95409569D01*
X103630085Y-95375591D01*
X103626000Y-95334110D01*
X103626000Y-94657890D01*
X103630085Y-94616409D01*
X103640393Y-94582431D01*
X103657134Y-94551110D01*
X103679661Y-94523661D01*
X103707110Y-94501134D01*
X103738431Y-94484393D01*
X103772409Y-94474085D01*
X103813890Y-94470000D01*
X104415110Y-94470000D01*
X104456591Y-94474085D01*
G37*
G36*
X108012591Y-94474085D02*
G01*
X108046569Y-94484393D01*
X108077890Y-94501134D01*
X108105339Y-94523661D01*
X108127866Y-94551110D01*
X108144607Y-94582431D01*
X108154915Y-94616409D01*
X108159000Y-94657890D01*
X108159000Y-95334110D01*
X108154915Y-95375591D01*
X108144607Y-95409569D01*
X108127866Y-95440890D01*
X108105339Y-95468339D01*
X108077890Y-95490866D01*
X108046569Y-95507607D01*
X108012591Y-95517915D01*
X107971110Y-95522000D01*
X107369890Y-95522000D01*
X107328409Y-95517915D01*
X107294431Y-95507607D01*
X107263110Y-95490866D01*
X107235661Y-95468339D01*
X107213134Y-95440890D01*
X107196393Y-95409569D01*
X107186085Y-95375591D01*
X107182000Y-95334110D01*
X107182000Y-94657890D01*
X107186085Y-94616409D01*
X107196393Y-94582431D01*
X107213134Y-94551110D01*
X107235661Y-94523661D01*
X107263110Y-94501134D01*
X107294431Y-94484393D01*
X107328409Y-94474085D01*
X107369890Y-94470000D01*
X107971110Y-94470000D01*
X108012591Y-94474085D01*
G37*
G36*
X109587591Y-94474085D02*
G01*
X109621569Y-94484393D01*
X109652890Y-94501134D01*
X109680339Y-94523661D01*
X109702866Y-94551110D01*
X109719607Y-94582431D01*
X109729915Y-94616409D01*
X109734000Y-94657890D01*
X109734000Y-95334110D01*
X109729915Y-95375591D01*
X109719607Y-95409569D01*
X109702866Y-95440890D01*
X109680339Y-95468339D01*
X109652890Y-95490866D01*
X109621569Y-95507607D01*
X109587591Y-95517915D01*
X109546110Y-95522000D01*
X108944890Y-95522000D01*
X108903409Y-95517915D01*
X108869431Y-95507607D01*
X108838110Y-95490866D01*
X108810661Y-95468339D01*
X108788134Y-95440890D01*
X108771393Y-95409569D01*
X108761085Y-95375591D01*
X108757000Y-95334110D01*
X108757000Y-94657890D01*
X108761085Y-94616409D01*
X108771393Y-94582431D01*
X108788134Y-94551110D01*
X108810661Y-94523661D01*
X108838110Y-94501134D01*
X108869431Y-94484393D01*
X108903409Y-94474085D01*
X108944890Y-94470000D01*
X109546110Y-94470000D01*
X109587591Y-94474085D01*
G37*
G36*
X109457395Y-91675546D02*
G01*
X109630466Y-91747234D01*
X109630467Y-91747235D01*
X109786227Y-91851310D01*
X109918690Y-91983773D01*
X109918691Y-91983775D01*
X110022766Y-92139534D01*
X110094454Y-92312605D01*
X110131000Y-92496333D01*
X110131000Y-92683667D01*
X110094454Y-92867395D01*
X110022766Y-93040466D01*
X110022765Y-93040467D01*
X109918690Y-93196227D01*
X109786227Y-93328690D01*
X109707818Y-93381081D01*
X109630466Y-93432766D01*
X109457395Y-93504454D01*
X109273667Y-93541000D01*
X109086333Y-93541000D01*
X108902605Y-93504454D01*
X108729534Y-93432766D01*
X108652182Y-93381081D01*
X108573773Y-93328690D01*
X108441310Y-93196227D01*
X108337235Y-93040467D01*
X108337234Y-93040466D01*
X108265546Y-92867395D01*
X108229000Y-92683667D01*
X108229000Y-92496333D01*
X108265546Y-92312605D01*
X108337234Y-92139534D01*
X108441309Y-91983775D01*
X108441310Y-91983773D01*
X108573773Y-91851310D01*
X108729533Y-91747235D01*
X108729534Y-91747234D01*
X108902605Y-91675546D01*
X109086333Y-91639000D01*
X109273667Y-91639000D01*
X109457395Y-91675546D01*
G37*
G36*
X106957395Y-91675546D02*
G01*
X107130466Y-91747234D01*
X107130467Y-91747235D01*
X107286227Y-91851310D01*
X107418690Y-91983773D01*
X107418691Y-91983775D01*
X107522766Y-92139534D01*
X107594454Y-92312605D01*
X107631000Y-92496333D01*
X107631000Y-92683667D01*
X107594454Y-92867395D01*
X107522766Y-93040466D01*
X107522765Y-93040467D01*
X107418690Y-93196227D01*
X107286227Y-93328690D01*
X107207818Y-93381081D01*
X107130466Y-93432766D01*
X106957395Y-93504454D01*
X106773667Y-93541000D01*
X106586333Y-93541000D01*
X106402605Y-93504454D01*
X106229534Y-93432766D01*
X106152182Y-93381081D01*
X106073773Y-93328690D01*
X105941310Y-93196227D01*
X105837235Y-93040467D01*
X105837234Y-93040466D01*
X105765546Y-92867395D01*
X105729000Y-92683667D01*
X105729000Y-92496333D01*
X105765546Y-92312605D01*
X105837234Y-92139534D01*
X105941309Y-91983775D01*
X105941310Y-91983773D01*
X106073773Y-91851310D01*
X106229533Y-91747235D01*
X106229534Y-91747234D01*
X106402605Y-91675546D01*
X106586333Y-91639000D01*
X106773667Y-91639000D01*
X106957395Y-91675546D01*
G37*
G36*
X79731000Y-93541000D02*
G01*
X77829000Y-93541000D01*
X77829000Y-91639000D01*
X79731000Y-91639000D01*
X79731000Y-93541000D01*
G37*
G36*
X84057395Y-91675546D02*
G01*
X84230466Y-91747234D01*
X84230467Y-91747235D01*
X84386227Y-91851310D01*
X84518690Y-91983773D01*
X84518691Y-91983775D01*
X84622766Y-92139534D01*
X84694454Y-92312605D01*
X84731000Y-92496333D01*
X84731000Y-92683667D01*
X84694454Y-92867395D01*
X84622766Y-93040466D01*
X84622765Y-93040467D01*
X84518690Y-93196227D01*
X84386227Y-93328690D01*
X84307818Y-93381081D01*
X84230466Y-93432766D01*
X84057395Y-93504454D01*
X83873667Y-93541000D01*
X83686333Y-93541000D01*
X83502605Y-93504454D01*
X83329534Y-93432766D01*
X83252182Y-93381081D01*
X83173773Y-93328690D01*
X83041310Y-93196227D01*
X82937235Y-93040467D01*
X82937234Y-93040466D01*
X82865546Y-92867395D01*
X82829000Y-92683667D01*
X82829000Y-92496333D01*
X82865546Y-92312605D01*
X82937234Y-92139534D01*
X83041309Y-91983775D01*
X83041310Y-91983773D01*
X83173773Y-91851310D01*
X83329533Y-91747235D01*
X83329534Y-91747234D01*
X83502605Y-91675546D01*
X83686333Y-91639000D01*
X83873667Y-91639000D01*
X84057395Y-91675546D01*
G37*
G36*
X105131000Y-93541000D02*
G01*
X103229000Y-93541000D01*
X103229000Y-91639000D01*
X105131000Y-91639000D01*
X105131000Y-93541000D01*
G37*
G36*
X81557395Y-91675546D02*
G01*
X81730466Y-91747234D01*
X81730467Y-91747235D01*
X81886227Y-91851310D01*
X82018690Y-91983773D01*
X82018691Y-91983775D01*
X82122766Y-92139534D01*
X82194454Y-92312605D01*
X82231000Y-92496333D01*
X82231000Y-92683667D01*
X82194454Y-92867395D01*
X82122766Y-93040466D01*
X82122765Y-93040467D01*
X82018690Y-93196227D01*
X81886227Y-93328690D01*
X81807818Y-93381081D01*
X81730466Y-93432766D01*
X81557395Y-93504454D01*
X81373667Y-93541000D01*
X81186333Y-93541000D01*
X81002605Y-93504454D01*
X80829534Y-93432766D01*
X80752182Y-93381081D01*
X80673773Y-93328690D01*
X80541310Y-93196227D01*
X80437235Y-93040467D01*
X80437234Y-93040466D01*
X80365546Y-92867395D01*
X80329000Y-92683667D01*
X80329000Y-92496333D01*
X80365546Y-92312605D01*
X80437234Y-92139534D01*
X80541309Y-91983775D01*
X80541310Y-91983773D01*
X80673773Y-91851310D01*
X80829533Y-91747235D01*
X80829534Y-91747234D01*
X81002605Y-91675546D01*
X81186333Y-91639000D01*
X81373667Y-91639000D01*
X81557395Y-91675546D01*
G37*
G36*
X102367412Y-83483215D02*
G01*
X102671514Y-83609178D01*
X102945199Y-83792049D01*
X103177951Y-84024801D01*
X103360822Y-84298486D01*
X103486785Y-84602588D01*
X103551000Y-84925420D01*
X103551000Y-85254580D01*
X103486785Y-85577412D01*
X103360822Y-85881514D01*
X103177951Y-86155199D01*
X102945199Y-86387951D01*
X102671514Y-86570822D01*
X102367412Y-86696785D01*
X102044580Y-86761000D01*
X101715420Y-86761000D01*
X101392588Y-86696785D01*
X101088486Y-86570822D01*
X100814801Y-86387951D01*
X100582049Y-86155199D01*
X100399178Y-85881514D01*
X100273215Y-85577412D01*
X100209000Y-85254580D01*
X100209000Y-84925420D01*
X100273215Y-84602588D01*
X100399178Y-84298486D01*
X100582049Y-84024801D01*
X100814801Y-83792049D01*
X101088486Y-83609178D01*
X101392588Y-83483215D01*
X101715420Y-83419000D01*
X102044580Y-83419000D01*
X102367412Y-83483215D01*
G37*
G36*
X111967412Y-83483215D02*
G01*
X112271514Y-83609178D01*
X112545199Y-83792049D01*
X112777951Y-84024801D01*
X112960822Y-84298486D01*
X113086785Y-84602588D01*
X113151000Y-84925420D01*
X113151000Y-85254580D01*
X113086785Y-85577412D01*
X112960822Y-85881514D01*
X112777951Y-86155199D01*
X112545199Y-86387951D01*
X112271514Y-86570822D01*
X111967412Y-86696785D01*
X111644580Y-86761000D01*
X111315420Y-86761000D01*
X110992588Y-86696785D01*
X110688486Y-86570822D01*
X110414801Y-86387951D01*
X110182049Y-86155199D01*
X109999178Y-85881514D01*
X109873215Y-85577412D01*
X109809000Y-85254580D01*
X109809000Y-84925420D01*
X109873215Y-84602588D01*
X109999178Y-84298486D01*
X110182049Y-84024801D01*
X110414801Y-83792049D01*
X110688486Y-83609178D01*
X110992588Y-83483215D01*
X111315420Y-83419000D01*
X111644580Y-83419000D01*
X111967412Y-83483215D01*
G37*
G36*
X76967412Y-83483215D02*
G01*
X77271514Y-83609178D01*
X77545199Y-83792049D01*
X77777951Y-84024801D01*
X77960822Y-84298486D01*
X78086785Y-84602588D01*
X78151000Y-84925420D01*
X78151000Y-85254580D01*
X78086785Y-85577412D01*
X77960822Y-85881514D01*
X77777951Y-86155199D01*
X77545199Y-86387951D01*
X77271514Y-86570822D01*
X76967412Y-86696785D01*
X76644580Y-86761000D01*
X76315420Y-86761000D01*
X75992588Y-86696785D01*
X75688486Y-86570822D01*
X75414801Y-86387951D01*
X75182049Y-86155199D01*
X74999178Y-85881514D01*
X74873215Y-85577412D01*
X74809000Y-85254580D01*
X74809000Y-84925420D01*
X74873215Y-84602588D01*
X74999178Y-84298486D01*
X75182049Y-84024801D01*
X75414801Y-83792049D01*
X75688486Y-83609178D01*
X75992588Y-83483215D01*
X76315420Y-83419000D01*
X76644580Y-83419000D01*
X76967412Y-83483215D01*
G37*
G36*
X86567412Y-83483215D02*
G01*
X86871514Y-83609178D01*
X87145199Y-83792049D01*
X87377951Y-84024801D01*
X87560822Y-84298486D01*
X87686785Y-84602588D01*
X87751000Y-84925420D01*
X87751000Y-85254580D01*
X87686785Y-85577412D01*
X87560822Y-85881514D01*
X87377951Y-86155199D01*
X87145199Y-86387951D01*
X86871514Y-86570822D01*
X86567412Y-86696785D01*
X86244580Y-86761000D01*
X85915420Y-86761000D01*
X85592588Y-86696785D01*
X85288486Y-86570822D01*
X85014801Y-86387951D01*
X84782049Y-86155199D01*
X84599178Y-85881514D01*
X84473215Y-85577412D01*
X84409000Y-85254580D01*
X84409000Y-84925420D01*
X84473215Y-84602588D01*
X84599178Y-84298486D01*
X84782049Y-84024801D01*
X85014801Y-83792049D01*
X85288486Y-83609178D01*
X85592588Y-83483215D01*
X85915420Y-83419000D01*
X86244580Y-83419000D01*
X86567412Y-83483215D01*
G37*
G36*
X103530600Y-76606600D02*
G01*
X101701400Y-76606600D01*
X101701400Y-74777400D01*
X103530600Y-74777400D01*
X103530600Y-76606600D01*
G37*
G36*
X95262778Y-74812547D02*
G01*
X95429224Y-74881491D01*
X95579022Y-74981583D01*
X95706417Y-75108978D01*
X95806509Y-75258776D01*
X95875453Y-75425222D01*
X95910600Y-75601918D01*
X95910600Y-75782082D01*
X95875453Y-75958778D01*
X95806509Y-76125224D01*
X95706417Y-76275022D01*
X95579022Y-76402417D01*
X95429224Y-76502509D01*
X95262778Y-76571453D01*
X95086082Y-76606600D01*
X94905918Y-76606600D01*
X94729222Y-76571453D01*
X94562776Y-76502509D01*
X94412978Y-76402417D01*
X94285583Y-76275022D01*
X94185491Y-76125224D01*
X94116547Y-75958778D01*
X94081400Y-75782082D01*
X94081400Y-75601918D01*
X94116547Y-75425222D01*
X94185491Y-75258776D01*
X94285583Y-75108978D01*
X94412978Y-74981583D01*
X94562776Y-74881491D01*
X94729222Y-74812547D01*
X94905918Y-74777400D01*
X95086082Y-74777400D01*
X95262778Y-74812547D01*
G37*
G36*
X97802778Y-74812547D02*
G01*
X97969224Y-74881491D01*
X98119022Y-74981583D01*
X98246417Y-75108978D01*
X98346509Y-75258776D01*
X98415453Y-75425222D01*
X98450600Y-75601918D01*
X98450600Y-75782082D01*
X98415453Y-75958778D01*
X98346509Y-76125224D01*
X98246417Y-76275022D01*
X98119022Y-76402417D01*
X97969224Y-76502509D01*
X97802778Y-76571453D01*
X97626082Y-76606600D01*
X97445918Y-76606600D01*
X97269222Y-76571453D01*
X97102776Y-76502509D01*
X96952978Y-76402417D01*
X96825583Y-76275022D01*
X96725491Y-76125224D01*
X96656547Y-75958778D01*
X96621400Y-75782082D01*
X96621400Y-75601918D01*
X96656547Y-75425222D01*
X96725491Y-75258776D01*
X96825583Y-75108978D01*
X96952978Y-74981583D01*
X97102776Y-74881491D01*
X97269222Y-74812547D01*
X97445918Y-74777400D01*
X97626082Y-74777400D01*
X97802778Y-74812547D01*
G37*
G36*
X100342778Y-74812547D02*
G01*
X100509224Y-74881491D01*
X100659022Y-74981583D01*
X100786417Y-75108978D01*
X100886509Y-75258776D01*
X100955453Y-75425222D01*
X100990600Y-75601918D01*
X100990600Y-75782082D01*
X100955453Y-75958778D01*
X100886509Y-76125224D01*
X100786417Y-76275022D01*
X100659022Y-76402417D01*
X100509224Y-76502509D01*
X100342778Y-76571453D01*
X100166082Y-76606600D01*
X99985918Y-76606600D01*
X99809222Y-76571453D01*
X99642776Y-76502509D01*
X99492978Y-76402417D01*
X99365583Y-76275022D01*
X99265491Y-76125224D01*
X99196547Y-75958778D01*
X99161400Y-75782082D01*
X99161400Y-75601918D01*
X99196547Y-75425222D01*
X99265491Y-75258776D01*
X99365583Y-75108978D01*
X99492978Y-74981583D01*
X99642776Y-74881491D01*
X99809222Y-74812547D01*
X99985918Y-74777400D01*
X100166082Y-74777400D01*
X100342778Y-74812547D01*
G37*
G36*
X87642778Y-74812547D02*
G01*
X87809224Y-74881491D01*
X87959022Y-74981583D01*
X88086417Y-75108978D01*
X88186509Y-75258776D01*
X88255453Y-75425222D01*
X88290600Y-75601918D01*
X88290600Y-75782082D01*
X88255453Y-75958778D01*
X88186509Y-76125224D01*
X88086417Y-76275022D01*
X87959022Y-76402417D01*
X87809224Y-76502509D01*
X87642778Y-76571453D01*
X87466082Y-76606600D01*
X87285918Y-76606600D01*
X87109222Y-76571453D01*
X86942776Y-76502509D01*
X86792978Y-76402417D01*
X86665583Y-76275022D01*
X86565491Y-76125224D01*
X86496547Y-75958778D01*
X86461400Y-75782082D01*
X86461400Y-75601918D01*
X86496547Y-75425222D01*
X86565491Y-75258776D01*
X86665583Y-75108978D01*
X86792978Y-74981583D01*
X86942776Y-74881491D01*
X87109222Y-74812547D01*
X87285918Y-74777400D01*
X87466082Y-74777400D01*
X87642778Y-74812547D01*
G37*
G36*
X85102778Y-74812547D02*
G01*
X85269224Y-74881491D01*
X85419022Y-74981583D01*
X85546417Y-75108978D01*
X85646509Y-75258776D01*
X85715453Y-75425222D01*
X85750600Y-75601918D01*
X85750600Y-75782082D01*
X85715453Y-75958778D01*
X85646509Y-76125224D01*
X85546417Y-76275022D01*
X85419022Y-76402417D01*
X85269224Y-76502509D01*
X85102778Y-76571453D01*
X84926082Y-76606600D01*
X84745918Y-76606600D01*
X84569222Y-76571453D01*
X84402776Y-76502509D01*
X84252978Y-76402417D01*
X84125583Y-76275022D01*
X84025491Y-76125224D01*
X83956547Y-75958778D01*
X83921400Y-75782082D01*
X83921400Y-75601918D01*
X83956547Y-75425222D01*
X84025491Y-75258776D01*
X84125583Y-75108978D01*
X84252978Y-74981583D01*
X84402776Y-74881491D01*
X84569222Y-74812547D01*
X84745918Y-74777400D01*
X84926082Y-74777400D01*
X85102778Y-74812547D01*
G37*
G36*
X92722778Y-74812547D02*
G01*
X92889224Y-74881491D01*
X93039022Y-74981583D01*
X93166417Y-75108978D01*
X93266509Y-75258776D01*
X93335453Y-75425222D01*
X93370600Y-75601918D01*
X93370600Y-75782082D01*
X93335453Y-75958778D01*
X93266509Y-76125224D01*
X93166417Y-76275022D01*
X93039022Y-76402417D01*
X92889224Y-76502509D01*
X92722778Y-76571453D01*
X92546082Y-76606600D01*
X92365918Y-76606600D01*
X92189222Y-76571453D01*
X92022776Y-76502509D01*
X91872978Y-76402417D01*
X91745583Y-76275022D01*
X91645491Y-76125224D01*
X91576547Y-75958778D01*
X91541400Y-75782082D01*
X91541400Y-75601918D01*
X91576547Y-75425222D01*
X91645491Y-75258776D01*
X91745583Y-75108978D01*
X91872978Y-74981583D01*
X92022776Y-74881491D01*
X92189222Y-74812547D01*
X92365918Y-74777400D01*
X92546082Y-74777400D01*
X92722778Y-74812547D01*
G37*
G36*
X90182778Y-74812547D02*
G01*
X90349224Y-74881491D01*
X90499022Y-74981583D01*
X90626417Y-75108978D01*
X90726509Y-75258776D01*
X90795453Y-75425222D01*
X90830600Y-75601918D01*
X90830600Y-75782082D01*
X90795453Y-75958778D01*
X90726509Y-76125224D01*
X90626417Y-76275022D01*
X90499022Y-76402417D01*
X90349224Y-76502509D01*
X90182778Y-76571453D01*
X90006082Y-76606600D01*
X89825918Y-76606600D01*
X89649222Y-76571453D01*
X89482776Y-76502509D01*
X89332978Y-76402417D01*
X89205583Y-76275022D01*
X89105491Y-76125224D01*
X89036547Y-75958778D01*
X89001400Y-75782082D01*
X89001400Y-75601918D01*
X89036547Y-75425222D01*
X89105491Y-75258776D01*
X89205583Y-75108978D01*
X89332978Y-74981583D01*
X89482776Y-74881491D01*
X89649222Y-74812547D01*
X89825918Y-74777400D01*
X90006082Y-74777400D01*
X90182778Y-74812547D01*
G37*
G36*
X100342778Y-72272547D02*
G01*
X100509224Y-72341491D01*
X100659022Y-72441583D01*
X100786417Y-72568978D01*
X100886509Y-72718776D01*
X100955453Y-72885222D01*
X100990600Y-73061918D01*
X100990600Y-73242082D01*
X100955453Y-73418778D01*
X100886509Y-73585224D01*
X100786417Y-73735022D01*
X100659022Y-73862417D01*
X100509224Y-73962509D01*
X100342778Y-74031453D01*
X100166082Y-74066600D01*
X99985918Y-74066600D01*
X99809222Y-74031453D01*
X99642776Y-73962509D01*
X99492978Y-73862417D01*
X99365583Y-73735022D01*
X99265491Y-73585224D01*
X99196547Y-73418778D01*
X99161400Y-73242082D01*
X99161400Y-73061918D01*
X99196547Y-72885222D01*
X99265491Y-72718776D01*
X99365583Y-72568978D01*
X99492978Y-72441583D01*
X99642776Y-72341491D01*
X99809222Y-72272547D01*
X99985918Y-72237400D01*
X100166082Y-72237400D01*
X100342778Y-72272547D01*
G37*
G36*
X87642778Y-72272547D02*
G01*
X87809224Y-72341491D01*
X87959022Y-72441583D01*
X88086417Y-72568978D01*
X88186509Y-72718776D01*
X88255453Y-72885222D01*
X88290600Y-73061918D01*
X88290600Y-73242082D01*
X88255453Y-73418778D01*
X88186509Y-73585224D01*
X88086417Y-73735022D01*
X87959022Y-73862417D01*
X87809224Y-73962509D01*
X87642778Y-74031453D01*
X87466082Y-74066600D01*
X87285918Y-74066600D01*
X87109222Y-74031453D01*
X86942776Y-73962509D01*
X86792978Y-73862417D01*
X86665583Y-73735022D01*
X86565491Y-73585224D01*
X86496547Y-73418778D01*
X86461400Y-73242082D01*
X86461400Y-73061918D01*
X86496547Y-72885222D01*
X86565491Y-72718776D01*
X86665583Y-72568978D01*
X86792978Y-72441583D01*
X86942776Y-72341491D01*
X87109222Y-72272547D01*
X87285918Y-72237400D01*
X87466082Y-72237400D01*
X87642778Y-72272547D01*
G37*
G36*
X97802778Y-72272547D02*
G01*
X97969224Y-72341491D01*
X98119022Y-72441583D01*
X98246417Y-72568978D01*
X98346509Y-72718776D01*
X98415453Y-72885222D01*
X98450600Y-73061918D01*
X98450600Y-73242082D01*
X98415453Y-73418778D01*
X98346509Y-73585224D01*
X98246417Y-73735022D01*
X98119022Y-73862417D01*
X97969224Y-73962509D01*
X97802778Y-74031453D01*
X97626082Y-74066600D01*
X97445918Y-74066600D01*
X97269222Y-74031453D01*
X97102776Y-73962509D01*
X96952978Y-73862417D01*
X96825583Y-73735022D01*
X96725491Y-73585224D01*
X96656547Y-73418778D01*
X96621400Y-73242082D01*
X96621400Y-73061918D01*
X96656547Y-72885222D01*
X96725491Y-72718776D01*
X96825583Y-72568978D01*
X96952978Y-72441583D01*
X97102776Y-72341491D01*
X97269222Y-72272547D01*
X97445918Y-72237400D01*
X97626082Y-72237400D01*
X97802778Y-72272547D01*
G37*
G36*
X102882778Y-72272547D02*
G01*
X103049224Y-72341491D01*
X103199022Y-72441583D01*
X103326417Y-72568978D01*
X103426509Y-72718776D01*
X103495453Y-72885222D01*
X103530600Y-73061918D01*
X103530600Y-73242082D01*
X103495453Y-73418778D01*
X103426509Y-73585224D01*
X103326417Y-73735022D01*
X103199022Y-73862417D01*
X103049224Y-73962509D01*
X102882778Y-74031453D01*
X102706082Y-74066600D01*
X102525918Y-74066600D01*
X102349222Y-74031453D01*
X102182776Y-73962509D01*
X102032978Y-73862417D01*
X101905583Y-73735022D01*
X101805491Y-73585224D01*
X101736547Y-73418778D01*
X101701400Y-73242082D01*
X101701400Y-73061918D01*
X101736547Y-72885222D01*
X101805491Y-72718776D01*
X101905583Y-72568978D01*
X102032978Y-72441583D01*
X102182776Y-72341491D01*
X102349222Y-72272547D01*
X102525918Y-72237400D01*
X102706082Y-72237400D01*
X102882778Y-72272547D01*
G37*
G36*
X85102778Y-72272547D02*
G01*
X85269224Y-72341491D01*
X85419022Y-72441583D01*
X85546417Y-72568978D01*
X85646509Y-72718776D01*
X85715453Y-72885222D01*
X85750600Y-73061918D01*
X85750600Y-73242082D01*
X85715453Y-73418778D01*
X85646509Y-73585224D01*
X85546417Y-73735022D01*
X85419022Y-73862417D01*
X85269224Y-73962509D01*
X85102778Y-74031453D01*
X84926082Y-74066600D01*
X84745918Y-74066600D01*
X84569222Y-74031453D01*
X84402776Y-73962509D01*
X84252978Y-73862417D01*
X84125583Y-73735022D01*
X84025491Y-73585224D01*
X83956547Y-73418778D01*
X83921400Y-73242082D01*
X83921400Y-73061918D01*
X83956547Y-72885222D01*
X84025491Y-72718776D01*
X84125583Y-72568978D01*
X84252978Y-72441583D01*
X84402776Y-72341491D01*
X84569222Y-72272547D01*
X84745918Y-72237400D01*
X84926082Y-72237400D01*
X85102778Y-72272547D01*
G37*
G36*
X92722778Y-72272547D02*
G01*
X92889224Y-72341491D01*
X93039022Y-72441583D01*
X93166417Y-72568978D01*
X93266509Y-72718776D01*
X93335453Y-72885222D01*
X93370600Y-73061918D01*
X93370600Y-73242082D01*
X93335453Y-73418778D01*
X93266509Y-73585224D01*
X93166417Y-73735022D01*
X93039022Y-73862417D01*
X92889224Y-73962509D01*
X92722778Y-74031453D01*
X92546082Y-74066600D01*
X92365918Y-74066600D01*
X92189222Y-74031453D01*
X92022776Y-73962509D01*
X91872978Y-73862417D01*
X91745583Y-73735022D01*
X91645491Y-73585224D01*
X91576547Y-73418778D01*
X91541400Y-73242082D01*
X91541400Y-73061918D01*
X91576547Y-72885222D01*
X91645491Y-72718776D01*
X91745583Y-72568978D01*
X91872978Y-72441583D01*
X92022776Y-72341491D01*
X92189222Y-72272547D01*
X92365918Y-72237400D01*
X92546082Y-72237400D01*
X92722778Y-72272547D01*
G37*
G36*
X90182778Y-72272547D02*
G01*
X90349224Y-72341491D01*
X90499022Y-72441583D01*
X90626417Y-72568978D01*
X90726509Y-72718776D01*
X90795453Y-72885222D01*
X90830600Y-73061918D01*
X90830600Y-73242082D01*
X90795453Y-73418778D01*
X90726509Y-73585224D01*
X90626417Y-73735022D01*
X90499022Y-73862417D01*
X90349224Y-73962509D01*
X90182778Y-74031453D01*
X90006082Y-74066600D01*
X89825918Y-74066600D01*
X89649222Y-74031453D01*
X89482776Y-73962509D01*
X89332978Y-73862417D01*
X89205583Y-73735022D01*
X89105491Y-73585224D01*
X89036547Y-73418778D01*
X89001400Y-73242082D01*
X89001400Y-73061918D01*
X89036547Y-72885222D01*
X89105491Y-72718776D01*
X89205583Y-72568978D01*
X89332978Y-72441583D01*
X89482776Y-72341491D01*
X89649222Y-72272547D01*
X89825918Y-72237400D01*
X90006082Y-72237400D01*
X90182778Y-72272547D01*
G37*
G36*
X95262778Y-72272547D02*
G01*
X95429224Y-72341491D01*
X95579022Y-72441583D01*
X95706417Y-72568978D01*
X95806509Y-72718776D01*
X95875453Y-72885222D01*
X95910600Y-73061918D01*
X95910600Y-73242082D01*
X95875453Y-73418778D01*
X95806509Y-73585224D01*
X95706417Y-73735022D01*
X95579022Y-73862417D01*
X95429224Y-73962509D01*
X95262778Y-74031453D01*
X95086082Y-74066600D01*
X94905918Y-74066600D01*
X94729222Y-74031453D01*
X94562776Y-73962509D01*
X94412978Y-73862417D01*
X94285583Y-73735022D01*
X94185491Y-73585224D01*
X94116547Y-73418778D01*
X94081400Y-73242082D01*
X94081400Y-73061918D01*
X94116547Y-72885222D01*
X94185491Y-72718776D01*
X94285583Y-72568978D01*
X94412978Y-72441583D01*
X94562776Y-72341491D01*
X94729222Y-72272547D01*
X94905918Y-72237400D01*
X95086082Y-72237400D01*
X95262778Y-72272547D01*
G37*
M02*
