<?xml version="1.0" encoding="UTF-8" standalone="no"?>
<svg
   xmlns:dc="http://purl.org/dc/elements/1.1/"
   xmlns:cc="http://creativecommons.org/ns#"
   xmlns:rdf="http://www.w3.org/1999/02/22-rdf-syntax-ns#"
   xmlns:svg="http://www.w3.org/2000/svg"
   xmlns="http://www.w3.org/2000/svg"
   xmlns:sodipodi="http://sodipodi.sourceforge.net/DTD/sodipodi-0.dtd"
   xmlns:inkscape="http://www.inkscape.org/namespaces/inkscape"
   version="1.1"
   width="29.7002cm"
   height="21.0007cm"
   viewBox="0 0 116930 82680 "
   id="svg1484"
   sodipodi:docname="synth-bus-art.svg"
   inkscape:version="0.92.4 (5da689c313, 2019-01-14)">
  <metadata
     id="metadata1490">
    <rdf:RDF>
      <cc:Work
         rdf:about="">
        <dc:format>image/svg+xml</dc:format>
        <dc:type
           rdf:resource="http://purl.org/dc/dcmitype/StillImage" />
        <dc:title>SVG Picture created as synth-bus-Edge_Cuts.svg date 2019/09/29 00:41:50 </dc:title>
      </cc:Work>
    </rdf:RDF>
  </metadata>
  <defs
     id="defs1488">
    <clipPath
       clipPathUnits="userSpaceOnUse"
       id="clipPath6149">
      <rect
         style="fill:#c8c4b7;stroke-width:729.16723633;stroke-miterlimit:4;stroke-dasharray:none"
         id="rect6151"
         width="131299.16"
         height="12795.327"
         x="14116.65"
         y="32614.408"
         ry="1036.9564" />
    </clipPath>
  </defs>
  <sodipodi:namedview
     pagecolor="#ffffff"
     bordercolor="#666666"
     borderopacity="1"
     objecttolerance="10"
     gridtolerance="10"
     guidetolerance="10"
     inkscape:pageopacity="0"
     inkscape:pageshadow="2"
     inkscape:window-width="2560"
     inkscape:window-height="1376"
     id="namedview1486"
     showgrid="false"
     showborder="false"
     inkscape:zoom="1.065479"
     inkscape:cx="913.60478"
     inkscape:cy="518.65351"
     inkscape:window-x="0"
     inkscape:window-y="27"
     inkscape:window-maximized="1"
     inkscape:current-layer="svg1484" />
  <title
     id="title770">SVG Picture created as synth-bus-Edge_Cuts.svg date 2019/09/29 00:41:50 </title>
  <desc
     id="desc772">Picture generated by PCBNEW </desc>
  <g
     style="fill:#000000; fill-opacity:1;stroke:#000000; stroke-opacity:1; stroke-linecap:round; stroke-linejoin:round; "
     transform="translate(0 0) scale(1 1)"
     id="g774" />
  <g
     style="fill:#000000; fill-opacity:0.0;  stroke:#000000; stroke-width:-0.000393701; stroke-opacity:1;  stroke-linecap:round; stroke-linejoin:round;"
     id="g776" />
  <g
     style="fill:#000000; fill-opacity:0.0;  stroke:#000000; stroke-width:39.3701; stroke-opacity:1;  stroke-linecap:round; stroke-linejoin:round;"
     id="g778" />
  <g
     style="fill:#000000; fill-opacity:0.0;  stroke:#000000; stroke-width:39.3701; stroke-opacity:1;  stroke-linecap:round; stroke-linejoin:round;"
     id="g784" />
  <g
     style="fill:#000000; fill-opacity:0.0;  stroke:#000000; stroke-width:39.3701; stroke-opacity:1;  stroke-linecap:round; stroke-linejoin:round;"
     id="g790" />
  <g
     style="fill:#000000; fill-opacity:0.0;  stroke:#000000; stroke-width:39.3701; stroke-opacity:1;  stroke-linecap:round; stroke-linejoin:round;"
     id="g796" />
  <g
     style="fill:#000000; fill-opacity:0.0;  stroke:#000000; stroke-width:39.3701; stroke-opacity:1;  stroke-linecap:round; stroke-linejoin:round;"
     id="g802" />
  <g
     style="fill:#000000; fill-opacity:0.0;  stroke:#000000; stroke-width:39.3701; stroke-opacity:1;  stroke-linecap:round; stroke-linejoin:round;"
     id="g808" />
  <g
     style="fill:#000000; fill-opacity:0.0;  stroke:#000000; stroke-width:39.3701; stroke-opacity:1;  stroke-linecap:round; stroke-linejoin:round;"
     id="g814" />
  <g
     style="fill:#000000; fill-opacity:0.0;  stroke:#000000; stroke-width:39.3701; stroke-opacity:1;  stroke-linecap:round; stroke-linejoin:round;"
     id="g820" />
  <g
     style="fill:#000000; fill-opacity:0.0;  stroke:#000000; stroke-width:39.3701; stroke-opacity:1;  stroke-linecap:round; stroke-linejoin:round;"
     id="g826" />
  <g
     style="fill:#000000; fill-opacity:0.0;  stroke:#000000; stroke-width:39.3701; stroke-opacity:1;  stroke-linecap:round; stroke-linejoin:round;"
     id="g834" />
  <g
     style="fill:#000000; fill-opacity:0.0;  stroke:#000000; stroke-width:39.3701; stroke-opacity:1;  stroke-linecap:round; stroke-linejoin:round;"
     id="g840" />
  <g
     style="fill:#000000; fill-opacity:0.0;  stroke:#000000; stroke-width:39.3701; stroke-opacity:1;  stroke-linecap:round; stroke-linejoin:round;"
     id="g846" />
  <g
     style="fill:#000000; fill-opacity:0.0;  stroke:#000000; stroke-width:39.3701; stroke-opacity:1;  stroke-linecap:round; stroke-linejoin:round;"
     id="g854" />
  <g
     style="fill:#000000; fill-opacity:0.0;  stroke:#000000; stroke-width:39.3701; stroke-opacity:1;  stroke-linecap:round; stroke-linejoin:round;"
     id="g860" />
  <g
     style="fill:#000000; fill-opacity:0.0;  stroke:#000000; stroke-width:39.3701; stroke-opacity:1;  stroke-linecap:round; stroke-linejoin:round;"
     id="g866" />
  <g
     style="fill:#000000; fill-opacity:0.0;  stroke:#000000; stroke-width:39.3701; stroke-opacity:1;  stroke-linecap:round; stroke-linejoin:round;"
     id="g872" />
  <g
     style="fill:#000000; fill-opacity:0.0;  stroke:#000000; stroke-width:39.3701; stroke-opacity:1;  stroke-linecap:round; stroke-linejoin:round;"
     id="g878" />
  <g
     style="fill:#000000; fill-opacity:0.0;  stroke:#000000; stroke-width:39.3701; stroke-opacity:1;  stroke-linecap:round; stroke-linejoin:round;"
     id="g884" />
  <g
     style="fill:#000000; fill-opacity:0.0;  stroke:#000000; stroke-width:39.3701; stroke-opacity:1;  stroke-linecap:round; stroke-linejoin:round;"
     id="g890" />
  <g
     style="fill:#000000; fill-opacity:0.0;  stroke:#000000; stroke-width:39.3701; stroke-opacity:1;  stroke-linecap:round; stroke-linejoin:round;"
     id="g896" />
  <g
     style="fill:#000000; fill-opacity:0.0;  stroke:#000000; stroke-width:39.3701; stroke-opacity:1;  stroke-linecap:round; stroke-linejoin:round;"
     id="g904" />
  <g
     style="fill:#000000; fill-opacity:0.0;  stroke:#000000; stroke-width:39.3701; stroke-opacity:1;  stroke-linecap:round; stroke-linejoin:round;"
     id="g910" />
  <g
     style="fill:#000000; fill-opacity:0.0;  stroke:#000000; stroke-width:39.3701; stroke-opacity:1;  stroke-linecap:round; stroke-linejoin:round;"
     id="g916" />
  <g
     style="fill:#000000; fill-opacity:0.0;  stroke:#000000; stroke-width:39.3701; stroke-opacity:1;  stroke-linecap:round; stroke-linejoin:round;"
     id="g924" />
  <g
     style="fill:#000000; fill-opacity:0.0;  stroke:#000000; stroke-width:39.3701; stroke-opacity:1;  stroke-linecap:round; stroke-linejoin:round;"
     id="g930" />
  <g
     style="fill:#000000; fill-opacity:0.0;  stroke:#000000; stroke-width:39.3701; stroke-opacity:1;  stroke-linecap:round; stroke-linejoin:round;"
     id="g936" />
  <g
     style="fill:#000000; fill-opacity:0.0;  stroke:#000000; stroke-width:39.3701; stroke-opacity:1;  stroke-linecap:round; stroke-linejoin:round;"
     id="g942" />
  <g
     style="fill:#000000; fill-opacity:0.0;  stroke:#000000; stroke-width:39.3701; stroke-opacity:1;  stroke-linecap:round; stroke-linejoin:round;"
     id="g948" />
  <g
     style="fill:#000000; fill-opacity:0.0;  stroke:#000000; stroke-width:39.3701; stroke-opacity:1;  stroke-linecap:round; stroke-linejoin:round;"
     id="g954" />
  <g
     style="fill:#000000; fill-opacity:0.0;  stroke:#000000; stroke-width:39.3701; stroke-opacity:1;  stroke-linecap:round; stroke-linejoin:round;"
     id="g962" />
  <g
     style="fill:#000000; fill-opacity:0.0;  stroke:#000000; stroke-width:39.3701; stroke-opacity:1;  stroke-linecap:round; stroke-linejoin:round;"
     id="g968" />
  <g
     style="fill:#000000; fill-opacity:0.0;  stroke:#000000; stroke-width:39.3701; stroke-opacity:1;  stroke-linecap:round; stroke-linejoin:round;"
     id="g974" />
  <g
     style="fill:#000000; fill-opacity:0.0;  stroke:#000000; stroke-width:39.3701; stroke-opacity:1;  stroke-linecap:round; stroke-linejoin:round;"
     id="g980" />
  <g
     style="fill:#000000; fill-opacity:0.0;  stroke:#000000; stroke-width:39.3701; stroke-opacity:1;  stroke-linecap:round; stroke-linejoin:round;"
     id="g986" />
  <g
     style="fill:#000000; fill-opacity:0.0;  stroke:#000000; stroke-width:39.3701; stroke-opacity:1;  stroke-linecap:round; stroke-linejoin:round;"
     id="g992" />
  <g
     style="fill:#000000; fill-opacity:0.0;  stroke:#000000; stroke-width:39.3701; stroke-opacity:1;  stroke-linecap:round; stroke-linejoin:round;"
     id="g998" />
  <g
     style="fill:#000000; fill-opacity:0.0;  stroke:#000000; stroke-width:39.3701; stroke-opacity:1;  stroke-linecap:round; stroke-linejoin:round;"
     id="g1006" />
  <g
     style="fill:#000000; fill-opacity:0.0;  stroke:#000000; stroke-width:39.3701; stroke-opacity:1;  stroke-linecap:round; stroke-linejoin:round;"
     id="g1012" />
  <g
     style="fill:#000000; fill-opacity:0.0;  stroke:#000000; stroke-width:39.3701; stroke-opacity:1;  stroke-linecap:round; stroke-linejoin:round;"
     id="g1018" />
  <g
     style="fill:#000000; fill-opacity:0.0;  stroke:#000000; stroke-width:39.3701; stroke-opacity:1;  stroke-linecap:round; stroke-linejoin:round;"
     id="g1024" />
  <g
     style="fill:#000000; fill-opacity:0.0;  stroke:#000000; stroke-width:39.3701; stroke-opacity:1;  stroke-linecap:round; stroke-linejoin:round;"
     id="g1044" />
  <g
     style="fill:#000000; fill-opacity:0.0;  stroke:#000000; stroke-width:39.3701; stroke-opacity:1;  stroke-linecap:round; stroke-linejoin:round;"
     id="g1050" />
  <g
     style="fill:#000000; fill-opacity:0.0;  stroke:#000000; stroke-width:39.3701; stroke-opacity:1;  stroke-linecap:round; stroke-linejoin:round;"
     id="g1196" />
  <g
     style="fill:#000000; fill-opacity:0.0;  stroke:#000000; stroke-width:39.3701; stroke-opacity:1;  stroke-linecap:round; stroke-linejoin:round;"
     id="g1202" />
  <g
     style="fill:#000000; fill-opacity:0.0;  stroke:#000000; stroke-width:39.3701; stroke-opacity:1;  stroke-linecap:round; stroke-linejoin:round;"
     id="g1218" />
  <g
     style="fill:#000000; fill-opacity:0.0;  stroke:#000000; stroke-width:39.3701; stroke-opacity:1;  stroke-linecap:round; stroke-linejoin:round;"
     id="g1244" />
  <g
     style="fill:#000000; fill-opacity:0.0;  stroke:#000000; stroke-width:39.3701; stroke-opacity:1;  stroke-linecap:round; stroke-linejoin:round;"
     id="g1268" />
  <g
     style="fill:#000000; fill-opacity:0.0;  stroke:#000000; stroke-width:39.3701; stroke-opacity:1;  stroke-linecap:round; stroke-linejoin:round;"
     id="g1274" />
  <g
     style="fill:#000000; fill-opacity:0.0;  stroke:#000000; stroke-width:39.3701; stroke-opacity:1;  stroke-linecap:round; stroke-linejoin:round;"
     id="g1298" />
  <g
     style="fill:#000000; fill-opacity:0.0;  stroke:#000000; stroke-width:39.3701; stroke-opacity:1;  stroke-linecap:round; stroke-linejoin:round;"
     id="g1382" />
  <g
     style="fill:#000000; fill-opacity:0.0;  stroke:#000000; stroke-width:39.3701; stroke-opacity:1;  stroke-linecap:round; stroke-linejoin:round;"
     id="g1388" />
  <g
     style="fill:#000000; fill-opacity:0.0;  stroke:#000000; stroke-width:39.3701; stroke-opacity:1;  stroke-linecap:round; stroke-linejoin:round;"
     id="g1410" />
  <g
     style="fill:#000000; fill-opacity:0.0;  stroke:#000000; stroke-width:39.3701; stroke-opacity:1;  stroke-linecap:round; stroke-linejoin:round;"
     id="g1416" />
  <g
     style="fill:#C2C200; fill-opacity:0.0;  stroke:#C2C200; stroke-width:59.0551; stroke-opacity:1;  stroke-linecap:round; stroke-linejoin:round;"
     id="g1422" />
  <g
     id="g6147"
     clip-path="url(#clipPath6149)">
    <path
       sodipodi:nodetypes="csssssssssssssssc"
       inkscape:connector-curvature="0"
       id="path1495"
       d="m 14102.606,40164.775 c 0,0 4671.826,-2920.11 7189.564,-2557.825 2874.24,413.583 4159.015,4856.865 7051.304,5115.651 3541.572,316.88 6055.584,-4756.145 9609.128,-4631.738 3156.368,110.503 5068.303,4723.865 8226.521,4700.869 3533.005,-25.724 5598.254,-5184.024 9125.216,-5392.173 3872.513,-228.542 6779.71,5016.67 10646.086,4700.869 2771.022,-226.334 4211.974,-4326.404 6982.172,-4562.608 3177.64,-270.945 5597.783,4019.151 8779.564,3802.173 2661.393,-181.491 4188.672,-3891.592 6843.912,-4147.825 4252.434,-410.364 7774.038,4810.985 12028.697,4424.347 2932.17,-266.458 4669.44,-4259.106 7604.35,-4493.477 3455.11,-275.912 6234.54,4195.494 9678.26,3802.172 2305.2,-263.287 3424.78,-3758.423 5737.82,-3940.434 3257.32,-256.314 5593.16,4494.948 8848.7,4216.956 2586.33,-220.848 3771.27,-4302.667 6359.99,-4493.477 2394.67,-176.508 6429.13,3249.13 6429.13,3249.13"
       style="fill:none;stroke:#000000;stroke-width:104.16674805px;stroke-linecap:butt;stroke-linejoin:miter;stroke-opacity:1" />
    <path
       style="fill:none;stroke:#000000;stroke-width:156.25012207;stroke-linecap:butt;stroke-linejoin:miter;stroke-miterlimit:4;stroke-dasharray:none;stroke-opacity:1"
       d="m 14102.606,40789.777 c 0,0 4671.826,-2920.11 7189.564,-2557.825 2874.24,413.583 4159.015,4856.865 7051.304,5115.651 3541.572,316.88 6055.584,-4756.145 9609.128,-4631.738 3156.368,110.503 5068.303,4723.865 8226.521,4700.869 3533.005,-25.724 5598.254,-5184.024 9125.216,-5392.173 3872.513,-228.542 6779.71,5016.67 10646.086,4700.869 2771.022,-226.334 4211.974,-4326.404 6982.172,-4562.608 3177.64,-270.945 5597.783,4019.151 8779.564,3802.173 2661.393,-181.491 4188.672,-3891.592 6843.912,-4147.825 4252.434,-410.364 7774.038,4810.985 12028.697,4424.347 2932.17,-266.458 4669.44,-4259.106 7604.35,-4493.477 3455.11,-275.912 6234.54,4195.494 9678.26,3802.172 2305.2,-263.287 3424.78,-3758.423 5737.82,-3940.434 3257.32,-256.314 5593.16,4494.948 8848.7,4216.956 2586.33,-220.848 3771.27,-4302.667 6359.99,-4493.477 2394.67,-176.508 6429.13,3249.13 6429.13,3249.13"
       id="path1497"
       inkscape:connector-curvature="0"
       sodipodi:nodetypes="csssssssssssssssc" />
    <path
       sodipodi:nodetypes="csssssssssssssssc"
       inkscape:connector-curvature="0"
       id="path6007"
       d="m 14102.606,41414.779 c 0,0 4671.826,-2920.11 7189.564,-2557.825 2874.24,413.583 4159.015,4856.865 7051.304,5115.651 3541.572,316.88 6055.584,-4756.145 9609.128,-4631.738 3156.368,110.503 5068.303,4723.865 8226.521,4700.869 3533.005,-25.724 5598.254,-5184.024 9125.216,-5392.173 3872.513,-228.542 6779.71,5016.67 10646.086,4700.869 2771.022,-226.334 4211.974,-4326.404 6982.172,-4562.608 3177.64,-270.945 5597.783,4019.151 8779.564,3802.173 2661.393,-181.491 4188.672,-3891.592 6843.912,-4147.825 4252.434,-410.364 7774.038,4810.985 12028.697,4424.347 2932.17,-266.458 4669.44,-4259.106 7604.35,-4493.477 3455.11,-275.912 6234.54,4195.494 9678.26,3802.172 2305.2,-263.287 3424.78,-3758.423 5737.82,-3940.434 3257.32,-256.314 5593.16,4494.948 8848.7,4216.956 2586.33,-220.848 3771.27,-4302.667 6359.99,-4493.477 2394.67,-176.508 6429.13,3249.13 6429.13,3249.13"
       style="fill:none;stroke:#000000;stroke-width:208.33351135;stroke-linecap:butt;stroke-linejoin:miter;stroke-miterlimit:4;stroke-dasharray:none;stroke-opacity:1" />
    <path
       style="fill:none;stroke:#000000;stroke-width:260.41687012;stroke-linecap:butt;stroke-linejoin:miter;stroke-miterlimit:4;stroke-dasharray:none;stroke-opacity:1"
       d="m 14102.606,42039.781 c 0,0 4671.826,-2920.11 7189.564,-2557.825 2874.24,413.583 4159.015,4856.865 7051.304,5115.651 3541.572,316.88 6055.584,-4756.145 9609.128,-4631.738 3156.368,110.503 5068.303,4723.865 8226.521,4700.869 3533.005,-25.724 5598.254,-5184.024 9125.216,-5392.173 3872.513,-228.542 6779.71,5016.67 10646.086,4700.869 2771.022,-226.334 4211.974,-4326.404 6982.172,-4562.608 3177.64,-270.945 5597.783,4019.151 8779.564,3802.173 2661.393,-181.491 4188.672,-3891.592 6843.912,-4147.825 4252.434,-410.364 7774.038,4810.985 12028.697,4424.347 2932.17,-266.458 4669.44,-4259.106 7604.35,-4493.477 3455.11,-275.912 6234.54,4195.494 9678.26,3802.172 2305.2,-263.287 3424.78,-3758.423 5737.82,-3940.434 3257.32,-256.314 5593.16,4494.948 8848.7,4216.956 2586.33,-220.848 3771.27,-4302.667 6359.99,-4493.477 2394.67,-176.508 6429.13,3249.13 6429.13,3249.13"
       id="path6009"
       inkscape:connector-curvature="0"
       sodipodi:nodetypes="csssssssssssssssc" />
    <path
       sodipodi:nodetypes="csssssssssssssssc"
       inkscape:connector-curvature="0"
       id="path6011"
       d="m 14102.606,42664.783 c 0,0 4671.826,-2920.11 7189.564,-2557.825 2874.24,413.583 4159.015,4856.865 7051.304,5115.651 3541.572,316.88 6055.584,-4756.145 9609.128,-4631.738 3156.368,110.503 5068.303,4723.865 8226.521,4700.869 3533.005,-25.724 5598.254,-5184.024 9125.216,-5392.173 3872.513,-228.542 6779.71,5016.67 10646.086,4700.869 2771.022,-226.334 4211.974,-4326.404 6982.172,-4562.608 3177.64,-270.945 5597.783,4019.151 8779.564,3802.173 2661.393,-181.491 4188.672,-3891.592 6843.912,-4147.825 4252.434,-410.364 7774.038,4810.985 12028.697,4424.347 2932.17,-266.458 4669.44,-4259.106 7604.35,-4493.477 3455.11,-275.912 6234.54,4195.494 9678.26,3802.172 2305.2,-263.287 3424.78,-3758.423 5737.82,-3940.434 3257.32,-256.314 5593.16,4494.948 8848.7,4216.956 2586.33,-220.848 3771.27,-4302.667 6359.99,-4493.477 2394.67,-176.508 6429.13,3249.13 6429.13,3249.13"
       style="fill:none;stroke:#000000;stroke-width:312.50024414;stroke-linecap:butt;stroke-linejoin:miter;stroke-miterlimit:4;stroke-dasharray:none;stroke-opacity:1" />
    <path
       style="fill:none;stroke:#000000;stroke-width:312.50024414;stroke-linecap:butt;stroke-linejoin:miter;stroke-miterlimit:4;stroke-dasharray:none;stroke-opacity:1"
       d="m 14102.606,43289.785 c 0,0 4671.826,-2920.11 7189.564,-2557.825 2874.24,413.583 4159.015,4856.865 7051.304,5115.651 3541.572,316.88 6055.584,-4756.145 9609.128,-4631.738 3156.368,110.503 5068.303,4723.865 8226.521,4700.869 3533.005,-25.724 5598.254,-5184.024 9125.216,-5392.173 3872.513,-228.542 6779.71,5016.67 10646.086,4700.869 2771.022,-226.334 4211.974,-4326.404 6982.172,-4562.608 3177.64,-270.945 5597.783,4019.151 8779.564,3802.173 2661.393,-181.491 4188.672,-3891.592 6843.912,-4147.825 4252.434,-410.364 7774.038,4810.985 12028.697,4424.347 2932.17,-266.458 4669.44,-4259.106 7604.35,-4493.477 3455.11,-275.912 6234.54,4195.494 9678.26,3802.172 2305.2,-263.287 3424.78,-3758.423 5737.82,-3940.434 3257.32,-256.314 5593.16,4494.948 8848.7,4216.956 2586.33,-220.848 3771.27,-4302.667 6359.99,-4493.477 2394.67,-176.508 6429.13,3249.13 6429.13,3249.13"
       id="path6013"
       inkscape:connector-curvature="0"
       sodipodi:nodetypes="csssssssssssssssc" />
    <path
       sodipodi:nodetypes="csssssssssssssssc"
       inkscape:connector-curvature="0"
       id="path6015"
       d="m 14102.606,43914.787 c 0,0 4671.826,-2920.11 7189.564,-2557.825 2874.24,413.583 4159.015,4856.865 7051.304,5115.651 3541.572,316.88 6055.584,-4756.145 9609.128,-4631.738 3156.368,110.503 5068.303,4723.865 8226.521,4700.869 3533.005,-25.724 5598.254,-5184.024 9125.216,-5392.173 3872.513,-228.542 6779.71,5016.67 10646.086,4700.869 2771.022,-226.334 4211.974,-4326.404 6982.172,-4562.608 3177.64,-270.945 5597.783,4019.151 8779.564,3802.173 2661.393,-181.491 4188.672,-3891.592 6843.912,-4147.825 4252.434,-410.364 7774.038,4810.985 12028.697,4424.347 2932.17,-266.458 4669.44,-4259.106 7604.35,-4493.477 3455.11,-275.912 6234.54,4195.494 9678.26,3802.172 2305.2,-263.287 3424.78,-3758.423 5737.82,-3940.434 3257.32,-256.314 5593.16,4494.948 8848.7,4216.956 2586.33,-220.848 3771.27,-4302.667 6359.99,-4493.477 2394.67,-176.508 6429.13,3249.13 6429.13,3249.13"
       style="fill:none;stroke:#000000;stroke-width:364.58364868;stroke-linecap:butt;stroke-linejoin:miter;stroke-miterlimit:4;stroke-dasharray:none;stroke-opacity:1" />
    <path
       style="fill:none;stroke:#000000;stroke-width:416.6670122;stroke-linecap:butt;stroke-linejoin:miter;stroke-miterlimit:4;stroke-dasharray:none;stroke-opacity:1"
       d="m 14102.606,44539.789 c 0,0 4671.826,-2920.11 7189.564,-2557.825 2874.24,413.583 4159.015,4856.865 7051.304,5115.651 3541.572,316.88 6055.584,-4756.145 9609.128,-4631.738 3156.368,110.503 5068.303,4723.865 8226.521,4700.869 3533.005,-25.724 5598.254,-5184.024 9125.216,-5392.173 3872.513,-228.542 6779.71,5016.67 10646.086,4700.869 2771.022,-226.334 4211.974,-4326.404 6982.172,-4562.608 3177.64,-270.945 5597.783,4019.151 8779.564,3802.173 2661.393,-181.491 4188.672,-3891.592 6843.912,-4147.825 4252.434,-410.364 7774.038,4810.985 12028.697,4424.347 2932.17,-266.458 4669.44,-4259.106 7604.35,-4493.477 3455.11,-275.912 6234.54,4195.494 9678.26,3802.172 2305.2,-263.287 3424.78,-3758.423 5737.82,-3940.434 3257.32,-256.314 5593.16,4494.948 8848.7,4216.956 2586.33,-220.848 3771.27,-4302.667 6359.99,-4493.477 2394.67,-176.508 6429.13,3249.13 6429.13,3249.13"
       id="path6017"
       inkscape:connector-curvature="0"
       sodipodi:nodetypes="csssssssssssssssc" />
    <path
       sodipodi:nodetypes="csssssssssssssssc"
       inkscape:connector-curvature="0"
       id="path6019"
       d="m 14102.606,45164.791 c 0,0 4671.826,-2920.11 7189.564,-2557.825 2874.24,413.583 4159.015,4856.865 7051.304,5115.651 3541.572,316.88 6055.584,-4756.145 9609.128,-4631.738 3156.368,110.503 5068.303,4723.865 8226.521,4700.869 3533.005,-25.724 5598.254,-5184.024 9125.216,-5392.173 3872.513,-228.542 6779.71,5016.67 10646.086,4700.869 2771.022,-226.334 4211.974,-4326.404 6982.172,-4562.608 3177.64,-270.945 5597.783,4019.151 8779.564,3802.173 2661.393,-181.491 4188.672,-3891.592 6843.912,-4147.825 4252.434,-410.364 7774.038,4810.985 12028.697,4424.347 2932.17,-266.458 4669.44,-4259.106 7604.35,-4493.477 3455.11,-275.912 6234.54,4195.494 9678.26,3802.172 2305.2,-263.287 3424.78,-3758.423 5737.82,-3940.434 3257.32,-256.314 5593.16,4494.948 8848.7,4216.956 2586.33,-220.848 3771.27,-4302.667 6359.99,-4493.477 2394.67,-176.508 6429.13,3249.13 6429.13,3249.13"
       style="fill:none;stroke:#000000;stroke-width:479.16705322;stroke-linecap:butt;stroke-linejoin:miter;stroke-miterlimit:4;stroke-dasharray:none;stroke-opacity:1" />
    <path
       style="fill:none;stroke:#000000;stroke-width:520.83376525;stroke-linecap:butt;stroke-linejoin:miter;stroke-miterlimit:4;stroke-dasharray:none;stroke-opacity:1"
       d="m 14102.606,45789.793 c 0,0 4671.826,-2920.11 7189.564,-2557.825 2874.24,413.583 4159.015,4856.865 7051.304,5115.651 3541.572,316.88 6055.584,-4756.145 9609.128,-4631.738 3156.368,110.503 5068.303,4723.865 8226.521,4700.869 3533.005,-25.724 5598.254,-5184.024 9125.216,-5392.173 3872.513,-228.542 6779.71,5016.67 10646.086,4700.869 2771.022,-226.334 4211.974,-4326.404 6982.172,-4562.608 3177.64,-270.945 5597.783,4019.151 8779.564,3802.173 2661.393,-181.491 4188.672,-3891.592 6843.912,-4147.825 4252.434,-410.364 7774.038,4810.985 12028.697,4424.347 2932.17,-266.458 4669.44,-4259.106 7604.35,-4493.477 3455.11,-275.912 6234.54,4195.494 9678.26,3802.172 2305.2,-263.287 3424.78,-3758.423 5737.82,-3940.434 3257.32,-256.314 5593.16,4494.948 8848.7,4216.956 2586.33,-220.848 3771.27,-4302.667 6359.99,-4493.477 2394.67,-176.508 6429.13,3249.13 6429.13,3249.13"
       id="path6021"
       inkscape:connector-curvature="0"
       sodipodi:nodetypes="csssssssssssssssc" />
    <path
       sodipodi:nodetypes="csssssssssssssssc"
       inkscape:connector-curvature="0"
       id="path6023"
       d="m 14102.606,46414.795 c 0,0 4671.826,-2920.11 7189.564,-2557.825 2874.24,413.583 4159.015,4856.865 7051.304,5115.651 3541.572,316.88 6055.584,-4756.145 9609.128,-4631.738 3156.368,110.503 5068.303,4723.865 8226.521,4700.869 3533.005,-25.724 5598.254,-5184.024 9125.216,-5392.173 3872.513,-228.542 6779.71,5016.67 10646.086,4700.869 2771.022,-226.334 4211.974,-4326.404 6982.172,-4562.608 3177.64,-270.945 5597.783,4019.151 8779.564,3802.173 2661.393,-181.491 4188.672,-3891.592 6843.912,-4147.825 4252.434,-410.364 7774.038,4810.985 12028.697,4424.347 2932.17,-266.458 4669.44,-4259.106 7604.35,-4493.477 3455.11,-275.912 6234.54,4195.494 9678.26,3802.172 2305.2,-263.287 3424.78,-3758.423 5737.82,-3940.434 3257.32,-256.314 5593.16,4494.948 8848.7,4216.956 2586.33,-220.848 3771.27,-4302.667 6359.99,-4493.477 2394.67,-176.508 6429.13,3249.13 6429.13,3249.13"
       style="fill:none;stroke:#000000;stroke-width:572.91711426;stroke-linecap:butt;stroke-linejoin:miter;stroke-miterlimit:4;stroke-dasharray:none;stroke-opacity:1" />
    <path
       style="fill:none;stroke:#000000;stroke-width:625.0005183;stroke-linecap:butt;stroke-linejoin:miter;stroke-miterlimit:4;stroke-dasharray:none;stroke-opacity:1"
       d="m 14102.606,47039.797 c 0,0 4671.826,-2920.11 7189.564,-2557.825 2874.24,413.583 4159.015,4856.865 7051.304,5115.651 3541.572,316.88 6055.584,-4756.145 9609.128,-4631.738 3156.368,110.503 5068.303,4723.865 8226.521,4700.869 3533.005,-25.724 5598.254,-5184.024 9125.216,-5392.173 3872.513,-228.542 6779.71,5016.67 10646.086,4700.869 2771.022,-226.334 4211.974,-4326.404 6982.172,-4562.608 3177.64,-270.945 5597.783,4019.151 8779.564,3802.173 2661.393,-181.491 4188.672,-3891.592 6843.912,-4147.825 4252.434,-410.364 7774.038,4810.985 12028.697,4424.347 2932.17,-266.458 4669.44,-4259.106 7604.35,-4493.477 3455.11,-275.912 6234.54,4195.494 9678.26,3802.172 2305.2,-263.287 3424.78,-3758.423 5737.82,-3940.434 3257.32,-256.314 5593.16,4494.948 8848.7,4216.956 2586.33,-220.848 3771.27,-4302.667 6359.99,-4493.477 2394.67,-176.508 6429.13,3249.13 6429.13,3249.13"
       id="path6025"
       inkscape:connector-curvature="0"
       sodipodi:nodetypes="csssssssssssssssc" />
    <path
       sodipodi:nodetypes="csssssssssssssssc"
       inkscape:connector-curvature="0"
       id="path6027"
       d="m 14102.606,47664.799 c 0,0 4671.826,-2920.11 7189.564,-2557.825 2874.24,413.583 4159.015,4856.865 7051.304,5115.651 3541.572,316.88 6055.584,-4756.145 9609.128,-4631.738 3156.368,110.503 5068.303,4723.865 8226.521,4700.869 3533.005,-25.724 5598.254,-5184.024 9125.216,-5392.173 3872.513,-228.542 6779.71,5016.67 10646.086,4700.869 2771.022,-226.334 4211.974,-4326.404 6982.172,-4562.608 3177.64,-270.945 5597.783,4019.151 8779.564,3802.173 2661.393,-181.491 4188.672,-3891.592 6843.912,-4147.825 4252.434,-410.364 7774.038,4810.985 12028.697,4424.347 2932.17,-266.458 4669.44,-4259.106 7604.35,-4493.477 3455.11,-275.912 6234.54,4195.494 9678.26,3802.172 2305.2,-263.287 3424.78,-3758.423 5737.82,-3940.434 3257.32,-256.314 5593.16,4494.948 8848.7,4216.956 2586.33,-220.848 3771.27,-4302.667 6359.99,-4493.477 2394.67,-176.508 6429.13,3249.13 6429.13,3249.13"
       style="fill:none;stroke:#000000;stroke-width:677.08389483;stroke-linecap:butt;stroke-linejoin:miter;stroke-miterlimit:4;stroke-dasharray:none;stroke-opacity:1" />
    <path
       style="fill:none;stroke:#000000;stroke-width:729.16727136;stroke-linecap:butt;stroke-linejoin:miter;stroke-miterlimit:4;stroke-dasharray:none;stroke-opacity:1"
       d="m 14102.606,48289.801 c 0,0 4671.826,-2920.11 7189.564,-2557.825 2874.24,413.583 4159.015,4856.865 7051.304,5115.651 3541.572,316.88 6055.584,-4756.145 9609.128,-4631.738 3156.368,110.503 5068.303,4723.865 8226.521,4700.869 3533.005,-25.724 5598.254,-5184.024 9125.216,-5392.173 3872.513,-228.542 6779.71,5016.67 10646.086,4700.869 2771.022,-226.334 4211.974,-4326.404 6982.172,-4562.608 3177.64,-270.945 5597.783,4019.151 8779.564,3802.173 2661.393,-181.491 4188.672,-3891.592 6843.912,-4147.825 4252.434,-410.364 7774.038,4810.985 12028.697,4424.347 2932.17,-266.458 4669.44,-4259.106 7604.35,-4493.477 3455.11,-275.912 6234.54,4195.494 9678.26,3802.172 2305.2,-263.287 3424.78,-3758.423 5737.82,-3940.434 3257.32,-256.314 5593.16,4494.948 8848.7,4216.956 2586.33,-220.848 3771.27,-4302.667 6359.99,-4493.477 2394.67,-176.508 6429.13,3249.13 6429.13,3249.13"
       id="path6029"
       inkscape:connector-curvature="0"
       sodipodi:nodetypes="csssssssssssssssc" />
    <path
       sodipodi:nodetypes="csssssssssssssssc"
       inkscape:connector-curvature="0"
       id="path6082"
       d="m 14102.606,48706.469 c 0,0 4671.826,-2920.11 7189.564,-2557.825 2874.24,413.583 4159.015,4856.865 7051.304,5115.651 3541.572,316.88 6055.584,-4756.145 9609.128,-4631.738 3156.368,110.503 5068.303,4723.865 8226.521,4700.869 3533.005,-25.724 5598.254,-5184.024 9125.216,-5392.173 3872.513,-228.542 6779.71,5016.67 10646.086,4700.869 2771.022,-226.334 4211.974,-4326.404 6982.172,-4562.608 3177.64,-270.945 5597.783,4019.151 8779.564,3802.173 2661.393,-181.491 4188.672,-3891.592 6843.912,-4147.825 4252.434,-410.364 7774.038,4810.985 12028.697,4424.347 2932.17,-266.458 4669.44,-4259.106 7604.35,-4493.477 3455.11,-275.912 6234.54,4195.494 9678.26,3802.172 2305.2,-263.287 3424.78,-3758.423 5737.82,-3940.434 3257.32,-256.314 5593.16,4494.948 8848.7,4216.956 2586.33,-220.848 3771.27,-4302.667 6359.99,-4493.477 2394.67,-176.508 6429.13,3249.13 6429.13,3249.13"
       style="fill:none;stroke:#000000;stroke-width:729.16729736;stroke-linecap:butt;stroke-linejoin:miter;stroke-miterlimit:4;stroke-dasharray:none;stroke-opacity:1" />
  </g>
  <g
     inkscape:groupmode="layer"
     id="layer2"
     inkscape:label="Layer 2"
     style="display:inline;opacity:0.5">
    <g
       style="fill:#c2c200;fill-opacity:0;stroke:#c2c200;stroke-width:47.24409866;stroke-linecap:round;stroke-linejoin:round;stroke-opacity:1"
       id="g1436">
      <path
         d="m 14000,44500 a 1000,1000 0 0 0 1000,1000"
         id="path1424"
         inkscape:connector-curvature="0" />
      <path
         d="m 15000,32500 a 1000,1000 0 0 0 -1000,1000"
         id="path1426"
         inkscape:connector-curvature="0" />
      <path
         d="M 15000,45500 H 144500"
         id="path1428"
         inkscape:connector-curvature="0" />
      <path
         d="M 14000,33500 V 44500"
         id="path1430"
         inkscape:connector-curvature="0" />
      <path
         d="M 144500,32500 H 15000"
         id="path1432"
         inkscape:connector-curvature="0" />
      <path
         d="m 145500,33500 a 1000,1000 0 0 0 -1000,-1000"
         id="path1434"
         inkscape:connector-curvature="0" />
    </g>
    <g
       style="fill:#c2c200;fill-opacity:0;stroke:#c2c200;stroke-width:39.37009811;stroke-linecap:round;stroke-linejoin:round;stroke-opacity:1"
       id="g1482">
      <path
         d="m 144500,45500 a 1000,1000 0 0 0 1000,-1000"
         id="path1438"
         inkscape:connector-curvature="0" />
      <path
         d="M 145500,33500 V 44500"
         id="path1440"
         inkscape:connector-curvature="0" />
      <g
         id="g1442" />
      <g
         id="g1444" />
      <g
         id="g1446" />
      <g
         id="g1448" />
      <g
         id="g1450" />
      <g
         id="g1452" />
      <g
         id="g1454" />
      <g
         id="g1456" />
      <g
         id="g1458" />
      <g
         id="g1460" />
      <g
         id="g1462" />
      <g
         id="g1464" />
      <g
         id="g1466" />
      <g
         id="g1468" />
      <g
         id="g1470" />
      <g
         id="g1472" />
      <g
         id="g1474" />
      <g
         id="g1476" />
      <g
         id="g1478" />
      <g
         id="g1480" />
    </g>
  </g>
  <g
     inkscape:groupmode="layer"
     id="layer1"
     inkscape:label="Layer 1" />
</svg>
